%TF.GenerationSoftware,KiCad,Pcbnew,8.0.2*%
%TF.CreationDate,2024-07-20T19:47:13-05:00*%
%TF.ProjectId,pixel_grid,70697865-6c5f-4677-9269-642e6b696361,rev?*%
%TF.SameCoordinates,Original*%
%TF.FileFunction,Legend,Bot*%
%TF.FilePolarity,Positive*%
%FSLAX46Y46*%
G04 Gerber Fmt 4.6, Leading zero omitted, Abs format (unit mm)*
G04 Created by KiCad (PCBNEW 8.0.2) date 2024-07-20 19:47:13*
%MOMM*%
%LPD*%
G01*
G04 APERTURE LIST*
G04 Aperture macros list*
%AMRoundRect*
0 Rectangle with rounded corners*
0 $1 Rounding radius*
0 $2 $3 $4 $5 $6 $7 $8 $9 X,Y pos of 4 corners*
0 Add a 4 corners polygon primitive as box body*
4,1,4,$2,$3,$4,$5,$6,$7,$8,$9,$2,$3,0*
0 Add four circle primitives for the rounded corners*
1,1,$1+$1,$2,$3*
1,1,$1+$1,$4,$5*
1,1,$1+$1,$6,$7*
1,1,$1+$1,$8,$9*
0 Add four rect primitives between the rounded corners*
20,1,$1+$1,$2,$3,$4,$5,0*
20,1,$1+$1,$4,$5,$6,$7,0*
20,1,$1+$1,$6,$7,$8,$9,0*
20,1,$1+$1,$8,$9,$2,$3,0*%
G04 Aperture macros list end*
%ADD10C,0.250000*%
%ADD11C,0.100000*%
%ADD12C,0.120000*%
%ADD13R,4.000000X1.000000*%
%ADD14R,1.000000X4.000000*%
%ADD15RoundRect,0.250000X0.412500X0.650000X-0.412500X0.650000X-0.412500X-0.650000X0.412500X-0.650000X0*%
%ADD16C,0.500000*%
G04 APERTURE END LIST*
D10*
X75585714Y-57349392D02*
X75357143Y-58149392D01*
X75357143Y-58149392D02*
X75128571Y-57577964D01*
X75128571Y-57577964D02*
X74900000Y-58149392D01*
X74900000Y-58149392D02*
X74671428Y-57349392D01*
X74271428Y-58092250D02*
X74157142Y-58149392D01*
X74157142Y-58149392D02*
X73928571Y-58149392D01*
X73928571Y-58149392D02*
X73814285Y-58092250D01*
X73814285Y-58092250D02*
X73757142Y-57977964D01*
X73757142Y-57977964D02*
X73757142Y-57920821D01*
X73757142Y-57920821D02*
X73814285Y-57806535D01*
X73814285Y-57806535D02*
X73928571Y-57749392D01*
X73928571Y-57749392D02*
X74100000Y-57749392D01*
X74100000Y-57749392D02*
X74214285Y-57692250D01*
X74214285Y-57692250D02*
X74271428Y-57577964D01*
X74271428Y-57577964D02*
X74271428Y-57520821D01*
X74271428Y-57520821D02*
X74214285Y-57406535D01*
X74214285Y-57406535D02*
X74100000Y-57349392D01*
X74100000Y-57349392D02*
X73928571Y-57349392D01*
X73928571Y-57349392D02*
X73814285Y-57406535D01*
X73299999Y-57063678D02*
X73242856Y-57006535D01*
X73242856Y-57006535D02*
X73128571Y-56949392D01*
X73128571Y-56949392D02*
X72842856Y-56949392D01*
X72842856Y-56949392D02*
X72728571Y-57006535D01*
X72728571Y-57006535D02*
X72671428Y-57063678D01*
X72671428Y-57063678D02*
X72614285Y-57177964D01*
X72614285Y-57177964D02*
X72614285Y-57292250D01*
X72614285Y-57292250D02*
X72671428Y-57463678D01*
X72671428Y-57463678D02*
X73357142Y-58149392D01*
X73357142Y-58149392D02*
X72614285Y-58149392D01*
X71928571Y-57463678D02*
X72042856Y-57406535D01*
X72042856Y-57406535D02*
X72099999Y-57349392D01*
X72099999Y-57349392D02*
X72157142Y-57235107D01*
X72157142Y-57235107D02*
X72157142Y-57177964D01*
X72157142Y-57177964D02*
X72099999Y-57063678D01*
X72099999Y-57063678D02*
X72042856Y-57006535D01*
X72042856Y-57006535D02*
X71928571Y-56949392D01*
X71928571Y-56949392D02*
X71699999Y-56949392D01*
X71699999Y-56949392D02*
X71585714Y-57006535D01*
X71585714Y-57006535D02*
X71528571Y-57063678D01*
X71528571Y-57063678D02*
X71471428Y-57177964D01*
X71471428Y-57177964D02*
X71471428Y-57235107D01*
X71471428Y-57235107D02*
X71528571Y-57349392D01*
X71528571Y-57349392D02*
X71585714Y-57406535D01*
X71585714Y-57406535D02*
X71699999Y-57463678D01*
X71699999Y-57463678D02*
X71928571Y-57463678D01*
X71928571Y-57463678D02*
X72042856Y-57520821D01*
X72042856Y-57520821D02*
X72099999Y-57577964D01*
X72099999Y-57577964D02*
X72157142Y-57692250D01*
X72157142Y-57692250D02*
X72157142Y-57920821D01*
X72157142Y-57920821D02*
X72099999Y-58035107D01*
X72099999Y-58035107D02*
X72042856Y-58092250D01*
X72042856Y-58092250D02*
X71928571Y-58149392D01*
X71928571Y-58149392D02*
X71699999Y-58149392D01*
X71699999Y-58149392D02*
X71585714Y-58092250D01*
X71585714Y-58092250D02*
X71528571Y-58035107D01*
X71528571Y-58035107D02*
X71471428Y-57920821D01*
X71471428Y-57920821D02*
X71471428Y-57692250D01*
X71471428Y-57692250D02*
X71528571Y-57577964D01*
X71528571Y-57577964D02*
X71585714Y-57520821D01*
X71585714Y-57520821D02*
X71699999Y-57463678D01*
X70328571Y-58149392D02*
X71014285Y-58149392D01*
X70671428Y-58149392D02*
X70671428Y-56949392D01*
X70671428Y-56949392D02*
X70785714Y-57120821D01*
X70785714Y-57120821D02*
X70899999Y-57235107D01*
X70899999Y-57235107D02*
X71014285Y-57292250D01*
X69871428Y-57063678D02*
X69814285Y-57006535D01*
X69814285Y-57006535D02*
X69700000Y-56949392D01*
X69700000Y-56949392D02*
X69414285Y-56949392D01*
X69414285Y-56949392D02*
X69300000Y-57006535D01*
X69300000Y-57006535D02*
X69242857Y-57063678D01*
X69242857Y-57063678D02*
X69185714Y-57177964D01*
X69185714Y-57177964D02*
X69185714Y-57292250D01*
X69185714Y-57292250D02*
X69242857Y-57463678D01*
X69242857Y-57463678D02*
X69928571Y-58149392D01*
X69928571Y-58149392D02*
X69185714Y-58149392D01*
X68271428Y-57520821D02*
X68100000Y-57577964D01*
X68100000Y-57577964D02*
X68042857Y-57635107D01*
X68042857Y-57635107D02*
X67985714Y-57749392D01*
X67985714Y-57749392D02*
X67985714Y-57920821D01*
X67985714Y-57920821D02*
X68042857Y-58035107D01*
X68042857Y-58035107D02*
X68100000Y-58092250D01*
X68100000Y-58092250D02*
X68214285Y-58149392D01*
X68214285Y-58149392D02*
X68671428Y-58149392D01*
X68671428Y-58149392D02*
X68671428Y-56949392D01*
X68671428Y-56949392D02*
X68271428Y-56949392D01*
X68271428Y-56949392D02*
X68157143Y-57006535D01*
X68157143Y-57006535D02*
X68100000Y-57063678D01*
X68100000Y-57063678D02*
X68042857Y-57177964D01*
X68042857Y-57177964D02*
X68042857Y-57292250D01*
X68042857Y-57292250D02*
X68100000Y-57406535D01*
X68100000Y-57406535D02*
X68157143Y-57463678D01*
X68157143Y-57463678D02*
X68271428Y-57520821D01*
X68271428Y-57520821D02*
X68671428Y-57520821D01*
X65985714Y-58149392D02*
X66557142Y-58149392D01*
X66557142Y-58149392D02*
X66557142Y-56949392D01*
X65585713Y-57520821D02*
X65185713Y-57520821D01*
X65014285Y-58149392D02*
X65585713Y-58149392D01*
X65585713Y-58149392D02*
X65585713Y-56949392D01*
X65585713Y-56949392D02*
X65014285Y-56949392D01*
X64499999Y-58149392D02*
X64499999Y-56949392D01*
X64499999Y-56949392D02*
X64214285Y-56949392D01*
X64214285Y-56949392D02*
X64042856Y-57006535D01*
X64042856Y-57006535D02*
X63928571Y-57120821D01*
X63928571Y-57120821D02*
X63871428Y-57235107D01*
X63871428Y-57235107D02*
X63814285Y-57463678D01*
X63814285Y-57463678D02*
X63814285Y-57635107D01*
X63814285Y-57635107D02*
X63871428Y-57863678D01*
X63871428Y-57863678D02*
X63928571Y-57977964D01*
X63928571Y-57977964D02*
X64042856Y-58092250D01*
X64042856Y-58092250D02*
X64214285Y-58149392D01*
X64214285Y-58149392D02*
X64499999Y-58149392D01*
X62385713Y-58149392D02*
X62385713Y-56949392D01*
X62385713Y-56949392D02*
X61985713Y-57806535D01*
X61985713Y-57806535D02*
X61585713Y-56949392D01*
X61585713Y-56949392D02*
X61585713Y-58149392D01*
X60499999Y-58149392D02*
X60499999Y-57520821D01*
X60499999Y-57520821D02*
X60557141Y-57406535D01*
X60557141Y-57406535D02*
X60671427Y-57349392D01*
X60671427Y-57349392D02*
X60899999Y-57349392D01*
X60899999Y-57349392D02*
X61014284Y-57406535D01*
X60499999Y-58092250D02*
X60614284Y-58149392D01*
X60614284Y-58149392D02*
X60899999Y-58149392D01*
X60899999Y-58149392D02*
X61014284Y-58092250D01*
X61014284Y-58092250D02*
X61071427Y-57977964D01*
X61071427Y-57977964D02*
X61071427Y-57863678D01*
X61071427Y-57863678D02*
X61014284Y-57749392D01*
X61014284Y-57749392D02*
X60899999Y-57692250D01*
X60899999Y-57692250D02*
X60614284Y-57692250D01*
X60614284Y-57692250D02*
X60499999Y-57635107D01*
X60099999Y-57349392D02*
X59642856Y-57349392D01*
X59928570Y-56949392D02*
X59928570Y-57977964D01*
X59928570Y-57977964D02*
X59871427Y-58092250D01*
X59871427Y-58092250D02*
X59757142Y-58149392D01*
X59757142Y-58149392D02*
X59642856Y-58149392D01*
X59242856Y-58149392D02*
X59242856Y-57349392D01*
X59242856Y-57577964D02*
X59185713Y-57463678D01*
X59185713Y-57463678D02*
X59128571Y-57406535D01*
X59128571Y-57406535D02*
X59014285Y-57349392D01*
X59014285Y-57349392D02*
X58899999Y-57349392D01*
X58499999Y-58149392D02*
X58499999Y-57349392D01*
X58499999Y-56949392D02*
X58557142Y-57006535D01*
X58557142Y-57006535D02*
X58499999Y-57063678D01*
X58499999Y-57063678D02*
X58442856Y-57006535D01*
X58442856Y-57006535D02*
X58499999Y-56949392D01*
X58499999Y-56949392D02*
X58499999Y-57063678D01*
X58042856Y-58149392D02*
X57414285Y-57349392D01*
X58042856Y-57349392D02*
X57414285Y-58149392D01*
X73328570Y-61606535D02*
X73385713Y-61549392D01*
X73385713Y-61549392D02*
X73499999Y-61377964D01*
X73499999Y-61377964D02*
X73557142Y-61263678D01*
X73557142Y-61263678D02*
X73614284Y-61092250D01*
X73614284Y-61092250D02*
X73671427Y-60806535D01*
X73671427Y-60806535D02*
X73671427Y-60577964D01*
X73671427Y-60577964D02*
X73614284Y-60292250D01*
X73614284Y-60292250D02*
X73557142Y-60120821D01*
X73557142Y-60120821D02*
X73499999Y-60006535D01*
X73499999Y-60006535D02*
X73385713Y-59835107D01*
X73385713Y-59835107D02*
X73328570Y-59777964D01*
X72357142Y-61092250D02*
X72471427Y-61149392D01*
X72471427Y-61149392D02*
X72699999Y-61149392D01*
X72699999Y-61149392D02*
X72814284Y-61092250D01*
X72814284Y-61092250D02*
X72871427Y-61035107D01*
X72871427Y-61035107D02*
X72928570Y-60920821D01*
X72928570Y-60920821D02*
X72928570Y-60577964D01*
X72928570Y-60577964D02*
X72871427Y-60463678D01*
X72871427Y-60463678D02*
X72814284Y-60406535D01*
X72814284Y-60406535D02*
X72699999Y-60349392D01*
X72699999Y-60349392D02*
X72471427Y-60349392D01*
X72471427Y-60349392D02*
X72357142Y-60406535D01*
X71957142Y-61606535D02*
X71899999Y-61549392D01*
X71899999Y-61549392D02*
X71785713Y-61377964D01*
X71785713Y-61377964D02*
X71728571Y-61263678D01*
X71728571Y-61263678D02*
X71671428Y-61092250D01*
X71671428Y-61092250D02*
X71614285Y-60806535D01*
X71614285Y-60806535D02*
X71614285Y-60577964D01*
X71614285Y-60577964D02*
X71671428Y-60292250D01*
X71671428Y-60292250D02*
X71728571Y-60120821D01*
X71728571Y-60120821D02*
X71785713Y-60006535D01*
X71785713Y-60006535D02*
X71899999Y-59835107D01*
X71899999Y-59835107D02*
X71957142Y-59777964D01*
X70185713Y-60063678D02*
X70128570Y-60006535D01*
X70128570Y-60006535D02*
X70014285Y-59949392D01*
X70014285Y-59949392D02*
X69728570Y-59949392D01*
X69728570Y-59949392D02*
X69614285Y-60006535D01*
X69614285Y-60006535D02*
X69557142Y-60063678D01*
X69557142Y-60063678D02*
X69499999Y-60177964D01*
X69499999Y-60177964D02*
X69499999Y-60292250D01*
X69499999Y-60292250D02*
X69557142Y-60463678D01*
X69557142Y-60463678D02*
X70242856Y-61149392D01*
X70242856Y-61149392D02*
X69499999Y-61149392D01*
X68757142Y-59949392D02*
X68642856Y-59949392D01*
X68642856Y-59949392D02*
X68528570Y-60006535D01*
X68528570Y-60006535D02*
X68471428Y-60063678D01*
X68471428Y-60063678D02*
X68414285Y-60177964D01*
X68414285Y-60177964D02*
X68357142Y-60406535D01*
X68357142Y-60406535D02*
X68357142Y-60692250D01*
X68357142Y-60692250D02*
X68414285Y-60920821D01*
X68414285Y-60920821D02*
X68471428Y-61035107D01*
X68471428Y-61035107D02*
X68528570Y-61092250D01*
X68528570Y-61092250D02*
X68642856Y-61149392D01*
X68642856Y-61149392D02*
X68757142Y-61149392D01*
X68757142Y-61149392D02*
X68871428Y-61092250D01*
X68871428Y-61092250D02*
X68928570Y-61035107D01*
X68928570Y-61035107D02*
X68985713Y-60920821D01*
X68985713Y-60920821D02*
X69042856Y-60692250D01*
X69042856Y-60692250D02*
X69042856Y-60406535D01*
X69042856Y-60406535D02*
X68985713Y-60177964D01*
X68985713Y-60177964D02*
X68928570Y-60063678D01*
X68928570Y-60063678D02*
X68871428Y-60006535D01*
X68871428Y-60006535D02*
X68757142Y-59949392D01*
X67899999Y-60063678D02*
X67842856Y-60006535D01*
X67842856Y-60006535D02*
X67728571Y-59949392D01*
X67728571Y-59949392D02*
X67442856Y-59949392D01*
X67442856Y-59949392D02*
X67328571Y-60006535D01*
X67328571Y-60006535D02*
X67271428Y-60063678D01*
X67271428Y-60063678D02*
X67214285Y-60177964D01*
X67214285Y-60177964D02*
X67214285Y-60292250D01*
X67214285Y-60292250D02*
X67271428Y-60463678D01*
X67271428Y-60463678D02*
X67957142Y-61149392D01*
X67957142Y-61149392D02*
X67214285Y-61149392D01*
X66185714Y-60349392D02*
X66185714Y-61149392D01*
X66471428Y-59892250D02*
X66757142Y-60749392D01*
X66757142Y-60749392D02*
X66014285Y-60749392D01*
X64128571Y-61149392D02*
X64128571Y-60520821D01*
X64128571Y-60520821D02*
X64185713Y-60406535D01*
X64185713Y-60406535D02*
X64299999Y-60349392D01*
X64299999Y-60349392D02*
X64528571Y-60349392D01*
X64528571Y-60349392D02*
X64642856Y-60406535D01*
X64128571Y-61092250D02*
X64242856Y-61149392D01*
X64242856Y-61149392D02*
X64528571Y-61149392D01*
X64528571Y-61149392D02*
X64642856Y-61092250D01*
X64642856Y-61092250D02*
X64699999Y-60977964D01*
X64699999Y-60977964D02*
X64699999Y-60863678D01*
X64699999Y-60863678D02*
X64642856Y-60749392D01*
X64642856Y-60749392D02*
X64528571Y-60692250D01*
X64528571Y-60692250D02*
X64242856Y-60692250D01*
X64242856Y-60692250D02*
X64128571Y-60635107D01*
X63557142Y-61149392D02*
X63557142Y-59949392D01*
X63442857Y-60692250D02*
X63099999Y-61149392D01*
X63099999Y-60349392D02*
X63557142Y-60806535D01*
X62071428Y-60349392D02*
X62071428Y-61149392D01*
X62585713Y-60349392D02*
X62585713Y-60977964D01*
X62585713Y-60977964D02*
X62528570Y-61092250D01*
X62528570Y-61092250D02*
X62414285Y-61149392D01*
X62414285Y-61149392D02*
X62242856Y-61149392D01*
X62242856Y-61149392D02*
X62128570Y-61092250D01*
X62128570Y-61092250D02*
X62071428Y-61035107D01*
X61499999Y-61149392D02*
X61499999Y-59949392D01*
X61385714Y-60692250D02*
X61042856Y-61149392D01*
X61042856Y-60349392D02*
X61499999Y-60806535D01*
X60071427Y-61092250D02*
X60185713Y-61149392D01*
X60185713Y-61149392D02*
X60414285Y-61149392D01*
X60414285Y-61149392D02*
X60528570Y-61092250D01*
X60528570Y-61092250D02*
X60585713Y-60977964D01*
X60585713Y-60977964D02*
X60585713Y-60520821D01*
X60585713Y-60520821D02*
X60528570Y-60406535D01*
X60528570Y-60406535D02*
X60414285Y-60349392D01*
X60414285Y-60349392D02*
X60185713Y-60349392D01*
X60185713Y-60349392D02*
X60071427Y-60406535D01*
X60071427Y-60406535D02*
X60014285Y-60520821D01*
X60014285Y-60520821D02*
X60014285Y-60635107D01*
X60014285Y-60635107D02*
X60585713Y-60749392D01*
X59499999Y-61149392D02*
X59499999Y-60349392D01*
X59499999Y-60577964D02*
X59442856Y-60463678D01*
X59442856Y-60463678D02*
X59385714Y-60406535D01*
X59385714Y-60406535D02*
X59271428Y-60349392D01*
X59271428Y-60349392D02*
X59157142Y-60349392D01*
D11*
X24718377Y-96859133D02*
X24718377Y-96159133D01*
X24718377Y-96159133D02*
X24551710Y-96159133D01*
X24551710Y-96159133D02*
X24451710Y-96192466D01*
X24451710Y-96192466D02*
X24385044Y-96259133D01*
X24385044Y-96259133D02*
X24351710Y-96325800D01*
X24351710Y-96325800D02*
X24318377Y-96459133D01*
X24318377Y-96459133D02*
X24318377Y-96559133D01*
X24318377Y-96559133D02*
X24351710Y-96692466D01*
X24351710Y-96692466D02*
X24385044Y-96759133D01*
X24385044Y-96759133D02*
X24451710Y-96825800D01*
X24451710Y-96825800D02*
X24551710Y-96859133D01*
X24551710Y-96859133D02*
X24718377Y-96859133D01*
X24018377Y-96859133D02*
X24018377Y-96159133D01*
X23685044Y-96859133D02*
X23685044Y-96159133D01*
X23685044Y-96159133D02*
X23285044Y-96859133D01*
X23285044Y-96859133D02*
X23285044Y-96159133D01*
X66842533Y-109500877D02*
X66875866Y-109567544D01*
X66875866Y-109567544D02*
X66875866Y-109667544D01*
X66875866Y-109667544D02*
X66842533Y-109767544D01*
X66842533Y-109767544D02*
X66775866Y-109834211D01*
X66775866Y-109834211D02*
X66709200Y-109867544D01*
X66709200Y-109867544D02*
X66575866Y-109900877D01*
X66575866Y-109900877D02*
X66475866Y-109900877D01*
X66475866Y-109900877D02*
X66342533Y-109867544D01*
X66342533Y-109867544D02*
X66275866Y-109834211D01*
X66275866Y-109834211D02*
X66209200Y-109767544D01*
X66209200Y-109767544D02*
X66175866Y-109667544D01*
X66175866Y-109667544D02*
X66175866Y-109600877D01*
X66175866Y-109600877D02*
X66209200Y-109500877D01*
X66209200Y-109500877D02*
X66242533Y-109467544D01*
X66242533Y-109467544D02*
X66475866Y-109467544D01*
X66475866Y-109467544D02*
X66475866Y-109600877D01*
X66175866Y-109167544D02*
X66875866Y-109167544D01*
X66875866Y-109167544D02*
X66175866Y-108767544D01*
X66175866Y-108767544D02*
X66875866Y-108767544D01*
X66175866Y-108434211D02*
X66875866Y-108434211D01*
X66875866Y-108434211D02*
X66875866Y-108267544D01*
X66875866Y-108267544D02*
X66842533Y-108167544D01*
X66842533Y-108167544D02*
X66775866Y-108100878D01*
X66775866Y-108100878D02*
X66709200Y-108067544D01*
X66709200Y-108067544D02*
X66575866Y-108034211D01*
X66575866Y-108034211D02*
X66475866Y-108034211D01*
X66475866Y-108034211D02*
X66342533Y-108067544D01*
X66342533Y-108067544D02*
X66275866Y-108100878D01*
X66275866Y-108100878D02*
X66209200Y-108167544D01*
X66209200Y-108167544D02*
X66175866Y-108267544D01*
X66175866Y-108267544D02*
X66175866Y-108434211D01*
X109522543Y-108157466D02*
X109589210Y-108124133D01*
X109589210Y-108124133D02*
X109689210Y-108124133D01*
X109689210Y-108124133D02*
X109789210Y-108157466D01*
X109789210Y-108157466D02*
X109855877Y-108224133D01*
X109855877Y-108224133D02*
X109889210Y-108290800D01*
X109889210Y-108290800D02*
X109922543Y-108424133D01*
X109922543Y-108424133D02*
X109922543Y-108524133D01*
X109922543Y-108524133D02*
X109889210Y-108657466D01*
X109889210Y-108657466D02*
X109855877Y-108724133D01*
X109855877Y-108724133D02*
X109789210Y-108790800D01*
X109789210Y-108790800D02*
X109689210Y-108824133D01*
X109689210Y-108824133D02*
X109622543Y-108824133D01*
X109622543Y-108824133D02*
X109522543Y-108790800D01*
X109522543Y-108790800D02*
X109489210Y-108757466D01*
X109489210Y-108757466D02*
X109489210Y-108524133D01*
X109489210Y-108524133D02*
X109622543Y-108524133D01*
X109189210Y-108824133D02*
X109189210Y-108124133D01*
X109189210Y-108124133D02*
X108789210Y-108824133D01*
X108789210Y-108824133D02*
X108789210Y-108124133D01*
X108455877Y-108824133D02*
X108455877Y-108124133D01*
X108455877Y-108124133D02*
X108289210Y-108124133D01*
X108289210Y-108124133D02*
X108189210Y-108157466D01*
X108189210Y-108157466D02*
X108122544Y-108224133D01*
X108122544Y-108224133D02*
X108089210Y-108290800D01*
X108089210Y-108290800D02*
X108055877Y-108424133D01*
X108055877Y-108424133D02*
X108055877Y-108524133D01*
X108055877Y-108524133D02*
X108089210Y-108657466D01*
X108089210Y-108657466D02*
X108122544Y-108724133D01*
X108122544Y-108724133D02*
X108189210Y-108790800D01*
X108189210Y-108790800D02*
X108289210Y-108824133D01*
X108289210Y-108824133D02*
X108455877Y-108824133D01*
X110172543Y-96824133D02*
X110172543Y-96124133D01*
X110172543Y-96124133D02*
X110005876Y-96124133D01*
X110005876Y-96124133D02*
X109905876Y-96157466D01*
X109905876Y-96157466D02*
X109839210Y-96224133D01*
X109839210Y-96224133D02*
X109805876Y-96290800D01*
X109805876Y-96290800D02*
X109772543Y-96424133D01*
X109772543Y-96424133D02*
X109772543Y-96524133D01*
X109772543Y-96524133D02*
X109805876Y-96657466D01*
X109805876Y-96657466D02*
X109839210Y-96724133D01*
X109839210Y-96724133D02*
X109905876Y-96790800D01*
X109905876Y-96790800D02*
X110005876Y-96824133D01*
X110005876Y-96824133D02*
X110172543Y-96824133D01*
X109339210Y-96124133D02*
X109205876Y-96124133D01*
X109205876Y-96124133D02*
X109139210Y-96157466D01*
X109139210Y-96157466D02*
X109072543Y-96224133D01*
X109072543Y-96224133D02*
X109039210Y-96357466D01*
X109039210Y-96357466D02*
X109039210Y-96590800D01*
X109039210Y-96590800D02*
X109072543Y-96724133D01*
X109072543Y-96724133D02*
X109139210Y-96790800D01*
X109139210Y-96790800D02*
X109205876Y-96824133D01*
X109205876Y-96824133D02*
X109339210Y-96824133D01*
X109339210Y-96824133D02*
X109405876Y-96790800D01*
X109405876Y-96790800D02*
X109472543Y-96724133D01*
X109472543Y-96724133D02*
X109505876Y-96590800D01*
X109505876Y-96590800D02*
X109505876Y-96357466D01*
X109505876Y-96357466D02*
X109472543Y-96224133D01*
X109472543Y-96224133D02*
X109405876Y-96157466D01*
X109405876Y-96157466D02*
X109339210Y-96124133D01*
X108739210Y-96124133D02*
X108739210Y-96690800D01*
X108739210Y-96690800D02*
X108705877Y-96757466D01*
X108705877Y-96757466D02*
X108672543Y-96790800D01*
X108672543Y-96790800D02*
X108605877Y-96824133D01*
X108605877Y-96824133D02*
X108472543Y-96824133D01*
X108472543Y-96824133D02*
X108405877Y-96790800D01*
X108405877Y-96790800D02*
X108372543Y-96757466D01*
X108372543Y-96757466D02*
X108339210Y-96690800D01*
X108339210Y-96690800D02*
X108339210Y-96124133D01*
X108105877Y-96124133D02*
X107705877Y-96124133D01*
X107905877Y-96824133D02*
X107905877Y-96124133D01*
X102990866Y-24599211D02*
X102990866Y-24932544D01*
X102990866Y-24932544D02*
X102657533Y-24965877D01*
X102657533Y-24965877D02*
X102690866Y-24932544D01*
X102690866Y-24932544D02*
X102724200Y-24865877D01*
X102724200Y-24865877D02*
X102724200Y-24699211D01*
X102724200Y-24699211D02*
X102690866Y-24632544D01*
X102690866Y-24632544D02*
X102657533Y-24599211D01*
X102657533Y-24599211D02*
X102590866Y-24565877D01*
X102590866Y-24565877D02*
X102424200Y-24565877D01*
X102424200Y-24565877D02*
X102357533Y-24599211D01*
X102357533Y-24599211D02*
X102324200Y-24632544D01*
X102324200Y-24632544D02*
X102290866Y-24699211D01*
X102290866Y-24699211D02*
X102290866Y-24865877D01*
X102290866Y-24865877D02*
X102324200Y-24932544D01*
X102324200Y-24932544D02*
X102357533Y-24965877D01*
X102757533Y-24332544D02*
X102290866Y-24165877D01*
X102290866Y-24165877D02*
X102757533Y-23999210D01*
X24101711Y-102159133D02*
X24435044Y-102159133D01*
X24435044Y-102159133D02*
X24468377Y-102492466D01*
X24468377Y-102492466D02*
X24435044Y-102459133D01*
X24435044Y-102459133D02*
X24368377Y-102425800D01*
X24368377Y-102425800D02*
X24201711Y-102425800D01*
X24201711Y-102425800D02*
X24135044Y-102459133D01*
X24135044Y-102459133D02*
X24101711Y-102492466D01*
X24101711Y-102492466D02*
X24068377Y-102559133D01*
X24068377Y-102559133D02*
X24068377Y-102725800D01*
X24068377Y-102725800D02*
X24101711Y-102792466D01*
X24101711Y-102792466D02*
X24135044Y-102825800D01*
X24135044Y-102825800D02*
X24201711Y-102859133D01*
X24201711Y-102859133D02*
X24368377Y-102859133D01*
X24368377Y-102859133D02*
X24435044Y-102825800D01*
X24435044Y-102825800D02*
X24468377Y-102792466D01*
X23835044Y-102392466D02*
X23668377Y-102859133D01*
X23668377Y-102859133D02*
X23501710Y-102392466D01*
X30890866Y-108784211D02*
X30890866Y-109117544D01*
X30890866Y-109117544D02*
X30557533Y-109150877D01*
X30557533Y-109150877D02*
X30590866Y-109117544D01*
X30590866Y-109117544D02*
X30624200Y-109050877D01*
X30624200Y-109050877D02*
X30624200Y-108884211D01*
X30624200Y-108884211D02*
X30590866Y-108817544D01*
X30590866Y-108817544D02*
X30557533Y-108784211D01*
X30557533Y-108784211D02*
X30490866Y-108750877D01*
X30490866Y-108750877D02*
X30324200Y-108750877D01*
X30324200Y-108750877D02*
X30257533Y-108784211D01*
X30257533Y-108784211D02*
X30224200Y-108817544D01*
X30224200Y-108817544D02*
X30190866Y-108884211D01*
X30190866Y-108884211D02*
X30190866Y-109050877D01*
X30190866Y-109050877D02*
X30224200Y-109117544D01*
X30224200Y-109117544D02*
X30257533Y-109150877D01*
X30657533Y-108517544D02*
X30190866Y-108350877D01*
X30190866Y-108350877D02*
X30657533Y-108184210D01*
X109089210Y-102124133D02*
X109422543Y-102124133D01*
X109422543Y-102124133D02*
X109455876Y-102457466D01*
X109455876Y-102457466D02*
X109422543Y-102424133D01*
X109422543Y-102424133D02*
X109355876Y-102390800D01*
X109355876Y-102390800D02*
X109189210Y-102390800D01*
X109189210Y-102390800D02*
X109122543Y-102424133D01*
X109122543Y-102424133D02*
X109089210Y-102457466D01*
X109089210Y-102457466D02*
X109055876Y-102524133D01*
X109055876Y-102524133D02*
X109055876Y-102690800D01*
X109055876Y-102690800D02*
X109089210Y-102757466D01*
X109089210Y-102757466D02*
X109122543Y-102790800D01*
X109122543Y-102790800D02*
X109189210Y-102824133D01*
X109189210Y-102824133D02*
X109355876Y-102824133D01*
X109355876Y-102824133D02*
X109422543Y-102790800D01*
X109422543Y-102790800D02*
X109455876Y-102757466D01*
X108822543Y-102357466D02*
X108655876Y-102824133D01*
X108655876Y-102824133D02*
X108489209Y-102357466D01*
X109089210Y-63309133D02*
X109422543Y-63309133D01*
X109422543Y-63309133D02*
X109455876Y-63642466D01*
X109455876Y-63642466D02*
X109422543Y-63609133D01*
X109422543Y-63609133D02*
X109355876Y-63575800D01*
X109355876Y-63575800D02*
X109189210Y-63575800D01*
X109189210Y-63575800D02*
X109122543Y-63609133D01*
X109122543Y-63609133D02*
X109089210Y-63642466D01*
X109089210Y-63642466D02*
X109055876Y-63709133D01*
X109055876Y-63709133D02*
X109055876Y-63875800D01*
X109055876Y-63875800D02*
X109089210Y-63942466D01*
X109089210Y-63942466D02*
X109122543Y-63975800D01*
X109122543Y-63975800D02*
X109189210Y-64009133D01*
X109189210Y-64009133D02*
X109355876Y-64009133D01*
X109355876Y-64009133D02*
X109422543Y-63975800D01*
X109422543Y-63975800D02*
X109455876Y-63942466D01*
X108822543Y-63542466D02*
X108655876Y-64009133D01*
X108655876Y-64009133D02*
X108489209Y-63542466D01*
X52375000Y-56400000D02*
X80625000Y-56400000D01*
X80625000Y-64600000D01*
X52375000Y-64600000D01*
X52375000Y-56400000D01*
X102890866Y-108784211D02*
X102890866Y-109117544D01*
X102890866Y-109117544D02*
X102557533Y-109150877D01*
X102557533Y-109150877D02*
X102590866Y-109117544D01*
X102590866Y-109117544D02*
X102624200Y-109050877D01*
X102624200Y-109050877D02*
X102624200Y-108884211D01*
X102624200Y-108884211D02*
X102590866Y-108817544D01*
X102590866Y-108817544D02*
X102557533Y-108784211D01*
X102557533Y-108784211D02*
X102490866Y-108750877D01*
X102490866Y-108750877D02*
X102324200Y-108750877D01*
X102324200Y-108750877D02*
X102257533Y-108784211D01*
X102257533Y-108784211D02*
X102224200Y-108817544D01*
X102224200Y-108817544D02*
X102190866Y-108884211D01*
X102190866Y-108884211D02*
X102190866Y-109050877D01*
X102190866Y-109050877D02*
X102224200Y-109117544D01*
X102224200Y-109117544D02*
X102257533Y-109150877D01*
X102657533Y-108517544D02*
X102190866Y-108350877D01*
X102190866Y-108350877D02*
X102657533Y-108184210D01*
X-5815789Y-62109133D02*
X-5482455Y-62109133D01*
X-5482455Y-62109133D02*
X-5449122Y-62442466D01*
X-5449122Y-62442466D02*
X-5482455Y-62409133D01*
X-5482455Y-62409133D02*
X-5549122Y-62375800D01*
X-5549122Y-62375800D02*
X-5715789Y-62375800D01*
X-5715789Y-62375800D02*
X-5782455Y-62409133D01*
X-5782455Y-62409133D02*
X-5815789Y-62442466D01*
X-5815789Y-62442466D02*
X-5849122Y-62509133D01*
X-5849122Y-62509133D02*
X-5849122Y-62675800D01*
X-5849122Y-62675800D02*
X-5815789Y-62742466D01*
X-5815789Y-62742466D02*
X-5782455Y-62775800D01*
X-5782455Y-62775800D02*
X-5715789Y-62809133D01*
X-5715789Y-62809133D02*
X-5549122Y-62809133D01*
X-5549122Y-62809133D02*
X-5482455Y-62775800D01*
X-5482455Y-62775800D02*
X-5449122Y-62742466D01*
X-6082456Y-62342466D02*
X-6249122Y-62809133D01*
X-6249122Y-62809133D02*
X-6415789Y-62342466D01*
X66807533Y-25032544D02*
X66840866Y-25099211D01*
X66840866Y-25099211D02*
X66840866Y-25199211D01*
X66840866Y-25199211D02*
X66807533Y-25299211D01*
X66807533Y-25299211D02*
X66740866Y-25365878D01*
X66740866Y-25365878D02*
X66674200Y-25399211D01*
X66674200Y-25399211D02*
X66540866Y-25432544D01*
X66540866Y-25432544D02*
X66440866Y-25432544D01*
X66440866Y-25432544D02*
X66307533Y-25399211D01*
X66307533Y-25399211D02*
X66240866Y-25365878D01*
X66240866Y-25365878D02*
X66174200Y-25299211D01*
X66174200Y-25299211D02*
X66140866Y-25199211D01*
X66140866Y-25199211D02*
X66140866Y-25132544D01*
X66140866Y-25132544D02*
X66174200Y-25032544D01*
X66174200Y-25032544D02*
X66207533Y-24999211D01*
X66207533Y-24999211D02*
X66440866Y-24999211D01*
X66440866Y-24999211D02*
X66440866Y-25132544D01*
X66140866Y-24699211D02*
X66840866Y-24699211D01*
X66840866Y-24699211D02*
X66140866Y-24299211D01*
X66140866Y-24299211D02*
X66840866Y-24299211D01*
X66140866Y-23965878D02*
X66840866Y-23965878D01*
X66840866Y-23965878D02*
X66840866Y-23799211D01*
X66840866Y-23799211D02*
X66807533Y-23699211D01*
X66807533Y-23699211D02*
X66740866Y-23632545D01*
X66740866Y-23632545D02*
X66674200Y-23599211D01*
X66674200Y-23599211D02*
X66540866Y-23565878D01*
X66540866Y-23565878D02*
X66440866Y-23565878D01*
X66440866Y-23565878D02*
X66307533Y-23599211D01*
X66307533Y-23599211D02*
X66240866Y-23632545D01*
X66240866Y-23632545D02*
X66174200Y-23699211D01*
X66174200Y-23699211D02*
X66140866Y-23799211D01*
X66140866Y-23799211D02*
X66140866Y-23965878D01*
X110172543Y-36824133D02*
X110172543Y-36124133D01*
X110172543Y-36124133D02*
X110005876Y-36124133D01*
X110005876Y-36124133D02*
X109905876Y-36157466D01*
X109905876Y-36157466D02*
X109839210Y-36224133D01*
X109839210Y-36224133D02*
X109805876Y-36290800D01*
X109805876Y-36290800D02*
X109772543Y-36424133D01*
X109772543Y-36424133D02*
X109772543Y-36524133D01*
X109772543Y-36524133D02*
X109805876Y-36657466D01*
X109805876Y-36657466D02*
X109839210Y-36724133D01*
X109839210Y-36724133D02*
X109905876Y-36790800D01*
X109905876Y-36790800D02*
X110005876Y-36824133D01*
X110005876Y-36824133D02*
X110172543Y-36824133D01*
X109339210Y-36124133D02*
X109205876Y-36124133D01*
X109205876Y-36124133D02*
X109139210Y-36157466D01*
X109139210Y-36157466D02*
X109072543Y-36224133D01*
X109072543Y-36224133D02*
X109039210Y-36357466D01*
X109039210Y-36357466D02*
X109039210Y-36590800D01*
X109039210Y-36590800D02*
X109072543Y-36724133D01*
X109072543Y-36724133D02*
X109139210Y-36790800D01*
X109139210Y-36790800D02*
X109205876Y-36824133D01*
X109205876Y-36824133D02*
X109339210Y-36824133D01*
X109339210Y-36824133D02*
X109405876Y-36790800D01*
X109405876Y-36790800D02*
X109472543Y-36724133D01*
X109472543Y-36724133D02*
X109505876Y-36590800D01*
X109505876Y-36590800D02*
X109505876Y-36357466D01*
X109505876Y-36357466D02*
X109472543Y-36224133D01*
X109472543Y-36224133D02*
X109405876Y-36157466D01*
X109405876Y-36157466D02*
X109339210Y-36124133D01*
X108739210Y-36124133D02*
X108739210Y-36690800D01*
X108739210Y-36690800D02*
X108705877Y-36757466D01*
X108705877Y-36757466D02*
X108672543Y-36790800D01*
X108672543Y-36790800D02*
X108605877Y-36824133D01*
X108605877Y-36824133D02*
X108472543Y-36824133D01*
X108472543Y-36824133D02*
X108405877Y-36790800D01*
X108405877Y-36790800D02*
X108372543Y-36757466D01*
X108372543Y-36757466D02*
X108339210Y-36690800D01*
X108339210Y-36690800D02*
X108339210Y-36124133D01*
X108105877Y-36124133D02*
X107705877Y-36124133D01*
X107905877Y-36824133D02*
X107905877Y-36124133D01*
X24101711Y-30159133D02*
X24435044Y-30159133D01*
X24435044Y-30159133D02*
X24468377Y-30492466D01*
X24468377Y-30492466D02*
X24435044Y-30459133D01*
X24435044Y-30459133D02*
X24368377Y-30425800D01*
X24368377Y-30425800D02*
X24201711Y-30425800D01*
X24201711Y-30425800D02*
X24135044Y-30459133D01*
X24135044Y-30459133D02*
X24101711Y-30492466D01*
X24101711Y-30492466D02*
X24068377Y-30559133D01*
X24068377Y-30559133D02*
X24068377Y-30725800D01*
X24068377Y-30725800D02*
X24101711Y-30792466D01*
X24101711Y-30792466D02*
X24135044Y-30825800D01*
X24135044Y-30825800D02*
X24201711Y-30859133D01*
X24201711Y-30859133D02*
X24368377Y-30859133D01*
X24368377Y-30859133D02*
X24435044Y-30825800D01*
X24435044Y-30825800D02*
X24468377Y-30792466D01*
X23835044Y-30392466D02*
X23668377Y-30859133D01*
X23668377Y-30859133D02*
X23501710Y-30392466D01*
X24101711Y-63174133D02*
X24435044Y-63174133D01*
X24435044Y-63174133D02*
X24468377Y-63507466D01*
X24468377Y-63507466D02*
X24435044Y-63474133D01*
X24435044Y-63474133D02*
X24368377Y-63440800D01*
X24368377Y-63440800D02*
X24201711Y-63440800D01*
X24201711Y-63440800D02*
X24135044Y-63474133D01*
X24135044Y-63474133D02*
X24101711Y-63507466D01*
X24101711Y-63507466D02*
X24068377Y-63574133D01*
X24068377Y-63574133D02*
X24068377Y-63740800D01*
X24068377Y-63740800D02*
X24101711Y-63807466D01*
X24101711Y-63807466D02*
X24135044Y-63840800D01*
X24135044Y-63840800D02*
X24201711Y-63874133D01*
X24201711Y-63874133D02*
X24368377Y-63874133D01*
X24368377Y-63874133D02*
X24435044Y-63840800D01*
X24435044Y-63840800D02*
X24468377Y-63807466D01*
X23835044Y-63407466D02*
X23668377Y-63874133D01*
X23668377Y-63874133D02*
X23501710Y-63407466D01*
X23584211Y-43574133D02*
X23917544Y-43574133D01*
X23917544Y-43574133D02*
X23950877Y-43907466D01*
X23950877Y-43907466D02*
X23917544Y-43874133D01*
X23917544Y-43874133D02*
X23850877Y-43840800D01*
X23850877Y-43840800D02*
X23684211Y-43840800D01*
X23684211Y-43840800D02*
X23617544Y-43874133D01*
X23617544Y-43874133D02*
X23584211Y-43907466D01*
X23584211Y-43907466D02*
X23550877Y-43974133D01*
X23550877Y-43974133D02*
X23550877Y-44140800D01*
X23550877Y-44140800D02*
X23584211Y-44207466D01*
X23584211Y-44207466D02*
X23617544Y-44240800D01*
X23617544Y-44240800D02*
X23684211Y-44274133D01*
X23684211Y-44274133D02*
X23850877Y-44274133D01*
X23850877Y-44274133D02*
X23917544Y-44240800D01*
X23917544Y-44240800D02*
X23950877Y-44207466D01*
X23317544Y-43807466D02*
X23150877Y-44274133D01*
X23150877Y-44274133D02*
X22984210Y-43807466D01*
X24718377Y-36909133D02*
X24718377Y-36209133D01*
X24718377Y-36209133D02*
X24551710Y-36209133D01*
X24551710Y-36209133D02*
X24451710Y-36242466D01*
X24451710Y-36242466D02*
X24385044Y-36309133D01*
X24385044Y-36309133D02*
X24351710Y-36375800D01*
X24351710Y-36375800D02*
X24318377Y-36509133D01*
X24318377Y-36509133D02*
X24318377Y-36609133D01*
X24318377Y-36609133D02*
X24351710Y-36742466D01*
X24351710Y-36742466D02*
X24385044Y-36809133D01*
X24385044Y-36809133D02*
X24451710Y-36875800D01*
X24451710Y-36875800D02*
X24551710Y-36909133D01*
X24551710Y-36909133D02*
X24718377Y-36909133D01*
X24018377Y-36909133D02*
X24018377Y-36209133D01*
X23685044Y-36909133D02*
X23685044Y-36209133D01*
X23685044Y-36209133D02*
X23285044Y-36909133D01*
X23285044Y-36909133D02*
X23285044Y-36209133D01*
X63584211Y-39209133D02*
X63917544Y-39209133D01*
X63917544Y-39209133D02*
X63950877Y-39542466D01*
X63950877Y-39542466D02*
X63917544Y-39509133D01*
X63917544Y-39509133D02*
X63850877Y-39475800D01*
X63850877Y-39475800D02*
X63684211Y-39475800D01*
X63684211Y-39475800D02*
X63617544Y-39509133D01*
X63617544Y-39509133D02*
X63584211Y-39542466D01*
X63584211Y-39542466D02*
X63550877Y-39609133D01*
X63550877Y-39609133D02*
X63550877Y-39775800D01*
X63550877Y-39775800D02*
X63584211Y-39842466D01*
X63584211Y-39842466D02*
X63617544Y-39875800D01*
X63617544Y-39875800D02*
X63684211Y-39909133D01*
X63684211Y-39909133D02*
X63850877Y-39909133D01*
X63850877Y-39909133D02*
X63917544Y-39875800D01*
X63917544Y-39875800D02*
X63950877Y-39842466D01*
X63317544Y-39442466D02*
X63150877Y-39909133D01*
X63150877Y-39909133D02*
X62984210Y-39442466D01*
X109522543Y-24157466D02*
X109589210Y-24124133D01*
X109589210Y-24124133D02*
X109689210Y-24124133D01*
X109689210Y-24124133D02*
X109789210Y-24157466D01*
X109789210Y-24157466D02*
X109855877Y-24224133D01*
X109855877Y-24224133D02*
X109889210Y-24290800D01*
X109889210Y-24290800D02*
X109922543Y-24424133D01*
X109922543Y-24424133D02*
X109922543Y-24524133D01*
X109922543Y-24524133D02*
X109889210Y-24657466D01*
X109889210Y-24657466D02*
X109855877Y-24724133D01*
X109855877Y-24724133D02*
X109789210Y-24790800D01*
X109789210Y-24790800D02*
X109689210Y-24824133D01*
X109689210Y-24824133D02*
X109622543Y-24824133D01*
X109622543Y-24824133D02*
X109522543Y-24790800D01*
X109522543Y-24790800D02*
X109489210Y-24757466D01*
X109489210Y-24757466D02*
X109489210Y-24524133D01*
X109489210Y-24524133D02*
X109622543Y-24524133D01*
X109189210Y-24824133D02*
X109189210Y-24124133D01*
X109189210Y-24124133D02*
X108789210Y-24824133D01*
X108789210Y-24824133D02*
X108789210Y-24124133D01*
X108455877Y-24824133D02*
X108455877Y-24124133D01*
X108455877Y-24124133D02*
X108289210Y-24124133D01*
X108289210Y-24124133D02*
X108189210Y-24157466D01*
X108189210Y-24157466D02*
X108122544Y-24224133D01*
X108122544Y-24224133D02*
X108089210Y-24290800D01*
X108089210Y-24290800D02*
X108055877Y-24424133D01*
X108055877Y-24424133D02*
X108055877Y-24524133D01*
X108055877Y-24524133D02*
X108089210Y-24657466D01*
X108089210Y-24657466D02*
X108122544Y-24724133D01*
X108122544Y-24724133D02*
X108189210Y-24790800D01*
X108189210Y-24790800D02*
X108289210Y-24824133D01*
X108289210Y-24824133D02*
X108455877Y-24824133D01*
X109089210Y-30124133D02*
X109422543Y-30124133D01*
X109422543Y-30124133D02*
X109455876Y-30457466D01*
X109455876Y-30457466D02*
X109422543Y-30424133D01*
X109422543Y-30424133D02*
X109355876Y-30390800D01*
X109355876Y-30390800D02*
X109189210Y-30390800D01*
X109189210Y-30390800D02*
X109122543Y-30424133D01*
X109122543Y-30424133D02*
X109089210Y-30457466D01*
X109089210Y-30457466D02*
X109055876Y-30524133D01*
X109055876Y-30524133D02*
X109055876Y-30690800D01*
X109055876Y-30690800D02*
X109089210Y-30757466D01*
X109089210Y-30757466D02*
X109122543Y-30790800D01*
X109122543Y-30790800D02*
X109189210Y-30824133D01*
X109189210Y-30824133D02*
X109355876Y-30824133D01*
X109355876Y-30824133D02*
X109422543Y-30790800D01*
X109422543Y-30790800D02*
X109455876Y-30757466D01*
X108822543Y-30357466D02*
X108655876Y-30824133D01*
X108655876Y-30824133D02*
X108489209Y-30357466D01*
X-5382455Y-59842466D02*
X-5315788Y-59809133D01*
X-5315788Y-59809133D02*
X-5215788Y-59809133D01*
X-5215788Y-59809133D02*
X-5115788Y-59842466D01*
X-5115788Y-59842466D02*
X-5049122Y-59909133D01*
X-5049122Y-59909133D02*
X-5015788Y-59975800D01*
X-5015788Y-59975800D02*
X-4982455Y-60109133D01*
X-4982455Y-60109133D02*
X-4982455Y-60209133D01*
X-4982455Y-60209133D02*
X-5015788Y-60342466D01*
X-5015788Y-60342466D02*
X-5049122Y-60409133D01*
X-5049122Y-60409133D02*
X-5115788Y-60475800D01*
X-5115788Y-60475800D02*
X-5215788Y-60509133D01*
X-5215788Y-60509133D02*
X-5282455Y-60509133D01*
X-5282455Y-60509133D02*
X-5382455Y-60475800D01*
X-5382455Y-60475800D02*
X-5415788Y-60442466D01*
X-5415788Y-60442466D02*
X-5415788Y-60209133D01*
X-5415788Y-60209133D02*
X-5282455Y-60209133D01*
X-5715788Y-60509133D02*
X-5715788Y-59809133D01*
X-5715788Y-59809133D02*
X-6115788Y-60509133D01*
X-6115788Y-60509133D02*
X-6115788Y-59809133D01*
X-6449121Y-60509133D02*
X-6449121Y-59809133D01*
X-6449121Y-59809133D02*
X-6615788Y-59809133D01*
X-6615788Y-59809133D02*
X-6715788Y-59842466D01*
X-6715788Y-59842466D02*
X-6782455Y-59909133D01*
X-6782455Y-59909133D02*
X-6815788Y-59975800D01*
X-6815788Y-59975800D02*
X-6849121Y-60109133D01*
X-6849121Y-60109133D02*
X-6849121Y-60209133D01*
X-6849121Y-60209133D02*
X-6815788Y-60342466D01*
X-6815788Y-60342466D02*
X-6782455Y-60409133D01*
X-6782455Y-60409133D02*
X-6715788Y-60475800D01*
X-6715788Y-60475800D02*
X-6615788Y-60509133D01*
X-6615788Y-60509133D02*
X-6449121Y-60509133D01*
X30890866Y-24599211D02*
X30890866Y-24932544D01*
X30890866Y-24932544D02*
X30557533Y-24965877D01*
X30557533Y-24965877D02*
X30590866Y-24932544D01*
X30590866Y-24932544D02*
X30624200Y-24865877D01*
X30624200Y-24865877D02*
X30624200Y-24699211D01*
X30624200Y-24699211D02*
X30590866Y-24632544D01*
X30590866Y-24632544D02*
X30557533Y-24599211D01*
X30557533Y-24599211D02*
X30490866Y-24565877D01*
X30490866Y-24565877D02*
X30324200Y-24565877D01*
X30324200Y-24565877D02*
X30257533Y-24599211D01*
X30257533Y-24599211D02*
X30224200Y-24632544D01*
X30224200Y-24632544D02*
X30190866Y-24699211D01*
X30190866Y-24699211D02*
X30190866Y-24865877D01*
X30190866Y-24865877D02*
X30224200Y-24932544D01*
X30224200Y-24932544D02*
X30257533Y-24965877D01*
X30657533Y-24332544D02*
X30190866Y-24165877D01*
X30190866Y-24165877D02*
X30657533Y-23999210D01*
X62907533Y-67550877D02*
X62940866Y-67617544D01*
X62940866Y-67617544D02*
X62940866Y-67717544D01*
X62940866Y-67717544D02*
X62907533Y-67817544D01*
X62907533Y-67817544D02*
X62840866Y-67884211D01*
X62840866Y-67884211D02*
X62774200Y-67917544D01*
X62774200Y-67917544D02*
X62640866Y-67950877D01*
X62640866Y-67950877D02*
X62540866Y-67950877D01*
X62540866Y-67950877D02*
X62407533Y-67917544D01*
X62407533Y-67917544D02*
X62340866Y-67884211D01*
X62340866Y-67884211D02*
X62274200Y-67817544D01*
X62274200Y-67817544D02*
X62240866Y-67717544D01*
X62240866Y-67717544D02*
X62240866Y-67650877D01*
X62240866Y-67650877D02*
X62274200Y-67550877D01*
X62274200Y-67550877D02*
X62307533Y-67517544D01*
X62307533Y-67517544D02*
X62540866Y-67517544D01*
X62540866Y-67517544D02*
X62540866Y-67650877D01*
X62240866Y-67217544D02*
X62940866Y-67217544D01*
X62940866Y-67217544D02*
X62240866Y-66817544D01*
X62240866Y-66817544D02*
X62940866Y-66817544D01*
X62240866Y-66484211D02*
X62940866Y-66484211D01*
X62940866Y-66484211D02*
X62940866Y-66317544D01*
X62940866Y-66317544D02*
X62907533Y-66217544D01*
X62907533Y-66217544D02*
X62840866Y-66150878D01*
X62840866Y-66150878D02*
X62774200Y-66117544D01*
X62774200Y-66117544D02*
X62640866Y-66084211D01*
X62640866Y-66084211D02*
X62540866Y-66084211D01*
X62540866Y-66084211D02*
X62407533Y-66117544D01*
X62407533Y-66117544D02*
X62340866Y-66150878D01*
X62340866Y-66150878D02*
X62274200Y-66217544D01*
X62274200Y-66217544D02*
X62240866Y-66317544D01*
X62240866Y-66317544D02*
X62240866Y-66484211D01*
X24535044Y-108192466D02*
X24601711Y-108159133D01*
X24601711Y-108159133D02*
X24701711Y-108159133D01*
X24701711Y-108159133D02*
X24801711Y-108192466D01*
X24801711Y-108192466D02*
X24868378Y-108259133D01*
X24868378Y-108259133D02*
X24901711Y-108325800D01*
X24901711Y-108325800D02*
X24935044Y-108459133D01*
X24935044Y-108459133D02*
X24935044Y-108559133D01*
X24935044Y-108559133D02*
X24901711Y-108692466D01*
X24901711Y-108692466D02*
X24868378Y-108759133D01*
X24868378Y-108759133D02*
X24801711Y-108825800D01*
X24801711Y-108825800D02*
X24701711Y-108859133D01*
X24701711Y-108859133D02*
X24635044Y-108859133D01*
X24635044Y-108859133D02*
X24535044Y-108825800D01*
X24535044Y-108825800D02*
X24501711Y-108792466D01*
X24501711Y-108792466D02*
X24501711Y-108559133D01*
X24501711Y-108559133D02*
X24635044Y-108559133D01*
X24201711Y-108859133D02*
X24201711Y-108159133D01*
X24201711Y-108159133D02*
X23801711Y-108859133D01*
X23801711Y-108859133D02*
X23801711Y-108159133D01*
X23468378Y-108859133D02*
X23468378Y-108159133D01*
X23468378Y-108159133D02*
X23301711Y-108159133D01*
X23301711Y-108159133D02*
X23201711Y-108192466D01*
X23201711Y-108192466D02*
X23135045Y-108259133D01*
X23135045Y-108259133D02*
X23101711Y-108325800D01*
X23101711Y-108325800D02*
X23068378Y-108459133D01*
X23068378Y-108459133D02*
X23068378Y-108559133D01*
X23068378Y-108559133D02*
X23101711Y-108692466D01*
X23101711Y-108692466D02*
X23135045Y-108759133D01*
X23135045Y-108759133D02*
X23201711Y-108825800D01*
X23201711Y-108825800D02*
X23301711Y-108859133D01*
X23301711Y-108859133D02*
X23468378Y-108859133D01*
D10*
X79471427Y-63349392D02*
X79471427Y-64320821D01*
X79471427Y-64320821D02*
X79528569Y-64435107D01*
X79528569Y-64435107D02*
X79585712Y-64492250D01*
X79585712Y-64492250D02*
X79699998Y-64549392D01*
X79699998Y-64549392D02*
X79871427Y-64549392D01*
X79871427Y-64549392D02*
X79985712Y-64492250D01*
X79471427Y-64092250D02*
X79585712Y-64149392D01*
X79585712Y-64149392D02*
X79814284Y-64149392D01*
X79814284Y-64149392D02*
X79928569Y-64092250D01*
X79928569Y-64092250D02*
X79985712Y-64035107D01*
X79985712Y-64035107D02*
X80042855Y-63920821D01*
X80042855Y-63920821D02*
X80042855Y-63577964D01*
X80042855Y-63577964D02*
X79985712Y-63463678D01*
X79985712Y-63463678D02*
X79928569Y-63406535D01*
X79928569Y-63406535D02*
X79814284Y-63349392D01*
X79814284Y-63349392D02*
X79585712Y-63349392D01*
X79585712Y-63349392D02*
X79471427Y-63406535D01*
X78899998Y-64149392D02*
X78899998Y-63349392D01*
X78899998Y-62949392D02*
X78957141Y-63006535D01*
X78957141Y-63006535D02*
X78899998Y-63063678D01*
X78899998Y-63063678D02*
X78842855Y-63006535D01*
X78842855Y-63006535D02*
X78899998Y-62949392D01*
X78899998Y-62949392D02*
X78899998Y-63063678D01*
X78499998Y-63349392D02*
X78042855Y-63349392D01*
X78328569Y-62949392D02*
X78328569Y-63977964D01*
X78328569Y-63977964D02*
X78271426Y-64092250D01*
X78271426Y-64092250D02*
X78157141Y-64149392D01*
X78157141Y-64149392D02*
X78042855Y-64149392D01*
X77642855Y-64149392D02*
X77642855Y-62949392D01*
X77128570Y-64149392D02*
X77128570Y-63520821D01*
X77128570Y-63520821D02*
X77185712Y-63406535D01*
X77185712Y-63406535D02*
X77299998Y-63349392D01*
X77299998Y-63349392D02*
X77471427Y-63349392D01*
X77471427Y-63349392D02*
X77585712Y-63406535D01*
X77585712Y-63406535D02*
X77642855Y-63463678D01*
X76042856Y-63349392D02*
X76042856Y-64149392D01*
X76557141Y-63349392D02*
X76557141Y-63977964D01*
X76557141Y-63977964D02*
X76499998Y-64092250D01*
X76499998Y-64092250D02*
X76385713Y-64149392D01*
X76385713Y-64149392D02*
X76214284Y-64149392D01*
X76214284Y-64149392D02*
X76099998Y-64092250D01*
X76099998Y-64092250D02*
X76042856Y-64035107D01*
X75471427Y-64149392D02*
X75471427Y-62949392D01*
X75471427Y-63406535D02*
X75357142Y-63349392D01*
X75357142Y-63349392D02*
X75128570Y-63349392D01*
X75128570Y-63349392D02*
X75014284Y-63406535D01*
X75014284Y-63406535D02*
X74957142Y-63463678D01*
X74957142Y-63463678D02*
X74899999Y-63577964D01*
X74899999Y-63577964D02*
X74899999Y-63920821D01*
X74899999Y-63920821D02*
X74957142Y-64035107D01*
X74957142Y-64035107D02*
X75014284Y-64092250D01*
X75014284Y-64092250D02*
X75128570Y-64149392D01*
X75128570Y-64149392D02*
X75357142Y-64149392D01*
X75357142Y-64149392D02*
X75471427Y-64092250D01*
X74385713Y-64035107D02*
X74328570Y-64092250D01*
X74328570Y-64092250D02*
X74385713Y-64149392D01*
X74385713Y-64149392D02*
X74442856Y-64092250D01*
X74442856Y-64092250D02*
X74385713Y-64035107D01*
X74385713Y-64035107D02*
X74385713Y-64149392D01*
X73299999Y-64092250D02*
X73414284Y-64149392D01*
X73414284Y-64149392D02*
X73642856Y-64149392D01*
X73642856Y-64149392D02*
X73757141Y-64092250D01*
X73757141Y-64092250D02*
X73814284Y-64035107D01*
X73814284Y-64035107D02*
X73871427Y-63920821D01*
X73871427Y-63920821D02*
X73871427Y-63577964D01*
X73871427Y-63577964D02*
X73814284Y-63463678D01*
X73814284Y-63463678D02*
X73757141Y-63406535D01*
X73757141Y-63406535D02*
X73642856Y-63349392D01*
X73642856Y-63349392D02*
X73414284Y-63349392D01*
X73414284Y-63349392D02*
X73299999Y-63406535D01*
X72614285Y-64149392D02*
X72728570Y-64092250D01*
X72728570Y-64092250D02*
X72785713Y-64035107D01*
X72785713Y-64035107D02*
X72842856Y-63920821D01*
X72842856Y-63920821D02*
X72842856Y-63577964D01*
X72842856Y-63577964D02*
X72785713Y-63463678D01*
X72785713Y-63463678D02*
X72728570Y-63406535D01*
X72728570Y-63406535D02*
X72614285Y-63349392D01*
X72614285Y-63349392D02*
X72442856Y-63349392D01*
X72442856Y-63349392D02*
X72328570Y-63406535D01*
X72328570Y-63406535D02*
X72271428Y-63463678D01*
X72271428Y-63463678D02*
X72214285Y-63577964D01*
X72214285Y-63577964D02*
X72214285Y-63920821D01*
X72214285Y-63920821D02*
X72271428Y-64035107D01*
X72271428Y-64035107D02*
X72328570Y-64092250D01*
X72328570Y-64092250D02*
X72442856Y-64149392D01*
X72442856Y-64149392D02*
X72614285Y-64149392D01*
X71699999Y-64149392D02*
X71699999Y-63349392D01*
X71699999Y-63463678D02*
X71642856Y-63406535D01*
X71642856Y-63406535D02*
X71528571Y-63349392D01*
X71528571Y-63349392D02*
X71357142Y-63349392D01*
X71357142Y-63349392D02*
X71242856Y-63406535D01*
X71242856Y-63406535D02*
X71185714Y-63520821D01*
X71185714Y-63520821D02*
X71185714Y-64149392D01*
X71185714Y-63520821D02*
X71128571Y-63406535D01*
X71128571Y-63406535D02*
X71014285Y-63349392D01*
X71014285Y-63349392D02*
X70842856Y-63349392D01*
X70842856Y-63349392D02*
X70728571Y-63406535D01*
X70728571Y-63406535D02*
X70671428Y-63520821D01*
X70671428Y-63520821D02*
X70671428Y-64149392D01*
X69242856Y-62892250D02*
X70271428Y-64435107D01*
X68328571Y-64149392D02*
X68328571Y-63520821D01*
X68328571Y-63520821D02*
X68385713Y-63406535D01*
X68385713Y-63406535D02*
X68499999Y-63349392D01*
X68499999Y-63349392D02*
X68728571Y-63349392D01*
X68728571Y-63349392D02*
X68842856Y-63406535D01*
X68328571Y-64092250D02*
X68442856Y-64149392D01*
X68442856Y-64149392D02*
X68728571Y-64149392D01*
X68728571Y-64149392D02*
X68842856Y-64092250D01*
X68842856Y-64092250D02*
X68899999Y-63977964D01*
X68899999Y-63977964D02*
X68899999Y-63863678D01*
X68899999Y-63863678D02*
X68842856Y-63749392D01*
X68842856Y-63749392D02*
X68728571Y-63692250D01*
X68728571Y-63692250D02*
X68442856Y-63692250D01*
X68442856Y-63692250D02*
X68328571Y-63635107D01*
X67757142Y-64149392D02*
X67757142Y-62949392D01*
X67642857Y-63692250D02*
X67299999Y-64149392D01*
X67299999Y-63349392D02*
X67757142Y-63806535D01*
X66271428Y-63349392D02*
X66271428Y-64149392D01*
X66785713Y-63349392D02*
X66785713Y-63977964D01*
X66785713Y-63977964D02*
X66728570Y-64092250D01*
X66728570Y-64092250D02*
X66614285Y-64149392D01*
X66614285Y-64149392D02*
X66442856Y-64149392D01*
X66442856Y-64149392D02*
X66328570Y-64092250D01*
X66328570Y-64092250D02*
X66271428Y-64035107D01*
X65699999Y-64149392D02*
X65699999Y-62949392D01*
X65585714Y-63692250D02*
X65242856Y-64149392D01*
X65242856Y-63349392D02*
X65699999Y-63806535D01*
X64271427Y-64092250D02*
X64385713Y-64149392D01*
X64385713Y-64149392D02*
X64614285Y-64149392D01*
X64614285Y-64149392D02*
X64728570Y-64092250D01*
X64728570Y-64092250D02*
X64785713Y-63977964D01*
X64785713Y-63977964D02*
X64785713Y-63520821D01*
X64785713Y-63520821D02*
X64728570Y-63406535D01*
X64728570Y-63406535D02*
X64614285Y-63349392D01*
X64614285Y-63349392D02*
X64385713Y-63349392D01*
X64385713Y-63349392D02*
X64271427Y-63406535D01*
X64271427Y-63406535D02*
X64214285Y-63520821D01*
X64214285Y-63520821D02*
X64214285Y-63635107D01*
X64214285Y-63635107D02*
X64785713Y-63749392D01*
X63699999Y-64149392D02*
X63699999Y-63349392D01*
X63699999Y-63577964D02*
X63642856Y-63463678D01*
X63642856Y-63463678D02*
X63585714Y-63406535D01*
X63585714Y-63406535D02*
X63471428Y-63349392D01*
X63471428Y-63349392D02*
X63357142Y-63349392D01*
X62099999Y-62892250D02*
X63128571Y-64435107D01*
X61699999Y-63349392D02*
X61699999Y-64549392D01*
X61699999Y-63406535D02*
X61585714Y-63349392D01*
X61585714Y-63349392D02*
X61357142Y-63349392D01*
X61357142Y-63349392D02*
X61242856Y-63406535D01*
X61242856Y-63406535D02*
X61185714Y-63463678D01*
X61185714Y-63463678D02*
X61128571Y-63577964D01*
X61128571Y-63577964D02*
X61128571Y-63920821D01*
X61128571Y-63920821D02*
X61185714Y-64035107D01*
X61185714Y-64035107D02*
X61242856Y-64092250D01*
X61242856Y-64092250D02*
X61357142Y-64149392D01*
X61357142Y-64149392D02*
X61585714Y-64149392D01*
X61585714Y-64149392D02*
X61699999Y-64092250D01*
X60614285Y-64149392D02*
X60614285Y-63349392D01*
X60614285Y-62949392D02*
X60671428Y-63006535D01*
X60671428Y-63006535D02*
X60614285Y-63063678D01*
X60614285Y-63063678D02*
X60557142Y-63006535D01*
X60557142Y-63006535D02*
X60614285Y-62949392D01*
X60614285Y-62949392D02*
X60614285Y-63063678D01*
X60157142Y-64149392D02*
X59528571Y-63349392D01*
X60157142Y-63349392D02*
X59528571Y-64149392D01*
X58614284Y-64092250D02*
X58728570Y-64149392D01*
X58728570Y-64149392D02*
X58957142Y-64149392D01*
X58957142Y-64149392D02*
X59071427Y-64092250D01*
X59071427Y-64092250D02*
X59128570Y-63977964D01*
X59128570Y-63977964D02*
X59128570Y-63520821D01*
X59128570Y-63520821D02*
X59071427Y-63406535D01*
X59071427Y-63406535D02*
X58957142Y-63349392D01*
X58957142Y-63349392D02*
X58728570Y-63349392D01*
X58728570Y-63349392D02*
X58614284Y-63406535D01*
X58614284Y-63406535D02*
X58557142Y-63520821D01*
X58557142Y-63520821D02*
X58557142Y-63635107D01*
X58557142Y-63635107D02*
X59128570Y-63749392D01*
X57871428Y-64149392D02*
X57985713Y-64092250D01*
X57985713Y-64092250D02*
X58042856Y-63977964D01*
X58042856Y-63977964D02*
X58042856Y-62949392D01*
X57414285Y-63692250D02*
X56500000Y-63692250D01*
X55414286Y-63349392D02*
X55414286Y-64320821D01*
X55414286Y-64320821D02*
X55471428Y-64435107D01*
X55471428Y-64435107D02*
X55528571Y-64492250D01*
X55528571Y-64492250D02*
X55642857Y-64549392D01*
X55642857Y-64549392D02*
X55814286Y-64549392D01*
X55814286Y-64549392D02*
X55928571Y-64492250D01*
X55414286Y-64092250D02*
X55528571Y-64149392D01*
X55528571Y-64149392D02*
X55757143Y-64149392D01*
X55757143Y-64149392D02*
X55871428Y-64092250D01*
X55871428Y-64092250D02*
X55928571Y-64035107D01*
X55928571Y-64035107D02*
X55985714Y-63920821D01*
X55985714Y-63920821D02*
X55985714Y-63577964D01*
X55985714Y-63577964D02*
X55928571Y-63463678D01*
X55928571Y-63463678D02*
X55871428Y-63406535D01*
X55871428Y-63406535D02*
X55757143Y-63349392D01*
X55757143Y-63349392D02*
X55528571Y-63349392D01*
X55528571Y-63349392D02*
X55414286Y-63406535D01*
X54842857Y-64149392D02*
X54842857Y-63349392D01*
X54842857Y-63577964D02*
X54785714Y-63463678D01*
X54785714Y-63463678D02*
X54728572Y-63406535D01*
X54728572Y-63406535D02*
X54614286Y-63349392D01*
X54614286Y-63349392D02*
X54500000Y-63349392D01*
X54100000Y-64149392D02*
X54100000Y-63349392D01*
X54100000Y-62949392D02*
X54157143Y-63006535D01*
X54157143Y-63006535D02*
X54100000Y-63063678D01*
X54100000Y-63063678D02*
X54042857Y-63006535D01*
X54042857Y-63006535D02*
X54100000Y-62949392D01*
X54100000Y-62949392D02*
X54100000Y-63063678D01*
X53014286Y-64149392D02*
X53014286Y-62949392D01*
X53014286Y-64092250D02*
X53128571Y-64149392D01*
X53128571Y-64149392D02*
X53357143Y-64149392D01*
X53357143Y-64149392D02*
X53471428Y-64092250D01*
X53471428Y-64092250D02*
X53528571Y-64035107D01*
X53528571Y-64035107D02*
X53585714Y-63920821D01*
X53585714Y-63920821D02*
X53585714Y-63577964D01*
X53585714Y-63577964D02*
X53528571Y-63463678D01*
X53528571Y-63463678D02*
X53471428Y-63406535D01*
X53471428Y-63406535D02*
X53357143Y-63349392D01*
X53357143Y-63349392D02*
X53128571Y-63349392D01*
X53128571Y-63349392D02*
X53014286Y-63406535D01*
D11*
X24535044Y-24157466D02*
X24601711Y-24124133D01*
X24601711Y-24124133D02*
X24701711Y-24124133D01*
X24701711Y-24124133D02*
X24801711Y-24157466D01*
X24801711Y-24157466D02*
X24868378Y-24224133D01*
X24868378Y-24224133D02*
X24901711Y-24290800D01*
X24901711Y-24290800D02*
X24935044Y-24424133D01*
X24935044Y-24424133D02*
X24935044Y-24524133D01*
X24935044Y-24524133D02*
X24901711Y-24657466D01*
X24901711Y-24657466D02*
X24868378Y-24724133D01*
X24868378Y-24724133D02*
X24801711Y-24790800D01*
X24801711Y-24790800D02*
X24701711Y-24824133D01*
X24701711Y-24824133D02*
X24635044Y-24824133D01*
X24635044Y-24824133D02*
X24535044Y-24790800D01*
X24535044Y-24790800D02*
X24501711Y-24757466D01*
X24501711Y-24757466D02*
X24501711Y-24524133D01*
X24501711Y-24524133D02*
X24635044Y-24524133D01*
X24201711Y-24824133D02*
X24201711Y-24124133D01*
X24201711Y-24124133D02*
X23801711Y-24824133D01*
X23801711Y-24824133D02*
X23801711Y-24124133D01*
X23468378Y-24824133D02*
X23468378Y-24124133D01*
X23468378Y-24124133D02*
X23301711Y-24124133D01*
X23301711Y-24124133D02*
X23201711Y-24157466D01*
X23201711Y-24157466D02*
X23135045Y-24224133D01*
X23135045Y-24224133D02*
X23101711Y-24290800D01*
X23101711Y-24290800D02*
X23068378Y-24424133D01*
X23068378Y-24424133D02*
X23068378Y-24524133D01*
X23068378Y-24524133D02*
X23101711Y-24657466D01*
X23101711Y-24657466D02*
X23135045Y-24724133D01*
X23135045Y-24724133D02*
X23201711Y-24790800D01*
X23201711Y-24790800D02*
X23301711Y-24824133D01*
X23301711Y-24824133D02*
X23468378Y-24824133D01*
X109522543Y-69192466D02*
X109589210Y-69159133D01*
X109589210Y-69159133D02*
X109689210Y-69159133D01*
X109689210Y-69159133D02*
X109789210Y-69192466D01*
X109789210Y-69192466D02*
X109855877Y-69259133D01*
X109855877Y-69259133D02*
X109889210Y-69325800D01*
X109889210Y-69325800D02*
X109922543Y-69459133D01*
X109922543Y-69459133D02*
X109922543Y-69559133D01*
X109922543Y-69559133D02*
X109889210Y-69692466D01*
X109889210Y-69692466D02*
X109855877Y-69759133D01*
X109855877Y-69759133D02*
X109789210Y-69825800D01*
X109789210Y-69825800D02*
X109689210Y-69859133D01*
X109689210Y-69859133D02*
X109622543Y-69859133D01*
X109622543Y-69859133D02*
X109522543Y-69825800D01*
X109522543Y-69825800D02*
X109489210Y-69792466D01*
X109489210Y-69792466D02*
X109489210Y-69559133D01*
X109489210Y-69559133D02*
X109622543Y-69559133D01*
X109189210Y-69859133D02*
X109189210Y-69159133D01*
X109189210Y-69159133D02*
X108789210Y-69859133D01*
X108789210Y-69859133D02*
X108789210Y-69159133D01*
X108455877Y-69859133D02*
X108455877Y-69159133D01*
X108455877Y-69159133D02*
X108289210Y-69159133D01*
X108289210Y-69159133D02*
X108189210Y-69192466D01*
X108189210Y-69192466D02*
X108122544Y-69259133D01*
X108122544Y-69259133D02*
X108089210Y-69325800D01*
X108089210Y-69325800D02*
X108055877Y-69459133D01*
X108055877Y-69459133D02*
X108055877Y-69559133D01*
X108055877Y-69559133D02*
X108089210Y-69692466D01*
X108089210Y-69692466D02*
X108122544Y-69759133D01*
X108122544Y-69759133D02*
X108189210Y-69825800D01*
X108189210Y-69825800D02*
X108289210Y-69859133D01*
X108289210Y-69859133D02*
X108455877Y-69859133D01*
X24535044Y-69307466D02*
X24601711Y-69274133D01*
X24601711Y-69274133D02*
X24701711Y-69274133D01*
X24701711Y-69274133D02*
X24801711Y-69307466D01*
X24801711Y-69307466D02*
X24868378Y-69374133D01*
X24868378Y-69374133D02*
X24901711Y-69440800D01*
X24901711Y-69440800D02*
X24935044Y-69574133D01*
X24935044Y-69574133D02*
X24935044Y-69674133D01*
X24935044Y-69674133D02*
X24901711Y-69807466D01*
X24901711Y-69807466D02*
X24868378Y-69874133D01*
X24868378Y-69874133D02*
X24801711Y-69940800D01*
X24801711Y-69940800D02*
X24701711Y-69974133D01*
X24701711Y-69974133D02*
X24635044Y-69974133D01*
X24635044Y-69974133D02*
X24535044Y-69940800D01*
X24535044Y-69940800D02*
X24501711Y-69907466D01*
X24501711Y-69907466D02*
X24501711Y-69674133D01*
X24501711Y-69674133D02*
X24635044Y-69674133D01*
X24201711Y-69974133D02*
X24201711Y-69274133D01*
X24201711Y-69274133D02*
X23801711Y-69974133D01*
X23801711Y-69974133D02*
X23801711Y-69274133D01*
X23468378Y-69974133D02*
X23468378Y-69274133D01*
X23468378Y-69274133D02*
X23301711Y-69274133D01*
X23301711Y-69274133D02*
X23201711Y-69307466D01*
X23201711Y-69307466D02*
X23135045Y-69374133D01*
X23135045Y-69374133D02*
X23101711Y-69440800D01*
X23101711Y-69440800D02*
X23068378Y-69574133D01*
X23068378Y-69574133D02*
X23068378Y-69674133D01*
X23068378Y-69674133D02*
X23101711Y-69807466D01*
X23101711Y-69807466D02*
X23135045Y-69874133D01*
X23135045Y-69874133D02*
X23201711Y-69940800D01*
X23201711Y-69940800D02*
X23301711Y-69974133D01*
X23301711Y-69974133D02*
X23468378Y-69974133D01*
X63450877Y-45142466D02*
X63517544Y-45109133D01*
X63517544Y-45109133D02*
X63617544Y-45109133D01*
X63617544Y-45109133D02*
X63717544Y-45142466D01*
X63717544Y-45142466D02*
X63784211Y-45209133D01*
X63784211Y-45209133D02*
X63817544Y-45275800D01*
X63817544Y-45275800D02*
X63850877Y-45409133D01*
X63850877Y-45409133D02*
X63850877Y-45509133D01*
X63850877Y-45509133D02*
X63817544Y-45642466D01*
X63817544Y-45642466D02*
X63784211Y-45709133D01*
X63784211Y-45709133D02*
X63717544Y-45775800D01*
X63717544Y-45775800D02*
X63617544Y-45809133D01*
X63617544Y-45809133D02*
X63550877Y-45809133D01*
X63550877Y-45809133D02*
X63450877Y-45775800D01*
X63450877Y-45775800D02*
X63417544Y-45742466D01*
X63417544Y-45742466D02*
X63417544Y-45509133D01*
X63417544Y-45509133D02*
X63550877Y-45509133D01*
X63117544Y-45809133D02*
X63117544Y-45109133D01*
X63117544Y-45109133D02*
X62717544Y-45809133D01*
X62717544Y-45809133D02*
X62717544Y-45109133D01*
X62384211Y-45809133D02*
X62384211Y-45109133D01*
X62384211Y-45109133D02*
X62217544Y-45109133D01*
X62217544Y-45109133D02*
X62117544Y-45142466D01*
X62117544Y-45142466D02*
X62050878Y-45209133D01*
X62050878Y-45209133D02*
X62017544Y-45275800D01*
X62017544Y-45275800D02*
X61984211Y-45409133D01*
X61984211Y-45409133D02*
X61984211Y-45509133D01*
X61984211Y-45509133D02*
X62017544Y-45642466D01*
X62017544Y-45642466D02*
X62050878Y-45709133D01*
X62050878Y-45709133D02*
X62117544Y-45775800D01*
X62117544Y-45775800D02*
X62217544Y-45809133D01*
X62217544Y-45809133D02*
X62384211Y-45809133D01*
D12*
%TO.C,C25*%
X97788748Y-98590000D02*
X99211252Y-98590000D01*
X97788748Y-100410000D02*
X99211252Y-100410000D01*
%TO.C,C24*%
X81788748Y-98590000D02*
X83211252Y-98590000D01*
X81788748Y-100410000D02*
X83211252Y-100410000D01*
%TO.C,C23*%
X65788748Y-98590000D02*
X67211252Y-98590000D01*
X65788748Y-100410000D02*
X67211252Y-100410000D01*
%TO.C,C22*%
X49788748Y-98590000D02*
X51211252Y-98590000D01*
X49788748Y-100410000D02*
X51211252Y-100410000D01*
%TO.C,C21*%
X33788748Y-98590000D02*
X35211252Y-98590000D01*
X33788748Y-100410000D02*
X35211252Y-100410000D01*
%TO.C,C20*%
X97788748Y-80590000D02*
X99211252Y-80590000D01*
X97788748Y-82410000D02*
X99211252Y-82410000D01*
%TO.C,C19*%
X81788748Y-80590000D02*
X83211252Y-80590000D01*
X81788748Y-82410000D02*
X83211252Y-82410000D01*
%TO.C,C18*%
X65788748Y-80590000D02*
X67211252Y-80590000D01*
X65788748Y-82410000D02*
X67211252Y-82410000D01*
%TO.C,C17*%
X49788748Y-80590000D02*
X51211252Y-80590000D01*
X49788748Y-82410000D02*
X51211252Y-82410000D01*
%TO.C,C16*%
X33788748Y-80590000D02*
X35211252Y-80590000D01*
X33788748Y-82410000D02*
X35211252Y-82410000D01*
%TO.C,C15*%
X97788748Y-65590000D02*
X99211252Y-65590000D01*
X97788748Y-67410000D02*
X99211252Y-67410000D01*
%TO.C,C14*%
X81788748Y-65590000D02*
X83211252Y-65590000D01*
X81788748Y-67410000D02*
X83211252Y-67410000D01*
%TO.C,C13*%
X65788748Y-65590000D02*
X67211252Y-65590000D01*
X65788748Y-67410000D02*
X67211252Y-67410000D01*
%TO.C,C12*%
X49788748Y-65590000D02*
X51211252Y-65590000D01*
X49788748Y-67410000D02*
X51211252Y-67410000D01*
%TO.C,C11*%
X33788748Y-65590000D02*
X35211252Y-65590000D01*
X33788748Y-67410000D02*
X35211252Y-67410000D01*
%TO.C,C10*%
X97788748Y-50490000D02*
X99211252Y-50490000D01*
X97788748Y-52310000D02*
X99211252Y-52310000D01*
%TO.C,C9*%
X81788748Y-50490000D02*
X83211252Y-50490000D01*
X81788748Y-52310000D02*
X83211252Y-52310000D01*
%TO.C,C8*%
X65788748Y-50490000D02*
X67211252Y-50490000D01*
X65788748Y-52310000D02*
X67211252Y-52310000D01*
%TO.C,C7*%
X49788748Y-50490000D02*
X51211252Y-50490000D01*
X49788748Y-52310000D02*
X51211252Y-52310000D01*
%TO.C,C6*%
X33788748Y-50490000D02*
X35211252Y-50490000D01*
X33788748Y-52310000D02*
X35211252Y-52310000D01*
%TO.C,C5*%
X97788748Y-32590000D02*
X99211252Y-32590000D01*
X97788748Y-34410000D02*
X99211252Y-34410000D01*
%TO.C,C4*%
X81788748Y-32590000D02*
X83211252Y-32590000D01*
X81788748Y-34410000D02*
X83211252Y-34410000D01*
%TO.C,C3*%
X65788748Y-32590000D02*
X67211252Y-32590000D01*
X65788748Y-34410000D02*
X67211252Y-34410000D01*
%TO.C,C2*%
X49788748Y-32590000D02*
X51211252Y-32590000D01*
X49788748Y-34410000D02*
X51211252Y-34410000D01*
%TO.C,C1*%
X33788748Y-32590000D02*
X35211252Y-32590000D01*
X33788748Y-34410000D02*
X35211252Y-34410000D01*
%TD*%
%LPC*%
D13*
%TO.C,TP34*%
X66500000Y-93500000D03*
%TD*%
%TO.C,TP33*%
X66400000Y-45500000D03*
%TD*%
%TO.C,TP32*%
X20500000Y-69650000D03*
%TD*%
%TO.C,TP31*%
X112550000Y-69650000D03*
%TD*%
D14*
%TO.C,TP30*%
X24500000Y-20550000D03*
%TD*%
D13*
%TO.C,TP29*%
X66400000Y-39600000D03*
%TD*%
%TO.C,TP28*%
X112550000Y-63750000D03*
%TD*%
%TO.C,TP27*%
X20500000Y-63550000D03*
%TD*%
%TO.C,TP26*%
X27500000Y-30500000D03*
%TD*%
%TO.C,TP25*%
X112550000Y-102500000D03*
%TD*%
%TO.C,TP24*%
X20500000Y-102500000D03*
%TD*%
D14*
%TO.C,TP23*%
X30500000Y-112475000D03*
%TD*%
%TO.C,TP22*%
X102500000Y-112475000D03*
%TD*%
%TO.C,TP21*%
X30500000Y-20575000D03*
%TD*%
%TO.C,TP20*%
X102500000Y-20575000D03*
%TD*%
D13*
%TO.C,TP19*%
X105500000Y-30500000D03*
%TD*%
%TO.C,TP18*%
X66500000Y-87500000D03*
%TD*%
%TO.C,TP17*%
X112550000Y-30500000D03*
%TD*%
%TO.C,TP16*%
X20500000Y-30500000D03*
%TD*%
D14*
%TO.C,TP15*%
X108500000Y-112500000D03*
%TD*%
D13*
%TO.C,TP14*%
X112550000Y-108500000D03*
%TD*%
D14*
%TO.C,TP13*%
X66500000Y-20575000D03*
%TD*%
%TO.C,TP12*%
X108500000Y-20575000D03*
%TD*%
%TO.C,TP11*%
X66500000Y-112475000D03*
%TD*%
%TO.C,TP10*%
X24500000Y-112475000D03*
%TD*%
D13*
%TO.C,TP9*%
X112450000Y-24500000D03*
%TD*%
%TO.C,TP8*%
X20500000Y-108500000D03*
%TD*%
%TO.C,TP7*%
X20500000Y-24500000D03*
%TD*%
%TO.C,TP6*%
X105400000Y-36500000D03*
%TD*%
%TO.C,TP5*%
X112550000Y-96500000D03*
%TD*%
%TO.C,TP4*%
X112550000Y-36500000D03*
%TD*%
%TO.C,TP3*%
X27500000Y-36500000D03*
%TD*%
%TO.C,TP2*%
X20500000Y-96500000D03*
%TD*%
%TO.C,TP1*%
X20500000Y-36500000D03*
%TD*%
D15*
%TO.C,C25*%
X100062500Y-99500000D03*
X96937500Y-99500000D03*
%TD*%
%TO.C,C24*%
X84062500Y-99500000D03*
X80937500Y-99500000D03*
%TD*%
%TO.C,C23*%
X68062500Y-99500000D03*
X64937500Y-99500000D03*
%TD*%
%TO.C,C22*%
X52062500Y-99500000D03*
X48937500Y-99500000D03*
%TD*%
%TO.C,C21*%
X36062500Y-99500000D03*
X32937500Y-99500000D03*
%TD*%
%TO.C,C20*%
X100062500Y-81500000D03*
X96937500Y-81500000D03*
%TD*%
%TO.C,C19*%
X84062500Y-81500000D03*
X80937500Y-81500000D03*
%TD*%
%TO.C,C18*%
X68062500Y-81500000D03*
X64937500Y-81500000D03*
%TD*%
%TO.C,C17*%
X52062500Y-81500000D03*
X48937500Y-81500000D03*
%TD*%
%TO.C,C16*%
X36062500Y-81500000D03*
X32937500Y-81500000D03*
%TD*%
%TO.C,C15*%
X100062500Y-66500000D03*
X96937500Y-66500000D03*
%TD*%
%TO.C,C14*%
X84062500Y-66500000D03*
X80937500Y-66500000D03*
%TD*%
%TO.C,C13*%
X68062500Y-66500000D03*
X64937500Y-66500000D03*
%TD*%
%TO.C,C12*%
X52062500Y-66500000D03*
X48937500Y-66500000D03*
%TD*%
%TO.C,C11*%
X36062500Y-66500000D03*
X32937500Y-66500000D03*
%TD*%
%TO.C,C10*%
X100062500Y-51400000D03*
X96937500Y-51400000D03*
%TD*%
%TO.C,C9*%
X84062500Y-51400000D03*
X80937500Y-51400000D03*
%TD*%
%TO.C,C8*%
X68062500Y-51400000D03*
X64937500Y-51400000D03*
%TD*%
%TO.C,C7*%
X52062500Y-51400000D03*
X48937500Y-51400000D03*
%TD*%
%TO.C,C6*%
X36062500Y-51400000D03*
X32937500Y-51400000D03*
%TD*%
%TO.C,C5*%
X100062500Y-33500000D03*
X96937500Y-33500000D03*
%TD*%
%TO.C,C4*%
X84062500Y-33500000D03*
X80937500Y-33500000D03*
%TD*%
%TO.C,C3*%
X68062500Y-33500000D03*
X64937500Y-33500000D03*
%TD*%
%TO.C,C2*%
X52062500Y-33500000D03*
X48937500Y-33500000D03*
%TD*%
%TO.C,C1*%
X36062500Y-33500000D03*
X32937500Y-33500000D03*
%TD*%
D16*
%TO.C,D1024*%
X113425000Y-113000000D03*
X112575000Y-113000000D03*
%TD*%
%TO.C,D1023*%
X110425000Y-113000000D03*
X109575000Y-113000000D03*
%TD*%
%TO.C,D1022*%
X107425000Y-113000000D03*
X106575000Y-113000000D03*
%TD*%
%TO.C,D1021*%
X104425000Y-113000000D03*
X103575000Y-113000000D03*
%TD*%
%TO.C,D1020*%
X101425000Y-113000000D03*
X100575000Y-113000000D03*
%TD*%
%TO.C,D1019*%
X98425000Y-113000000D03*
X97575000Y-113000000D03*
%TD*%
%TO.C,D1018*%
X95425000Y-113000000D03*
X94575000Y-113000000D03*
%TD*%
%TO.C,D1017*%
X92425000Y-113000000D03*
X91575000Y-113000000D03*
%TD*%
%TO.C,D1016*%
X89425000Y-113000000D03*
X88575000Y-113000000D03*
%TD*%
%TO.C,D1015*%
X86425000Y-113000000D03*
X85575000Y-113000000D03*
%TD*%
%TO.C,D1014*%
X83425000Y-113000000D03*
X82575000Y-113000000D03*
%TD*%
%TO.C,D1013*%
X80425000Y-113000000D03*
X79575000Y-113000000D03*
%TD*%
%TO.C,D1012*%
X77425000Y-113000000D03*
X76575000Y-113000000D03*
%TD*%
%TO.C,D1011*%
X74425000Y-113000000D03*
X73575000Y-113000000D03*
%TD*%
%TO.C,D1010*%
X71425000Y-113000000D03*
X70575000Y-113000000D03*
%TD*%
%TO.C,D1009*%
X68425000Y-113000000D03*
X67575000Y-113000000D03*
%TD*%
%TO.C,D1008*%
X65425000Y-113000000D03*
X64575000Y-113000000D03*
%TD*%
%TO.C,D1007*%
X62425000Y-113000000D03*
X61575000Y-113000000D03*
%TD*%
%TO.C,D1006*%
X59425000Y-113000000D03*
X58575000Y-113000000D03*
%TD*%
%TO.C,D1005*%
X56425000Y-113000000D03*
X55575000Y-113000000D03*
%TD*%
%TO.C,D1004*%
X53425000Y-113000000D03*
X52575000Y-113000000D03*
%TD*%
%TO.C,D1003*%
X50425000Y-113000000D03*
X49575000Y-113000000D03*
%TD*%
%TO.C,D1002*%
X47425000Y-113000000D03*
X46575000Y-113000000D03*
%TD*%
%TO.C,D1001*%
X44425000Y-113000000D03*
X43575000Y-113000000D03*
%TD*%
%TO.C,D1000*%
X41425000Y-113000000D03*
X40575000Y-113000000D03*
%TD*%
%TO.C,D999*%
X38425000Y-113000000D03*
X37575000Y-113000000D03*
%TD*%
%TO.C,D998*%
X35425000Y-113000000D03*
X34575000Y-113000000D03*
%TD*%
%TO.C,D997*%
X32425000Y-113000000D03*
X31575000Y-113000000D03*
%TD*%
%TO.C,D996*%
X29425000Y-113000000D03*
X28575000Y-113000000D03*
%TD*%
%TO.C,D995*%
X26425000Y-113000000D03*
X25575000Y-113000000D03*
%TD*%
%TO.C,D994*%
X23425000Y-113000000D03*
X22575000Y-113000000D03*
%TD*%
%TO.C,D993*%
X20425000Y-113000000D03*
X19575000Y-113000000D03*
%TD*%
%TO.C,D992*%
X113425000Y-110000000D03*
X112575000Y-110000000D03*
%TD*%
%TO.C,D991*%
X110425000Y-110000000D03*
X109575000Y-110000000D03*
%TD*%
%TO.C,D990*%
X107425000Y-110000000D03*
X106575000Y-110000000D03*
%TD*%
%TO.C,D989*%
X104425000Y-110000000D03*
X103575000Y-110000000D03*
%TD*%
%TO.C,D988*%
X101425000Y-110000000D03*
X100575000Y-110000000D03*
%TD*%
%TO.C,D987*%
X98425000Y-110000000D03*
X97575000Y-110000000D03*
%TD*%
%TO.C,D986*%
X95425000Y-110000000D03*
X94575000Y-110000000D03*
%TD*%
%TO.C,D985*%
X92425000Y-110000000D03*
X91575000Y-110000000D03*
%TD*%
%TO.C,D984*%
X89425000Y-110000000D03*
X88575000Y-110000000D03*
%TD*%
%TO.C,D983*%
X86425000Y-110000000D03*
X85575000Y-110000000D03*
%TD*%
%TO.C,D982*%
X83425000Y-110000000D03*
X82575000Y-110000000D03*
%TD*%
%TO.C,D981*%
X80425000Y-110000000D03*
X79575000Y-110000000D03*
%TD*%
%TO.C,D980*%
X77425000Y-110000000D03*
X76575000Y-110000000D03*
%TD*%
%TO.C,D979*%
X74425000Y-110000000D03*
X73575000Y-110000000D03*
%TD*%
%TO.C,D978*%
X71425000Y-110000000D03*
X70575000Y-110000000D03*
%TD*%
%TO.C,D977*%
X68425000Y-110000000D03*
X67575000Y-110000000D03*
%TD*%
%TO.C,D976*%
X65425000Y-110000000D03*
X64575000Y-110000000D03*
%TD*%
%TO.C,D975*%
X62425000Y-110000000D03*
X61575000Y-110000000D03*
%TD*%
%TO.C,D974*%
X59425000Y-110000000D03*
X58575000Y-110000000D03*
%TD*%
%TO.C,D973*%
X56425000Y-110000000D03*
X55575000Y-110000000D03*
%TD*%
%TO.C,D972*%
X53425000Y-110000000D03*
X52575000Y-110000000D03*
%TD*%
%TO.C,D971*%
X50425000Y-110000000D03*
X49575000Y-110000000D03*
%TD*%
%TO.C,D970*%
X47425000Y-110000000D03*
X46575000Y-110000000D03*
%TD*%
%TO.C,D969*%
X44425000Y-110000000D03*
X43575000Y-110000000D03*
%TD*%
%TO.C,D968*%
X41425000Y-110000000D03*
X40575000Y-110000000D03*
%TD*%
%TO.C,D967*%
X38425000Y-110000000D03*
X37575000Y-110000000D03*
%TD*%
%TO.C,D966*%
X35425000Y-110000000D03*
X34575000Y-110000000D03*
%TD*%
%TO.C,D965*%
X32425000Y-110000000D03*
X31575000Y-110000000D03*
%TD*%
%TO.C,D964*%
X29425000Y-110000000D03*
X28575000Y-110000000D03*
%TD*%
%TO.C,D963*%
X26425000Y-110000000D03*
X25575000Y-110000000D03*
%TD*%
%TO.C,D962*%
X23425000Y-110000000D03*
X22575000Y-110000000D03*
%TD*%
%TO.C,D961*%
X20425000Y-110000000D03*
X19575000Y-110000000D03*
%TD*%
%TO.C,D960*%
X113425000Y-107000000D03*
X112575000Y-107000000D03*
%TD*%
%TO.C,D959*%
X110425000Y-107000000D03*
X109575000Y-107000000D03*
%TD*%
%TO.C,D958*%
X107425000Y-107000000D03*
X106575000Y-107000000D03*
%TD*%
%TO.C,D957*%
X104425000Y-107000000D03*
X103575000Y-107000000D03*
%TD*%
%TO.C,D956*%
X101425000Y-107000000D03*
X100575000Y-107000000D03*
%TD*%
%TO.C,D955*%
X98425000Y-107000000D03*
X97575000Y-107000000D03*
%TD*%
%TO.C,D954*%
X95425000Y-107000000D03*
X94575000Y-107000000D03*
%TD*%
%TO.C,D953*%
X92425000Y-107000000D03*
X91575000Y-107000000D03*
%TD*%
%TO.C,D952*%
X89425000Y-107000000D03*
X88575000Y-107000000D03*
%TD*%
%TO.C,D951*%
X86425000Y-107000000D03*
X85575000Y-107000000D03*
%TD*%
%TO.C,D950*%
X83425000Y-107000000D03*
X82575000Y-107000000D03*
%TD*%
%TO.C,D949*%
X80425000Y-107000000D03*
X79575000Y-107000000D03*
%TD*%
%TO.C,D948*%
X77425000Y-107000000D03*
X76575000Y-107000000D03*
%TD*%
%TO.C,D947*%
X74425000Y-107000000D03*
X73575000Y-107000000D03*
%TD*%
%TO.C,D946*%
X71425000Y-107000000D03*
X70575000Y-107000000D03*
%TD*%
%TO.C,D945*%
X68425000Y-107000000D03*
X67575000Y-107000000D03*
%TD*%
%TO.C,D944*%
X65425000Y-107000000D03*
X64575000Y-107000000D03*
%TD*%
%TO.C,D943*%
X62425000Y-107000000D03*
X61575000Y-107000000D03*
%TD*%
%TO.C,D942*%
X59425000Y-107000000D03*
X58575000Y-107000000D03*
%TD*%
%TO.C,D941*%
X56425000Y-107000000D03*
X55575000Y-107000000D03*
%TD*%
%TO.C,D940*%
X53425000Y-107000000D03*
X52575000Y-107000000D03*
%TD*%
%TO.C,D939*%
X50425000Y-107000000D03*
X49575000Y-107000000D03*
%TD*%
%TO.C,D938*%
X47425000Y-107000000D03*
X46575000Y-107000000D03*
%TD*%
%TO.C,D937*%
X44425000Y-107000000D03*
X43575000Y-107000000D03*
%TD*%
%TO.C,D936*%
X41425000Y-107000000D03*
X40575000Y-107000000D03*
%TD*%
%TO.C,D935*%
X38425000Y-107000000D03*
X37575000Y-107000000D03*
%TD*%
%TO.C,D934*%
X35425000Y-107000000D03*
X34575000Y-107000000D03*
%TD*%
%TO.C,D933*%
X32425000Y-107000000D03*
X31575000Y-107000000D03*
%TD*%
%TO.C,D932*%
X29425000Y-107000000D03*
X28575000Y-107000000D03*
%TD*%
%TO.C,D931*%
X26425000Y-107000000D03*
X25575000Y-107000000D03*
%TD*%
%TO.C,D930*%
X23425000Y-107000000D03*
X22575000Y-107000000D03*
%TD*%
%TO.C,D929*%
X20425000Y-107000000D03*
X19575000Y-107000000D03*
%TD*%
%TO.C,D928*%
X113425000Y-104000000D03*
X112575000Y-104000000D03*
%TD*%
%TO.C,D927*%
X110425000Y-104000000D03*
X109575000Y-104000000D03*
%TD*%
%TO.C,D926*%
X107425000Y-104000000D03*
X106575000Y-104000000D03*
%TD*%
%TO.C,D925*%
X104425000Y-104000000D03*
X103575000Y-104000000D03*
%TD*%
%TO.C,D924*%
X101425000Y-104000000D03*
X100575000Y-104000000D03*
%TD*%
%TO.C,D923*%
X98425000Y-104000000D03*
X97575000Y-104000000D03*
%TD*%
%TO.C,D922*%
X95425000Y-104000000D03*
X94575000Y-104000000D03*
%TD*%
%TO.C,D921*%
X92425000Y-104000000D03*
X91575000Y-104000000D03*
%TD*%
%TO.C,D920*%
X89425000Y-104000000D03*
X88575000Y-104000000D03*
%TD*%
%TO.C,D919*%
X86425000Y-104000000D03*
X85575000Y-104000000D03*
%TD*%
%TO.C,D918*%
X83425000Y-104000000D03*
X82575000Y-104000000D03*
%TD*%
%TO.C,D917*%
X80425000Y-104000000D03*
X79575000Y-104000000D03*
%TD*%
%TO.C,D916*%
X77425000Y-104000000D03*
X76575000Y-104000000D03*
%TD*%
%TO.C,D915*%
X74425000Y-104000000D03*
X73575000Y-104000000D03*
%TD*%
%TO.C,D914*%
X71425000Y-104000000D03*
X70575000Y-104000000D03*
%TD*%
%TO.C,D913*%
X68425000Y-104000000D03*
X67575000Y-104000000D03*
%TD*%
%TO.C,D912*%
X65425000Y-104000000D03*
X64575000Y-104000000D03*
%TD*%
%TO.C,D911*%
X62425000Y-104000000D03*
X61575000Y-104000000D03*
%TD*%
%TO.C,D910*%
X59425000Y-104000000D03*
X58575000Y-104000000D03*
%TD*%
%TO.C,D909*%
X56425000Y-104000000D03*
X55575000Y-104000000D03*
%TD*%
%TO.C,D908*%
X53425000Y-104000000D03*
X52575000Y-104000000D03*
%TD*%
%TO.C,D907*%
X50425000Y-104000000D03*
X49575000Y-104000000D03*
%TD*%
%TO.C,D906*%
X47425000Y-104000000D03*
X46575000Y-104000000D03*
%TD*%
%TO.C,D905*%
X44425000Y-104000000D03*
X43575000Y-104000000D03*
%TD*%
%TO.C,D904*%
X41425000Y-104000000D03*
X40575000Y-104000000D03*
%TD*%
%TO.C,D903*%
X38425000Y-104000000D03*
X37575000Y-104000000D03*
%TD*%
%TO.C,D902*%
X35425000Y-104000000D03*
X34575000Y-104000000D03*
%TD*%
%TO.C,D901*%
X32425000Y-104000000D03*
X31575000Y-104000000D03*
%TD*%
%TO.C,D900*%
X29425000Y-104000000D03*
X28575000Y-104000000D03*
%TD*%
%TO.C,D899*%
X26425000Y-104000000D03*
X25575000Y-104000000D03*
%TD*%
%TO.C,D898*%
X23425000Y-104000000D03*
X22575000Y-104000000D03*
%TD*%
%TO.C,D897*%
X20425000Y-104000000D03*
X19575000Y-104000000D03*
%TD*%
%TO.C,D896*%
X113425000Y-101000000D03*
X112575000Y-101000000D03*
%TD*%
%TO.C,D895*%
X110425000Y-101000000D03*
X109575000Y-101000000D03*
%TD*%
%TO.C,D894*%
X107425000Y-101000000D03*
X106575000Y-101000000D03*
%TD*%
%TO.C,D893*%
X104425000Y-101000000D03*
X103575000Y-101000000D03*
%TD*%
%TO.C,D892*%
X101425000Y-101000000D03*
X100575000Y-101000000D03*
%TD*%
%TO.C,D891*%
X98425000Y-101000000D03*
X97575000Y-101000000D03*
%TD*%
%TO.C,D890*%
X95425000Y-101000000D03*
X94575000Y-101000000D03*
%TD*%
%TO.C,D889*%
X92425000Y-101000000D03*
X91575000Y-101000000D03*
%TD*%
%TO.C,D888*%
X89425000Y-101000000D03*
X88575000Y-101000000D03*
%TD*%
%TO.C,D887*%
X86425000Y-101000000D03*
X85575000Y-101000000D03*
%TD*%
%TO.C,D886*%
X83425000Y-101000000D03*
X82575000Y-101000000D03*
%TD*%
%TO.C,D885*%
X80425000Y-101000000D03*
X79575000Y-101000000D03*
%TD*%
%TO.C,D884*%
X77425000Y-101000000D03*
X76575000Y-101000000D03*
%TD*%
%TO.C,D883*%
X74425000Y-101000000D03*
X73575000Y-101000000D03*
%TD*%
%TO.C,D882*%
X71425000Y-101000000D03*
X70575000Y-101000000D03*
%TD*%
%TO.C,D881*%
X68425000Y-101000000D03*
X67575000Y-101000000D03*
%TD*%
%TO.C,D880*%
X65425000Y-101000000D03*
X64575000Y-101000000D03*
%TD*%
%TO.C,D879*%
X62425000Y-101000000D03*
X61575000Y-101000000D03*
%TD*%
%TO.C,D878*%
X59425000Y-101000000D03*
X58575000Y-101000000D03*
%TD*%
%TO.C,D877*%
X56425000Y-101000000D03*
X55575000Y-101000000D03*
%TD*%
%TO.C,D876*%
X53425000Y-101000000D03*
X52575000Y-101000000D03*
%TD*%
%TO.C,D875*%
X50425000Y-101000000D03*
X49575000Y-101000000D03*
%TD*%
%TO.C,D874*%
X47425000Y-101000000D03*
X46575000Y-101000000D03*
%TD*%
%TO.C,D873*%
X44425000Y-101000000D03*
X43575000Y-101000000D03*
%TD*%
%TO.C,D872*%
X41425000Y-101000000D03*
X40575000Y-101000000D03*
%TD*%
%TO.C,D871*%
X38425000Y-101000000D03*
X37575000Y-101000000D03*
%TD*%
%TO.C,D870*%
X35425000Y-101000000D03*
X34575000Y-101000000D03*
%TD*%
%TO.C,D869*%
X32425000Y-101000000D03*
X31575000Y-101000000D03*
%TD*%
%TO.C,D868*%
X29425000Y-101000000D03*
X28575000Y-101000000D03*
%TD*%
%TO.C,D867*%
X26425000Y-101000000D03*
X25575000Y-101000000D03*
%TD*%
%TO.C,D866*%
X23425000Y-101000000D03*
X22575000Y-101000000D03*
%TD*%
%TO.C,D865*%
X20425000Y-101000000D03*
X19575000Y-101000000D03*
%TD*%
%TO.C,D864*%
X113425000Y-98000000D03*
X112575000Y-98000000D03*
%TD*%
%TO.C,D863*%
X110425000Y-98000000D03*
X109575000Y-98000000D03*
%TD*%
%TO.C,D862*%
X107425000Y-98000000D03*
X106575000Y-98000000D03*
%TD*%
%TO.C,D861*%
X104425000Y-98000000D03*
X103575000Y-98000000D03*
%TD*%
%TO.C,D860*%
X101425000Y-98000000D03*
X100575000Y-98000000D03*
%TD*%
%TO.C,D859*%
X98425000Y-98000000D03*
X97575000Y-98000000D03*
%TD*%
%TO.C,D858*%
X95425000Y-98000000D03*
X94575000Y-98000000D03*
%TD*%
%TO.C,D857*%
X92425000Y-98000000D03*
X91575000Y-98000000D03*
%TD*%
%TO.C,D856*%
X89425000Y-98000000D03*
X88575000Y-98000000D03*
%TD*%
%TO.C,D855*%
X86425000Y-98000000D03*
X85575000Y-98000000D03*
%TD*%
%TO.C,D854*%
X83425000Y-98000000D03*
X82575000Y-98000000D03*
%TD*%
%TO.C,D853*%
X80425000Y-98000000D03*
X79575000Y-98000000D03*
%TD*%
%TO.C,D852*%
X77425000Y-98000000D03*
X76575000Y-98000000D03*
%TD*%
%TO.C,D851*%
X74425000Y-98000000D03*
X73575000Y-98000000D03*
%TD*%
%TO.C,D850*%
X71425000Y-98000000D03*
X70575000Y-98000000D03*
%TD*%
%TO.C,D849*%
X68425000Y-98000000D03*
X67575000Y-98000000D03*
%TD*%
%TO.C,D848*%
X65425000Y-98000000D03*
X64575000Y-98000000D03*
%TD*%
%TO.C,D847*%
X62425000Y-98000000D03*
X61575000Y-98000000D03*
%TD*%
%TO.C,D846*%
X59425000Y-98000000D03*
X58575000Y-98000000D03*
%TD*%
%TO.C,D845*%
X56425000Y-98000000D03*
X55575000Y-98000000D03*
%TD*%
%TO.C,D844*%
X53425000Y-98000000D03*
X52575000Y-98000000D03*
%TD*%
%TO.C,D843*%
X50425000Y-98000000D03*
X49575000Y-98000000D03*
%TD*%
%TO.C,D842*%
X47425000Y-98000000D03*
X46575000Y-98000000D03*
%TD*%
%TO.C,D841*%
X44425000Y-98000000D03*
X43575000Y-98000000D03*
%TD*%
%TO.C,D840*%
X41425000Y-98000000D03*
X40575000Y-98000000D03*
%TD*%
%TO.C,D839*%
X38425000Y-98000000D03*
X37575000Y-98000000D03*
%TD*%
%TO.C,D838*%
X35425000Y-98000000D03*
X34575000Y-98000000D03*
%TD*%
%TO.C,D837*%
X32425000Y-98000000D03*
X31575000Y-98000000D03*
%TD*%
%TO.C,D836*%
X29425000Y-98000000D03*
X28575000Y-98000000D03*
%TD*%
%TO.C,D835*%
X26425000Y-98000000D03*
X25575000Y-98000000D03*
%TD*%
%TO.C,D834*%
X23425000Y-98000000D03*
X22575000Y-98000000D03*
%TD*%
%TO.C,D833*%
X20425000Y-98000000D03*
X19575000Y-98000000D03*
%TD*%
%TO.C,D832*%
X113425000Y-95000000D03*
X112575000Y-95000000D03*
%TD*%
%TO.C,D831*%
X110425000Y-95000000D03*
X109575000Y-95000000D03*
%TD*%
%TO.C,D830*%
X107425000Y-95000000D03*
X106575000Y-95000000D03*
%TD*%
%TO.C,D829*%
X104425000Y-95000000D03*
X103575000Y-95000000D03*
%TD*%
%TO.C,D828*%
X101425000Y-95000000D03*
X100575000Y-95000000D03*
%TD*%
%TO.C,D827*%
X98425000Y-95000000D03*
X97575000Y-95000000D03*
%TD*%
%TO.C,D826*%
X95425000Y-95000000D03*
X94575000Y-95000000D03*
%TD*%
%TO.C,D825*%
X92425000Y-95000000D03*
X91575000Y-95000000D03*
%TD*%
%TO.C,D824*%
X89425000Y-95000000D03*
X88575000Y-95000000D03*
%TD*%
%TO.C,D823*%
X86425000Y-95000000D03*
X85575000Y-95000000D03*
%TD*%
%TO.C,D822*%
X83425000Y-95000000D03*
X82575000Y-95000000D03*
%TD*%
%TO.C,D821*%
X80425000Y-95000000D03*
X79575000Y-95000000D03*
%TD*%
%TO.C,D820*%
X77425000Y-95000000D03*
X76575000Y-95000000D03*
%TD*%
%TO.C,D819*%
X74425000Y-95000000D03*
X73575000Y-95000000D03*
%TD*%
%TO.C,D818*%
X71425000Y-95000000D03*
X70575000Y-95000000D03*
%TD*%
%TO.C,D817*%
X68425000Y-95000000D03*
X67575000Y-95000000D03*
%TD*%
%TO.C,D816*%
X65425000Y-95000000D03*
X64575000Y-95000000D03*
%TD*%
%TO.C,D815*%
X62425000Y-95000000D03*
X61575000Y-95000000D03*
%TD*%
%TO.C,D814*%
X59425000Y-95000000D03*
X58575000Y-95000000D03*
%TD*%
%TO.C,D813*%
X56425000Y-95000000D03*
X55575000Y-95000000D03*
%TD*%
%TO.C,D812*%
X53425000Y-95000000D03*
X52575000Y-95000000D03*
%TD*%
%TO.C,D811*%
X50425000Y-95000000D03*
X49575000Y-95000000D03*
%TD*%
%TO.C,D810*%
X47425000Y-95000000D03*
X46575000Y-95000000D03*
%TD*%
%TO.C,D809*%
X44425000Y-95000000D03*
X43575000Y-95000000D03*
%TD*%
%TO.C,D808*%
X41425000Y-95000000D03*
X40575000Y-95000000D03*
%TD*%
%TO.C,D807*%
X38425000Y-95000000D03*
X37575000Y-95000000D03*
%TD*%
%TO.C,D806*%
X35425000Y-95000000D03*
X34575000Y-95000000D03*
%TD*%
%TO.C,D805*%
X32425000Y-95000000D03*
X31575000Y-95000000D03*
%TD*%
%TO.C,D804*%
X29425000Y-95000000D03*
X28575000Y-95000000D03*
%TD*%
%TO.C,D803*%
X26425000Y-95000000D03*
X25575000Y-95000000D03*
%TD*%
%TO.C,D802*%
X23425000Y-95000000D03*
X22575000Y-95000000D03*
%TD*%
%TO.C,D801*%
X20425000Y-95000000D03*
X19575000Y-95000000D03*
%TD*%
%TO.C,D800*%
X113425000Y-92000000D03*
X112575000Y-92000000D03*
%TD*%
%TO.C,D799*%
X110425000Y-92000000D03*
X109575000Y-92000000D03*
%TD*%
%TO.C,D798*%
X107425000Y-92000000D03*
X106575000Y-92000000D03*
%TD*%
%TO.C,D797*%
X104425000Y-92000000D03*
X103575000Y-92000000D03*
%TD*%
%TO.C,D796*%
X101425000Y-92000000D03*
X100575000Y-92000000D03*
%TD*%
%TO.C,D795*%
X98425000Y-92000000D03*
X97575000Y-92000000D03*
%TD*%
%TO.C,D794*%
X95425000Y-92000000D03*
X94575000Y-92000000D03*
%TD*%
%TO.C,D793*%
X92425000Y-92000000D03*
X91575000Y-92000000D03*
%TD*%
%TO.C,D792*%
X89425000Y-92000000D03*
X88575000Y-92000000D03*
%TD*%
%TO.C,D791*%
X86425000Y-92000000D03*
X85575000Y-92000000D03*
%TD*%
%TO.C,D790*%
X83425000Y-92000000D03*
X82575000Y-92000000D03*
%TD*%
%TO.C,D789*%
X80425000Y-92000000D03*
X79575000Y-92000000D03*
%TD*%
%TO.C,D788*%
X77425000Y-92000000D03*
X76575000Y-92000000D03*
%TD*%
%TO.C,D787*%
X74425000Y-92000000D03*
X73575000Y-92000000D03*
%TD*%
%TO.C,D786*%
X71425000Y-92000000D03*
X70575000Y-92000000D03*
%TD*%
%TO.C,D785*%
X68425000Y-92000000D03*
X67575000Y-92000000D03*
%TD*%
%TO.C,D784*%
X65425000Y-92000000D03*
X64575000Y-92000000D03*
%TD*%
%TO.C,D783*%
X62425000Y-92000000D03*
X61575000Y-92000000D03*
%TD*%
%TO.C,D782*%
X59425000Y-92000000D03*
X58575000Y-92000000D03*
%TD*%
%TO.C,D781*%
X56425000Y-92000000D03*
X55575000Y-92000000D03*
%TD*%
%TO.C,D780*%
X53425000Y-92000000D03*
X52575000Y-92000000D03*
%TD*%
%TO.C,D779*%
X50425000Y-92000000D03*
X49575000Y-92000000D03*
%TD*%
%TO.C,D778*%
X47425000Y-92000000D03*
X46575000Y-92000000D03*
%TD*%
%TO.C,D777*%
X44425000Y-92000000D03*
X43575000Y-92000000D03*
%TD*%
%TO.C,D776*%
X41425000Y-92000000D03*
X40575000Y-92000000D03*
%TD*%
%TO.C,D775*%
X38425000Y-92000000D03*
X37575000Y-92000000D03*
%TD*%
%TO.C,D774*%
X35425000Y-92000000D03*
X34575000Y-92000000D03*
%TD*%
%TO.C,D773*%
X32425000Y-92000000D03*
X31575000Y-92000000D03*
%TD*%
%TO.C,D772*%
X29425000Y-92000000D03*
X28575000Y-92000000D03*
%TD*%
%TO.C,D771*%
X26425000Y-92000000D03*
X25575000Y-92000000D03*
%TD*%
%TO.C,D770*%
X23425000Y-92000000D03*
X22575000Y-92000000D03*
%TD*%
%TO.C,D769*%
X20425000Y-92000000D03*
X19575000Y-92000000D03*
%TD*%
%TO.C,D768*%
X113425000Y-89000000D03*
X112575000Y-89000000D03*
%TD*%
%TO.C,D767*%
X110425000Y-89000000D03*
X109575000Y-89000000D03*
%TD*%
%TO.C,D766*%
X107425000Y-89000000D03*
X106575000Y-89000000D03*
%TD*%
%TO.C,D765*%
X104425000Y-89000000D03*
X103575000Y-89000000D03*
%TD*%
%TO.C,D764*%
X101425000Y-89000000D03*
X100575000Y-89000000D03*
%TD*%
%TO.C,D763*%
X98425000Y-89000000D03*
X97575000Y-89000000D03*
%TD*%
%TO.C,D762*%
X95425000Y-89000000D03*
X94575000Y-89000000D03*
%TD*%
%TO.C,D761*%
X92425000Y-89000000D03*
X91575000Y-89000000D03*
%TD*%
%TO.C,D760*%
X89425000Y-89000000D03*
X88575000Y-89000000D03*
%TD*%
%TO.C,D759*%
X86425000Y-89000000D03*
X85575000Y-89000000D03*
%TD*%
%TO.C,D758*%
X83425000Y-89000000D03*
X82575000Y-89000000D03*
%TD*%
%TO.C,D757*%
X80425000Y-89000000D03*
X79575000Y-89000000D03*
%TD*%
%TO.C,D756*%
X77425000Y-89000000D03*
X76575000Y-89000000D03*
%TD*%
%TO.C,D755*%
X74425000Y-89000000D03*
X73575000Y-89000000D03*
%TD*%
%TO.C,D754*%
X71425000Y-89000000D03*
X70575000Y-89000000D03*
%TD*%
%TO.C,D753*%
X68425000Y-89000000D03*
X67575000Y-89000000D03*
%TD*%
%TO.C,D752*%
X65425000Y-89000000D03*
X64575000Y-89000000D03*
%TD*%
%TO.C,D751*%
X62425000Y-89000000D03*
X61575000Y-89000000D03*
%TD*%
%TO.C,D750*%
X59425000Y-89000000D03*
X58575000Y-89000000D03*
%TD*%
%TO.C,D749*%
X56425000Y-89000000D03*
X55575000Y-89000000D03*
%TD*%
%TO.C,D748*%
X53425000Y-89000000D03*
X52575000Y-89000000D03*
%TD*%
%TO.C,D747*%
X50425000Y-89000000D03*
X49575000Y-89000000D03*
%TD*%
%TO.C,D746*%
X47425000Y-89000000D03*
X46575000Y-89000000D03*
%TD*%
%TO.C,D745*%
X44425000Y-89000000D03*
X43575000Y-89000000D03*
%TD*%
%TO.C,D744*%
X41425000Y-89000000D03*
X40575000Y-89000000D03*
%TD*%
%TO.C,D743*%
X38425000Y-89000000D03*
X37575000Y-89000000D03*
%TD*%
%TO.C,D742*%
X35425000Y-89000000D03*
X34575000Y-89000000D03*
%TD*%
%TO.C,D741*%
X32425000Y-89000000D03*
X31575000Y-89000000D03*
%TD*%
%TO.C,D740*%
X29425000Y-89000000D03*
X28575000Y-89000000D03*
%TD*%
%TO.C,D739*%
X26425000Y-89000000D03*
X25575000Y-89000000D03*
%TD*%
%TO.C,D738*%
X23425000Y-89000000D03*
X22575000Y-89000000D03*
%TD*%
%TO.C,D737*%
X20425000Y-89000000D03*
X19575000Y-89000000D03*
%TD*%
%TO.C,D736*%
X113425000Y-86000000D03*
X112575000Y-86000000D03*
%TD*%
%TO.C,D735*%
X110425000Y-86000000D03*
X109575000Y-86000000D03*
%TD*%
%TO.C,D734*%
X107425000Y-86000000D03*
X106575000Y-86000000D03*
%TD*%
%TO.C,D733*%
X104425000Y-86000000D03*
X103575000Y-86000000D03*
%TD*%
%TO.C,D732*%
X101425000Y-86000000D03*
X100575000Y-86000000D03*
%TD*%
%TO.C,D731*%
X98425000Y-86000000D03*
X97575000Y-86000000D03*
%TD*%
%TO.C,D730*%
X95425000Y-86000000D03*
X94575000Y-86000000D03*
%TD*%
%TO.C,D729*%
X92425000Y-86000000D03*
X91575000Y-86000000D03*
%TD*%
%TO.C,D728*%
X89425000Y-86000000D03*
X88575000Y-86000000D03*
%TD*%
%TO.C,D727*%
X86425000Y-86000000D03*
X85575000Y-86000000D03*
%TD*%
%TO.C,D726*%
X83425000Y-86000000D03*
X82575000Y-86000000D03*
%TD*%
%TO.C,D725*%
X80425000Y-86000000D03*
X79575000Y-86000000D03*
%TD*%
%TO.C,D724*%
X77425000Y-86000000D03*
X76575000Y-86000000D03*
%TD*%
%TO.C,D723*%
X74425000Y-86000000D03*
X73575000Y-86000000D03*
%TD*%
%TO.C,D722*%
X71425000Y-86000000D03*
X70575000Y-86000000D03*
%TD*%
%TO.C,D721*%
X68425000Y-86000000D03*
X67575000Y-86000000D03*
%TD*%
%TO.C,D720*%
X65425000Y-86000000D03*
X64575000Y-86000000D03*
%TD*%
%TO.C,D719*%
X62425000Y-86000000D03*
X61575000Y-86000000D03*
%TD*%
%TO.C,D718*%
X59425000Y-86000000D03*
X58575000Y-86000000D03*
%TD*%
%TO.C,D717*%
X56425000Y-86000000D03*
X55575000Y-86000000D03*
%TD*%
%TO.C,D716*%
X53425000Y-86000000D03*
X52575000Y-86000000D03*
%TD*%
%TO.C,D715*%
X50425000Y-86000000D03*
X49575000Y-86000000D03*
%TD*%
%TO.C,D714*%
X47425000Y-86000000D03*
X46575000Y-86000000D03*
%TD*%
%TO.C,D713*%
X44425000Y-86000000D03*
X43575000Y-86000000D03*
%TD*%
%TO.C,D712*%
X41425000Y-86000000D03*
X40575000Y-86000000D03*
%TD*%
%TO.C,D711*%
X38425000Y-86000000D03*
X37575000Y-86000000D03*
%TD*%
%TO.C,D710*%
X35425000Y-86000000D03*
X34575000Y-86000000D03*
%TD*%
%TO.C,D709*%
X32425000Y-86000000D03*
X31575000Y-86000000D03*
%TD*%
%TO.C,D708*%
X29425000Y-86000000D03*
X28575000Y-86000000D03*
%TD*%
%TO.C,D707*%
X26425000Y-86000000D03*
X25575000Y-86000000D03*
%TD*%
%TO.C,D706*%
X23425000Y-86000000D03*
X22575000Y-86000000D03*
%TD*%
%TO.C,D705*%
X20425000Y-86000000D03*
X19575000Y-86000000D03*
%TD*%
%TO.C,D704*%
X113425000Y-83000000D03*
X112575000Y-83000000D03*
%TD*%
%TO.C,D703*%
X110425000Y-83000000D03*
X109575000Y-83000000D03*
%TD*%
%TO.C,D702*%
X107425000Y-83000000D03*
X106575000Y-83000000D03*
%TD*%
%TO.C,D701*%
X104425000Y-83000000D03*
X103575000Y-83000000D03*
%TD*%
%TO.C,D700*%
X101425000Y-83000000D03*
X100575000Y-83000000D03*
%TD*%
%TO.C,D699*%
X98425000Y-83000000D03*
X97575000Y-83000000D03*
%TD*%
%TO.C,D698*%
X95425000Y-83000000D03*
X94575000Y-83000000D03*
%TD*%
%TO.C,D697*%
X92425000Y-83000000D03*
X91575000Y-83000000D03*
%TD*%
%TO.C,D696*%
X89425000Y-83000000D03*
X88575000Y-83000000D03*
%TD*%
%TO.C,D695*%
X86425000Y-83000000D03*
X85575000Y-83000000D03*
%TD*%
%TO.C,D694*%
X83425000Y-83000000D03*
X82575000Y-83000000D03*
%TD*%
%TO.C,D693*%
X80425000Y-83000000D03*
X79575000Y-83000000D03*
%TD*%
%TO.C,D692*%
X77425000Y-83000000D03*
X76575000Y-83000000D03*
%TD*%
%TO.C,D691*%
X74425000Y-83000000D03*
X73575000Y-83000000D03*
%TD*%
%TO.C,D690*%
X71425000Y-83000000D03*
X70575000Y-83000000D03*
%TD*%
%TO.C,D689*%
X68425000Y-83000000D03*
X67575000Y-83000000D03*
%TD*%
%TO.C,D688*%
X65425000Y-83000000D03*
X64575000Y-83000000D03*
%TD*%
%TO.C,D687*%
X62425000Y-83000000D03*
X61575000Y-83000000D03*
%TD*%
%TO.C,D686*%
X59425000Y-83000000D03*
X58575000Y-83000000D03*
%TD*%
%TO.C,D685*%
X56425000Y-83000000D03*
X55575000Y-83000000D03*
%TD*%
%TO.C,D684*%
X53425000Y-83000000D03*
X52575000Y-83000000D03*
%TD*%
%TO.C,D683*%
X50425000Y-83000000D03*
X49575000Y-83000000D03*
%TD*%
%TO.C,D682*%
X47425000Y-83000000D03*
X46575000Y-83000000D03*
%TD*%
%TO.C,D681*%
X44425000Y-83000000D03*
X43575000Y-83000000D03*
%TD*%
%TO.C,D680*%
X41425000Y-83000000D03*
X40575000Y-83000000D03*
%TD*%
%TO.C,D679*%
X38425000Y-83000000D03*
X37575000Y-83000000D03*
%TD*%
%TO.C,D678*%
X35425000Y-83000000D03*
X34575000Y-83000000D03*
%TD*%
%TO.C,D677*%
X32425000Y-83000000D03*
X31575000Y-83000000D03*
%TD*%
%TO.C,D676*%
X29425000Y-83000000D03*
X28575000Y-83000000D03*
%TD*%
%TO.C,D675*%
X26425000Y-83000000D03*
X25575000Y-83000000D03*
%TD*%
%TO.C,D674*%
X23425000Y-83000000D03*
X22575000Y-83000000D03*
%TD*%
%TO.C,D673*%
X20425000Y-83000000D03*
X19575000Y-83000000D03*
%TD*%
%TO.C,D672*%
X113425000Y-80000000D03*
X112575000Y-80000000D03*
%TD*%
%TO.C,D671*%
X110425000Y-80000000D03*
X109575000Y-80000000D03*
%TD*%
%TO.C,D670*%
X107425000Y-80000000D03*
X106575000Y-80000000D03*
%TD*%
%TO.C,D669*%
X104425000Y-80000000D03*
X103575000Y-80000000D03*
%TD*%
%TO.C,D668*%
X101425000Y-80000000D03*
X100575000Y-80000000D03*
%TD*%
%TO.C,D667*%
X98425000Y-80000000D03*
X97575000Y-80000000D03*
%TD*%
%TO.C,D666*%
X95425000Y-80000000D03*
X94575000Y-80000000D03*
%TD*%
%TO.C,D665*%
X92425000Y-80000000D03*
X91575000Y-80000000D03*
%TD*%
%TO.C,D664*%
X89425000Y-80000000D03*
X88575000Y-80000000D03*
%TD*%
%TO.C,D663*%
X86425000Y-80000000D03*
X85575000Y-80000000D03*
%TD*%
%TO.C,D662*%
X83425000Y-80000000D03*
X82575000Y-80000000D03*
%TD*%
%TO.C,D661*%
X80425000Y-80000000D03*
X79575000Y-80000000D03*
%TD*%
%TO.C,D660*%
X77425000Y-80000000D03*
X76575000Y-80000000D03*
%TD*%
%TO.C,D659*%
X74425000Y-80000000D03*
X73575000Y-80000000D03*
%TD*%
%TO.C,D658*%
X71425000Y-80000000D03*
X70575000Y-80000000D03*
%TD*%
%TO.C,D657*%
X68425000Y-80000000D03*
X67575000Y-80000000D03*
%TD*%
%TO.C,D656*%
X65425000Y-80000000D03*
X64575000Y-80000000D03*
%TD*%
%TO.C,D655*%
X62425000Y-80000000D03*
X61575000Y-80000000D03*
%TD*%
%TO.C,D654*%
X59425000Y-80000000D03*
X58575000Y-80000000D03*
%TD*%
%TO.C,D653*%
X56425000Y-80000000D03*
X55575000Y-80000000D03*
%TD*%
%TO.C,D652*%
X53425000Y-80000000D03*
X52575000Y-80000000D03*
%TD*%
%TO.C,D651*%
X50425000Y-80000000D03*
X49575000Y-80000000D03*
%TD*%
%TO.C,D650*%
X47425000Y-80000000D03*
X46575000Y-80000000D03*
%TD*%
%TO.C,D649*%
X44425000Y-80000000D03*
X43575000Y-80000000D03*
%TD*%
%TO.C,D648*%
X41425000Y-80000000D03*
X40575000Y-80000000D03*
%TD*%
%TO.C,D647*%
X38425000Y-80000000D03*
X37575000Y-80000000D03*
%TD*%
%TO.C,D646*%
X35425000Y-80000000D03*
X34575000Y-80000000D03*
%TD*%
%TO.C,D645*%
X32425000Y-80000000D03*
X31575000Y-80000000D03*
%TD*%
%TO.C,D644*%
X29425000Y-80000000D03*
X28575000Y-80000000D03*
%TD*%
%TO.C,D643*%
X26425000Y-80000000D03*
X25575000Y-80000000D03*
%TD*%
%TO.C,D642*%
X23425000Y-80000000D03*
X22575000Y-80000000D03*
%TD*%
%TO.C,D641*%
X20425000Y-80000000D03*
X19575000Y-80000000D03*
%TD*%
%TO.C,D640*%
X113425000Y-77000000D03*
X112575000Y-77000000D03*
%TD*%
%TO.C,D639*%
X110425000Y-77000000D03*
X109575000Y-77000000D03*
%TD*%
%TO.C,D638*%
X107425000Y-77000000D03*
X106575000Y-77000000D03*
%TD*%
%TO.C,D637*%
X104425000Y-77000000D03*
X103575000Y-77000000D03*
%TD*%
%TO.C,D636*%
X101425000Y-77000000D03*
X100575000Y-77000000D03*
%TD*%
%TO.C,D635*%
X98425000Y-77000000D03*
X97575000Y-77000000D03*
%TD*%
%TO.C,D634*%
X95425000Y-77000000D03*
X94575000Y-77000000D03*
%TD*%
%TO.C,D633*%
X92425000Y-77000000D03*
X91575000Y-77000000D03*
%TD*%
%TO.C,D632*%
X89425000Y-77000000D03*
X88575000Y-77000000D03*
%TD*%
%TO.C,D631*%
X86425000Y-77000000D03*
X85575000Y-77000000D03*
%TD*%
%TO.C,D630*%
X83425000Y-77000000D03*
X82575000Y-77000000D03*
%TD*%
%TO.C,D629*%
X80425000Y-77000000D03*
X79575000Y-77000000D03*
%TD*%
%TO.C,D628*%
X77425000Y-77000000D03*
X76575000Y-77000000D03*
%TD*%
%TO.C,D627*%
X74425000Y-77000000D03*
X73575000Y-77000000D03*
%TD*%
%TO.C,D626*%
X71425000Y-77000000D03*
X70575000Y-77000000D03*
%TD*%
%TO.C,D625*%
X68425000Y-77000000D03*
X67575000Y-77000000D03*
%TD*%
%TO.C,D624*%
X65425000Y-77000000D03*
X64575000Y-77000000D03*
%TD*%
%TO.C,D623*%
X62425000Y-77000000D03*
X61575000Y-77000000D03*
%TD*%
%TO.C,D622*%
X59425000Y-77000000D03*
X58575000Y-77000000D03*
%TD*%
%TO.C,D621*%
X56425000Y-77000000D03*
X55575000Y-77000000D03*
%TD*%
%TO.C,D620*%
X53425000Y-77000000D03*
X52575000Y-77000000D03*
%TD*%
%TO.C,D619*%
X50425000Y-77000000D03*
X49575000Y-77000000D03*
%TD*%
%TO.C,D618*%
X47425000Y-77000000D03*
X46575000Y-77000000D03*
%TD*%
%TO.C,D617*%
X44425000Y-77000000D03*
X43575000Y-77000000D03*
%TD*%
%TO.C,D616*%
X41425000Y-77000000D03*
X40575000Y-77000000D03*
%TD*%
%TO.C,D615*%
X38425000Y-77000000D03*
X37575000Y-77000000D03*
%TD*%
%TO.C,D614*%
X35425000Y-77000000D03*
X34575000Y-77000000D03*
%TD*%
%TO.C,D613*%
X32425000Y-77000000D03*
X31575000Y-77000000D03*
%TD*%
%TO.C,D612*%
X29425000Y-77000000D03*
X28575000Y-77000000D03*
%TD*%
%TO.C,D611*%
X26425000Y-77000000D03*
X25575000Y-77000000D03*
%TD*%
%TO.C,D610*%
X23425000Y-77000000D03*
X22575000Y-77000000D03*
%TD*%
%TO.C,D609*%
X20425000Y-77000000D03*
X19575000Y-77000000D03*
%TD*%
%TO.C,D608*%
X113425000Y-74000000D03*
X112575000Y-74000000D03*
%TD*%
%TO.C,D607*%
X110425000Y-74000000D03*
X109575000Y-74000000D03*
%TD*%
%TO.C,D606*%
X107425000Y-74000000D03*
X106575000Y-74000000D03*
%TD*%
%TO.C,D605*%
X104425000Y-74000000D03*
X103575000Y-74000000D03*
%TD*%
%TO.C,D604*%
X101425000Y-74000000D03*
X100575000Y-74000000D03*
%TD*%
%TO.C,D603*%
X98425000Y-74000000D03*
X97575000Y-74000000D03*
%TD*%
%TO.C,D602*%
X95425000Y-74000000D03*
X94575000Y-74000000D03*
%TD*%
%TO.C,D601*%
X92425000Y-74000000D03*
X91575000Y-74000000D03*
%TD*%
%TO.C,D600*%
X89425000Y-74000000D03*
X88575000Y-74000000D03*
%TD*%
%TO.C,D599*%
X86425000Y-74000000D03*
X85575000Y-74000000D03*
%TD*%
%TO.C,D598*%
X83425000Y-74000000D03*
X82575000Y-74000000D03*
%TD*%
%TO.C,D597*%
X80425000Y-74000000D03*
X79575000Y-74000000D03*
%TD*%
%TO.C,D596*%
X77425000Y-74000000D03*
X76575000Y-74000000D03*
%TD*%
%TO.C,D595*%
X74425000Y-74000000D03*
X73575000Y-74000000D03*
%TD*%
%TO.C,D594*%
X71425000Y-74000000D03*
X70575000Y-74000000D03*
%TD*%
%TO.C,D593*%
X68425000Y-74000000D03*
X67575000Y-74000000D03*
%TD*%
%TO.C,D592*%
X65425000Y-74000000D03*
X64575000Y-74000000D03*
%TD*%
%TO.C,D591*%
X62425000Y-74000000D03*
X61575000Y-74000000D03*
%TD*%
%TO.C,D590*%
X59425000Y-74000000D03*
X58575000Y-74000000D03*
%TD*%
%TO.C,D589*%
X56425000Y-74000000D03*
X55575000Y-74000000D03*
%TD*%
%TO.C,D588*%
X53425000Y-74000000D03*
X52575000Y-74000000D03*
%TD*%
%TO.C,D587*%
X50425000Y-74000000D03*
X49575000Y-74000000D03*
%TD*%
%TO.C,D586*%
X47425000Y-74000000D03*
X46575000Y-74000000D03*
%TD*%
%TO.C,D585*%
X44425000Y-74000000D03*
X43575000Y-74000000D03*
%TD*%
%TO.C,D584*%
X41425000Y-74000000D03*
X40575000Y-74000000D03*
%TD*%
%TO.C,D583*%
X38425000Y-74000000D03*
X37575000Y-74000000D03*
%TD*%
%TO.C,D582*%
X35425000Y-74000000D03*
X34575000Y-74000000D03*
%TD*%
%TO.C,D581*%
X32425000Y-74000000D03*
X31575000Y-74000000D03*
%TD*%
%TO.C,D580*%
X29425000Y-74000000D03*
X28575000Y-74000000D03*
%TD*%
%TO.C,D579*%
X26425000Y-74000000D03*
X25575000Y-74000000D03*
%TD*%
%TO.C,D578*%
X23425000Y-74000000D03*
X22575000Y-74000000D03*
%TD*%
%TO.C,D577*%
X20425000Y-74000000D03*
X19575000Y-74000000D03*
%TD*%
%TO.C,D576*%
X113425000Y-71000000D03*
X112575000Y-71000000D03*
%TD*%
%TO.C,D575*%
X110425000Y-71000000D03*
X109575000Y-71000000D03*
%TD*%
%TO.C,D574*%
X107425000Y-71000000D03*
X106575000Y-71000000D03*
%TD*%
%TO.C,D573*%
X104425000Y-71000000D03*
X103575000Y-71000000D03*
%TD*%
%TO.C,D572*%
X101425000Y-71000000D03*
X100575000Y-71000000D03*
%TD*%
%TO.C,D571*%
X98425000Y-71000000D03*
X97575000Y-71000000D03*
%TD*%
%TO.C,D570*%
X95425000Y-71000000D03*
X94575000Y-71000000D03*
%TD*%
%TO.C,D569*%
X92425000Y-71000000D03*
X91575000Y-71000000D03*
%TD*%
%TO.C,D568*%
X89425000Y-71000000D03*
X88575000Y-71000000D03*
%TD*%
%TO.C,D567*%
X86425000Y-71000000D03*
X85575000Y-71000000D03*
%TD*%
%TO.C,D566*%
X83425000Y-71000000D03*
X82575000Y-71000000D03*
%TD*%
%TO.C,D565*%
X80425000Y-71000000D03*
X79575000Y-71000000D03*
%TD*%
%TO.C,D564*%
X77425000Y-71000000D03*
X76575000Y-71000000D03*
%TD*%
%TO.C,D563*%
X74425000Y-71000000D03*
X73575000Y-71000000D03*
%TD*%
%TO.C,D562*%
X71425000Y-71000000D03*
X70575000Y-71000000D03*
%TD*%
%TO.C,D561*%
X68425000Y-71000000D03*
X67575000Y-71000000D03*
%TD*%
%TO.C,D560*%
X65425000Y-71000000D03*
X64575000Y-71000000D03*
%TD*%
%TO.C,D559*%
X62425000Y-71000000D03*
X61575000Y-71000000D03*
%TD*%
%TO.C,D558*%
X59425000Y-71000000D03*
X58575000Y-71000000D03*
%TD*%
%TO.C,D557*%
X56425000Y-71000000D03*
X55575000Y-71000000D03*
%TD*%
%TO.C,D556*%
X53425000Y-71000000D03*
X52575000Y-71000000D03*
%TD*%
%TO.C,D555*%
X50425000Y-71000000D03*
X49575000Y-71000000D03*
%TD*%
%TO.C,D554*%
X47425000Y-71000000D03*
X46575000Y-71000000D03*
%TD*%
%TO.C,D553*%
X44425000Y-71000000D03*
X43575000Y-71000000D03*
%TD*%
%TO.C,D552*%
X41425000Y-71000000D03*
X40575000Y-71000000D03*
%TD*%
%TO.C,D551*%
X38425000Y-71000000D03*
X37575000Y-71000000D03*
%TD*%
%TO.C,D550*%
X35425000Y-71000000D03*
X34575000Y-71000000D03*
%TD*%
%TO.C,D549*%
X32425000Y-71000000D03*
X31575000Y-71000000D03*
%TD*%
%TO.C,D548*%
X29425000Y-71000000D03*
X28575000Y-71000000D03*
%TD*%
%TO.C,D547*%
X26425000Y-71000000D03*
X25575000Y-71000000D03*
%TD*%
%TO.C,D546*%
X23425000Y-71000000D03*
X22575000Y-71000000D03*
%TD*%
%TO.C,D545*%
X20425000Y-71000000D03*
X19575000Y-71000000D03*
%TD*%
%TO.C,D544*%
X113425000Y-68000000D03*
X112575000Y-68000000D03*
%TD*%
%TO.C,D543*%
X110425000Y-68000000D03*
X109575000Y-68000000D03*
%TD*%
%TO.C,D542*%
X107425000Y-68000000D03*
X106575000Y-68000000D03*
%TD*%
%TO.C,D541*%
X104425000Y-68000000D03*
X103575000Y-68000000D03*
%TD*%
%TO.C,D540*%
X101425000Y-68000000D03*
X100575000Y-68000000D03*
%TD*%
%TO.C,D539*%
X98425000Y-68000000D03*
X97575000Y-68000000D03*
%TD*%
%TO.C,D538*%
X95425000Y-68000000D03*
X94575000Y-68000000D03*
%TD*%
%TO.C,D537*%
X92425000Y-68000000D03*
X91575000Y-68000000D03*
%TD*%
%TO.C,D536*%
X89425000Y-68000000D03*
X88575000Y-68000000D03*
%TD*%
%TO.C,D535*%
X86425000Y-68000000D03*
X85575000Y-68000000D03*
%TD*%
%TO.C,D534*%
X83425000Y-68000000D03*
X82575000Y-68000000D03*
%TD*%
%TO.C,D533*%
X80425000Y-68000000D03*
X79575000Y-68000000D03*
%TD*%
%TO.C,D532*%
X77425000Y-68000000D03*
X76575000Y-68000000D03*
%TD*%
%TO.C,D531*%
X74425000Y-68000000D03*
X73575000Y-68000000D03*
%TD*%
%TO.C,D530*%
X71425000Y-68000000D03*
X70575000Y-68000000D03*
%TD*%
%TO.C,D529*%
X68425000Y-68000000D03*
X67575000Y-68000000D03*
%TD*%
%TO.C,D528*%
X65425000Y-68000000D03*
X64575000Y-68000000D03*
%TD*%
%TO.C,D527*%
X62425000Y-68000000D03*
X61575000Y-68000000D03*
%TD*%
%TO.C,D526*%
X59425000Y-68000000D03*
X58575000Y-68000000D03*
%TD*%
%TO.C,D525*%
X56425000Y-68000000D03*
X55575000Y-68000000D03*
%TD*%
%TO.C,D524*%
X53425000Y-68000000D03*
X52575000Y-68000000D03*
%TD*%
%TO.C,D523*%
X50425000Y-68000000D03*
X49575000Y-68000000D03*
%TD*%
%TO.C,D522*%
X47425000Y-68000000D03*
X46575000Y-68000000D03*
%TD*%
%TO.C,D521*%
X44425000Y-68000000D03*
X43575000Y-68000000D03*
%TD*%
%TO.C,D520*%
X41425000Y-68000000D03*
X40575000Y-68000000D03*
%TD*%
%TO.C,D519*%
X38425000Y-68000000D03*
X37575000Y-68000000D03*
%TD*%
%TO.C,D518*%
X35425000Y-68000000D03*
X34575000Y-68000000D03*
%TD*%
%TO.C,D517*%
X32425000Y-68000000D03*
X31575000Y-68000000D03*
%TD*%
%TO.C,D516*%
X29425000Y-68000000D03*
X28575000Y-68000000D03*
%TD*%
%TO.C,D515*%
X26425000Y-68000000D03*
X25575000Y-68000000D03*
%TD*%
%TO.C,D514*%
X23425000Y-68000000D03*
X22575000Y-68000000D03*
%TD*%
%TO.C,D513*%
X20425000Y-68000000D03*
X19575000Y-68000000D03*
%TD*%
%TO.C,D512*%
X113425000Y-65000000D03*
X112575000Y-65000000D03*
%TD*%
%TO.C,D511*%
X110425000Y-65000000D03*
X109575000Y-65000000D03*
%TD*%
%TO.C,D510*%
X107425000Y-65000000D03*
X106575000Y-65000000D03*
%TD*%
%TO.C,D509*%
X104425000Y-65000000D03*
X103575000Y-65000000D03*
%TD*%
%TO.C,D508*%
X101425000Y-65000000D03*
X100575000Y-65000000D03*
%TD*%
%TO.C,D507*%
X98425000Y-65000000D03*
X97575000Y-65000000D03*
%TD*%
%TO.C,D506*%
X95425000Y-65000000D03*
X94575000Y-65000000D03*
%TD*%
%TO.C,D505*%
X92425000Y-65000000D03*
X91575000Y-65000000D03*
%TD*%
%TO.C,D504*%
X89425000Y-65000000D03*
X88575000Y-65000000D03*
%TD*%
%TO.C,D503*%
X86425000Y-65000000D03*
X85575000Y-65000000D03*
%TD*%
%TO.C,D502*%
X83425000Y-65000000D03*
X82575000Y-65000000D03*
%TD*%
%TO.C,D501*%
X80425000Y-65000000D03*
X79575000Y-65000000D03*
%TD*%
%TO.C,D500*%
X77425000Y-65000000D03*
X76575000Y-65000000D03*
%TD*%
%TO.C,D499*%
X74425000Y-65000000D03*
X73575000Y-65000000D03*
%TD*%
%TO.C,D498*%
X71425000Y-65000000D03*
X70575000Y-65000000D03*
%TD*%
%TO.C,D497*%
X68425000Y-65000000D03*
X67575000Y-65000000D03*
%TD*%
%TO.C,D496*%
X65425000Y-65000000D03*
X64575000Y-65000000D03*
%TD*%
%TO.C,D495*%
X62425000Y-65000000D03*
X61575000Y-65000000D03*
%TD*%
%TO.C,D494*%
X59425000Y-65000000D03*
X58575000Y-65000000D03*
%TD*%
%TO.C,D493*%
X56425000Y-65000000D03*
X55575000Y-65000000D03*
%TD*%
%TO.C,D492*%
X53425000Y-65000000D03*
X52575000Y-65000000D03*
%TD*%
%TO.C,D491*%
X50425000Y-65000000D03*
X49575000Y-65000000D03*
%TD*%
%TO.C,D490*%
X47425000Y-65000000D03*
X46575000Y-65000000D03*
%TD*%
%TO.C,D489*%
X44425000Y-65000000D03*
X43575000Y-65000000D03*
%TD*%
%TO.C,D488*%
X41425000Y-65000000D03*
X40575000Y-65000000D03*
%TD*%
%TO.C,D487*%
X38425000Y-65000000D03*
X37575000Y-65000000D03*
%TD*%
%TO.C,D486*%
X35425000Y-65000000D03*
X34575000Y-65000000D03*
%TD*%
%TO.C,D485*%
X32425000Y-65000000D03*
X31575000Y-65000000D03*
%TD*%
%TO.C,D484*%
X29425000Y-65000000D03*
X28575000Y-65000000D03*
%TD*%
%TO.C,D483*%
X26425000Y-65000000D03*
X25575000Y-65000000D03*
%TD*%
%TO.C,D482*%
X23425000Y-65000000D03*
X22575000Y-65000000D03*
%TD*%
%TO.C,D481*%
X20425000Y-65000000D03*
X19575000Y-65000000D03*
%TD*%
%TO.C,D480*%
X113425000Y-62000000D03*
X112575000Y-62000000D03*
%TD*%
%TO.C,D479*%
X110425000Y-62000000D03*
X109575000Y-62000000D03*
%TD*%
%TO.C,D478*%
X107425000Y-62000000D03*
X106575000Y-62000000D03*
%TD*%
%TO.C,D477*%
X104425000Y-62000000D03*
X103575000Y-62000000D03*
%TD*%
%TO.C,D476*%
X101425000Y-62000000D03*
X100575000Y-62000000D03*
%TD*%
%TO.C,D475*%
X98425000Y-62000000D03*
X97575000Y-62000000D03*
%TD*%
%TO.C,D474*%
X95425000Y-62000000D03*
X94575000Y-62000000D03*
%TD*%
%TO.C,D473*%
X92425000Y-62000000D03*
X91575000Y-62000000D03*
%TD*%
%TO.C,D472*%
X89425000Y-62000000D03*
X88575000Y-62000000D03*
%TD*%
%TO.C,D471*%
X86425000Y-62000000D03*
X85575000Y-62000000D03*
%TD*%
%TO.C,D470*%
X83425000Y-62000000D03*
X82575000Y-62000000D03*
%TD*%
%TO.C,D469*%
X80425000Y-62000000D03*
X79575000Y-62000000D03*
%TD*%
%TO.C,D468*%
X77425000Y-62000000D03*
X76575000Y-62000000D03*
%TD*%
%TO.C,D467*%
X74425000Y-62000000D03*
X73575000Y-62000000D03*
%TD*%
%TO.C,D466*%
X71425000Y-62000000D03*
X70575000Y-62000000D03*
%TD*%
%TO.C,D465*%
X68425000Y-62000000D03*
X67575000Y-62000000D03*
%TD*%
%TO.C,D464*%
X65425000Y-62000000D03*
X64575000Y-62000000D03*
%TD*%
%TO.C,D463*%
X62425000Y-62000000D03*
X61575000Y-62000000D03*
%TD*%
%TO.C,D462*%
X59425000Y-62000000D03*
X58575000Y-62000000D03*
%TD*%
%TO.C,D461*%
X56425000Y-62000000D03*
X55575000Y-62000000D03*
%TD*%
%TO.C,D460*%
X53425000Y-62000000D03*
X52575000Y-62000000D03*
%TD*%
%TO.C,D459*%
X50425000Y-62000000D03*
X49575000Y-62000000D03*
%TD*%
%TO.C,D458*%
X47425000Y-62000000D03*
X46575000Y-62000000D03*
%TD*%
%TO.C,D457*%
X44425000Y-62000000D03*
X43575000Y-62000000D03*
%TD*%
%TO.C,D456*%
X41425000Y-62000000D03*
X40575000Y-62000000D03*
%TD*%
%TO.C,D455*%
X38425000Y-62000000D03*
X37575000Y-62000000D03*
%TD*%
%TO.C,D454*%
X35425000Y-62000000D03*
X34575000Y-62000000D03*
%TD*%
%TO.C,D453*%
X32425000Y-62000000D03*
X31575000Y-62000000D03*
%TD*%
%TO.C,D452*%
X29425000Y-62000000D03*
X28575000Y-62000000D03*
%TD*%
%TO.C,D451*%
X26425000Y-62000000D03*
X25575000Y-62000000D03*
%TD*%
%TO.C,D450*%
X23425000Y-62000000D03*
X22575000Y-62000000D03*
%TD*%
%TO.C,D449*%
X20425000Y-62000000D03*
X19575000Y-62000000D03*
%TD*%
%TO.C,D448*%
X113425000Y-59000000D03*
X112575000Y-59000000D03*
%TD*%
%TO.C,D447*%
X110425000Y-59000000D03*
X109575000Y-59000000D03*
%TD*%
%TO.C,D446*%
X107425000Y-59000000D03*
X106575000Y-59000000D03*
%TD*%
%TO.C,D445*%
X104425000Y-59000000D03*
X103575000Y-59000000D03*
%TD*%
%TO.C,D444*%
X101425000Y-59000000D03*
X100575000Y-59000000D03*
%TD*%
%TO.C,D443*%
X98425000Y-59000000D03*
X97575000Y-59000000D03*
%TD*%
%TO.C,D442*%
X95425000Y-59000000D03*
X94575000Y-59000000D03*
%TD*%
%TO.C,D441*%
X92425000Y-59000000D03*
X91575000Y-59000000D03*
%TD*%
%TO.C,D440*%
X89425000Y-59000000D03*
X88575000Y-59000000D03*
%TD*%
%TO.C,D439*%
X86425000Y-59000000D03*
X85575000Y-59000000D03*
%TD*%
%TO.C,D438*%
X83425000Y-59000000D03*
X82575000Y-59000000D03*
%TD*%
%TO.C,D437*%
X80425000Y-59000000D03*
X79575000Y-59000000D03*
%TD*%
%TO.C,D436*%
X77425000Y-59000000D03*
X76575000Y-59000000D03*
%TD*%
%TO.C,D435*%
X74425000Y-59000000D03*
X73575000Y-59000000D03*
%TD*%
%TO.C,D434*%
X71425000Y-59000000D03*
X70575000Y-59000000D03*
%TD*%
%TO.C,D433*%
X68425000Y-59000000D03*
X67575000Y-59000000D03*
%TD*%
%TO.C,D432*%
X65425000Y-59000000D03*
X64575000Y-59000000D03*
%TD*%
%TO.C,D431*%
X62425000Y-59000000D03*
X61575000Y-59000000D03*
%TD*%
%TO.C,D430*%
X59425000Y-59000000D03*
X58575000Y-59000000D03*
%TD*%
%TO.C,D429*%
X56425000Y-59000000D03*
X55575000Y-59000000D03*
%TD*%
%TO.C,D428*%
X53425000Y-59000000D03*
X52575000Y-59000000D03*
%TD*%
%TO.C,D427*%
X50425000Y-59000000D03*
X49575000Y-59000000D03*
%TD*%
%TO.C,D426*%
X47425000Y-59000000D03*
X46575000Y-59000000D03*
%TD*%
%TO.C,D425*%
X44425000Y-59000000D03*
X43575000Y-59000000D03*
%TD*%
%TO.C,D424*%
X41425000Y-59000000D03*
X40575000Y-59000000D03*
%TD*%
%TO.C,D423*%
X38425000Y-59000000D03*
X37575000Y-59000000D03*
%TD*%
%TO.C,D422*%
X35425000Y-59000000D03*
X34575000Y-59000000D03*
%TD*%
%TO.C,D421*%
X32425000Y-59000000D03*
X31575000Y-59000000D03*
%TD*%
%TO.C,D420*%
X29425000Y-59000000D03*
X28575000Y-59000000D03*
%TD*%
%TO.C,D419*%
X26425000Y-59000000D03*
X25575000Y-59000000D03*
%TD*%
%TO.C,D418*%
X23425000Y-59000000D03*
X22575000Y-59000000D03*
%TD*%
%TO.C,D417*%
X20425000Y-59000000D03*
X19575000Y-59000000D03*
%TD*%
%TO.C,D416*%
X113425000Y-56000000D03*
X112575000Y-56000000D03*
%TD*%
%TO.C,D415*%
X110425000Y-56000000D03*
X109575000Y-56000000D03*
%TD*%
%TO.C,D414*%
X107425000Y-56000000D03*
X106575000Y-56000000D03*
%TD*%
%TO.C,D413*%
X104425000Y-56000000D03*
X103575000Y-56000000D03*
%TD*%
%TO.C,D412*%
X101425000Y-56000000D03*
X100575000Y-56000000D03*
%TD*%
%TO.C,D411*%
X98425000Y-56000000D03*
X97575000Y-56000000D03*
%TD*%
%TO.C,D410*%
X95425000Y-56000000D03*
X94575000Y-56000000D03*
%TD*%
%TO.C,D409*%
X92425000Y-56000000D03*
X91575000Y-56000000D03*
%TD*%
%TO.C,D408*%
X89425000Y-56000000D03*
X88575000Y-56000000D03*
%TD*%
%TO.C,D407*%
X86425000Y-56000000D03*
X85575000Y-56000000D03*
%TD*%
%TO.C,D406*%
X83425000Y-56000000D03*
X82575000Y-56000000D03*
%TD*%
%TO.C,D405*%
X80425000Y-56000000D03*
X79575000Y-56000000D03*
%TD*%
%TO.C,D404*%
X77425000Y-56000000D03*
X76575000Y-56000000D03*
%TD*%
%TO.C,D403*%
X74425000Y-56000000D03*
X73575000Y-56000000D03*
%TD*%
%TO.C,D402*%
X71425000Y-56000000D03*
X70575000Y-56000000D03*
%TD*%
%TO.C,D401*%
X68425000Y-56000000D03*
X67575000Y-56000000D03*
%TD*%
%TO.C,D400*%
X65425000Y-56000000D03*
X64575000Y-56000000D03*
%TD*%
%TO.C,D399*%
X62425000Y-56000000D03*
X61575000Y-56000000D03*
%TD*%
%TO.C,D398*%
X59425000Y-56000000D03*
X58575000Y-56000000D03*
%TD*%
%TO.C,D397*%
X56425000Y-56000000D03*
X55575000Y-56000000D03*
%TD*%
%TO.C,D396*%
X53425000Y-56000000D03*
X52575000Y-56000000D03*
%TD*%
%TO.C,D395*%
X50425000Y-56000000D03*
X49575000Y-56000000D03*
%TD*%
%TO.C,D394*%
X47425000Y-56000000D03*
X46575000Y-56000000D03*
%TD*%
%TO.C,D393*%
X44425000Y-56000000D03*
X43575000Y-56000000D03*
%TD*%
%TO.C,D392*%
X41425000Y-56000000D03*
X40575000Y-56000000D03*
%TD*%
%TO.C,D391*%
X38425000Y-56000000D03*
X37575000Y-56000000D03*
%TD*%
%TO.C,D390*%
X35425000Y-56000000D03*
X34575000Y-56000000D03*
%TD*%
%TO.C,D389*%
X32425000Y-56000000D03*
X31575000Y-56000000D03*
%TD*%
%TO.C,D388*%
X29425000Y-56000000D03*
X28575000Y-56000000D03*
%TD*%
%TO.C,D387*%
X26425000Y-56000000D03*
X25575000Y-56000000D03*
%TD*%
%TO.C,D386*%
X23425000Y-56000000D03*
X22575000Y-56000000D03*
%TD*%
%TO.C,D385*%
X20425000Y-56000000D03*
X19575000Y-56000000D03*
%TD*%
%TO.C,D384*%
X113425000Y-53000000D03*
X112575000Y-53000000D03*
%TD*%
%TO.C,D383*%
X110425000Y-53000000D03*
X109575000Y-53000000D03*
%TD*%
%TO.C,D382*%
X107425000Y-53000000D03*
X106575000Y-53000000D03*
%TD*%
%TO.C,D381*%
X104425000Y-53000000D03*
X103575000Y-53000000D03*
%TD*%
%TO.C,D380*%
X101425000Y-53000000D03*
X100575000Y-53000000D03*
%TD*%
%TO.C,D379*%
X98425000Y-53000000D03*
X97575000Y-53000000D03*
%TD*%
%TO.C,D378*%
X95425000Y-53000000D03*
X94575000Y-53000000D03*
%TD*%
%TO.C,D377*%
X92425000Y-53000000D03*
X91575000Y-53000000D03*
%TD*%
%TO.C,D376*%
X89425000Y-53000000D03*
X88575000Y-53000000D03*
%TD*%
%TO.C,D375*%
X86425000Y-53000000D03*
X85575000Y-53000000D03*
%TD*%
%TO.C,D374*%
X83425000Y-53000000D03*
X82575000Y-53000000D03*
%TD*%
%TO.C,D373*%
X80425000Y-53000000D03*
X79575000Y-53000000D03*
%TD*%
%TO.C,D372*%
X77425000Y-53000000D03*
X76575000Y-53000000D03*
%TD*%
%TO.C,D371*%
X74425000Y-53000000D03*
X73575000Y-53000000D03*
%TD*%
%TO.C,D370*%
X71425000Y-53000000D03*
X70575000Y-53000000D03*
%TD*%
%TO.C,D369*%
X68425000Y-53000000D03*
X67575000Y-53000000D03*
%TD*%
%TO.C,D368*%
X65425000Y-53000000D03*
X64575000Y-53000000D03*
%TD*%
%TO.C,D367*%
X62425000Y-53000000D03*
X61575000Y-53000000D03*
%TD*%
%TO.C,D366*%
X59425000Y-53000000D03*
X58575000Y-53000000D03*
%TD*%
%TO.C,D365*%
X56425000Y-53000000D03*
X55575000Y-53000000D03*
%TD*%
%TO.C,D364*%
X53425000Y-53000000D03*
X52575000Y-53000000D03*
%TD*%
%TO.C,D363*%
X50425000Y-53000000D03*
X49575000Y-53000000D03*
%TD*%
%TO.C,D362*%
X47425000Y-53000000D03*
X46575000Y-53000000D03*
%TD*%
%TO.C,D361*%
X44425000Y-53000000D03*
X43575000Y-53000000D03*
%TD*%
%TO.C,D360*%
X41425000Y-53000000D03*
X40575000Y-53000000D03*
%TD*%
%TO.C,D359*%
X38425000Y-53000000D03*
X37575000Y-53000000D03*
%TD*%
%TO.C,D358*%
X35425000Y-53000000D03*
X34575000Y-53000000D03*
%TD*%
%TO.C,D357*%
X32425000Y-53000000D03*
X31575000Y-53000000D03*
%TD*%
%TO.C,D356*%
X29425000Y-53000000D03*
X28575000Y-53000000D03*
%TD*%
%TO.C,D355*%
X26425000Y-53000000D03*
X25575000Y-53000000D03*
%TD*%
%TO.C,D354*%
X23425000Y-53000000D03*
X22575000Y-53000000D03*
%TD*%
%TO.C,D353*%
X20425000Y-53000000D03*
X19575000Y-53000000D03*
%TD*%
%TO.C,D352*%
X113425000Y-50000000D03*
X112575000Y-50000000D03*
%TD*%
%TO.C,D351*%
X110425000Y-50000000D03*
X109575000Y-50000000D03*
%TD*%
%TO.C,D350*%
X107425000Y-50000000D03*
X106575000Y-50000000D03*
%TD*%
%TO.C,D349*%
X104425000Y-50000000D03*
X103575000Y-50000000D03*
%TD*%
%TO.C,D348*%
X101425000Y-50000000D03*
X100575000Y-50000000D03*
%TD*%
%TO.C,D347*%
X98425000Y-50000000D03*
X97575000Y-50000000D03*
%TD*%
%TO.C,D346*%
X95425000Y-50000000D03*
X94575000Y-50000000D03*
%TD*%
%TO.C,D345*%
X92425000Y-50000000D03*
X91575000Y-50000000D03*
%TD*%
%TO.C,D344*%
X89425000Y-50000000D03*
X88575000Y-50000000D03*
%TD*%
%TO.C,D343*%
X86425000Y-50000000D03*
X85575000Y-50000000D03*
%TD*%
%TO.C,D342*%
X83425000Y-50000000D03*
X82575000Y-50000000D03*
%TD*%
%TO.C,D341*%
X80425000Y-50000000D03*
X79575000Y-50000000D03*
%TD*%
%TO.C,D340*%
X77425000Y-50000000D03*
X76575000Y-50000000D03*
%TD*%
%TO.C,D339*%
X74425000Y-50000000D03*
X73575000Y-50000000D03*
%TD*%
%TO.C,D338*%
X71425000Y-50000000D03*
X70575000Y-50000000D03*
%TD*%
%TO.C,D337*%
X68425000Y-50000000D03*
X67575000Y-50000000D03*
%TD*%
%TO.C,D336*%
X65425000Y-50000000D03*
X64575000Y-50000000D03*
%TD*%
%TO.C,D335*%
X62425000Y-50000000D03*
X61575000Y-50000000D03*
%TD*%
%TO.C,D334*%
X59425000Y-50000000D03*
X58575000Y-50000000D03*
%TD*%
%TO.C,D333*%
X56425000Y-50000000D03*
X55575000Y-50000000D03*
%TD*%
%TO.C,D332*%
X53425000Y-50000000D03*
X52575000Y-50000000D03*
%TD*%
%TO.C,D331*%
X50425000Y-50000000D03*
X49575000Y-50000000D03*
%TD*%
%TO.C,D330*%
X47425000Y-50000000D03*
X46575000Y-50000000D03*
%TD*%
%TO.C,D329*%
X44425000Y-50000000D03*
X43575000Y-50000000D03*
%TD*%
%TO.C,D328*%
X41425000Y-50000000D03*
X40575000Y-50000000D03*
%TD*%
%TO.C,D327*%
X38425000Y-50000000D03*
X37575000Y-50000000D03*
%TD*%
%TO.C,D326*%
X35425000Y-50000000D03*
X34575000Y-50000000D03*
%TD*%
%TO.C,D325*%
X32425000Y-50000000D03*
X31575000Y-50000000D03*
%TD*%
%TO.C,D324*%
X29425000Y-50000000D03*
X28575000Y-50000000D03*
%TD*%
%TO.C,D323*%
X26425000Y-50000000D03*
X25575000Y-50000000D03*
%TD*%
%TO.C,D322*%
X23425000Y-50000000D03*
X22575000Y-50000000D03*
%TD*%
%TO.C,D321*%
X20425000Y-50000000D03*
X19575000Y-50000000D03*
%TD*%
%TO.C,D320*%
X113425000Y-47000000D03*
X112575000Y-47000000D03*
%TD*%
%TO.C,D319*%
X110425000Y-47000000D03*
X109575000Y-47000000D03*
%TD*%
%TO.C,D318*%
X107425000Y-47000000D03*
X106575000Y-47000000D03*
%TD*%
%TO.C,D317*%
X104425000Y-47000000D03*
X103575000Y-47000000D03*
%TD*%
%TO.C,D316*%
X101425000Y-47000000D03*
X100575000Y-47000000D03*
%TD*%
%TO.C,D315*%
X98425000Y-47000000D03*
X97575000Y-47000000D03*
%TD*%
%TO.C,D314*%
X95425000Y-47000000D03*
X94575000Y-47000000D03*
%TD*%
%TO.C,D313*%
X92425000Y-47000000D03*
X91575000Y-47000000D03*
%TD*%
%TO.C,D312*%
X89425000Y-47000000D03*
X88575000Y-47000000D03*
%TD*%
%TO.C,D311*%
X86425000Y-47000000D03*
X85575000Y-47000000D03*
%TD*%
%TO.C,D310*%
X83425000Y-47000000D03*
X82575000Y-47000000D03*
%TD*%
%TO.C,D309*%
X80425000Y-47000000D03*
X79575000Y-47000000D03*
%TD*%
%TO.C,D308*%
X77425000Y-47000000D03*
X76575000Y-47000000D03*
%TD*%
%TO.C,D307*%
X74425000Y-47000000D03*
X73575000Y-47000000D03*
%TD*%
%TO.C,D306*%
X71425000Y-47000000D03*
X70575000Y-47000000D03*
%TD*%
%TO.C,D305*%
X68425000Y-47000000D03*
X67575000Y-47000000D03*
%TD*%
%TO.C,D304*%
X65425000Y-47000000D03*
X64575000Y-47000000D03*
%TD*%
%TO.C,D303*%
X62425000Y-47000000D03*
X61575000Y-47000000D03*
%TD*%
%TO.C,D302*%
X59425000Y-47000000D03*
X58575000Y-47000000D03*
%TD*%
%TO.C,D301*%
X56425000Y-47000000D03*
X55575000Y-47000000D03*
%TD*%
%TO.C,D300*%
X53425000Y-47000000D03*
X52575000Y-47000000D03*
%TD*%
%TO.C,D299*%
X50425000Y-47000000D03*
X49575000Y-47000000D03*
%TD*%
%TO.C,D298*%
X47425000Y-47000000D03*
X46575000Y-47000000D03*
%TD*%
%TO.C,D297*%
X44425000Y-47000000D03*
X43575000Y-47000000D03*
%TD*%
%TO.C,D296*%
X41425000Y-47000000D03*
X40575000Y-47000000D03*
%TD*%
%TO.C,D295*%
X38425000Y-47000000D03*
X37575000Y-47000000D03*
%TD*%
%TO.C,D294*%
X35425000Y-47000000D03*
X34575000Y-47000000D03*
%TD*%
%TO.C,D293*%
X32425000Y-47000000D03*
X31575000Y-47000000D03*
%TD*%
%TO.C,D292*%
X29425000Y-47000000D03*
X28575000Y-47000000D03*
%TD*%
%TO.C,D291*%
X26425000Y-47000000D03*
X25575000Y-47000000D03*
%TD*%
%TO.C,D290*%
X23425000Y-47000000D03*
X22575000Y-47000000D03*
%TD*%
%TO.C,D289*%
X20425000Y-47000000D03*
X19575000Y-47000000D03*
%TD*%
%TO.C,D288*%
X113425000Y-44000000D03*
X112575000Y-44000000D03*
%TD*%
%TO.C,D287*%
X110425000Y-44000000D03*
X109575000Y-44000000D03*
%TD*%
%TO.C,D286*%
X107425000Y-44000000D03*
X106575000Y-44000000D03*
%TD*%
%TO.C,D285*%
X104425000Y-44000000D03*
X103575000Y-44000000D03*
%TD*%
%TO.C,D284*%
X101425000Y-44000000D03*
X100575000Y-44000000D03*
%TD*%
%TO.C,D283*%
X98425000Y-44000000D03*
X97575000Y-44000000D03*
%TD*%
%TO.C,D282*%
X95425000Y-44000000D03*
X94575000Y-44000000D03*
%TD*%
%TO.C,D281*%
X92425000Y-44000000D03*
X91575000Y-44000000D03*
%TD*%
%TO.C,D280*%
X89425000Y-44000000D03*
X88575000Y-44000000D03*
%TD*%
%TO.C,D279*%
X86425000Y-44000000D03*
X85575000Y-44000000D03*
%TD*%
%TO.C,D278*%
X83425000Y-44000000D03*
X82575000Y-44000000D03*
%TD*%
%TO.C,D277*%
X80425000Y-44000000D03*
X79575000Y-44000000D03*
%TD*%
%TO.C,D276*%
X77425000Y-44000000D03*
X76575000Y-44000000D03*
%TD*%
%TO.C,D275*%
X74425000Y-44000000D03*
X73575000Y-44000000D03*
%TD*%
%TO.C,D274*%
X71425000Y-44000000D03*
X70575000Y-44000000D03*
%TD*%
%TO.C,D273*%
X68425000Y-44000000D03*
X67575000Y-44000000D03*
%TD*%
%TO.C,D272*%
X65425000Y-44000000D03*
X64575000Y-44000000D03*
%TD*%
%TO.C,D271*%
X62425000Y-44000000D03*
X61575000Y-44000000D03*
%TD*%
%TO.C,D270*%
X59425000Y-44000000D03*
X58575000Y-44000000D03*
%TD*%
%TO.C,D269*%
X56425000Y-44000000D03*
X55575000Y-44000000D03*
%TD*%
%TO.C,D268*%
X53425000Y-44000000D03*
X52575000Y-44000000D03*
%TD*%
%TO.C,D267*%
X50425000Y-44000000D03*
X49575000Y-44000000D03*
%TD*%
%TO.C,D266*%
X47425000Y-44000000D03*
X46575000Y-44000000D03*
%TD*%
%TO.C,D265*%
X44425000Y-44000000D03*
X43575000Y-44000000D03*
%TD*%
%TO.C,D264*%
X41425000Y-44000000D03*
X40575000Y-44000000D03*
%TD*%
%TO.C,D263*%
X38425000Y-44000000D03*
X37575000Y-44000000D03*
%TD*%
%TO.C,D262*%
X35425000Y-44000000D03*
X34575000Y-44000000D03*
%TD*%
%TO.C,D261*%
X32425000Y-44000000D03*
X31575000Y-44000000D03*
%TD*%
%TO.C,D260*%
X29425000Y-44000000D03*
X28575000Y-44000000D03*
%TD*%
%TO.C,D259*%
X26425000Y-44000000D03*
X25575000Y-44000000D03*
%TD*%
%TO.C,D258*%
X23425000Y-44000000D03*
X22575000Y-44000000D03*
%TD*%
%TO.C,D257*%
X20425000Y-44000000D03*
X19575000Y-44000000D03*
%TD*%
%TO.C,D256*%
X113425000Y-41000000D03*
X112575000Y-41000000D03*
%TD*%
%TO.C,D255*%
X110425000Y-41000000D03*
X109575000Y-41000000D03*
%TD*%
%TO.C,D254*%
X107425000Y-41000000D03*
X106575000Y-41000000D03*
%TD*%
%TO.C,D253*%
X104425000Y-41000000D03*
X103575000Y-41000000D03*
%TD*%
%TO.C,D252*%
X101425000Y-41000000D03*
X100575000Y-41000000D03*
%TD*%
%TO.C,D251*%
X98425000Y-41000000D03*
X97575000Y-41000000D03*
%TD*%
%TO.C,D250*%
X95425000Y-41000000D03*
X94575000Y-41000000D03*
%TD*%
%TO.C,D249*%
X92425000Y-41000000D03*
X91575000Y-41000000D03*
%TD*%
%TO.C,D248*%
X89425000Y-41000000D03*
X88575000Y-41000000D03*
%TD*%
%TO.C,D247*%
X86425000Y-41000000D03*
X85575000Y-41000000D03*
%TD*%
%TO.C,D246*%
X83425000Y-41000000D03*
X82575000Y-41000000D03*
%TD*%
%TO.C,D245*%
X80425000Y-41000000D03*
X79575000Y-41000000D03*
%TD*%
%TO.C,D244*%
X77425000Y-41000000D03*
X76575000Y-41000000D03*
%TD*%
%TO.C,D243*%
X74425000Y-41000000D03*
X73575000Y-41000000D03*
%TD*%
%TO.C,D242*%
X71425000Y-41000000D03*
X70575000Y-41000000D03*
%TD*%
%TO.C,D241*%
X68425000Y-41000000D03*
X67575000Y-41000000D03*
%TD*%
%TO.C,D240*%
X65425000Y-41000000D03*
X64575000Y-41000000D03*
%TD*%
%TO.C,D239*%
X62425000Y-41000000D03*
X61575000Y-41000000D03*
%TD*%
%TO.C,D238*%
X59425000Y-41000000D03*
X58575000Y-41000000D03*
%TD*%
%TO.C,D237*%
X56425000Y-41000000D03*
X55575000Y-41000000D03*
%TD*%
%TO.C,D236*%
X53425000Y-41000000D03*
X52575000Y-41000000D03*
%TD*%
%TO.C,D235*%
X50425000Y-41000000D03*
X49575000Y-41000000D03*
%TD*%
%TO.C,D234*%
X47425000Y-41000000D03*
X46575000Y-41000000D03*
%TD*%
%TO.C,D233*%
X44425000Y-41000000D03*
X43575000Y-41000000D03*
%TD*%
%TO.C,D232*%
X41425000Y-41000000D03*
X40575000Y-41000000D03*
%TD*%
%TO.C,D231*%
X38425000Y-41000000D03*
X37575000Y-41000000D03*
%TD*%
%TO.C,D230*%
X35425000Y-41000000D03*
X34575000Y-41000000D03*
%TD*%
%TO.C,D229*%
X32425000Y-41000000D03*
X31575000Y-41000000D03*
%TD*%
%TO.C,D228*%
X29425000Y-41000000D03*
X28575000Y-41000000D03*
%TD*%
%TO.C,D227*%
X26425000Y-41000000D03*
X25575000Y-41000000D03*
%TD*%
%TO.C,D226*%
X23425000Y-41000000D03*
X22575000Y-41000000D03*
%TD*%
%TO.C,D225*%
X20425000Y-41000000D03*
X19575000Y-41000000D03*
%TD*%
%TO.C,D224*%
X113425000Y-38000000D03*
X112575000Y-38000000D03*
%TD*%
%TO.C,D223*%
X110425000Y-38000000D03*
X109575000Y-38000000D03*
%TD*%
%TO.C,D222*%
X107425000Y-38000000D03*
X106575000Y-38000000D03*
%TD*%
%TO.C,D221*%
X104425000Y-38000000D03*
X103575000Y-38000000D03*
%TD*%
%TO.C,D220*%
X101425000Y-38000000D03*
X100575000Y-38000000D03*
%TD*%
%TO.C,D219*%
X98425000Y-38000000D03*
X97575000Y-38000000D03*
%TD*%
%TO.C,D218*%
X95425000Y-38000000D03*
X94575000Y-38000000D03*
%TD*%
%TO.C,D217*%
X92425000Y-38000000D03*
X91575000Y-38000000D03*
%TD*%
%TO.C,D216*%
X89425000Y-38000000D03*
X88575000Y-38000000D03*
%TD*%
%TO.C,D215*%
X86425000Y-38000000D03*
X85575000Y-38000000D03*
%TD*%
%TO.C,D214*%
X83425000Y-38000000D03*
X82575000Y-38000000D03*
%TD*%
%TO.C,D213*%
X80425000Y-38000000D03*
X79575000Y-38000000D03*
%TD*%
%TO.C,D212*%
X77425000Y-38000000D03*
X76575000Y-38000000D03*
%TD*%
%TO.C,D211*%
X74425000Y-38000000D03*
X73575000Y-38000000D03*
%TD*%
%TO.C,D210*%
X71425000Y-38000000D03*
X70575000Y-38000000D03*
%TD*%
%TO.C,D209*%
X68425000Y-38000000D03*
X67575000Y-38000000D03*
%TD*%
%TO.C,D208*%
X65425000Y-38000000D03*
X64575000Y-38000000D03*
%TD*%
%TO.C,D207*%
X62425000Y-38000000D03*
X61575000Y-38000000D03*
%TD*%
%TO.C,D206*%
X59425000Y-38000000D03*
X58575000Y-38000000D03*
%TD*%
%TO.C,D205*%
X56425000Y-38000000D03*
X55575000Y-38000000D03*
%TD*%
%TO.C,D204*%
X53425000Y-38000000D03*
X52575000Y-38000000D03*
%TD*%
%TO.C,D203*%
X50425000Y-38000000D03*
X49575000Y-38000000D03*
%TD*%
%TO.C,D202*%
X47425000Y-38000000D03*
X46575000Y-38000000D03*
%TD*%
%TO.C,D201*%
X44425000Y-38000000D03*
X43575000Y-38000000D03*
%TD*%
%TO.C,D200*%
X41425000Y-38000000D03*
X40575000Y-38000000D03*
%TD*%
%TO.C,D199*%
X38425000Y-38000000D03*
X37575000Y-38000000D03*
%TD*%
%TO.C,D198*%
X35425000Y-38000000D03*
X34575000Y-38000000D03*
%TD*%
%TO.C,D197*%
X32425000Y-38000000D03*
X31575000Y-38000000D03*
%TD*%
%TO.C,D196*%
X29425000Y-38000000D03*
X28575000Y-38000000D03*
%TD*%
%TO.C,D195*%
X26425000Y-38000000D03*
X25575000Y-38000000D03*
%TD*%
%TO.C,D194*%
X23425000Y-38000000D03*
X22575000Y-38000000D03*
%TD*%
%TO.C,D193*%
X20425000Y-38000000D03*
X19575000Y-38000000D03*
%TD*%
%TO.C,D192*%
X113425000Y-35000000D03*
X112575000Y-35000000D03*
%TD*%
%TO.C,D191*%
X110425000Y-35000000D03*
X109575000Y-35000000D03*
%TD*%
%TO.C,D190*%
X107425000Y-35000000D03*
X106575000Y-35000000D03*
%TD*%
%TO.C,D189*%
X104425000Y-35000000D03*
X103575000Y-35000000D03*
%TD*%
%TO.C,D188*%
X101425000Y-35000000D03*
X100575000Y-35000000D03*
%TD*%
%TO.C,D187*%
X98425000Y-35000000D03*
X97575000Y-35000000D03*
%TD*%
%TO.C,D186*%
X95425000Y-35000000D03*
X94575000Y-35000000D03*
%TD*%
%TO.C,D185*%
X92425000Y-35000000D03*
X91575000Y-35000000D03*
%TD*%
%TO.C,D184*%
X89425000Y-35000000D03*
X88575000Y-35000000D03*
%TD*%
%TO.C,D183*%
X86425000Y-35000000D03*
X85575000Y-35000000D03*
%TD*%
%TO.C,D182*%
X83425000Y-35000000D03*
X82575000Y-35000000D03*
%TD*%
%TO.C,D181*%
X80425000Y-35000000D03*
X79575000Y-35000000D03*
%TD*%
%TO.C,D180*%
X77425000Y-35000000D03*
X76575000Y-35000000D03*
%TD*%
%TO.C,D179*%
X74425000Y-35000000D03*
X73575000Y-35000000D03*
%TD*%
%TO.C,D178*%
X71425000Y-35000000D03*
X70575000Y-35000000D03*
%TD*%
%TO.C,D177*%
X68425000Y-35000000D03*
X67575000Y-35000000D03*
%TD*%
%TO.C,D176*%
X65425000Y-35000000D03*
X64575000Y-35000000D03*
%TD*%
%TO.C,D175*%
X62425000Y-35000000D03*
X61575000Y-35000000D03*
%TD*%
%TO.C,D174*%
X59425000Y-35000000D03*
X58575000Y-35000000D03*
%TD*%
%TO.C,D173*%
X56425000Y-35000000D03*
X55575000Y-35000000D03*
%TD*%
%TO.C,D172*%
X53425000Y-35000000D03*
X52575000Y-35000000D03*
%TD*%
%TO.C,D171*%
X50425000Y-35000000D03*
X49575000Y-35000000D03*
%TD*%
%TO.C,D170*%
X47425000Y-35000000D03*
X46575000Y-35000000D03*
%TD*%
%TO.C,D169*%
X44425000Y-35000000D03*
X43575000Y-35000000D03*
%TD*%
%TO.C,D168*%
X41425000Y-35000000D03*
X40575000Y-35000000D03*
%TD*%
%TO.C,D167*%
X38425000Y-35000000D03*
X37575000Y-35000000D03*
%TD*%
%TO.C,D166*%
X35425000Y-35000000D03*
X34575000Y-35000000D03*
%TD*%
%TO.C,D165*%
X32425000Y-35000000D03*
X31575000Y-35000000D03*
%TD*%
%TO.C,D164*%
X29425000Y-35000000D03*
X28575000Y-35000000D03*
%TD*%
%TO.C,D163*%
X26425000Y-35000000D03*
X25575000Y-35000000D03*
%TD*%
%TO.C,D162*%
X23425000Y-35000000D03*
X22575000Y-35000000D03*
%TD*%
%TO.C,D161*%
X20425000Y-35000000D03*
X19575000Y-35000000D03*
%TD*%
%TO.C,D160*%
X113425000Y-32000000D03*
X112575000Y-32000000D03*
%TD*%
%TO.C,D159*%
X110425000Y-32000000D03*
X109575000Y-32000000D03*
%TD*%
%TO.C,D158*%
X107425000Y-32000000D03*
X106575000Y-32000000D03*
%TD*%
%TO.C,D157*%
X104425000Y-32000000D03*
X103575000Y-32000000D03*
%TD*%
%TO.C,D156*%
X101425000Y-32000000D03*
X100575000Y-32000000D03*
%TD*%
%TO.C,D155*%
X98425000Y-32000000D03*
X97575000Y-32000000D03*
%TD*%
%TO.C,D154*%
X95425000Y-32000000D03*
X94575000Y-32000000D03*
%TD*%
%TO.C,D153*%
X92425000Y-32000000D03*
X91575000Y-32000000D03*
%TD*%
%TO.C,D152*%
X89425000Y-32000000D03*
X88575000Y-32000000D03*
%TD*%
%TO.C,D151*%
X86425000Y-32000000D03*
X85575000Y-32000000D03*
%TD*%
%TO.C,D150*%
X83425000Y-32000000D03*
X82575000Y-32000000D03*
%TD*%
%TO.C,D149*%
X80425000Y-32000000D03*
X79575000Y-32000000D03*
%TD*%
%TO.C,D148*%
X77425000Y-32000000D03*
X76575000Y-32000000D03*
%TD*%
%TO.C,D147*%
X74425000Y-32000000D03*
X73575000Y-32000000D03*
%TD*%
%TO.C,D146*%
X71425000Y-32000000D03*
X70575000Y-32000000D03*
%TD*%
%TO.C,D145*%
X68425000Y-32000000D03*
X67575000Y-32000000D03*
%TD*%
%TO.C,D144*%
X65425000Y-32000000D03*
X64575000Y-32000000D03*
%TD*%
%TO.C,D143*%
X62425000Y-32000000D03*
X61575000Y-32000000D03*
%TD*%
%TO.C,D142*%
X59425000Y-32000000D03*
X58575000Y-32000000D03*
%TD*%
%TO.C,D141*%
X56425000Y-32000000D03*
X55575000Y-32000000D03*
%TD*%
%TO.C,D140*%
X53425000Y-32000000D03*
X52575000Y-32000000D03*
%TD*%
%TO.C,D139*%
X50425000Y-32000000D03*
X49575000Y-32000000D03*
%TD*%
%TO.C,D138*%
X47425000Y-32000000D03*
X46575000Y-32000000D03*
%TD*%
%TO.C,D137*%
X44425000Y-32000000D03*
X43575000Y-32000000D03*
%TD*%
%TO.C,D136*%
X41425000Y-32000000D03*
X40575000Y-32000000D03*
%TD*%
%TO.C,D135*%
X38425000Y-32000000D03*
X37575000Y-32000000D03*
%TD*%
%TO.C,D134*%
X35425000Y-32000000D03*
X34575000Y-32000000D03*
%TD*%
%TO.C,D133*%
X32425000Y-32000000D03*
X31575000Y-32000000D03*
%TD*%
%TO.C,D132*%
X29425000Y-32000000D03*
X28575000Y-32000000D03*
%TD*%
%TO.C,D131*%
X26425000Y-32000000D03*
X25575000Y-32000000D03*
%TD*%
%TO.C,D130*%
X23425000Y-32000000D03*
X22575000Y-32000000D03*
%TD*%
%TO.C,D129*%
X20425000Y-32000000D03*
X19575000Y-32000000D03*
%TD*%
%TO.C,D128*%
X113425000Y-29000000D03*
X112575000Y-29000000D03*
%TD*%
%TO.C,D127*%
X110425000Y-29000000D03*
X109575000Y-29000000D03*
%TD*%
%TO.C,D126*%
X107425000Y-29000000D03*
X106575000Y-29000000D03*
%TD*%
%TO.C,D125*%
X104425000Y-29000000D03*
X103575000Y-29000000D03*
%TD*%
%TO.C,D124*%
X101425000Y-29000000D03*
X100575000Y-29000000D03*
%TD*%
%TO.C,D123*%
X98425000Y-29000000D03*
X97575000Y-29000000D03*
%TD*%
%TO.C,D122*%
X95425000Y-29000000D03*
X94575000Y-29000000D03*
%TD*%
%TO.C,D121*%
X92425000Y-29000000D03*
X91575000Y-29000000D03*
%TD*%
%TO.C,D120*%
X89425000Y-29000000D03*
X88575000Y-29000000D03*
%TD*%
%TO.C,D119*%
X86425000Y-29000000D03*
X85575000Y-29000000D03*
%TD*%
%TO.C,D118*%
X83425000Y-29000000D03*
X82575000Y-29000000D03*
%TD*%
%TO.C,D117*%
X80425000Y-29000000D03*
X79575000Y-29000000D03*
%TD*%
%TO.C,D116*%
X77425000Y-29000000D03*
X76575000Y-29000000D03*
%TD*%
%TO.C,D115*%
X74425000Y-29000000D03*
X73575000Y-29000000D03*
%TD*%
%TO.C,D114*%
X71425000Y-29000000D03*
X70575000Y-29000000D03*
%TD*%
%TO.C,D113*%
X68425000Y-29000000D03*
X67575000Y-29000000D03*
%TD*%
%TO.C,D112*%
X65425000Y-29000000D03*
X64575000Y-29000000D03*
%TD*%
%TO.C,D111*%
X62425000Y-29000000D03*
X61575000Y-29000000D03*
%TD*%
%TO.C,D110*%
X59425000Y-29000000D03*
X58575000Y-29000000D03*
%TD*%
%TO.C,D109*%
X56425000Y-29000000D03*
X55575000Y-29000000D03*
%TD*%
%TO.C,D108*%
X53425000Y-29000000D03*
X52575000Y-29000000D03*
%TD*%
%TO.C,D107*%
X50425000Y-29000000D03*
X49575000Y-29000000D03*
%TD*%
%TO.C,D106*%
X47425000Y-29000000D03*
X46575000Y-29000000D03*
%TD*%
%TO.C,D105*%
X44425000Y-29000000D03*
X43575000Y-29000000D03*
%TD*%
%TO.C,D104*%
X41425000Y-29000000D03*
X40575000Y-29000000D03*
%TD*%
%TO.C,D103*%
X38425000Y-29000000D03*
X37575000Y-29000000D03*
%TD*%
%TO.C,D102*%
X35425000Y-29000000D03*
X34575000Y-29000000D03*
%TD*%
%TO.C,D101*%
X32425000Y-29000000D03*
X31575000Y-29000000D03*
%TD*%
%TO.C,D100*%
X29425000Y-29000000D03*
X28575000Y-29000000D03*
%TD*%
%TO.C,D99*%
X26425000Y-29000000D03*
X25575000Y-29000000D03*
%TD*%
%TO.C,D98*%
X23425000Y-29000000D03*
X22575000Y-29000000D03*
%TD*%
%TO.C,D97*%
X20425000Y-29000000D03*
X19575000Y-29000000D03*
%TD*%
%TO.C,D96*%
X113425000Y-26000000D03*
X112575000Y-26000000D03*
%TD*%
%TO.C,D95*%
X110425000Y-26000000D03*
X109575000Y-26000000D03*
%TD*%
%TO.C,D94*%
X107425000Y-26000000D03*
X106575000Y-26000000D03*
%TD*%
%TO.C,D93*%
X104425000Y-26000000D03*
X103575000Y-26000000D03*
%TD*%
%TO.C,D92*%
X101425000Y-26000000D03*
X100575000Y-26000000D03*
%TD*%
%TO.C,D91*%
X98425000Y-26000000D03*
X97575000Y-26000000D03*
%TD*%
%TO.C,D90*%
X95425000Y-26000000D03*
X94575000Y-26000000D03*
%TD*%
%TO.C,D89*%
X92425000Y-26000000D03*
X91575000Y-26000000D03*
%TD*%
%TO.C,D88*%
X89425000Y-26000000D03*
X88575000Y-26000000D03*
%TD*%
%TO.C,D87*%
X86425000Y-26000000D03*
X85575000Y-26000000D03*
%TD*%
%TO.C,D86*%
X83425000Y-26000000D03*
X82575000Y-26000000D03*
%TD*%
%TO.C,D85*%
X80425000Y-26000000D03*
X79575000Y-26000000D03*
%TD*%
%TO.C,D84*%
X77425000Y-26000000D03*
X76575000Y-26000000D03*
%TD*%
%TO.C,D83*%
X74425000Y-26000000D03*
X73575000Y-26000000D03*
%TD*%
%TO.C,D82*%
X71425000Y-26000000D03*
X70575000Y-26000000D03*
%TD*%
%TO.C,D81*%
X68425000Y-26000000D03*
X67575000Y-26000000D03*
%TD*%
%TO.C,D80*%
X65425000Y-26000000D03*
X64575000Y-26000000D03*
%TD*%
%TO.C,D79*%
X62425000Y-26000000D03*
X61575000Y-26000000D03*
%TD*%
%TO.C,D78*%
X59425000Y-26000000D03*
X58575000Y-26000000D03*
%TD*%
%TO.C,D77*%
X56425000Y-26000000D03*
X55575000Y-26000000D03*
%TD*%
%TO.C,D76*%
X53425000Y-26000000D03*
X52575000Y-26000000D03*
%TD*%
%TO.C,D75*%
X50425000Y-26000000D03*
X49575000Y-26000000D03*
%TD*%
%TO.C,D74*%
X47425000Y-26000000D03*
X46575000Y-26000000D03*
%TD*%
%TO.C,D73*%
X44425000Y-26000000D03*
X43575000Y-26000000D03*
%TD*%
%TO.C,D72*%
X41425000Y-26000000D03*
X40575000Y-26000000D03*
%TD*%
%TO.C,D71*%
X38425000Y-26000000D03*
X37575000Y-26000000D03*
%TD*%
%TO.C,D70*%
X35425000Y-26000000D03*
X34575000Y-26000000D03*
%TD*%
%TO.C,D69*%
X32425000Y-26000000D03*
X31575000Y-26000000D03*
%TD*%
%TO.C,D68*%
X29425000Y-26000000D03*
X28575000Y-26000000D03*
%TD*%
%TO.C,D67*%
X26425000Y-26000000D03*
X25575000Y-26000000D03*
%TD*%
%TO.C,D66*%
X23425000Y-26000000D03*
X22575000Y-26000000D03*
%TD*%
%TO.C,D65*%
X20425000Y-26000000D03*
X19575000Y-26000000D03*
%TD*%
%TO.C,D64*%
X113425000Y-23000000D03*
X112575000Y-23000000D03*
%TD*%
%TO.C,D63*%
X110425000Y-23000000D03*
X109575000Y-23000000D03*
%TD*%
%TO.C,D62*%
X107425000Y-23000000D03*
X106575000Y-23000000D03*
%TD*%
%TO.C,D61*%
X104425000Y-23000000D03*
X103575000Y-23000000D03*
%TD*%
%TO.C,D60*%
X101425000Y-23000000D03*
X100575000Y-23000000D03*
%TD*%
%TO.C,D59*%
X98425000Y-23000000D03*
X97575000Y-23000000D03*
%TD*%
%TO.C,D58*%
X95425000Y-23000000D03*
X94575000Y-23000000D03*
%TD*%
%TO.C,D57*%
X92425000Y-23000000D03*
X91575000Y-23000000D03*
%TD*%
%TO.C,D56*%
X89425000Y-23000000D03*
X88575000Y-23000000D03*
%TD*%
%TO.C,D55*%
X86425000Y-23000000D03*
X85575000Y-23000000D03*
%TD*%
%TO.C,D54*%
X83425000Y-23000000D03*
X82575000Y-23000000D03*
%TD*%
%TO.C,D53*%
X80425000Y-23000000D03*
X79575000Y-23000000D03*
%TD*%
%TO.C,D52*%
X77425000Y-23000000D03*
X76575000Y-23000000D03*
%TD*%
%TO.C,D51*%
X74425000Y-23000000D03*
X73575000Y-23000000D03*
%TD*%
%TO.C,D50*%
X71425000Y-23000000D03*
X70575000Y-23000000D03*
%TD*%
%TO.C,D49*%
X68425000Y-23000000D03*
X67575000Y-23000000D03*
%TD*%
%TO.C,D48*%
X65425000Y-23000000D03*
X64575000Y-23000000D03*
%TD*%
%TO.C,D47*%
X62425000Y-23000000D03*
X61575000Y-23000000D03*
%TD*%
%TO.C,D46*%
X59425000Y-23000000D03*
X58575000Y-23000000D03*
%TD*%
%TO.C,D45*%
X56425000Y-23000000D03*
X55575000Y-23000000D03*
%TD*%
%TO.C,D44*%
X53425000Y-23000000D03*
X52575000Y-23000000D03*
%TD*%
%TO.C,D43*%
X50425000Y-23000000D03*
X49575000Y-23000000D03*
%TD*%
%TO.C,D42*%
X47425000Y-23000000D03*
X46575000Y-23000000D03*
%TD*%
%TO.C,D41*%
X44425000Y-23000000D03*
X43575000Y-23000000D03*
%TD*%
%TO.C,D40*%
X41425000Y-23000000D03*
X40575000Y-23000000D03*
%TD*%
%TO.C,D39*%
X38425000Y-23000000D03*
X37575000Y-23000000D03*
%TD*%
%TO.C,D38*%
X35425000Y-23000000D03*
X34575000Y-23000000D03*
%TD*%
%TO.C,D37*%
X32425000Y-23000000D03*
X31575000Y-23000000D03*
%TD*%
%TO.C,D36*%
X29425000Y-23000000D03*
X28575000Y-23000000D03*
%TD*%
%TO.C,D35*%
X26425000Y-23000000D03*
X25575000Y-23000000D03*
%TD*%
%TO.C,D34*%
X23425000Y-23000000D03*
X22575000Y-23000000D03*
%TD*%
%TO.C,D33*%
X20425000Y-23000000D03*
X19575000Y-23000000D03*
%TD*%
%TO.C,D32*%
X113425000Y-20000000D03*
X112575000Y-20000000D03*
%TD*%
%TO.C,D31*%
X110425000Y-20000000D03*
X109575000Y-20000000D03*
%TD*%
%TO.C,D30*%
X107425000Y-20000000D03*
X106575000Y-20000000D03*
%TD*%
%TO.C,D29*%
X103575000Y-20000000D03*
X104425000Y-20000000D03*
%TD*%
%TO.C,D28*%
X101425000Y-20000000D03*
X100575000Y-20000000D03*
%TD*%
%TO.C,D27*%
X98425000Y-20000000D03*
X97575000Y-20000000D03*
%TD*%
%TO.C,D26*%
X95425000Y-20000000D03*
X94575000Y-20000000D03*
%TD*%
%TO.C,D25*%
X92425000Y-20000000D03*
X91575000Y-20000000D03*
%TD*%
%TO.C,D24*%
X89425000Y-20000000D03*
X88575000Y-20000000D03*
%TD*%
%TO.C,D23*%
X86425000Y-20000000D03*
X85575000Y-20000000D03*
%TD*%
%TO.C,D22*%
X83425000Y-20000000D03*
X82575000Y-20000000D03*
%TD*%
%TO.C,D21*%
X80425000Y-20000000D03*
X79575000Y-20000000D03*
%TD*%
%TO.C,D20*%
X77425000Y-20000000D03*
X76575000Y-20000000D03*
%TD*%
%TO.C,D19*%
X74425000Y-20000000D03*
X73575000Y-20000000D03*
%TD*%
%TO.C,D18*%
X71425000Y-20000000D03*
X70575000Y-20000000D03*
%TD*%
%TO.C,D17*%
X68425000Y-20000000D03*
X67575000Y-20000000D03*
%TD*%
%TO.C,D16*%
X65425000Y-20000000D03*
X64575000Y-20000000D03*
%TD*%
%TO.C,D15*%
X62425000Y-20000000D03*
X61575000Y-20000000D03*
%TD*%
%TO.C,D14*%
X59425000Y-20000000D03*
X58575000Y-20000000D03*
%TD*%
%TO.C,D13*%
X56425000Y-20000000D03*
X55575000Y-20000000D03*
%TD*%
%TO.C,D12*%
X53425000Y-20000000D03*
X52575000Y-20000000D03*
%TD*%
%TO.C,D11*%
X50425000Y-20000000D03*
X49575000Y-20000000D03*
%TD*%
%TO.C,D10*%
X47425000Y-20000000D03*
X46575000Y-20000000D03*
%TD*%
%TO.C,D9*%
X44425000Y-20000000D03*
X43575000Y-20000000D03*
%TD*%
%TO.C,D8*%
X41425000Y-20000000D03*
X40575000Y-20000000D03*
%TD*%
%TO.C,D7*%
X38425000Y-20000000D03*
X37575000Y-20000000D03*
%TD*%
%TO.C,D6*%
X35425000Y-20000000D03*
X34575000Y-20000000D03*
%TD*%
%TO.C,D5*%
X32425000Y-20000000D03*
X31575000Y-20000000D03*
%TD*%
%TO.C,D4*%
X29425000Y-20000000D03*
X28575000Y-20000000D03*
%TD*%
%TO.C,D3*%
X26425000Y-20000000D03*
X25575000Y-20000000D03*
%TD*%
%TO.C,D2*%
X23425000Y-20000000D03*
X22575000Y-20000000D03*
%TD*%
%TO.C,D1*%
X20425000Y-20000000D03*
X19575000Y-20000000D03*
%TD*%
%LPD*%
M02*
