%TF.GenerationSoftware,KiCad,Pcbnew,8.0.2*%
%TF.CreationDate,2024-07-20T19:47:13-05:00*%
%TF.ProjectId,pixel_grid,70697865-6c5f-4677-9269-642e6b696361,rev?*%
%TF.SameCoordinates,Original*%
%TF.FileFunction,Soldermask,Bot*%
%TF.FilePolarity,Negative*%
%FSLAX46Y46*%
G04 Gerber Fmt 4.6, Leading zero omitted, Abs format (unit mm)*
G04 Created by KiCad (PCBNEW 8.0.2) date 2024-07-20 19:47:13*
%MOMM*%
%LPD*%
G01*
G04 APERTURE LIST*
G04 Aperture macros list*
%AMRoundRect*
0 Rectangle with rounded corners*
0 $1 Rounding radius*
0 $2 $3 $4 $5 $6 $7 $8 $9 X,Y pos of 4 corners*
0 Add a 4 corners polygon primitive as box body*
4,1,4,$2,$3,$4,$5,$6,$7,$8,$9,$2,$3,0*
0 Add four circle primitives for the rounded corners*
1,1,$1+$1,$2,$3*
1,1,$1+$1,$4,$5*
1,1,$1+$1,$6,$7*
1,1,$1+$1,$8,$9*
0 Add four rect primitives between the rounded corners*
20,1,$1+$1,$2,$3,$4,$5,0*
20,1,$1+$1,$4,$5,$6,$7,0*
20,1,$1+$1,$6,$7,$8,$9,0*
20,1,$1+$1,$8,$9,$2,$3,0*%
G04 Aperture macros list end*
%ADD10R,4.000000X1.000000*%
%ADD11R,1.000000X4.000000*%
%ADD12RoundRect,0.250000X0.412500X0.650000X-0.412500X0.650000X-0.412500X-0.650000X0.412500X-0.650000X0*%
%ADD13C,0.500000*%
G04 APERTURE END LIST*
D10*
%TO.C,TP34*%
X66500000Y-93500000D03*
%TD*%
%TO.C,TP33*%
X66400000Y-45500000D03*
%TD*%
%TO.C,TP32*%
X20500000Y-69650000D03*
%TD*%
%TO.C,TP31*%
X112550000Y-69650000D03*
%TD*%
D11*
%TO.C,TP30*%
X24500000Y-20550000D03*
%TD*%
D10*
%TO.C,TP29*%
X66400000Y-39600000D03*
%TD*%
%TO.C,TP28*%
X112550000Y-63750000D03*
%TD*%
%TO.C,TP27*%
X20500000Y-63550000D03*
%TD*%
%TO.C,TP26*%
X27500000Y-30500000D03*
%TD*%
%TO.C,TP25*%
X112550000Y-102500000D03*
%TD*%
%TO.C,TP24*%
X20500000Y-102500000D03*
%TD*%
D11*
%TO.C,TP23*%
X30500000Y-112475000D03*
%TD*%
%TO.C,TP22*%
X102500000Y-112475000D03*
%TD*%
%TO.C,TP21*%
X30500000Y-20575000D03*
%TD*%
%TO.C,TP20*%
X102500000Y-20575000D03*
%TD*%
D10*
%TO.C,TP19*%
X105500000Y-30500000D03*
%TD*%
%TO.C,TP18*%
X66500000Y-87500000D03*
%TD*%
%TO.C,TP17*%
X112550000Y-30500000D03*
%TD*%
%TO.C,TP16*%
X20500000Y-30500000D03*
%TD*%
D11*
%TO.C,TP15*%
X108500000Y-112500000D03*
%TD*%
D10*
%TO.C,TP14*%
X112550000Y-108500000D03*
%TD*%
D11*
%TO.C,TP13*%
X66500000Y-20575000D03*
%TD*%
%TO.C,TP12*%
X108500000Y-20575000D03*
%TD*%
%TO.C,TP11*%
X66500000Y-112475000D03*
%TD*%
%TO.C,TP10*%
X24500000Y-112475000D03*
%TD*%
D10*
%TO.C,TP9*%
X112450000Y-24500000D03*
%TD*%
%TO.C,TP8*%
X20500000Y-108500000D03*
%TD*%
%TO.C,TP7*%
X20500000Y-24500000D03*
%TD*%
%TO.C,TP6*%
X105400000Y-36500000D03*
%TD*%
%TO.C,TP5*%
X112550000Y-96500000D03*
%TD*%
%TO.C,TP4*%
X112550000Y-36500000D03*
%TD*%
%TO.C,TP3*%
X27500000Y-36500000D03*
%TD*%
%TO.C,TP2*%
X20500000Y-96500000D03*
%TD*%
%TO.C,TP1*%
X20500000Y-36500000D03*
%TD*%
D12*
%TO.C,C25*%
X100062500Y-99500000D03*
X96937500Y-99500000D03*
%TD*%
%TO.C,C24*%
X84062500Y-99500000D03*
X80937500Y-99500000D03*
%TD*%
%TO.C,C23*%
X68062500Y-99500000D03*
X64937500Y-99500000D03*
%TD*%
%TO.C,C22*%
X52062500Y-99500000D03*
X48937500Y-99500000D03*
%TD*%
%TO.C,C21*%
X36062500Y-99500000D03*
X32937500Y-99500000D03*
%TD*%
%TO.C,C20*%
X100062500Y-81500000D03*
X96937500Y-81500000D03*
%TD*%
%TO.C,C19*%
X84062500Y-81500000D03*
X80937500Y-81500000D03*
%TD*%
%TO.C,C18*%
X68062500Y-81500000D03*
X64937500Y-81500000D03*
%TD*%
%TO.C,C17*%
X52062500Y-81500000D03*
X48937500Y-81500000D03*
%TD*%
%TO.C,C16*%
X36062500Y-81500000D03*
X32937500Y-81500000D03*
%TD*%
%TO.C,C15*%
X100062500Y-66500000D03*
X96937500Y-66500000D03*
%TD*%
%TO.C,C14*%
X84062500Y-66500000D03*
X80937500Y-66500000D03*
%TD*%
%TO.C,C13*%
X68062500Y-66500000D03*
X64937500Y-66500000D03*
%TD*%
%TO.C,C12*%
X52062500Y-66500000D03*
X48937500Y-66500000D03*
%TD*%
%TO.C,C11*%
X36062500Y-66500000D03*
X32937500Y-66500000D03*
%TD*%
%TO.C,C10*%
X100062500Y-51400000D03*
X96937500Y-51400000D03*
%TD*%
%TO.C,C9*%
X84062500Y-51400000D03*
X80937500Y-51400000D03*
%TD*%
%TO.C,C8*%
X68062500Y-51400000D03*
X64937500Y-51400000D03*
%TD*%
%TO.C,C7*%
X52062500Y-51400000D03*
X48937500Y-51400000D03*
%TD*%
%TO.C,C6*%
X36062500Y-51400000D03*
X32937500Y-51400000D03*
%TD*%
%TO.C,C5*%
X100062500Y-33500000D03*
X96937500Y-33500000D03*
%TD*%
%TO.C,C4*%
X84062500Y-33500000D03*
X80937500Y-33500000D03*
%TD*%
%TO.C,C3*%
X68062500Y-33500000D03*
X64937500Y-33500000D03*
%TD*%
%TO.C,C2*%
X52062500Y-33500000D03*
X48937500Y-33500000D03*
%TD*%
%TO.C,C1*%
X36062500Y-33500000D03*
X32937500Y-33500000D03*
%TD*%
D13*
%TO.C,D1024*%
X113425000Y-113000000D03*
X112575000Y-113000000D03*
%TD*%
%TO.C,D1023*%
X110425000Y-113000000D03*
X109575000Y-113000000D03*
%TD*%
%TO.C,D1022*%
X107425000Y-113000000D03*
X106575000Y-113000000D03*
%TD*%
%TO.C,D1021*%
X104425000Y-113000000D03*
X103575000Y-113000000D03*
%TD*%
%TO.C,D1020*%
X101425000Y-113000000D03*
X100575000Y-113000000D03*
%TD*%
%TO.C,D1019*%
X98425000Y-113000000D03*
X97575000Y-113000000D03*
%TD*%
%TO.C,D1018*%
X95425000Y-113000000D03*
X94575000Y-113000000D03*
%TD*%
%TO.C,D1017*%
X92425000Y-113000000D03*
X91575000Y-113000000D03*
%TD*%
%TO.C,D1016*%
X89425000Y-113000000D03*
X88575000Y-113000000D03*
%TD*%
%TO.C,D1015*%
X86425000Y-113000000D03*
X85575000Y-113000000D03*
%TD*%
%TO.C,D1014*%
X83425000Y-113000000D03*
X82575000Y-113000000D03*
%TD*%
%TO.C,D1013*%
X80425000Y-113000000D03*
X79575000Y-113000000D03*
%TD*%
%TO.C,D1012*%
X77425000Y-113000000D03*
X76575000Y-113000000D03*
%TD*%
%TO.C,D1011*%
X74425000Y-113000000D03*
X73575000Y-113000000D03*
%TD*%
%TO.C,D1010*%
X71425000Y-113000000D03*
X70575000Y-113000000D03*
%TD*%
%TO.C,D1009*%
X68425000Y-113000000D03*
X67575000Y-113000000D03*
%TD*%
%TO.C,D1008*%
X65425000Y-113000000D03*
X64575000Y-113000000D03*
%TD*%
%TO.C,D1007*%
X62425000Y-113000000D03*
X61575000Y-113000000D03*
%TD*%
%TO.C,D1006*%
X59425000Y-113000000D03*
X58575000Y-113000000D03*
%TD*%
%TO.C,D1005*%
X56425000Y-113000000D03*
X55575000Y-113000000D03*
%TD*%
%TO.C,D1004*%
X53425000Y-113000000D03*
X52575000Y-113000000D03*
%TD*%
%TO.C,D1003*%
X50425000Y-113000000D03*
X49575000Y-113000000D03*
%TD*%
%TO.C,D1002*%
X47425000Y-113000000D03*
X46575000Y-113000000D03*
%TD*%
%TO.C,D1001*%
X44425000Y-113000000D03*
X43575000Y-113000000D03*
%TD*%
%TO.C,D1000*%
X41425000Y-113000000D03*
X40575000Y-113000000D03*
%TD*%
%TO.C,D999*%
X38425000Y-113000000D03*
X37575000Y-113000000D03*
%TD*%
%TO.C,D998*%
X35425000Y-113000000D03*
X34575000Y-113000000D03*
%TD*%
%TO.C,D997*%
X32425000Y-113000000D03*
X31575000Y-113000000D03*
%TD*%
%TO.C,D996*%
X29425000Y-113000000D03*
X28575000Y-113000000D03*
%TD*%
%TO.C,D995*%
X26425000Y-113000000D03*
X25575000Y-113000000D03*
%TD*%
%TO.C,D994*%
X23425000Y-113000000D03*
X22575000Y-113000000D03*
%TD*%
%TO.C,D993*%
X20425000Y-113000000D03*
X19575000Y-113000000D03*
%TD*%
%TO.C,D992*%
X113425000Y-110000000D03*
X112575000Y-110000000D03*
%TD*%
%TO.C,D991*%
X110425000Y-110000000D03*
X109575000Y-110000000D03*
%TD*%
%TO.C,D990*%
X107425000Y-110000000D03*
X106575000Y-110000000D03*
%TD*%
%TO.C,D989*%
X104425000Y-110000000D03*
X103575000Y-110000000D03*
%TD*%
%TO.C,D988*%
X101425000Y-110000000D03*
X100575000Y-110000000D03*
%TD*%
%TO.C,D987*%
X98425000Y-110000000D03*
X97575000Y-110000000D03*
%TD*%
%TO.C,D986*%
X95425000Y-110000000D03*
X94575000Y-110000000D03*
%TD*%
%TO.C,D985*%
X92425000Y-110000000D03*
X91575000Y-110000000D03*
%TD*%
%TO.C,D984*%
X89425000Y-110000000D03*
X88575000Y-110000000D03*
%TD*%
%TO.C,D983*%
X86425000Y-110000000D03*
X85575000Y-110000000D03*
%TD*%
%TO.C,D982*%
X83425000Y-110000000D03*
X82575000Y-110000000D03*
%TD*%
%TO.C,D981*%
X80425000Y-110000000D03*
X79575000Y-110000000D03*
%TD*%
%TO.C,D980*%
X77425000Y-110000000D03*
X76575000Y-110000000D03*
%TD*%
%TO.C,D979*%
X74425000Y-110000000D03*
X73575000Y-110000000D03*
%TD*%
%TO.C,D978*%
X71425000Y-110000000D03*
X70575000Y-110000000D03*
%TD*%
%TO.C,D977*%
X68425000Y-110000000D03*
X67575000Y-110000000D03*
%TD*%
%TO.C,D976*%
X65425000Y-110000000D03*
X64575000Y-110000000D03*
%TD*%
%TO.C,D975*%
X62425000Y-110000000D03*
X61575000Y-110000000D03*
%TD*%
%TO.C,D974*%
X59425000Y-110000000D03*
X58575000Y-110000000D03*
%TD*%
%TO.C,D973*%
X56425000Y-110000000D03*
X55575000Y-110000000D03*
%TD*%
%TO.C,D972*%
X53425000Y-110000000D03*
X52575000Y-110000000D03*
%TD*%
%TO.C,D971*%
X50425000Y-110000000D03*
X49575000Y-110000000D03*
%TD*%
%TO.C,D970*%
X47425000Y-110000000D03*
X46575000Y-110000000D03*
%TD*%
%TO.C,D969*%
X44425000Y-110000000D03*
X43575000Y-110000000D03*
%TD*%
%TO.C,D968*%
X41425000Y-110000000D03*
X40575000Y-110000000D03*
%TD*%
%TO.C,D967*%
X38425000Y-110000000D03*
X37575000Y-110000000D03*
%TD*%
%TO.C,D966*%
X35425000Y-110000000D03*
X34575000Y-110000000D03*
%TD*%
%TO.C,D965*%
X32425000Y-110000000D03*
X31575000Y-110000000D03*
%TD*%
%TO.C,D964*%
X29425000Y-110000000D03*
X28575000Y-110000000D03*
%TD*%
%TO.C,D963*%
X26425000Y-110000000D03*
X25575000Y-110000000D03*
%TD*%
%TO.C,D962*%
X23425000Y-110000000D03*
X22575000Y-110000000D03*
%TD*%
%TO.C,D961*%
X20425000Y-110000000D03*
X19575000Y-110000000D03*
%TD*%
%TO.C,D960*%
X113425000Y-107000000D03*
X112575000Y-107000000D03*
%TD*%
%TO.C,D959*%
X110425000Y-107000000D03*
X109575000Y-107000000D03*
%TD*%
%TO.C,D958*%
X107425000Y-107000000D03*
X106575000Y-107000000D03*
%TD*%
%TO.C,D957*%
X104425000Y-107000000D03*
X103575000Y-107000000D03*
%TD*%
%TO.C,D956*%
X101425000Y-107000000D03*
X100575000Y-107000000D03*
%TD*%
%TO.C,D955*%
X98425000Y-107000000D03*
X97575000Y-107000000D03*
%TD*%
%TO.C,D954*%
X95425000Y-107000000D03*
X94575000Y-107000000D03*
%TD*%
%TO.C,D953*%
X92425000Y-107000000D03*
X91575000Y-107000000D03*
%TD*%
%TO.C,D952*%
X89425000Y-107000000D03*
X88575000Y-107000000D03*
%TD*%
%TO.C,D951*%
X86425000Y-107000000D03*
X85575000Y-107000000D03*
%TD*%
%TO.C,D950*%
X83425000Y-107000000D03*
X82575000Y-107000000D03*
%TD*%
%TO.C,D949*%
X80425000Y-107000000D03*
X79575000Y-107000000D03*
%TD*%
%TO.C,D948*%
X77425000Y-107000000D03*
X76575000Y-107000000D03*
%TD*%
%TO.C,D947*%
X74425000Y-107000000D03*
X73575000Y-107000000D03*
%TD*%
%TO.C,D946*%
X71425000Y-107000000D03*
X70575000Y-107000000D03*
%TD*%
%TO.C,D945*%
X68425000Y-107000000D03*
X67575000Y-107000000D03*
%TD*%
%TO.C,D944*%
X65425000Y-107000000D03*
X64575000Y-107000000D03*
%TD*%
%TO.C,D943*%
X62425000Y-107000000D03*
X61575000Y-107000000D03*
%TD*%
%TO.C,D942*%
X59425000Y-107000000D03*
X58575000Y-107000000D03*
%TD*%
%TO.C,D941*%
X56425000Y-107000000D03*
X55575000Y-107000000D03*
%TD*%
%TO.C,D940*%
X53425000Y-107000000D03*
X52575000Y-107000000D03*
%TD*%
%TO.C,D939*%
X50425000Y-107000000D03*
X49575000Y-107000000D03*
%TD*%
%TO.C,D938*%
X47425000Y-107000000D03*
X46575000Y-107000000D03*
%TD*%
%TO.C,D937*%
X44425000Y-107000000D03*
X43575000Y-107000000D03*
%TD*%
%TO.C,D936*%
X41425000Y-107000000D03*
X40575000Y-107000000D03*
%TD*%
%TO.C,D935*%
X38425000Y-107000000D03*
X37575000Y-107000000D03*
%TD*%
%TO.C,D934*%
X35425000Y-107000000D03*
X34575000Y-107000000D03*
%TD*%
%TO.C,D933*%
X32425000Y-107000000D03*
X31575000Y-107000000D03*
%TD*%
%TO.C,D932*%
X29425000Y-107000000D03*
X28575000Y-107000000D03*
%TD*%
%TO.C,D931*%
X26425000Y-107000000D03*
X25575000Y-107000000D03*
%TD*%
%TO.C,D930*%
X23425000Y-107000000D03*
X22575000Y-107000000D03*
%TD*%
%TO.C,D929*%
X20425000Y-107000000D03*
X19575000Y-107000000D03*
%TD*%
%TO.C,D928*%
X113425000Y-104000000D03*
X112575000Y-104000000D03*
%TD*%
%TO.C,D927*%
X110425000Y-104000000D03*
X109575000Y-104000000D03*
%TD*%
%TO.C,D926*%
X107425000Y-104000000D03*
X106575000Y-104000000D03*
%TD*%
%TO.C,D925*%
X104425000Y-104000000D03*
X103575000Y-104000000D03*
%TD*%
%TO.C,D924*%
X101425000Y-104000000D03*
X100575000Y-104000000D03*
%TD*%
%TO.C,D923*%
X98425000Y-104000000D03*
X97575000Y-104000000D03*
%TD*%
%TO.C,D922*%
X95425000Y-104000000D03*
X94575000Y-104000000D03*
%TD*%
%TO.C,D921*%
X92425000Y-104000000D03*
X91575000Y-104000000D03*
%TD*%
%TO.C,D920*%
X89425000Y-104000000D03*
X88575000Y-104000000D03*
%TD*%
%TO.C,D919*%
X86425000Y-104000000D03*
X85575000Y-104000000D03*
%TD*%
%TO.C,D918*%
X83425000Y-104000000D03*
X82575000Y-104000000D03*
%TD*%
%TO.C,D917*%
X80425000Y-104000000D03*
X79575000Y-104000000D03*
%TD*%
%TO.C,D916*%
X77425000Y-104000000D03*
X76575000Y-104000000D03*
%TD*%
%TO.C,D915*%
X74425000Y-104000000D03*
X73575000Y-104000000D03*
%TD*%
%TO.C,D914*%
X71425000Y-104000000D03*
X70575000Y-104000000D03*
%TD*%
%TO.C,D913*%
X68425000Y-104000000D03*
X67575000Y-104000000D03*
%TD*%
%TO.C,D912*%
X65425000Y-104000000D03*
X64575000Y-104000000D03*
%TD*%
%TO.C,D911*%
X62425000Y-104000000D03*
X61575000Y-104000000D03*
%TD*%
%TO.C,D910*%
X59425000Y-104000000D03*
X58575000Y-104000000D03*
%TD*%
%TO.C,D909*%
X56425000Y-104000000D03*
X55575000Y-104000000D03*
%TD*%
%TO.C,D908*%
X53425000Y-104000000D03*
X52575000Y-104000000D03*
%TD*%
%TO.C,D907*%
X50425000Y-104000000D03*
X49575000Y-104000000D03*
%TD*%
%TO.C,D906*%
X47425000Y-104000000D03*
X46575000Y-104000000D03*
%TD*%
%TO.C,D905*%
X44425000Y-104000000D03*
X43575000Y-104000000D03*
%TD*%
%TO.C,D904*%
X41425000Y-104000000D03*
X40575000Y-104000000D03*
%TD*%
%TO.C,D903*%
X38425000Y-104000000D03*
X37575000Y-104000000D03*
%TD*%
%TO.C,D902*%
X35425000Y-104000000D03*
X34575000Y-104000000D03*
%TD*%
%TO.C,D901*%
X32425000Y-104000000D03*
X31575000Y-104000000D03*
%TD*%
%TO.C,D900*%
X29425000Y-104000000D03*
X28575000Y-104000000D03*
%TD*%
%TO.C,D899*%
X26425000Y-104000000D03*
X25575000Y-104000000D03*
%TD*%
%TO.C,D898*%
X23425000Y-104000000D03*
X22575000Y-104000000D03*
%TD*%
%TO.C,D897*%
X20425000Y-104000000D03*
X19575000Y-104000000D03*
%TD*%
%TO.C,D896*%
X113425000Y-101000000D03*
X112575000Y-101000000D03*
%TD*%
%TO.C,D895*%
X110425000Y-101000000D03*
X109575000Y-101000000D03*
%TD*%
%TO.C,D894*%
X107425000Y-101000000D03*
X106575000Y-101000000D03*
%TD*%
%TO.C,D893*%
X104425000Y-101000000D03*
X103575000Y-101000000D03*
%TD*%
%TO.C,D892*%
X101425000Y-101000000D03*
X100575000Y-101000000D03*
%TD*%
%TO.C,D891*%
X98425000Y-101000000D03*
X97575000Y-101000000D03*
%TD*%
%TO.C,D890*%
X95425000Y-101000000D03*
X94575000Y-101000000D03*
%TD*%
%TO.C,D889*%
X92425000Y-101000000D03*
X91575000Y-101000000D03*
%TD*%
%TO.C,D888*%
X89425000Y-101000000D03*
X88575000Y-101000000D03*
%TD*%
%TO.C,D887*%
X86425000Y-101000000D03*
X85575000Y-101000000D03*
%TD*%
%TO.C,D886*%
X83425000Y-101000000D03*
X82575000Y-101000000D03*
%TD*%
%TO.C,D885*%
X80425000Y-101000000D03*
X79575000Y-101000000D03*
%TD*%
%TO.C,D884*%
X77425000Y-101000000D03*
X76575000Y-101000000D03*
%TD*%
%TO.C,D883*%
X74425000Y-101000000D03*
X73575000Y-101000000D03*
%TD*%
%TO.C,D882*%
X71425000Y-101000000D03*
X70575000Y-101000000D03*
%TD*%
%TO.C,D881*%
X68425000Y-101000000D03*
X67575000Y-101000000D03*
%TD*%
%TO.C,D880*%
X65425000Y-101000000D03*
X64575000Y-101000000D03*
%TD*%
%TO.C,D879*%
X62425000Y-101000000D03*
X61575000Y-101000000D03*
%TD*%
%TO.C,D878*%
X59425000Y-101000000D03*
X58575000Y-101000000D03*
%TD*%
%TO.C,D877*%
X56425000Y-101000000D03*
X55575000Y-101000000D03*
%TD*%
%TO.C,D876*%
X53425000Y-101000000D03*
X52575000Y-101000000D03*
%TD*%
%TO.C,D875*%
X50425000Y-101000000D03*
X49575000Y-101000000D03*
%TD*%
%TO.C,D874*%
X47425000Y-101000000D03*
X46575000Y-101000000D03*
%TD*%
%TO.C,D873*%
X44425000Y-101000000D03*
X43575000Y-101000000D03*
%TD*%
%TO.C,D872*%
X41425000Y-101000000D03*
X40575000Y-101000000D03*
%TD*%
%TO.C,D871*%
X38425000Y-101000000D03*
X37575000Y-101000000D03*
%TD*%
%TO.C,D870*%
X35425000Y-101000000D03*
X34575000Y-101000000D03*
%TD*%
%TO.C,D869*%
X32425000Y-101000000D03*
X31575000Y-101000000D03*
%TD*%
%TO.C,D868*%
X29425000Y-101000000D03*
X28575000Y-101000000D03*
%TD*%
%TO.C,D867*%
X26425000Y-101000000D03*
X25575000Y-101000000D03*
%TD*%
%TO.C,D866*%
X23425000Y-101000000D03*
X22575000Y-101000000D03*
%TD*%
%TO.C,D865*%
X20425000Y-101000000D03*
X19575000Y-101000000D03*
%TD*%
%TO.C,D864*%
X113425000Y-98000000D03*
X112575000Y-98000000D03*
%TD*%
%TO.C,D863*%
X110425000Y-98000000D03*
X109575000Y-98000000D03*
%TD*%
%TO.C,D862*%
X107425000Y-98000000D03*
X106575000Y-98000000D03*
%TD*%
%TO.C,D861*%
X104425000Y-98000000D03*
X103575000Y-98000000D03*
%TD*%
%TO.C,D860*%
X101425000Y-98000000D03*
X100575000Y-98000000D03*
%TD*%
%TO.C,D859*%
X98425000Y-98000000D03*
X97575000Y-98000000D03*
%TD*%
%TO.C,D858*%
X95425000Y-98000000D03*
X94575000Y-98000000D03*
%TD*%
%TO.C,D857*%
X92425000Y-98000000D03*
X91575000Y-98000000D03*
%TD*%
%TO.C,D856*%
X89425000Y-98000000D03*
X88575000Y-98000000D03*
%TD*%
%TO.C,D855*%
X86425000Y-98000000D03*
X85575000Y-98000000D03*
%TD*%
%TO.C,D854*%
X83425000Y-98000000D03*
X82575000Y-98000000D03*
%TD*%
%TO.C,D853*%
X80425000Y-98000000D03*
X79575000Y-98000000D03*
%TD*%
%TO.C,D852*%
X77425000Y-98000000D03*
X76575000Y-98000000D03*
%TD*%
%TO.C,D851*%
X74425000Y-98000000D03*
X73575000Y-98000000D03*
%TD*%
%TO.C,D850*%
X71425000Y-98000000D03*
X70575000Y-98000000D03*
%TD*%
%TO.C,D849*%
X68425000Y-98000000D03*
X67575000Y-98000000D03*
%TD*%
%TO.C,D848*%
X65425000Y-98000000D03*
X64575000Y-98000000D03*
%TD*%
%TO.C,D847*%
X62425000Y-98000000D03*
X61575000Y-98000000D03*
%TD*%
%TO.C,D846*%
X59425000Y-98000000D03*
X58575000Y-98000000D03*
%TD*%
%TO.C,D845*%
X56425000Y-98000000D03*
X55575000Y-98000000D03*
%TD*%
%TO.C,D844*%
X53425000Y-98000000D03*
X52575000Y-98000000D03*
%TD*%
%TO.C,D843*%
X50425000Y-98000000D03*
X49575000Y-98000000D03*
%TD*%
%TO.C,D842*%
X47425000Y-98000000D03*
X46575000Y-98000000D03*
%TD*%
%TO.C,D841*%
X44425000Y-98000000D03*
X43575000Y-98000000D03*
%TD*%
%TO.C,D840*%
X41425000Y-98000000D03*
X40575000Y-98000000D03*
%TD*%
%TO.C,D839*%
X38425000Y-98000000D03*
X37575000Y-98000000D03*
%TD*%
%TO.C,D838*%
X35425000Y-98000000D03*
X34575000Y-98000000D03*
%TD*%
%TO.C,D837*%
X32425000Y-98000000D03*
X31575000Y-98000000D03*
%TD*%
%TO.C,D836*%
X29425000Y-98000000D03*
X28575000Y-98000000D03*
%TD*%
%TO.C,D835*%
X26425000Y-98000000D03*
X25575000Y-98000000D03*
%TD*%
%TO.C,D834*%
X23425000Y-98000000D03*
X22575000Y-98000000D03*
%TD*%
%TO.C,D833*%
X20425000Y-98000000D03*
X19575000Y-98000000D03*
%TD*%
%TO.C,D832*%
X113425000Y-95000000D03*
X112575000Y-95000000D03*
%TD*%
%TO.C,D831*%
X110425000Y-95000000D03*
X109575000Y-95000000D03*
%TD*%
%TO.C,D830*%
X107425000Y-95000000D03*
X106575000Y-95000000D03*
%TD*%
%TO.C,D829*%
X104425000Y-95000000D03*
X103575000Y-95000000D03*
%TD*%
%TO.C,D828*%
X101425000Y-95000000D03*
X100575000Y-95000000D03*
%TD*%
%TO.C,D827*%
X98425000Y-95000000D03*
X97575000Y-95000000D03*
%TD*%
%TO.C,D826*%
X95425000Y-95000000D03*
X94575000Y-95000000D03*
%TD*%
%TO.C,D825*%
X92425000Y-95000000D03*
X91575000Y-95000000D03*
%TD*%
%TO.C,D824*%
X89425000Y-95000000D03*
X88575000Y-95000000D03*
%TD*%
%TO.C,D823*%
X86425000Y-95000000D03*
X85575000Y-95000000D03*
%TD*%
%TO.C,D822*%
X83425000Y-95000000D03*
X82575000Y-95000000D03*
%TD*%
%TO.C,D821*%
X80425000Y-95000000D03*
X79575000Y-95000000D03*
%TD*%
%TO.C,D820*%
X77425000Y-95000000D03*
X76575000Y-95000000D03*
%TD*%
%TO.C,D819*%
X74425000Y-95000000D03*
X73575000Y-95000000D03*
%TD*%
%TO.C,D818*%
X71425000Y-95000000D03*
X70575000Y-95000000D03*
%TD*%
%TO.C,D817*%
X68425000Y-95000000D03*
X67575000Y-95000000D03*
%TD*%
%TO.C,D816*%
X65425000Y-95000000D03*
X64575000Y-95000000D03*
%TD*%
%TO.C,D815*%
X62425000Y-95000000D03*
X61575000Y-95000000D03*
%TD*%
%TO.C,D814*%
X59425000Y-95000000D03*
X58575000Y-95000000D03*
%TD*%
%TO.C,D813*%
X56425000Y-95000000D03*
X55575000Y-95000000D03*
%TD*%
%TO.C,D812*%
X53425000Y-95000000D03*
X52575000Y-95000000D03*
%TD*%
%TO.C,D811*%
X50425000Y-95000000D03*
X49575000Y-95000000D03*
%TD*%
%TO.C,D810*%
X47425000Y-95000000D03*
X46575000Y-95000000D03*
%TD*%
%TO.C,D809*%
X44425000Y-95000000D03*
X43575000Y-95000000D03*
%TD*%
%TO.C,D808*%
X41425000Y-95000000D03*
X40575000Y-95000000D03*
%TD*%
%TO.C,D807*%
X38425000Y-95000000D03*
X37575000Y-95000000D03*
%TD*%
%TO.C,D806*%
X35425000Y-95000000D03*
X34575000Y-95000000D03*
%TD*%
%TO.C,D805*%
X32425000Y-95000000D03*
X31575000Y-95000000D03*
%TD*%
%TO.C,D804*%
X29425000Y-95000000D03*
X28575000Y-95000000D03*
%TD*%
%TO.C,D803*%
X26425000Y-95000000D03*
X25575000Y-95000000D03*
%TD*%
%TO.C,D802*%
X23425000Y-95000000D03*
X22575000Y-95000000D03*
%TD*%
%TO.C,D801*%
X20425000Y-95000000D03*
X19575000Y-95000000D03*
%TD*%
%TO.C,D800*%
X113425000Y-92000000D03*
X112575000Y-92000000D03*
%TD*%
%TO.C,D799*%
X110425000Y-92000000D03*
X109575000Y-92000000D03*
%TD*%
%TO.C,D798*%
X107425000Y-92000000D03*
X106575000Y-92000000D03*
%TD*%
%TO.C,D797*%
X104425000Y-92000000D03*
X103575000Y-92000000D03*
%TD*%
%TO.C,D796*%
X101425000Y-92000000D03*
X100575000Y-92000000D03*
%TD*%
%TO.C,D795*%
X98425000Y-92000000D03*
X97575000Y-92000000D03*
%TD*%
%TO.C,D794*%
X95425000Y-92000000D03*
X94575000Y-92000000D03*
%TD*%
%TO.C,D793*%
X92425000Y-92000000D03*
X91575000Y-92000000D03*
%TD*%
%TO.C,D792*%
X89425000Y-92000000D03*
X88575000Y-92000000D03*
%TD*%
%TO.C,D791*%
X86425000Y-92000000D03*
X85575000Y-92000000D03*
%TD*%
%TO.C,D790*%
X83425000Y-92000000D03*
X82575000Y-92000000D03*
%TD*%
%TO.C,D789*%
X80425000Y-92000000D03*
X79575000Y-92000000D03*
%TD*%
%TO.C,D788*%
X77425000Y-92000000D03*
X76575000Y-92000000D03*
%TD*%
%TO.C,D787*%
X74425000Y-92000000D03*
X73575000Y-92000000D03*
%TD*%
%TO.C,D786*%
X71425000Y-92000000D03*
X70575000Y-92000000D03*
%TD*%
%TO.C,D785*%
X68425000Y-92000000D03*
X67575000Y-92000000D03*
%TD*%
%TO.C,D784*%
X65425000Y-92000000D03*
X64575000Y-92000000D03*
%TD*%
%TO.C,D783*%
X62425000Y-92000000D03*
X61575000Y-92000000D03*
%TD*%
%TO.C,D782*%
X59425000Y-92000000D03*
X58575000Y-92000000D03*
%TD*%
%TO.C,D781*%
X56425000Y-92000000D03*
X55575000Y-92000000D03*
%TD*%
%TO.C,D780*%
X53425000Y-92000000D03*
X52575000Y-92000000D03*
%TD*%
%TO.C,D779*%
X50425000Y-92000000D03*
X49575000Y-92000000D03*
%TD*%
%TO.C,D778*%
X47425000Y-92000000D03*
X46575000Y-92000000D03*
%TD*%
%TO.C,D777*%
X44425000Y-92000000D03*
X43575000Y-92000000D03*
%TD*%
%TO.C,D776*%
X41425000Y-92000000D03*
X40575000Y-92000000D03*
%TD*%
%TO.C,D775*%
X38425000Y-92000000D03*
X37575000Y-92000000D03*
%TD*%
%TO.C,D774*%
X35425000Y-92000000D03*
X34575000Y-92000000D03*
%TD*%
%TO.C,D773*%
X32425000Y-92000000D03*
X31575000Y-92000000D03*
%TD*%
%TO.C,D772*%
X29425000Y-92000000D03*
X28575000Y-92000000D03*
%TD*%
%TO.C,D771*%
X26425000Y-92000000D03*
X25575000Y-92000000D03*
%TD*%
%TO.C,D770*%
X23425000Y-92000000D03*
X22575000Y-92000000D03*
%TD*%
%TO.C,D769*%
X20425000Y-92000000D03*
X19575000Y-92000000D03*
%TD*%
%TO.C,D768*%
X113425000Y-89000000D03*
X112575000Y-89000000D03*
%TD*%
%TO.C,D767*%
X110425000Y-89000000D03*
X109575000Y-89000000D03*
%TD*%
%TO.C,D766*%
X107425000Y-89000000D03*
X106575000Y-89000000D03*
%TD*%
%TO.C,D765*%
X104425000Y-89000000D03*
X103575000Y-89000000D03*
%TD*%
%TO.C,D764*%
X101425000Y-89000000D03*
X100575000Y-89000000D03*
%TD*%
%TO.C,D763*%
X98425000Y-89000000D03*
X97575000Y-89000000D03*
%TD*%
%TO.C,D762*%
X95425000Y-89000000D03*
X94575000Y-89000000D03*
%TD*%
%TO.C,D761*%
X92425000Y-89000000D03*
X91575000Y-89000000D03*
%TD*%
%TO.C,D760*%
X89425000Y-89000000D03*
X88575000Y-89000000D03*
%TD*%
%TO.C,D759*%
X86425000Y-89000000D03*
X85575000Y-89000000D03*
%TD*%
%TO.C,D758*%
X83425000Y-89000000D03*
X82575000Y-89000000D03*
%TD*%
%TO.C,D757*%
X80425000Y-89000000D03*
X79575000Y-89000000D03*
%TD*%
%TO.C,D756*%
X77425000Y-89000000D03*
X76575000Y-89000000D03*
%TD*%
%TO.C,D755*%
X74425000Y-89000000D03*
X73575000Y-89000000D03*
%TD*%
%TO.C,D754*%
X71425000Y-89000000D03*
X70575000Y-89000000D03*
%TD*%
%TO.C,D753*%
X68425000Y-89000000D03*
X67575000Y-89000000D03*
%TD*%
%TO.C,D752*%
X65425000Y-89000000D03*
X64575000Y-89000000D03*
%TD*%
%TO.C,D751*%
X62425000Y-89000000D03*
X61575000Y-89000000D03*
%TD*%
%TO.C,D750*%
X59425000Y-89000000D03*
X58575000Y-89000000D03*
%TD*%
%TO.C,D749*%
X56425000Y-89000000D03*
X55575000Y-89000000D03*
%TD*%
%TO.C,D748*%
X53425000Y-89000000D03*
X52575000Y-89000000D03*
%TD*%
%TO.C,D747*%
X50425000Y-89000000D03*
X49575000Y-89000000D03*
%TD*%
%TO.C,D746*%
X47425000Y-89000000D03*
X46575000Y-89000000D03*
%TD*%
%TO.C,D745*%
X44425000Y-89000000D03*
X43575000Y-89000000D03*
%TD*%
%TO.C,D744*%
X41425000Y-89000000D03*
X40575000Y-89000000D03*
%TD*%
%TO.C,D743*%
X38425000Y-89000000D03*
X37575000Y-89000000D03*
%TD*%
%TO.C,D742*%
X35425000Y-89000000D03*
X34575000Y-89000000D03*
%TD*%
%TO.C,D741*%
X32425000Y-89000000D03*
X31575000Y-89000000D03*
%TD*%
%TO.C,D740*%
X29425000Y-89000000D03*
X28575000Y-89000000D03*
%TD*%
%TO.C,D739*%
X26425000Y-89000000D03*
X25575000Y-89000000D03*
%TD*%
%TO.C,D738*%
X23425000Y-89000000D03*
X22575000Y-89000000D03*
%TD*%
%TO.C,D737*%
X20425000Y-89000000D03*
X19575000Y-89000000D03*
%TD*%
%TO.C,D736*%
X113425000Y-86000000D03*
X112575000Y-86000000D03*
%TD*%
%TO.C,D735*%
X110425000Y-86000000D03*
X109575000Y-86000000D03*
%TD*%
%TO.C,D734*%
X107425000Y-86000000D03*
X106575000Y-86000000D03*
%TD*%
%TO.C,D733*%
X104425000Y-86000000D03*
X103575000Y-86000000D03*
%TD*%
%TO.C,D732*%
X101425000Y-86000000D03*
X100575000Y-86000000D03*
%TD*%
%TO.C,D731*%
X98425000Y-86000000D03*
X97575000Y-86000000D03*
%TD*%
%TO.C,D730*%
X95425000Y-86000000D03*
X94575000Y-86000000D03*
%TD*%
%TO.C,D729*%
X92425000Y-86000000D03*
X91575000Y-86000000D03*
%TD*%
%TO.C,D728*%
X89425000Y-86000000D03*
X88575000Y-86000000D03*
%TD*%
%TO.C,D727*%
X86425000Y-86000000D03*
X85575000Y-86000000D03*
%TD*%
%TO.C,D726*%
X83425000Y-86000000D03*
X82575000Y-86000000D03*
%TD*%
%TO.C,D725*%
X80425000Y-86000000D03*
X79575000Y-86000000D03*
%TD*%
%TO.C,D724*%
X77425000Y-86000000D03*
X76575000Y-86000000D03*
%TD*%
%TO.C,D723*%
X74425000Y-86000000D03*
X73575000Y-86000000D03*
%TD*%
%TO.C,D722*%
X71425000Y-86000000D03*
X70575000Y-86000000D03*
%TD*%
%TO.C,D721*%
X68425000Y-86000000D03*
X67575000Y-86000000D03*
%TD*%
%TO.C,D720*%
X65425000Y-86000000D03*
X64575000Y-86000000D03*
%TD*%
%TO.C,D719*%
X62425000Y-86000000D03*
X61575000Y-86000000D03*
%TD*%
%TO.C,D718*%
X59425000Y-86000000D03*
X58575000Y-86000000D03*
%TD*%
%TO.C,D717*%
X56425000Y-86000000D03*
X55575000Y-86000000D03*
%TD*%
%TO.C,D716*%
X53425000Y-86000000D03*
X52575000Y-86000000D03*
%TD*%
%TO.C,D715*%
X50425000Y-86000000D03*
X49575000Y-86000000D03*
%TD*%
%TO.C,D714*%
X47425000Y-86000000D03*
X46575000Y-86000000D03*
%TD*%
%TO.C,D713*%
X44425000Y-86000000D03*
X43575000Y-86000000D03*
%TD*%
%TO.C,D712*%
X41425000Y-86000000D03*
X40575000Y-86000000D03*
%TD*%
%TO.C,D711*%
X38425000Y-86000000D03*
X37575000Y-86000000D03*
%TD*%
%TO.C,D710*%
X35425000Y-86000000D03*
X34575000Y-86000000D03*
%TD*%
%TO.C,D709*%
X32425000Y-86000000D03*
X31575000Y-86000000D03*
%TD*%
%TO.C,D708*%
X29425000Y-86000000D03*
X28575000Y-86000000D03*
%TD*%
%TO.C,D707*%
X26425000Y-86000000D03*
X25575000Y-86000000D03*
%TD*%
%TO.C,D706*%
X23425000Y-86000000D03*
X22575000Y-86000000D03*
%TD*%
%TO.C,D705*%
X20425000Y-86000000D03*
X19575000Y-86000000D03*
%TD*%
%TO.C,D704*%
X113425000Y-83000000D03*
X112575000Y-83000000D03*
%TD*%
%TO.C,D703*%
X110425000Y-83000000D03*
X109575000Y-83000000D03*
%TD*%
%TO.C,D702*%
X107425000Y-83000000D03*
X106575000Y-83000000D03*
%TD*%
%TO.C,D701*%
X104425000Y-83000000D03*
X103575000Y-83000000D03*
%TD*%
%TO.C,D700*%
X101425000Y-83000000D03*
X100575000Y-83000000D03*
%TD*%
%TO.C,D699*%
X98425000Y-83000000D03*
X97575000Y-83000000D03*
%TD*%
%TO.C,D698*%
X95425000Y-83000000D03*
X94575000Y-83000000D03*
%TD*%
%TO.C,D697*%
X92425000Y-83000000D03*
X91575000Y-83000000D03*
%TD*%
%TO.C,D696*%
X89425000Y-83000000D03*
X88575000Y-83000000D03*
%TD*%
%TO.C,D695*%
X86425000Y-83000000D03*
X85575000Y-83000000D03*
%TD*%
%TO.C,D694*%
X83425000Y-83000000D03*
X82575000Y-83000000D03*
%TD*%
%TO.C,D693*%
X80425000Y-83000000D03*
X79575000Y-83000000D03*
%TD*%
%TO.C,D692*%
X77425000Y-83000000D03*
X76575000Y-83000000D03*
%TD*%
%TO.C,D691*%
X74425000Y-83000000D03*
X73575000Y-83000000D03*
%TD*%
%TO.C,D690*%
X71425000Y-83000000D03*
X70575000Y-83000000D03*
%TD*%
%TO.C,D689*%
X68425000Y-83000000D03*
X67575000Y-83000000D03*
%TD*%
%TO.C,D688*%
X65425000Y-83000000D03*
X64575000Y-83000000D03*
%TD*%
%TO.C,D687*%
X62425000Y-83000000D03*
X61575000Y-83000000D03*
%TD*%
%TO.C,D686*%
X59425000Y-83000000D03*
X58575000Y-83000000D03*
%TD*%
%TO.C,D685*%
X56425000Y-83000000D03*
X55575000Y-83000000D03*
%TD*%
%TO.C,D684*%
X53425000Y-83000000D03*
X52575000Y-83000000D03*
%TD*%
%TO.C,D683*%
X50425000Y-83000000D03*
X49575000Y-83000000D03*
%TD*%
%TO.C,D682*%
X47425000Y-83000000D03*
X46575000Y-83000000D03*
%TD*%
%TO.C,D681*%
X44425000Y-83000000D03*
X43575000Y-83000000D03*
%TD*%
%TO.C,D680*%
X41425000Y-83000000D03*
X40575000Y-83000000D03*
%TD*%
%TO.C,D679*%
X38425000Y-83000000D03*
X37575000Y-83000000D03*
%TD*%
%TO.C,D678*%
X35425000Y-83000000D03*
X34575000Y-83000000D03*
%TD*%
%TO.C,D677*%
X32425000Y-83000000D03*
X31575000Y-83000000D03*
%TD*%
%TO.C,D676*%
X29425000Y-83000000D03*
X28575000Y-83000000D03*
%TD*%
%TO.C,D675*%
X26425000Y-83000000D03*
X25575000Y-83000000D03*
%TD*%
%TO.C,D674*%
X23425000Y-83000000D03*
X22575000Y-83000000D03*
%TD*%
%TO.C,D673*%
X20425000Y-83000000D03*
X19575000Y-83000000D03*
%TD*%
%TO.C,D672*%
X113425000Y-80000000D03*
X112575000Y-80000000D03*
%TD*%
%TO.C,D671*%
X110425000Y-80000000D03*
X109575000Y-80000000D03*
%TD*%
%TO.C,D670*%
X107425000Y-80000000D03*
X106575000Y-80000000D03*
%TD*%
%TO.C,D669*%
X104425000Y-80000000D03*
X103575000Y-80000000D03*
%TD*%
%TO.C,D668*%
X101425000Y-80000000D03*
X100575000Y-80000000D03*
%TD*%
%TO.C,D667*%
X98425000Y-80000000D03*
X97575000Y-80000000D03*
%TD*%
%TO.C,D666*%
X95425000Y-80000000D03*
X94575000Y-80000000D03*
%TD*%
%TO.C,D665*%
X92425000Y-80000000D03*
X91575000Y-80000000D03*
%TD*%
%TO.C,D664*%
X89425000Y-80000000D03*
X88575000Y-80000000D03*
%TD*%
%TO.C,D663*%
X86425000Y-80000000D03*
X85575000Y-80000000D03*
%TD*%
%TO.C,D662*%
X83425000Y-80000000D03*
X82575000Y-80000000D03*
%TD*%
%TO.C,D661*%
X80425000Y-80000000D03*
X79575000Y-80000000D03*
%TD*%
%TO.C,D660*%
X77425000Y-80000000D03*
X76575000Y-80000000D03*
%TD*%
%TO.C,D659*%
X74425000Y-80000000D03*
X73575000Y-80000000D03*
%TD*%
%TO.C,D658*%
X71425000Y-80000000D03*
X70575000Y-80000000D03*
%TD*%
%TO.C,D657*%
X68425000Y-80000000D03*
X67575000Y-80000000D03*
%TD*%
%TO.C,D656*%
X65425000Y-80000000D03*
X64575000Y-80000000D03*
%TD*%
%TO.C,D655*%
X62425000Y-80000000D03*
X61575000Y-80000000D03*
%TD*%
%TO.C,D654*%
X59425000Y-80000000D03*
X58575000Y-80000000D03*
%TD*%
%TO.C,D653*%
X56425000Y-80000000D03*
X55575000Y-80000000D03*
%TD*%
%TO.C,D652*%
X53425000Y-80000000D03*
X52575000Y-80000000D03*
%TD*%
%TO.C,D651*%
X50425000Y-80000000D03*
X49575000Y-80000000D03*
%TD*%
%TO.C,D650*%
X47425000Y-80000000D03*
X46575000Y-80000000D03*
%TD*%
%TO.C,D649*%
X44425000Y-80000000D03*
X43575000Y-80000000D03*
%TD*%
%TO.C,D648*%
X41425000Y-80000000D03*
X40575000Y-80000000D03*
%TD*%
%TO.C,D647*%
X38425000Y-80000000D03*
X37575000Y-80000000D03*
%TD*%
%TO.C,D646*%
X35425000Y-80000000D03*
X34575000Y-80000000D03*
%TD*%
%TO.C,D645*%
X32425000Y-80000000D03*
X31575000Y-80000000D03*
%TD*%
%TO.C,D644*%
X29425000Y-80000000D03*
X28575000Y-80000000D03*
%TD*%
%TO.C,D643*%
X26425000Y-80000000D03*
X25575000Y-80000000D03*
%TD*%
%TO.C,D642*%
X23425000Y-80000000D03*
X22575000Y-80000000D03*
%TD*%
%TO.C,D641*%
X20425000Y-80000000D03*
X19575000Y-80000000D03*
%TD*%
%TO.C,D640*%
X113425000Y-77000000D03*
X112575000Y-77000000D03*
%TD*%
%TO.C,D639*%
X110425000Y-77000000D03*
X109575000Y-77000000D03*
%TD*%
%TO.C,D638*%
X107425000Y-77000000D03*
X106575000Y-77000000D03*
%TD*%
%TO.C,D637*%
X104425000Y-77000000D03*
X103575000Y-77000000D03*
%TD*%
%TO.C,D636*%
X101425000Y-77000000D03*
X100575000Y-77000000D03*
%TD*%
%TO.C,D635*%
X98425000Y-77000000D03*
X97575000Y-77000000D03*
%TD*%
%TO.C,D634*%
X95425000Y-77000000D03*
X94575000Y-77000000D03*
%TD*%
%TO.C,D633*%
X92425000Y-77000000D03*
X91575000Y-77000000D03*
%TD*%
%TO.C,D632*%
X89425000Y-77000000D03*
X88575000Y-77000000D03*
%TD*%
%TO.C,D631*%
X86425000Y-77000000D03*
X85575000Y-77000000D03*
%TD*%
%TO.C,D630*%
X83425000Y-77000000D03*
X82575000Y-77000000D03*
%TD*%
%TO.C,D629*%
X80425000Y-77000000D03*
X79575000Y-77000000D03*
%TD*%
%TO.C,D628*%
X77425000Y-77000000D03*
X76575000Y-77000000D03*
%TD*%
%TO.C,D627*%
X74425000Y-77000000D03*
X73575000Y-77000000D03*
%TD*%
%TO.C,D626*%
X71425000Y-77000000D03*
X70575000Y-77000000D03*
%TD*%
%TO.C,D625*%
X68425000Y-77000000D03*
X67575000Y-77000000D03*
%TD*%
%TO.C,D624*%
X65425000Y-77000000D03*
X64575000Y-77000000D03*
%TD*%
%TO.C,D623*%
X62425000Y-77000000D03*
X61575000Y-77000000D03*
%TD*%
%TO.C,D622*%
X59425000Y-77000000D03*
X58575000Y-77000000D03*
%TD*%
%TO.C,D621*%
X56425000Y-77000000D03*
X55575000Y-77000000D03*
%TD*%
%TO.C,D620*%
X53425000Y-77000000D03*
X52575000Y-77000000D03*
%TD*%
%TO.C,D619*%
X50425000Y-77000000D03*
X49575000Y-77000000D03*
%TD*%
%TO.C,D618*%
X47425000Y-77000000D03*
X46575000Y-77000000D03*
%TD*%
%TO.C,D617*%
X44425000Y-77000000D03*
X43575000Y-77000000D03*
%TD*%
%TO.C,D616*%
X41425000Y-77000000D03*
X40575000Y-77000000D03*
%TD*%
%TO.C,D615*%
X38425000Y-77000000D03*
X37575000Y-77000000D03*
%TD*%
%TO.C,D614*%
X35425000Y-77000000D03*
X34575000Y-77000000D03*
%TD*%
%TO.C,D613*%
X32425000Y-77000000D03*
X31575000Y-77000000D03*
%TD*%
%TO.C,D612*%
X29425000Y-77000000D03*
X28575000Y-77000000D03*
%TD*%
%TO.C,D611*%
X26425000Y-77000000D03*
X25575000Y-77000000D03*
%TD*%
%TO.C,D610*%
X23425000Y-77000000D03*
X22575000Y-77000000D03*
%TD*%
%TO.C,D609*%
X20425000Y-77000000D03*
X19575000Y-77000000D03*
%TD*%
%TO.C,D608*%
X113425000Y-74000000D03*
X112575000Y-74000000D03*
%TD*%
%TO.C,D607*%
X110425000Y-74000000D03*
X109575000Y-74000000D03*
%TD*%
%TO.C,D606*%
X107425000Y-74000000D03*
X106575000Y-74000000D03*
%TD*%
%TO.C,D605*%
X104425000Y-74000000D03*
X103575000Y-74000000D03*
%TD*%
%TO.C,D604*%
X101425000Y-74000000D03*
X100575000Y-74000000D03*
%TD*%
%TO.C,D603*%
X98425000Y-74000000D03*
X97575000Y-74000000D03*
%TD*%
%TO.C,D602*%
X95425000Y-74000000D03*
X94575000Y-74000000D03*
%TD*%
%TO.C,D601*%
X92425000Y-74000000D03*
X91575000Y-74000000D03*
%TD*%
%TO.C,D600*%
X89425000Y-74000000D03*
X88575000Y-74000000D03*
%TD*%
%TO.C,D599*%
X86425000Y-74000000D03*
X85575000Y-74000000D03*
%TD*%
%TO.C,D598*%
X83425000Y-74000000D03*
X82575000Y-74000000D03*
%TD*%
%TO.C,D597*%
X80425000Y-74000000D03*
X79575000Y-74000000D03*
%TD*%
%TO.C,D596*%
X77425000Y-74000000D03*
X76575000Y-74000000D03*
%TD*%
%TO.C,D595*%
X74425000Y-74000000D03*
X73575000Y-74000000D03*
%TD*%
%TO.C,D594*%
X71425000Y-74000000D03*
X70575000Y-74000000D03*
%TD*%
%TO.C,D593*%
X68425000Y-74000000D03*
X67575000Y-74000000D03*
%TD*%
%TO.C,D592*%
X65425000Y-74000000D03*
X64575000Y-74000000D03*
%TD*%
%TO.C,D591*%
X62425000Y-74000000D03*
X61575000Y-74000000D03*
%TD*%
%TO.C,D590*%
X59425000Y-74000000D03*
X58575000Y-74000000D03*
%TD*%
%TO.C,D589*%
X56425000Y-74000000D03*
X55575000Y-74000000D03*
%TD*%
%TO.C,D588*%
X53425000Y-74000000D03*
X52575000Y-74000000D03*
%TD*%
%TO.C,D587*%
X50425000Y-74000000D03*
X49575000Y-74000000D03*
%TD*%
%TO.C,D586*%
X47425000Y-74000000D03*
X46575000Y-74000000D03*
%TD*%
%TO.C,D585*%
X44425000Y-74000000D03*
X43575000Y-74000000D03*
%TD*%
%TO.C,D584*%
X41425000Y-74000000D03*
X40575000Y-74000000D03*
%TD*%
%TO.C,D583*%
X38425000Y-74000000D03*
X37575000Y-74000000D03*
%TD*%
%TO.C,D582*%
X35425000Y-74000000D03*
X34575000Y-74000000D03*
%TD*%
%TO.C,D581*%
X32425000Y-74000000D03*
X31575000Y-74000000D03*
%TD*%
%TO.C,D580*%
X29425000Y-74000000D03*
X28575000Y-74000000D03*
%TD*%
%TO.C,D579*%
X26425000Y-74000000D03*
X25575000Y-74000000D03*
%TD*%
%TO.C,D578*%
X23425000Y-74000000D03*
X22575000Y-74000000D03*
%TD*%
%TO.C,D577*%
X20425000Y-74000000D03*
X19575000Y-74000000D03*
%TD*%
%TO.C,D576*%
X113425000Y-71000000D03*
X112575000Y-71000000D03*
%TD*%
%TO.C,D575*%
X110425000Y-71000000D03*
X109575000Y-71000000D03*
%TD*%
%TO.C,D574*%
X107425000Y-71000000D03*
X106575000Y-71000000D03*
%TD*%
%TO.C,D573*%
X104425000Y-71000000D03*
X103575000Y-71000000D03*
%TD*%
%TO.C,D572*%
X101425000Y-71000000D03*
X100575000Y-71000000D03*
%TD*%
%TO.C,D571*%
X98425000Y-71000000D03*
X97575000Y-71000000D03*
%TD*%
%TO.C,D570*%
X95425000Y-71000000D03*
X94575000Y-71000000D03*
%TD*%
%TO.C,D569*%
X92425000Y-71000000D03*
X91575000Y-71000000D03*
%TD*%
%TO.C,D568*%
X89425000Y-71000000D03*
X88575000Y-71000000D03*
%TD*%
%TO.C,D567*%
X86425000Y-71000000D03*
X85575000Y-71000000D03*
%TD*%
%TO.C,D566*%
X83425000Y-71000000D03*
X82575000Y-71000000D03*
%TD*%
%TO.C,D565*%
X80425000Y-71000000D03*
X79575000Y-71000000D03*
%TD*%
%TO.C,D564*%
X77425000Y-71000000D03*
X76575000Y-71000000D03*
%TD*%
%TO.C,D563*%
X74425000Y-71000000D03*
X73575000Y-71000000D03*
%TD*%
%TO.C,D562*%
X71425000Y-71000000D03*
X70575000Y-71000000D03*
%TD*%
%TO.C,D561*%
X68425000Y-71000000D03*
X67575000Y-71000000D03*
%TD*%
%TO.C,D560*%
X65425000Y-71000000D03*
X64575000Y-71000000D03*
%TD*%
%TO.C,D559*%
X62425000Y-71000000D03*
X61575000Y-71000000D03*
%TD*%
%TO.C,D558*%
X59425000Y-71000000D03*
X58575000Y-71000000D03*
%TD*%
%TO.C,D557*%
X56425000Y-71000000D03*
X55575000Y-71000000D03*
%TD*%
%TO.C,D556*%
X53425000Y-71000000D03*
X52575000Y-71000000D03*
%TD*%
%TO.C,D555*%
X50425000Y-71000000D03*
X49575000Y-71000000D03*
%TD*%
%TO.C,D554*%
X47425000Y-71000000D03*
X46575000Y-71000000D03*
%TD*%
%TO.C,D553*%
X44425000Y-71000000D03*
X43575000Y-71000000D03*
%TD*%
%TO.C,D552*%
X41425000Y-71000000D03*
X40575000Y-71000000D03*
%TD*%
%TO.C,D551*%
X38425000Y-71000000D03*
X37575000Y-71000000D03*
%TD*%
%TO.C,D550*%
X35425000Y-71000000D03*
X34575000Y-71000000D03*
%TD*%
%TO.C,D549*%
X32425000Y-71000000D03*
X31575000Y-71000000D03*
%TD*%
%TO.C,D548*%
X29425000Y-71000000D03*
X28575000Y-71000000D03*
%TD*%
%TO.C,D547*%
X26425000Y-71000000D03*
X25575000Y-71000000D03*
%TD*%
%TO.C,D546*%
X23425000Y-71000000D03*
X22575000Y-71000000D03*
%TD*%
%TO.C,D545*%
X20425000Y-71000000D03*
X19575000Y-71000000D03*
%TD*%
%TO.C,D544*%
X113425000Y-68000000D03*
X112575000Y-68000000D03*
%TD*%
%TO.C,D543*%
X110425000Y-68000000D03*
X109575000Y-68000000D03*
%TD*%
%TO.C,D542*%
X107425000Y-68000000D03*
X106575000Y-68000000D03*
%TD*%
%TO.C,D541*%
X104425000Y-68000000D03*
X103575000Y-68000000D03*
%TD*%
%TO.C,D540*%
X101425000Y-68000000D03*
X100575000Y-68000000D03*
%TD*%
%TO.C,D539*%
X98425000Y-68000000D03*
X97575000Y-68000000D03*
%TD*%
%TO.C,D538*%
X95425000Y-68000000D03*
X94575000Y-68000000D03*
%TD*%
%TO.C,D537*%
X92425000Y-68000000D03*
X91575000Y-68000000D03*
%TD*%
%TO.C,D536*%
X89425000Y-68000000D03*
X88575000Y-68000000D03*
%TD*%
%TO.C,D535*%
X86425000Y-68000000D03*
X85575000Y-68000000D03*
%TD*%
%TO.C,D534*%
X83425000Y-68000000D03*
X82575000Y-68000000D03*
%TD*%
%TO.C,D533*%
X80425000Y-68000000D03*
X79575000Y-68000000D03*
%TD*%
%TO.C,D532*%
X77425000Y-68000000D03*
X76575000Y-68000000D03*
%TD*%
%TO.C,D531*%
X74425000Y-68000000D03*
X73575000Y-68000000D03*
%TD*%
%TO.C,D530*%
X71425000Y-68000000D03*
X70575000Y-68000000D03*
%TD*%
%TO.C,D529*%
X68425000Y-68000000D03*
X67575000Y-68000000D03*
%TD*%
%TO.C,D528*%
X65425000Y-68000000D03*
X64575000Y-68000000D03*
%TD*%
%TO.C,D527*%
X62425000Y-68000000D03*
X61575000Y-68000000D03*
%TD*%
%TO.C,D526*%
X59425000Y-68000000D03*
X58575000Y-68000000D03*
%TD*%
%TO.C,D525*%
X56425000Y-68000000D03*
X55575000Y-68000000D03*
%TD*%
%TO.C,D524*%
X53425000Y-68000000D03*
X52575000Y-68000000D03*
%TD*%
%TO.C,D523*%
X50425000Y-68000000D03*
X49575000Y-68000000D03*
%TD*%
%TO.C,D522*%
X47425000Y-68000000D03*
X46575000Y-68000000D03*
%TD*%
%TO.C,D521*%
X44425000Y-68000000D03*
X43575000Y-68000000D03*
%TD*%
%TO.C,D520*%
X41425000Y-68000000D03*
X40575000Y-68000000D03*
%TD*%
%TO.C,D519*%
X38425000Y-68000000D03*
X37575000Y-68000000D03*
%TD*%
%TO.C,D518*%
X35425000Y-68000000D03*
X34575000Y-68000000D03*
%TD*%
%TO.C,D517*%
X32425000Y-68000000D03*
X31575000Y-68000000D03*
%TD*%
%TO.C,D516*%
X29425000Y-68000000D03*
X28575000Y-68000000D03*
%TD*%
%TO.C,D515*%
X26425000Y-68000000D03*
X25575000Y-68000000D03*
%TD*%
%TO.C,D514*%
X23425000Y-68000000D03*
X22575000Y-68000000D03*
%TD*%
%TO.C,D513*%
X20425000Y-68000000D03*
X19575000Y-68000000D03*
%TD*%
%TO.C,D512*%
X113425000Y-65000000D03*
X112575000Y-65000000D03*
%TD*%
%TO.C,D511*%
X110425000Y-65000000D03*
X109575000Y-65000000D03*
%TD*%
%TO.C,D510*%
X107425000Y-65000000D03*
X106575000Y-65000000D03*
%TD*%
%TO.C,D509*%
X104425000Y-65000000D03*
X103575000Y-65000000D03*
%TD*%
%TO.C,D508*%
X101425000Y-65000000D03*
X100575000Y-65000000D03*
%TD*%
%TO.C,D507*%
X98425000Y-65000000D03*
X97575000Y-65000000D03*
%TD*%
%TO.C,D506*%
X95425000Y-65000000D03*
X94575000Y-65000000D03*
%TD*%
%TO.C,D505*%
X92425000Y-65000000D03*
X91575000Y-65000000D03*
%TD*%
%TO.C,D504*%
X89425000Y-65000000D03*
X88575000Y-65000000D03*
%TD*%
%TO.C,D503*%
X86425000Y-65000000D03*
X85575000Y-65000000D03*
%TD*%
%TO.C,D502*%
X83425000Y-65000000D03*
X82575000Y-65000000D03*
%TD*%
%TO.C,D501*%
X80425000Y-65000000D03*
X79575000Y-65000000D03*
%TD*%
%TO.C,D500*%
X77425000Y-65000000D03*
X76575000Y-65000000D03*
%TD*%
%TO.C,D499*%
X74425000Y-65000000D03*
X73575000Y-65000000D03*
%TD*%
%TO.C,D498*%
X71425000Y-65000000D03*
X70575000Y-65000000D03*
%TD*%
%TO.C,D497*%
X68425000Y-65000000D03*
X67575000Y-65000000D03*
%TD*%
%TO.C,D496*%
X65425000Y-65000000D03*
X64575000Y-65000000D03*
%TD*%
%TO.C,D495*%
X62425000Y-65000000D03*
X61575000Y-65000000D03*
%TD*%
%TO.C,D494*%
X59425000Y-65000000D03*
X58575000Y-65000000D03*
%TD*%
%TO.C,D493*%
X56425000Y-65000000D03*
X55575000Y-65000000D03*
%TD*%
%TO.C,D492*%
X53425000Y-65000000D03*
X52575000Y-65000000D03*
%TD*%
%TO.C,D491*%
X50425000Y-65000000D03*
X49575000Y-65000000D03*
%TD*%
%TO.C,D490*%
X47425000Y-65000000D03*
X46575000Y-65000000D03*
%TD*%
%TO.C,D489*%
X44425000Y-65000000D03*
X43575000Y-65000000D03*
%TD*%
%TO.C,D488*%
X41425000Y-65000000D03*
X40575000Y-65000000D03*
%TD*%
%TO.C,D487*%
X38425000Y-65000000D03*
X37575000Y-65000000D03*
%TD*%
%TO.C,D486*%
X35425000Y-65000000D03*
X34575000Y-65000000D03*
%TD*%
%TO.C,D485*%
X32425000Y-65000000D03*
X31575000Y-65000000D03*
%TD*%
%TO.C,D484*%
X29425000Y-65000000D03*
X28575000Y-65000000D03*
%TD*%
%TO.C,D483*%
X26425000Y-65000000D03*
X25575000Y-65000000D03*
%TD*%
%TO.C,D482*%
X23425000Y-65000000D03*
X22575000Y-65000000D03*
%TD*%
%TO.C,D481*%
X20425000Y-65000000D03*
X19575000Y-65000000D03*
%TD*%
%TO.C,D480*%
X113425000Y-62000000D03*
X112575000Y-62000000D03*
%TD*%
%TO.C,D479*%
X110425000Y-62000000D03*
X109575000Y-62000000D03*
%TD*%
%TO.C,D478*%
X107425000Y-62000000D03*
X106575000Y-62000000D03*
%TD*%
%TO.C,D477*%
X104425000Y-62000000D03*
X103575000Y-62000000D03*
%TD*%
%TO.C,D476*%
X101425000Y-62000000D03*
X100575000Y-62000000D03*
%TD*%
%TO.C,D475*%
X98425000Y-62000000D03*
X97575000Y-62000000D03*
%TD*%
%TO.C,D474*%
X95425000Y-62000000D03*
X94575000Y-62000000D03*
%TD*%
%TO.C,D473*%
X92425000Y-62000000D03*
X91575000Y-62000000D03*
%TD*%
%TO.C,D472*%
X89425000Y-62000000D03*
X88575000Y-62000000D03*
%TD*%
%TO.C,D471*%
X86425000Y-62000000D03*
X85575000Y-62000000D03*
%TD*%
%TO.C,D470*%
X83425000Y-62000000D03*
X82575000Y-62000000D03*
%TD*%
%TO.C,D469*%
X80425000Y-62000000D03*
X79575000Y-62000000D03*
%TD*%
%TO.C,D468*%
X77425000Y-62000000D03*
X76575000Y-62000000D03*
%TD*%
%TO.C,D467*%
X74425000Y-62000000D03*
X73575000Y-62000000D03*
%TD*%
%TO.C,D466*%
X71425000Y-62000000D03*
X70575000Y-62000000D03*
%TD*%
%TO.C,D465*%
X68425000Y-62000000D03*
X67575000Y-62000000D03*
%TD*%
%TO.C,D464*%
X65425000Y-62000000D03*
X64575000Y-62000000D03*
%TD*%
%TO.C,D463*%
X62425000Y-62000000D03*
X61575000Y-62000000D03*
%TD*%
%TO.C,D462*%
X59425000Y-62000000D03*
X58575000Y-62000000D03*
%TD*%
%TO.C,D461*%
X56425000Y-62000000D03*
X55575000Y-62000000D03*
%TD*%
%TO.C,D460*%
X53425000Y-62000000D03*
X52575000Y-62000000D03*
%TD*%
%TO.C,D459*%
X50425000Y-62000000D03*
X49575000Y-62000000D03*
%TD*%
%TO.C,D458*%
X47425000Y-62000000D03*
X46575000Y-62000000D03*
%TD*%
%TO.C,D457*%
X44425000Y-62000000D03*
X43575000Y-62000000D03*
%TD*%
%TO.C,D456*%
X41425000Y-62000000D03*
X40575000Y-62000000D03*
%TD*%
%TO.C,D455*%
X38425000Y-62000000D03*
X37575000Y-62000000D03*
%TD*%
%TO.C,D454*%
X35425000Y-62000000D03*
X34575000Y-62000000D03*
%TD*%
%TO.C,D453*%
X32425000Y-62000000D03*
X31575000Y-62000000D03*
%TD*%
%TO.C,D452*%
X29425000Y-62000000D03*
X28575000Y-62000000D03*
%TD*%
%TO.C,D451*%
X26425000Y-62000000D03*
X25575000Y-62000000D03*
%TD*%
%TO.C,D450*%
X23425000Y-62000000D03*
X22575000Y-62000000D03*
%TD*%
%TO.C,D449*%
X20425000Y-62000000D03*
X19575000Y-62000000D03*
%TD*%
%TO.C,D448*%
X113425000Y-59000000D03*
X112575000Y-59000000D03*
%TD*%
%TO.C,D447*%
X110425000Y-59000000D03*
X109575000Y-59000000D03*
%TD*%
%TO.C,D446*%
X107425000Y-59000000D03*
X106575000Y-59000000D03*
%TD*%
%TO.C,D445*%
X104425000Y-59000000D03*
X103575000Y-59000000D03*
%TD*%
%TO.C,D444*%
X101425000Y-59000000D03*
X100575000Y-59000000D03*
%TD*%
%TO.C,D443*%
X98425000Y-59000000D03*
X97575000Y-59000000D03*
%TD*%
%TO.C,D442*%
X95425000Y-59000000D03*
X94575000Y-59000000D03*
%TD*%
%TO.C,D441*%
X92425000Y-59000000D03*
X91575000Y-59000000D03*
%TD*%
%TO.C,D440*%
X89425000Y-59000000D03*
X88575000Y-59000000D03*
%TD*%
%TO.C,D439*%
X86425000Y-59000000D03*
X85575000Y-59000000D03*
%TD*%
%TO.C,D438*%
X83425000Y-59000000D03*
X82575000Y-59000000D03*
%TD*%
%TO.C,D437*%
X80425000Y-59000000D03*
X79575000Y-59000000D03*
%TD*%
%TO.C,D436*%
X77425000Y-59000000D03*
X76575000Y-59000000D03*
%TD*%
%TO.C,D435*%
X74425000Y-59000000D03*
X73575000Y-59000000D03*
%TD*%
%TO.C,D434*%
X71425000Y-59000000D03*
X70575000Y-59000000D03*
%TD*%
%TO.C,D433*%
X68425000Y-59000000D03*
X67575000Y-59000000D03*
%TD*%
%TO.C,D432*%
X65425000Y-59000000D03*
X64575000Y-59000000D03*
%TD*%
%TO.C,D431*%
X62425000Y-59000000D03*
X61575000Y-59000000D03*
%TD*%
%TO.C,D430*%
X59425000Y-59000000D03*
X58575000Y-59000000D03*
%TD*%
%TO.C,D429*%
X56425000Y-59000000D03*
X55575000Y-59000000D03*
%TD*%
%TO.C,D428*%
X53425000Y-59000000D03*
X52575000Y-59000000D03*
%TD*%
%TO.C,D427*%
X50425000Y-59000000D03*
X49575000Y-59000000D03*
%TD*%
%TO.C,D426*%
X47425000Y-59000000D03*
X46575000Y-59000000D03*
%TD*%
%TO.C,D425*%
X44425000Y-59000000D03*
X43575000Y-59000000D03*
%TD*%
%TO.C,D424*%
X41425000Y-59000000D03*
X40575000Y-59000000D03*
%TD*%
%TO.C,D423*%
X38425000Y-59000000D03*
X37575000Y-59000000D03*
%TD*%
%TO.C,D422*%
X35425000Y-59000000D03*
X34575000Y-59000000D03*
%TD*%
%TO.C,D421*%
X32425000Y-59000000D03*
X31575000Y-59000000D03*
%TD*%
%TO.C,D420*%
X29425000Y-59000000D03*
X28575000Y-59000000D03*
%TD*%
%TO.C,D419*%
X26425000Y-59000000D03*
X25575000Y-59000000D03*
%TD*%
%TO.C,D418*%
X23425000Y-59000000D03*
X22575000Y-59000000D03*
%TD*%
%TO.C,D417*%
X20425000Y-59000000D03*
X19575000Y-59000000D03*
%TD*%
%TO.C,D416*%
X113425000Y-56000000D03*
X112575000Y-56000000D03*
%TD*%
%TO.C,D415*%
X110425000Y-56000000D03*
X109575000Y-56000000D03*
%TD*%
%TO.C,D414*%
X107425000Y-56000000D03*
X106575000Y-56000000D03*
%TD*%
%TO.C,D413*%
X104425000Y-56000000D03*
X103575000Y-56000000D03*
%TD*%
%TO.C,D412*%
X101425000Y-56000000D03*
X100575000Y-56000000D03*
%TD*%
%TO.C,D411*%
X98425000Y-56000000D03*
X97575000Y-56000000D03*
%TD*%
%TO.C,D410*%
X95425000Y-56000000D03*
X94575000Y-56000000D03*
%TD*%
%TO.C,D409*%
X92425000Y-56000000D03*
X91575000Y-56000000D03*
%TD*%
%TO.C,D408*%
X89425000Y-56000000D03*
X88575000Y-56000000D03*
%TD*%
%TO.C,D407*%
X86425000Y-56000000D03*
X85575000Y-56000000D03*
%TD*%
%TO.C,D406*%
X83425000Y-56000000D03*
X82575000Y-56000000D03*
%TD*%
%TO.C,D405*%
X80425000Y-56000000D03*
X79575000Y-56000000D03*
%TD*%
%TO.C,D404*%
X77425000Y-56000000D03*
X76575000Y-56000000D03*
%TD*%
%TO.C,D403*%
X74425000Y-56000000D03*
X73575000Y-56000000D03*
%TD*%
%TO.C,D402*%
X71425000Y-56000000D03*
X70575000Y-56000000D03*
%TD*%
%TO.C,D401*%
X68425000Y-56000000D03*
X67575000Y-56000000D03*
%TD*%
%TO.C,D400*%
X65425000Y-56000000D03*
X64575000Y-56000000D03*
%TD*%
%TO.C,D399*%
X62425000Y-56000000D03*
X61575000Y-56000000D03*
%TD*%
%TO.C,D398*%
X59425000Y-56000000D03*
X58575000Y-56000000D03*
%TD*%
%TO.C,D397*%
X56425000Y-56000000D03*
X55575000Y-56000000D03*
%TD*%
%TO.C,D396*%
X53425000Y-56000000D03*
X52575000Y-56000000D03*
%TD*%
%TO.C,D395*%
X50425000Y-56000000D03*
X49575000Y-56000000D03*
%TD*%
%TO.C,D394*%
X47425000Y-56000000D03*
X46575000Y-56000000D03*
%TD*%
%TO.C,D393*%
X44425000Y-56000000D03*
X43575000Y-56000000D03*
%TD*%
%TO.C,D392*%
X41425000Y-56000000D03*
X40575000Y-56000000D03*
%TD*%
%TO.C,D391*%
X38425000Y-56000000D03*
X37575000Y-56000000D03*
%TD*%
%TO.C,D390*%
X35425000Y-56000000D03*
X34575000Y-56000000D03*
%TD*%
%TO.C,D389*%
X32425000Y-56000000D03*
X31575000Y-56000000D03*
%TD*%
%TO.C,D388*%
X29425000Y-56000000D03*
X28575000Y-56000000D03*
%TD*%
%TO.C,D387*%
X26425000Y-56000000D03*
X25575000Y-56000000D03*
%TD*%
%TO.C,D386*%
X23425000Y-56000000D03*
X22575000Y-56000000D03*
%TD*%
%TO.C,D385*%
X20425000Y-56000000D03*
X19575000Y-56000000D03*
%TD*%
%TO.C,D384*%
X113425000Y-53000000D03*
X112575000Y-53000000D03*
%TD*%
%TO.C,D383*%
X110425000Y-53000000D03*
X109575000Y-53000000D03*
%TD*%
%TO.C,D382*%
X107425000Y-53000000D03*
X106575000Y-53000000D03*
%TD*%
%TO.C,D381*%
X104425000Y-53000000D03*
X103575000Y-53000000D03*
%TD*%
%TO.C,D380*%
X101425000Y-53000000D03*
X100575000Y-53000000D03*
%TD*%
%TO.C,D379*%
X98425000Y-53000000D03*
X97575000Y-53000000D03*
%TD*%
%TO.C,D378*%
X95425000Y-53000000D03*
X94575000Y-53000000D03*
%TD*%
%TO.C,D377*%
X92425000Y-53000000D03*
X91575000Y-53000000D03*
%TD*%
%TO.C,D376*%
X89425000Y-53000000D03*
X88575000Y-53000000D03*
%TD*%
%TO.C,D375*%
X86425000Y-53000000D03*
X85575000Y-53000000D03*
%TD*%
%TO.C,D374*%
X83425000Y-53000000D03*
X82575000Y-53000000D03*
%TD*%
%TO.C,D373*%
X80425000Y-53000000D03*
X79575000Y-53000000D03*
%TD*%
%TO.C,D372*%
X77425000Y-53000000D03*
X76575000Y-53000000D03*
%TD*%
%TO.C,D371*%
X74425000Y-53000000D03*
X73575000Y-53000000D03*
%TD*%
%TO.C,D370*%
X71425000Y-53000000D03*
X70575000Y-53000000D03*
%TD*%
%TO.C,D369*%
X68425000Y-53000000D03*
X67575000Y-53000000D03*
%TD*%
%TO.C,D368*%
X65425000Y-53000000D03*
X64575000Y-53000000D03*
%TD*%
%TO.C,D367*%
X62425000Y-53000000D03*
X61575000Y-53000000D03*
%TD*%
%TO.C,D366*%
X59425000Y-53000000D03*
X58575000Y-53000000D03*
%TD*%
%TO.C,D365*%
X56425000Y-53000000D03*
X55575000Y-53000000D03*
%TD*%
%TO.C,D364*%
X53425000Y-53000000D03*
X52575000Y-53000000D03*
%TD*%
%TO.C,D363*%
X50425000Y-53000000D03*
X49575000Y-53000000D03*
%TD*%
%TO.C,D362*%
X47425000Y-53000000D03*
X46575000Y-53000000D03*
%TD*%
%TO.C,D361*%
X44425000Y-53000000D03*
X43575000Y-53000000D03*
%TD*%
%TO.C,D360*%
X41425000Y-53000000D03*
X40575000Y-53000000D03*
%TD*%
%TO.C,D359*%
X38425000Y-53000000D03*
X37575000Y-53000000D03*
%TD*%
%TO.C,D358*%
X35425000Y-53000000D03*
X34575000Y-53000000D03*
%TD*%
%TO.C,D357*%
X32425000Y-53000000D03*
X31575000Y-53000000D03*
%TD*%
%TO.C,D356*%
X29425000Y-53000000D03*
X28575000Y-53000000D03*
%TD*%
%TO.C,D355*%
X26425000Y-53000000D03*
X25575000Y-53000000D03*
%TD*%
%TO.C,D354*%
X23425000Y-53000000D03*
X22575000Y-53000000D03*
%TD*%
%TO.C,D353*%
X20425000Y-53000000D03*
X19575000Y-53000000D03*
%TD*%
%TO.C,D352*%
X113425000Y-50000000D03*
X112575000Y-50000000D03*
%TD*%
%TO.C,D351*%
X110425000Y-50000000D03*
X109575000Y-50000000D03*
%TD*%
%TO.C,D350*%
X107425000Y-50000000D03*
X106575000Y-50000000D03*
%TD*%
%TO.C,D349*%
X104425000Y-50000000D03*
X103575000Y-50000000D03*
%TD*%
%TO.C,D348*%
X101425000Y-50000000D03*
X100575000Y-50000000D03*
%TD*%
%TO.C,D347*%
X98425000Y-50000000D03*
X97575000Y-50000000D03*
%TD*%
%TO.C,D346*%
X95425000Y-50000000D03*
X94575000Y-50000000D03*
%TD*%
%TO.C,D345*%
X92425000Y-50000000D03*
X91575000Y-50000000D03*
%TD*%
%TO.C,D344*%
X89425000Y-50000000D03*
X88575000Y-50000000D03*
%TD*%
%TO.C,D343*%
X86425000Y-50000000D03*
X85575000Y-50000000D03*
%TD*%
%TO.C,D342*%
X83425000Y-50000000D03*
X82575000Y-50000000D03*
%TD*%
%TO.C,D341*%
X80425000Y-50000000D03*
X79575000Y-50000000D03*
%TD*%
%TO.C,D340*%
X77425000Y-50000000D03*
X76575000Y-50000000D03*
%TD*%
%TO.C,D339*%
X74425000Y-50000000D03*
X73575000Y-50000000D03*
%TD*%
%TO.C,D338*%
X71425000Y-50000000D03*
X70575000Y-50000000D03*
%TD*%
%TO.C,D337*%
X68425000Y-50000000D03*
X67575000Y-50000000D03*
%TD*%
%TO.C,D336*%
X65425000Y-50000000D03*
X64575000Y-50000000D03*
%TD*%
%TO.C,D335*%
X62425000Y-50000000D03*
X61575000Y-50000000D03*
%TD*%
%TO.C,D334*%
X59425000Y-50000000D03*
X58575000Y-50000000D03*
%TD*%
%TO.C,D333*%
X56425000Y-50000000D03*
X55575000Y-50000000D03*
%TD*%
%TO.C,D332*%
X53425000Y-50000000D03*
X52575000Y-50000000D03*
%TD*%
%TO.C,D331*%
X50425000Y-50000000D03*
X49575000Y-50000000D03*
%TD*%
%TO.C,D330*%
X47425000Y-50000000D03*
X46575000Y-50000000D03*
%TD*%
%TO.C,D329*%
X44425000Y-50000000D03*
X43575000Y-50000000D03*
%TD*%
%TO.C,D328*%
X41425000Y-50000000D03*
X40575000Y-50000000D03*
%TD*%
%TO.C,D327*%
X38425000Y-50000000D03*
X37575000Y-50000000D03*
%TD*%
%TO.C,D326*%
X35425000Y-50000000D03*
X34575000Y-50000000D03*
%TD*%
%TO.C,D325*%
X32425000Y-50000000D03*
X31575000Y-50000000D03*
%TD*%
%TO.C,D324*%
X29425000Y-50000000D03*
X28575000Y-50000000D03*
%TD*%
%TO.C,D323*%
X26425000Y-50000000D03*
X25575000Y-50000000D03*
%TD*%
%TO.C,D322*%
X23425000Y-50000000D03*
X22575000Y-50000000D03*
%TD*%
%TO.C,D321*%
X20425000Y-50000000D03*
X19575000Y-50000000D03*
%TD*%
%TO.C,D320*%
X113425000Y-47000000D03*
X112575000Y-47000000D03*
%TD*%
%TO.C,D319*%
X110425000Y-47000000D03*
X109575000Y-47000000D03*
%TD*%
%TO.C,D318*%
X107425000Y-47000000D03*
X106575000Y-47000000D03*
%TD*%
%TO.C,D317*%
X104425000Y-47000000D03*
X103575000Y-47000000D03*
%TD*%
%TO.C,D316*%
X101425000Y-47000000D03*
X100575000Y-47000000D03*
%TD*%
%TO.C,D315*%
X98425000Y-47000000D03*
X97575000Y-47000000D03*
%TD*%
%TO.C,D314*%
X95425000Y-47000000D03*
X94575000Y-47000000D03*
%TD*%
%TO.C,D313*%
X92425000Y-47000000D03*
X91575000Y-47000000D03*
%TD*%
%TO.C,D312*%
X89425000Y-47000000D03*
X88575000Y-47000000D03*
%TD*%
%TO.C,D311*%
X86425000Y-47000000D03*
X85575000Y-47000000D03*
%TD*%
%TO.C,D310*%
X83425000Y-47000000D03*
X82575000Y-47000000D03*
%TD*%
%TO.C,D309*%
X80425000Y-47000000D03*
X79575000Y-47000000D03*
%TD*%
%TO.C,D308*%
X77425000Y-47000000D03*
X76575000Y-47000000D03*
%TD*%
%TO.C,D307*%
X74425000Y-47000000D03*
X73575000Y-47000000D03*
%TD*%
%TO.C,D306*%
X71425000Y-47000000D03*
X70575000Y-47000000D03*
%TD*%
%TO.C,D305*%
X68425000Y-47000000D03*
X67575000Y-47000000D03*
%TD*%
%TO.C,D304*%
X65425000Y-47000000D03*
X64575000Y-47000000D03*
%TD*%
%TO.C,D303*%
X62425000Y-47000000D03*
X61575000Y-47000000D03*
%TD*%
%TO.C,D302*%
X59425000Y-47000000D03*
X58575000Y-47000000D03*
%TD*%
%TO.C,D301*%
X56425000Y-47000000D03*
X55575000Y-47000000D03*
%TD*%
%TO.C,D300*%
X53425000Y-47000000D03*
X52575000Y-47000000D03*
%TD*%
%TO.C,D299*%
X50425000Y-47000000D03*
X49575000Y-47000000D03*
%TD*%
%TO.C,D298*%
X47425000Y-47000000D03*
X46575000Y-47000000D03*
%TD*%
%TO.C,D297*%
X44425000Y-47000000D03*
X43575000Y-47000000D03*
%TD*%
%TO.C,D296*%
X41425000Y-47000000D03*
X40575000Y-47000000D03*
%TD*%
%TO.C,D295*%
X38425000Y-47000000D03*
X37575000Y-47000000D03*
%TD*%
%TO.C,D294*%
X35425000Y-47000000D03*
X34575000Y-47000000D03*
%TD*%
%TO.C,D293*%
X32425000Y-47000000D03*
X31575000Y-47000000D03*
%TD*%
%TO.C,D292*%
X29425000Y-47000000D03*
X28575000Y-47000000D03*
%TD*%
%TO.C,D291*%
X26425000Y-47000000D03*
X25575000Y-47000000D03*
%TD*%
%TO.C,D290*%
X23425000Y-47000000D03*
X22575000Y-47000000D03*
%TD*%
%TO.C,D289*%
X20425000Y-47000000D03*
X19575000Y-47000000D03*
%TD*%
%TO.C,D288*%
X113425000Y-44000000D03*
X112575000Y-44000000D03*
%TD*%
%TO.C,D287*%
X110425000Y-44000000D03*
X109575000Y-44000000D03*
%TD*%
%TO.C,D286*%
X107425000Y-44000000D03*
X106575000Y-44000000D03*
%TD*%
%TO.C,D285*%
X104425000Y-44000000D03*
X103575000Y-44000000D03*
%TD*%
%TO.C,D284*%
X101425000Y-44000000D03*
X100575000Y-44000000D03*
%TD*%
%TO.C,D283*%
X98425000Y-44000000D03*
X97575000Y-44000000D03*
%TD*%
%TO.C,D282*%
X95425000Y-44000000D03*
X94575000Y-44000000D03*
%TD*%
%TO.C,D281*%
X92425000Y-44000000D03*
X91575000Y-44000000D03*
%TD*%
%TO.C,D280*%
X89425000Y-44000000D03*
X88575000Y-44000000D03*
%TD*%
%TO.C,D279*%
X86425000Y-44000000D03*
X85575000Y-44000000D03*
%TD*%
%TO.C,D278*%
X83425000Y-44000000D03*
X82575000Y-44000000D03*
%TD*%
%TO.C,D277*%
X80425000Y-44000000D03*
X79575000Y-44000000D03*
%TD*%
%TO.C,D276*%
X77425000Y-44000000D03*
X76575000Y-44000000D03*
%TD*%
%TO.C,D275*%
X74425000Y-44000000D03*
X73575000Y-44000000D03*
%TD*%
%TO.C,D274*%
X71425000Y-44000000D03*
X70575000Y-44000000D03*
%TD*%
%TO.C,D273*%
X68425000Y-44000000D03*
X67575000Y-44000000D03*
%TD*%
%TO.C,D272*%
X65425000Y-44000000D03*
X64575000Y-44000000D03*
%TD*%
%TO.C,D271*%
X62425000Y-44000000D03*
X61575000Y-44000000D03*
%TD*%
%TO.C,D270*%
X59425000Y-44000000D03*
X58575000Y-44000000D03*
%TD*%
%TO.C,D269*%
X56425000Y-44000000D03*
X55575000Y-44000000D03*
%TD*%
%TO.C,D268*%
X53425000Y-44000000D03*
X52575000Y-44000000D03*
%TD*%
%TO.C,D267*%
X50425000Y-44000000D03*
X49575000Y-44000000D03*
%TD*%
%TO.C,D266*%
X47425000Y-44000000D03*
X46575000Y-44000000D03*
%TD*%
%TO.C,D265*%
X44425000Y-44000000D03*
X43575000Y-44000000D03*
%TD*%
%TO.C,D264*%
X41425000Y-44000000D03*
X40575000Y-44000000D03*
%TD*%
%TO.C,D263*%
X38425000Y-44000000D03*
X37575000Y-44000000D03*
%TD*%
%TO.C,D262*%
X35425000Y-44000000D03*
X34575000Y-44000000D03*
%TD*%
%TO.C,D261*%
X32425000Y-44000000D03*
X31575000Y-44000000D03*
%TD*%
%TO.C,D260*%
X29425000Y-44000000D03*
X28575000Y-44000000D03*
%TD*%
%TO.C,D259*%
X26425000Y-44000000D03*
X25575000Y-44000000D03*
%TD*%
%TO.C,D258*%
X23425000Y-44000000D03*
X22575000Y-44000000D03*
%TD*%
%TO.C,D257*%
X20425000Y-44000000D03*
X19575000Y-44000000D03*
%TD*%
%TO.C,D256*%
X113425000Y-41000000D03*
X112575000Y-41000000D03*
%TD*%
%TO.C,D255*%
X110425000Y-41000000D03*
X109575000Y-41000000D03*
%TD*%
%TO.C,D254*%
X107425000Y-41000000D03*
X106575000Y-41000000D03*
%TD*%
%TO.C,D253*%
X104425000Y-41000000D03*
X103575000Y-41000000D03*
%TD*%
%TO.C,D252*%
X101425000Y-41000000D03*
X100575000Y-41000000D03*
%TD*%
%TO.C,D251*%
X98425000Y-41000000D03*
X97575000Y-41000000D03*
%TD*%
%TO.C,D250*%
X95425000Y-41000000D03*
X94575000Y-41000000D03*
%TD*%
%TO.C,D249*%
X92425000Y-41000000D03*
X91575000Y-41000000D03*
%TD*%
%TO.C,D248*%
X89425000Y-41000000D03*
X88575000Y-41000000D03*
%TD*%
%TO.C,D247*%
X86425000Y-41000000D03*
X85575000Y-41000000D03*
%TD*%
%TO.C,D246*%
X83425000Y-41000000D03*
X82575000Y-41000000D03*
%TD*%
%TO.C,D245*%
X80425000Y-41000000D03*
X79575000Y-41000000D03*
%TD*%
%TO.C,D244*%
X77425000Y-41000000D03*
X76575000Y-41000000D03*
%TD*%
%TO.C,D243*%
X74425000Y-41000000D03*
X73575000Y-41000000D03*
%TD*%
%TO.C,D242*%
X71425000Y-41000000D03*
X70575000Y-41000000D03*
%TD*%
%TO.C,D241*%
X68425000Y-41000000D03*
X67575000Y-41000000D03*
%TD*%
%TO.C,D240*%
X65425000Y-41000000D03*
X64575000Y-41000000D03*
%TD*%
%TO.C,D239*%
X62425000Y-41000000D03*
X61575000Y-41000000D03*
%TD*%
%TO.C,D238*%
X59425000Y-41000000D03*
X58575000Y-41000000D03*
%TD*%
%TO.C,D237*%
X56425000Y-41000000D03*
X55575000Y-41000000D03*
%TD*%
%TO.C,D236*%
X53425000Y-41000000D03*
X52575000Y-41000000D03*
%TD*%
%TO.C,D235*%
X50425000Y-41000000D03*
X49575000Y-41000000D03*
%TD*%
%TO.C,D234*%
X47425000Y-41000000D03*
X46575000Y-41000000D03*
%TD*%
%TO.C,D233*%
X44425000Y-41000000D03*
X43575000Y-41000000D03*
%TD*%
%TO.C,D232*%
X41425000Y-41000000D03*
X40575000Y-41000000D03*
%TD*%
%TO.C,D231*%
X38425000Y-41000000D03*
X37575000Y-41000000D03*
%TD*%
%TO.C,D230*%
X35425000Y-41000000D03*
X34575000Y-41000000D03*
%TD*%
%TO.C,D229*%
X32425000Y-41000000D03*
X31575000Y-41000000D03*
%TD*%
%TO.C,D228*%
X29425000Y-41000000D03*
X28575000Y-41000000D03*
%TD*%
%TO.C,D227*%
X26425000Y-41000000D03*
X25575000Y-41000000D03*
%TD*%
%TO.C,D226*%
X23425000Y-41000000D03*
X22575000Y-41000000D03*
%TD*%
%TO.C,D225*%
X20425000Y-41000000D03*
X19575000Y-41000000D03*
%TD*%
%TO.C,D224*%
X113425000Y-38000000D03*
X112575000Y-38000000D03*
%TD*%
%TO.C,D223*%
X110425000Y-38000000D03*
X109575000Y-38000000D03*
%TD*%
%TO.C,D222*%
X107425000Y-38000000D03*
X106575000Y-38000000D03*
%TD*%
%TO.C,D221*%
X104425000Y-38000000D03*
X103575000Y-38000000D03*
%TD*%
%TO.C,D220*%
X101425000Y-38000000D03*
X100575000Y-38000000D03*
%TD*%
%TO.C,D219*%
X98425000Y-38000000D03*
X97575000Y-38000000D03*
%TD*%
%TO.C,D218*%
X95425000Y-38000000D03*
X94575000Y-38000000D03*
%TD*%
%TO.C,D217*%
X92425000Y-38000000D03*
X91575000Y-38000000D03*
%TD*%
%TO.C,D216*%
X89425000Y-38000000D03*
X88575000Y-38000000D03*
%TD*%
%TO.C,D215*%
X86425000Y-38000000D03*
X85575000Y-38000000D03*
%TD*%
%TO.C,D214*%
X83425000Y-38000000D03*
X82575000Y-38000000D03*
%TD*%
%TO.C,D213*%
X80425000Y-38000000D03*
X79575000Y-38000000D03*
%TD*%
%TO.C,D212*%
X77425000Y-38000000D03*
X76575000Y-38000000D03*
%TD*%
%TO.C,D211*%
X74425000Y-38000000D03*
X73575000Y-38000000D03*
%TD*%
%TO.C,D210*%
X71425000Y-38000000D03*
X70575000Y-38000000D03*
%TD*%
%TO.C,D209*%
X68425000Y-38000000D03*
X67575000Y-38000000D03*
%TD*%
%TO.C,D208*%
X65425000Y-38000000D03*
X64575000Y-38000000D03*
%TD*%
%TO.C,D207*%
X62425000Y-38000000D03*
X61575000Y-38000000D03*
%TD*%
%TO.C,D206*%
X59425000Y-38000000D03*
X58575000Y-38000000D03*
%TD*%
%TO.C,D205*%
X56425000Y-38000000D03*
X55575000Y-38000000D03*
%TD*%
%TO.C,D204*%
X53425000Y-38000000D03*
X52575000Y-38000000D03*
%TD*%
%TO.C,D203*%
X50425000Y-38000000D03*
X49575000Y-38000000D03*
%TD*%
%TO.C,D202*%
X47425000Y-38000000D03*
X46575000Y-38000000D03*
%TD*%
%TO.C,D201*%
X44425000Y-38000000D03*
X43575000Y-38000000D03*
%TD*%
%TO.C,D200*%
X41425000Y-38000000D03*
X40575000Y-38000000D03*
%TD*%
%TO.C,D199*%
X38425000Y-38000000D03*
X37575000Y-38000000D03*
%TD*%
%TO.C,D198*%
X35425000Y-38000000D03*
X34575000Y-38000000D03*
%TD*%
%TO.C,D197*%
X32425000Y-38000000D03*
X31575000Y-38000000D03*
%TD*%
%TO.C,D196*%
X29425000Y-38000000D03*
X28575000Y-38000000D03*
%TD*%
%TO.C,D195*%
X26425000Y-38000000D03*
X25575000Y-38000000D03*
%TD*%
%TO.C,D194*%
X23425000Y-38000000D03*
X22575000Y-38000000D03*
%TD*%
%TO.C,D193*%
X20425000Y-38000000D03*
X19575000Y-38000000D03*
%TD*%
%TO.C,D192*%
X113425000Y-35000000D03*
X112575000Y-35000000D03*
%TD*%
%TO.C,D191*%
X110425000Y-35000000D03*
X109575000Y-35000000D03*
%TD*%
%TO.C,D190*%
X107425000Y-35000000D03*
X106575000Y-35000000D03*
%TD*%
%TO.C,D189*%
X104425000Y-35000000D03*
X103575000Y-35000000D03*
%TD*%
%TO.C,D188*%
X101425000Y-35000000D03*
X100575000Y-35000000D03*
%TD*%
%TO.C,D187*%
X98425000Y-35000000D03*
X97575000Y-35000000D03*
%TD*%
%TO.C,D186*%
X95425000Y-35000000D03*
X94575000Y-35000000D03*
%TD*%
%TO.C,D185*%
X92425000Y-35000000D03*
X91575000Y-35000000D03*
%TD*%
%TO.C,D184*%
X89425000Y-35000000D03*
X88575000Y-35000000D03*
%TD*%
%TO.C,D183*%
X86425000Y-35000000D03*
X85575000Y-35000000D03*
%TD*%
%TO.C,D182*%
X83425000Y-35000000D03*
X82575000Y-35000000D03*
%TD*%
%TO.C,D181*%
X80425000Y-35000000D03*
X79575000Y-35000000D03*
%TD*%
%TO.C,D180*%
X77425000Y-35000000D03*
X76575000Y-35000000D03*
%TD*%
%TO.C,D179*%
X74425000Y-35000000D03*
X73575000Y-35000000D03*
%TD*%
%TO.C,D178*%
X71425000Y-35000000D03*
X70575000Y-35000000D03*
%TD*%
%TO.C,D177*%
X68425000Y-35000000D03*
X67575000Y-35000000D03*
%TD*%
%TO.C,D176*%
X65425000Y-35000000D03*
X64575000Y-35000000D03*
%TD*%
%TO.C,D175*%
X62425000Y-35000000D03*
X61575000Y-35000000D03*
%TD*%
%TO.C,D174*%
X59425000Y-35000000D03*
X58575000Y-35000000D03*
%TD*%
%TO.C,D173*%
X56425000Y-35000000D03*
X55575000Y-35000000D03*
%TD*%
%TO.C,D172*%
X53425000Y-35000000D03*
X52575000Y-35000000D03*
%TD*%
%TO.C,D171*%
X50425000Y-35000000D03*
X49575000Y-35000000D03*
%TD*%
%TO.C,D170*%
X47425000Y-35000000D03*
X46575000Y-35000000D03*
%TD*%
%TO.C,D169*%
X44425000Y-35000000D03*
X43575000Y-35000000D03*
%TD*%
%TO.C,D168*%
X41425000Y-35000000D03*
X40575000Y-35000000D03*
%TD*%
%TO.C,D167*%
X38425000Y-35000000D03*
X37575000Y-35000000D03*
%TD*%
%TO.C,D166*%
X35425000Y-35000000D03*
X34575000Y-35000000D03*
%TD*%
%TO.C,D165*%
X32425000Y-35000000D03*
X31575000Y-35000000D03*
%TD*%
%TO.C,D164*%
X29425000Y-35000000D03*
X28575000Y-35000000D03*
%TD*%
%TO.C,D163*%
X26425000Y-35000000D03*
X25575000Y-35000000D03*
%TD*%
%TO.C,D162*%
X23425000Y-35000000D03*
X22575000Y-35000000D03*
%TD*%
%TO.C,D161*%
X20425000Y-35000000D03*
X19575000Y-35000000D03*
%TD*%
%TO.C,D160*%
X113425000Y-32000000D03*
X112575000Y-32000000D03*
%TD*%
%TO.C,D159*%
X110425000Y-32000000D03*
X109575000Y-32000000D03*
%TD*%
%TO.C,D158*%
X107425000Y-32000000D03*
X106575000Y-32000000D03*
%TD*%
%TO.C,D157*%
X104425000Y-32000000D03*
X103575000Y-32000000D03*
%TD*%
%TO.C,D156*%
X101425000Y-32000000D03*
X100575000Y-32000000D03*
%TD*%
%TO.C,D155*%
X98425000Y-32000000D03*
X97575000Y-32000000D03*
%TD*%
%TO.C,D154*%
X95425000Y-32000000D03*
X94575000Y-32000000D03*
%TD*%
%TO.C,D153*%
X92425000Y-32000000D03*
X91575000Y-32000000D03*
%TD*%
%TO.C,D152*%
X89425000Y-32000000D03*
X88575000Y-32000000D03*
%TD*%
%TO.C,D151*%
X86425000Y-32000000D03*
X85575000Y-32000000D03*
%TD*%
%TO.C,D150*%
X83425000Y-32000000D03*
X82575000Y-32000000D03*
%TD*%
%TO.C,D149*%
X80425000Y-32000000D03*
X79575000Y-32000000D03*
%TD*%
%TO.C,D148*%
X77425000Y-32000000D03*
X76575000Y-32000000D03*
%TD*%
%TO.C,D147*%
X74425000Y-32000000D03*
X73575000Y-32000000D03*
%TD*%
%TO.C,D146*%
X71425000Y-32000000D03*
X70575000Y-32000000D03*
%TD*%
%TO.C,D145*%
X68425000Y-32000000D03*
X67575000Y-32000000D03*
%TD*%
%TO.C,D144*%
X65425000Y-32000000D03*
X64575000Y-32000000D03*
%TD*%
%TO.C,D143*%
X62425000Y-32000000D03*
X61575000Y-32000000D03*
%TD*%
%TO.C,D142*%
X59425000Y-32000000D03*
X58575000Y-32000000D03*
%TD*%
%TO.C,D141*%
X56425000Y-32000000D03*
X55575000Y-32000000D03*
%TD*%
%TO.C,D140*%
X53425000Y-32000000D03*
X52575000Y-32000000D03*
%TD*%
%TO.C,D139*%
X50425000Y-32000000D03*
X49575000Y-32000000D03*
%TD*%
%TO.C,D138*%
X47425000Y-32000000D03*
X46575000Y-32000000D03*
%TD*%
%TO.C,D137*%
X44425000Y-32000000D03*
X43575000Y-32000000D03*
%TD*%
%TO.C,D136*%
X41425000Y-32000000D03*
X40575000Y-32000000D03*
%TD*%
%TO.C,D135*%
X38425000Y-32000000D03*
X37575000Y-32000000D03*
%TD*%
%TO.C,D134*%
X35425000Y-32000000D03*
X34575000Y-32000000D03*
%TD*%
%TO.C,D133*%
X32425000Y-32000000D03*
X31575000Y-32000000D03*
%TD*%
%TO.C,D132*%
X29425000Y-32000000D03*
X28575000Y-32000000D03*
%TD*%
%TO.C,D131*%
X26425000Y-32000000D03*
X25575000Y-32000000D03*
%TD*%
%TO.C,D130*%
X23425000Y-32000000D03*
X22575000Y-32000000D03*
%TD*%
%TO.C,D129*%
X20425000Y-32000000D03*
X19575000Y-32000000D03*
%TD*%
%TO.C,D128*%
X113425000Y-29000000D03*
X112575000Y-29000000D03*
%TD*%
%TO.C,D127*%
X110425000Y-29000000D03*
X109575000Y-29000000D03*
%TD*%
%TO.C,D126*%
X107425000Y-29000000D03*
X106575000Y-29000000D03*
%TD*%
%TO.C,D125*%
X104425000Y-29000000D03*
X103575000Y-29000000D03*
%TD*%
%TO.C,D124*%
X101425000Y-29000000D03*
X100575000Y-29000000D03*
%TD*%
%TO.C,D123*%
X98425000Y-29000000D03*
X97575000Y-29000000D03*
%TD*%
%TO.C,D122*%
X95425000Y-29000000D03*
X94575000Y-29000000D03*
%TD*%
%TO.C,D121*%
X92425000Y-29000000D03*
X91575000Y-29000000D03*
%TD*%
%TO.C,D120*%
X89425000Y-29000000D03*
X88575000Y-29000000D03*
%TD*%
%TO.C,D119*%
X86425000Y-29000000D03*
X85575000Y-29000000D03*
%TD*%
%TO.C,D118*%
X83425000Y-29000000D03*
X82575000Y-29000000D03*
%TD*%
%TO.C,D117*%
X80425000Y-29000000D03*
X79575000Y-29000000D03*
%TD*%
%TO.C,D116*%
X77425000Y-29000000D03*
X76575000Y-29000000D03*
%TD*%
%TO.C,D115*%
X74425000Y-29000000D03*
X73575000Y-29000000D03*
%TD*%
%TO.C,D114*%
X71425000Y-29000000D03*
X70575000Y-29000000D03*
%TD*%
%TO.C,D113*%
X68425000Y-29000000D03*
X67575000Y-29000000D03*
%TD*%
%TO.C,D112*%
X65425000Y-29000000D03*
X64575000Y-29000000D03*
%TD*%
%TO.C,D111*%
X62425000Y-29000000D03*
X61575000Y-29000000D03*
%TD*%
%TO.C,D110*%
X59425000Y-29000000D03*
X58575000Y-29000000D03*
%TD*%
%TO.C,D109*%
X56425000Y-29000000D03*
X55575000Y-29000000D03*
%TD*%
%TO.C,D108*%
X53425000Y-29000000D03*
X52575000Y-29000000D03*
%TD*%
%TO.C,D107*%
X50425000Y-29000000D03*
X49575000Y-29000000D03*
%TD*%
%TO.C,D106*%
X47425000Y-29000000D03*
X46575000Y-29000000D03*
%TD*%
%TO.C,D105*%
X44425000Y-29000000D03*
X43575000Y-29000000D03*
%TD*%
%TO.C,D104*%
X41425000Y-29000000D03*
X40575000Y-29000000D03*
%TD*%
%TO.C,D103*%
X38425000Y-29000000D03*
X37575000Y-29000000D03*
%TD*%
%TO.C,D102*%
X35425000Y-29000000D03*
X34575000Y-29000000D03*
%TD*%
%TO.C,D101*%
X32425000Y-29000000D03*
X31575000Y-29000000D03*
%TD*%
%TO.C,D100*%
X29425000Y-29000000D03*
X28575000Y-29000000D03*
%TD*%
%TO.C,D99*%
X26425000Y-29000000D03*
X25575000Y-29000000D03*
%TD*%
%TO.C,D98*%
X23425000Y-29000000D03*
X22575000Y-29000000D03*
%TD*%
%TO.C,D97*%
X20425000Y-29000000D03*
X19575000Y-29000000D03*
%TD*%
%TO.C,D96*%
X113425000Y-26000000D03*
X112575000Y-26000000D03*
%TD*%
%TO.C,D95*%
X110425000Y-26000000D03*
X109575000Y-26000000D03*
%TD*%
%TO.C,D94*%
X107425000Y-26000000D03*
X106575000Y-26000000D03*
%TD*%
%TO.C,D93*%
X104425000Y-26000000D03*
X103575000Y-26000000D03*
%TD*%
%TO.C,D92*%
X101425000Y-26000000D03*
X100575000Y-26000000D03*
%TD*%
%TO.C,D91*%
X98425000Y-26000000D03*
X97575000Y-26000000D03*
%TD*%
%TO.C,D90*%
X95425000Y-26000000D03*
X94575000Y-26000000D03*
%TD*%
%TO.C,D89*%
X92425000Y-26000000D03*
X91575000Y-26000000D03*
%TD*%
%TO.C,D88*%
X89425000Y-26000000D03*
X88575000Y-26000000D03*
%TD*%
%TO.C,D87*%
X86425000Y-26000000D03*
X85575000Y-26000000D03*
%TD*%
%TO.C,D86*%
X83425000Y-26000000D03*
X82575000Y-26000000D03*
%TD*%
%TO.C,D85*%
X80425000Y-26000000D03*
X79575000Y-26000000D03*
%TD*%
%TO.C,D84*%
X77425000Y-26000000D03*
X76575000Y-26000000D03*
%TD*%
%TO.C,D83*%
X74425000Y-26000000D03*
X73575000Y-26000000D03*
%TD*%
%TO.C,D82*%
X71425000Y-26000000D03*
X70575000Y-26000000D03*
%TD*%
%TO.C,D81*%
X68425000Y-26000000D03*
X67575000Y-26000000D03*
%TD*%
%TO.C,D80*%
X65425000Y-26000000D03*
X64575000Y-26000000D03*
%TD*%
%TO.C,D79*%
X62425000Y-26000000D03*
X61575000Y-26000000D03*
%TD*%
%TO.C,D78*%
X59425000Y-26000000D03*
X58575000Y-26000000D03*
%TD*%
%TO.C,D77*%
X56425000Y-26000000D03*
X55575000Y-26000000D03*
%TD*%
%TO.C,D76*%
X53425000Y-26000000D03*
X52575000Y-26000000D03*
%TD*%
%TO.C,D75*%
X50425000Y-26000000D03*
X49575000Y-26000000D03*
%TD*%
%TO.C,D74*%
X47425000Y-26000000D03*
X46575000Y-26000000D03*
%TD*%
%TO.C,D73*%
X44425000Y-26000000D03*
X43575000Y-26000000D03*
%TD*%
%TO.C,D72*%
X41425000Y-26000000D03*
X40575000Y-26000000D03*
%TD*%
%TO.C,D71*%
X38425000Y-26000000D03*
X37575000Y-26000000D03*
%TD*%
%TO.C,D70*%
X35425000Y-26000000D03*
X34575000Y-26000000D03*
%TD*%
%TO.C,D69*%
X32425000Y-26000000D03*
X31575000Y-26000000D03*
%TD*%
%TO.C,D68*%
X29425000Y-26000000D03*
X28575000Y-26000000D03*
%TD*%
%TO.C,D67*%
X26425000Y-26000000D03*
X25575000Y-26000000D03*
%TD*%
%TO.C,D66*%
X23425000Y-26000000D03*
X22575000Y-26000000D03*
%TD*%
%TO.C,D65*%
X20425000Y-26000000D03*
X19575000Y-26000000D03*
%TD*%
%TO.C,D64*%
X113425000Y-23000000D03*
X112575000Y-23000000D03*
%TD*%
%TO.C,D63*%
X110425000Y-23000000D03*
X109575000Y-23000000D03*
%TD*%
%TO.C,D62*%
X107425000Y-23000000D03*
X106575000Y-23000000D03*
%TD*%
%TO.C,D61*%
X104425000Y-23000000D03*
X103575000Y-23000000D03*
%TD*%
%TO.C,D60*%
X101425000Y-23000000D03*
X100575000Y-23000000D03*
%TD*%
%TO.C,D59*%
X98425000Y-23000000D03*
X97575000Y-23000000D03*
%TD*%
%TO.C,D58*%
X95425000Y-23000000D03*
X94575000Y-23000000D03*
%TD*%
%TO.C,D57*%
X92425000Y-23000000D03*
X91575000Y-23000000D03*
%TD*%
%TO.C,D56*%
X89425000Y-23000000D03*
X88575000Y-23000000D03*
%TD*%
%TO.C,D55*%
X86425000Y-23000000D03*
X85575000Y-23000000D03*
%TD*%
%TO.C,D54*%
X83425000Y-23000000D03*
X82575000Y-23000000D03*
%TD*%
%TO.C,D53*%
X80425000Y-23000000D03*
X79575000Y-23000000D03*
%TD*%
%TO.C,D52*%
X77425000Y-23000000D03*
X76575000Y-23000000D03*
%TD*%
%TO.C,D51*%
X74425000Y-23000000D03*
X73575000Y-23000000D03*
%TD*%
%TO.C,D50*%
X71425000Y-23000000D03*
X70575000Y-23000000D03*
%TD*%
%TO.C,D49*%
X68425000Y-23000000D03*
X67575000Y-23000000D03*
%TD*%
%TO.C,D48*%
X65425000Y-23000000D03*
X64575000Y-23000000D03*
%TD*%
%TO.C,D47*%
X62425000Y-23000000D03*
X61575000Y-23000000D03*
%TD*%
%TO.C,D46*%
X59425000Y-23000000D03*
X58575000Y-23000000D03*
%TD*%
%TO.C,D45*%
X56425000Y-23000000D03*
X55575000Y-23000000D03*
%TD*%
%TO.C,D44*%
X53425000Y-23000000D03*
X52575000Y-23000000D03*
%TD*%
%TO.C,D43*%
X50425000Y-23000000D03*
X49575000Y-23000000D03*
%TD*%
%TO.C,D42*%
X47425000Y-23000000D03*
X46575000Y-23000000D03*
%TD*%
%TO.C,D41*%
X44425000Y-23000000D03*
X43575000Y-23000000D03*
%TD*%
%TO.C,D40*%
X41425000Y-23000000D03*
X40575000Y-23000000D03*
%TD*%
%TO.C,D39*%
X38425000Y-23000000D03*
X37575000Y-23000000D03*
%TD*%
%TO.C,D38*%
X35425000Y-23000000D03*
X34575000Y-23000000D03*
%TD*%
%TO.C,D37*%
X32425000Y-23000000D03*
X31575000Y-23000000D03*
%TD*%
%TO.C,D36*%
X29425000Y-23000000D03*
X28575000Y-23000000D03*
%TD*%
%TO.C,D35*%
X26425000Y-23000000D03*
X25575000Y-23000000D03*
%TD*%
%TO.C,D34*%
X23425000Y-23000000D03*
X22575000Y-23000000D03*
%TD*%
%TO.C,D33*%
X20425000Y-23000000D03*
X19575000Y-23000000D03*
%TD*%
%TO.C,D32*%
X113425000Y-20000000D03*
X112575000Y-20000000D03*
%TD*%
%TO.C,D31*%
X110425000Y-20000000D03*
X109575000Y-20000000D03*
%TD*%
%TO.C,D30*%
X107425000Y-20000000D03*
X106575000Y-20000000D03*
%TD*%
%TO.C,D29*%
X103575000Y-20000000D03*
X104425000Y-20000000D03*
%TD*%
%TO.C,D28*%
X101425000Y-20000000D03*
X100575000Y-20000000D03*
%TD*%
%TO.C,D27*%
X98425000Y-20000000D03*
X97575000Y-20000000D03*
%TD*%
%TO.C,D26*%
X95425000Y-20000000D03*
X94575000Y-20000000D03*
%TD*%
%TO.C,D25*%
X92425000Y-20000000D03*
X91575000Y-20000000D03*
%TD*%
%TO.C,D24*%
X89425000Y-20000000D03*
X88575000Y-20000000D03*
%TD*%
%TO.C,D23*%
X86425000Y-20000000D03*
X85575000Y-20000000D03*
%TD*%
%TO.C,D22*%
X83425000Y-20000000D03*
X82575000Y-20000000D03*
%TD*%
%TO.C,D21*%
X80425000Y-20000000D03*
X79575000Y-20000000D03*
%TD*%
%TO.C,D20*%
X77425000Y-20000000D03*
X76575000Y-20000000D03*
%TD*%
%TO.C,D19*%
X74425000Y-20000000D03*
X73575000Y-20000000D03*
%TD*%
%TO.C,D18*%
X71425000Y-20000000D03*
X70575000Y-20000000D03*
%TD*%
%TO.C,D17*%
X68425000Y-20000000D03*
X67575000Y-20000000D03*
%TD*%
%TO.C,D16*%
X65425000Y-20000000D03*
X64575000Y-20000000D03*
%TD*%
%TO.C,D15*%
X62425000Y-20000000D03*
X61575000Y-20000000D03*
%TD*%
%TO.C,D14*%
X59425000Y-20000000D03*
X58575000Y-20000000D03*
%TD*%
%TO.C,D13*%
X56425000Y-20000000D03*
X55575000Y-20000000D03*
%TD*%
%TO.C,D12*%
X53425000Y-20000000D03*
X52575000Y-20000000D03*
%TD*%
%TO.C,D11*%
X50425000Y-20000000D03*
X49575000Y-20000000D03*
%TD*%
%TO.C,D10*%
X47425000Y-20000000D03*
X46575000Y-20000000D03*
%TD*%
%TO.C,D9*%
X44425000Y-20000000D03*
X43575000Y-20000000D03*
%TD*%
%TO.C,D8*%
X41425000Y-20000000D03*
X40575000Y-20000000D03*
%TD*%
%TO.C,D7*%
X38425000Y-20000000D03*
X37575000Y-20000000D03*
%TD*%
%TO.C,D6*%
X35425000Y-20000000D03*
X34575000Y-20000000D03*
%TD*%
%TO.C,D5*%
X32425000Y-20000000D03*
X31575000Y-20000000D03*
%TD*%
%TO.C,D4*%
X29425000Y-20000000D03*
X28575000Y-20000000D03*
%TD*%
%TO.C,D3*%
X26425000Y-20000000D03*
X25575000Y-20000000D03*
%TD*%
%TO.C,D2*%
X23425000Y-20000000D03*
X22575000Y-20000000D03*
%TD*%
%TO.C,D1*%
X20425000Y-20000000D03*
X19575000Y-20000000D03*
%TD*%
M02*
