M48
; DRILL file {KiCad 8.0.2} date 2024-07-20T19:47:13-0500
; FORMAT={-:-/ absolute / inch / decimal}
; #@! TF.CreationDate,2024-07-20T19:47:13-05:00
; #@! TF.GenerationSoftware,Kicad,Pcbnew,8.0.2
; #@! TF.FileFunction,Plated,1,4,PTH
FMAT,2
INCH
; #@! TA.AperFunction,Plated,PTH,ComponentDrill
T1C0.0118
%
G90
G05
T1
X0.7707Y-0.7874
X0.7707Y-0.9055
X0.7707Y-1.0236
X0.7707Y-1.1417
X0.7707Y-1.2598
X0.7707Y-1.378
X0.7707Y-1.4961
X0.7707Y-1.6142
X0.7707Y-1.7323
X0.7707Y-1.8504
X0.7707Y-1.9685
X0.7707Y-2.0866
X0.7707Y-2.2047
X0.7707Y-2.3228
X0.7707Y-2.4409
X0.7707Y-2.5591
X0.7707Y-2.6772
X0.7707Y-2.7953
X0.7707Y-2.9134
X0.7707Y-3.0315
X0.7707Y-3.1496
X0.7707Y-3.2677
X0.7707Y-3.3858
X0.7707Y-3.5039
X0.7707Y-3.622
X0.7707Y-3.7402
X0.7707Y-3.8583
X0.7707Y-3.9764
X0.7707Y-4.0945
X0.7707Y-4.2126
X0.7707Y-4.3307
X0.7707Y-4.4488
X0.8041Y-0.7874
X0.8041Y-0.9055
X0.8041Y-1.0236
X0.8041Y-1.1417
X0.8041Y-1.2598
X0.8041Y-1.378
X0.8041Y-1.4961
X0.8041Y-1.6142
X0.8041Y-1.7323
X0.8041Y-1.8504
X0.8041Y-1.9685
X0.8041Y-2.0866
X0.8041Y-2.2047
X0.8041Y-2.3228
X0.8041Y-2.4409
X0.8041Y-2.5591
X0.8041Y-2.6772
X0.8041Y-2.7953
X0.8041Y-2.9134
X0.8041Y-3.0315
X0.8041Y-3.1496
X0.8041Y-3.2677
X0.8041Y-3.3858
X0.8041Y-3.5039
X0.8041Y-3.622
X0.8041Y-3.7402
X0.8041Y-3.8583
X0.8041Y-3.9764
X0.8041Y-4.0945
X0.8041Y-4.2126
X0.8041Y-4.3307
X0.8041Y-4.4488
X0.8888Y-0.7874
X0.8888Y-0.9055
X0.8888Y-1.0236
X0.8888Y-1.1417
X0.8888Y-1.2598
X0.8888Y-1.378
X0.8888Y-1.4961
X0.8888Y-1.6142
X0.8888Y-1.7323
X0.8888Y-1.8504
X0.8888Y-1.9685
X0.8888Y-2.0866
X0.8888Y-2.2047
X0.8888Y-2.3228
X0.8888Y-2.4409
X0.8888Y-2.5591
X0.8888Y-2.6772
X0.8888Y-2.7953
X0.8888Y-2.9134
X0.8888Y-3.0315
X0.8888Y-3.1496
X0.8888Y-3.2677
X0.8888Y-3.3858
X0.8888Y-3.5039
X0.8888Y-3.622
X0.8888Y-3.7402
X0.8888Y-3.8583
X0.8888Y-3.9764
X0.8888Y-4.0945
X0.8888Y-4.2126
X0.8888Y-4.3307
X0.8888Y-4.4488
X0.9222Y-0.7874
X0.9222Y-0.9055
X0.9222Y-1.0236
X0.9222Y-1.1417
X0.9222Y-1.2598
X0.9222Y-1.378
X0.9222Y-1.4961
X0.9222Y-1.6142
X0.9222Y-1.7323
X0.9222Y-1.8504
X0.9222Y-1.9685
X0.9222Y-2.0866
X0.9222Y-2.2047
X0.9222Y-2.3228
X0.9222Y-2.4409
X0.9222Y-2.5591
X0.9222Y-2.6772
X0.9222Y-2.7953
X0.9222Y-2.9134
X0.9222Y-3.0315
X0.9222Y-3.1496
X0.9222Y-3.2677
X0.9222Y-3.3858
X0.9222Y-3.5039
X0.9222Y-3.622
X0.9222Y-3.7402
X0.9222Y-3.8583
X0.9222Y-3.9764
X0.9222Y-4.0945
X0.9222Y-4.2126
X0.9222Y-4.3307
X0.9222Y-4.4488
X1.0069Y-0.7874
X1.0069Y-0.9055
X1.0069Y-1.0236
X1.0069Y-1.1417
X1.0069Y-1.2598
X1.0069Y-1.378
X1.0069Y-1.4961
X1.0069Y-1.6142
X1.0069Y-1.7323
X1.0069Y-1.8504
X1.0069Y-1.9685
X1.0069Y-2.0866
X1.0069Y-2.2047
X1.0069Y-2.3228
X1.0069Y-2.4409
X1.0069Y-2.5591
X1.0069Y-2.6772
X1.0069Y-2.7953
X1.0069Y-2.9134
X1.0069Y-3.0315
X1.0069Y-3.1496
X1.0069Y-3.2677
X1.0069Y-3.3858
X1.0069Y-3.5039
X1.0069Y-3.622
X1.0069Y-3.7402
X1.0069Y-3.8583
X1.0069Y-3.9764
X1.0069Y-4.0945
X1.0069Y-4.2126
X1.0069Y-4.3307
X1.0069Y-4.4488
X1.0404Y-0.7874
X1.0404Y-0.9055
X1.0404Y-1.0236
X1.0404Y-1.1417
X1.0404Y-1.2598
X1.0404Y-1.378
X1.0404Y-1.4961
X1.0404Y-1.6142
X1.0404Y-1.7323
X1.0404Y-1.8504
X1.0404Y-1.9685
X1.0404Y-2.0866
X1.0404Y-2.2047
X1.0404Y-2.3228
X1.0404Y-2.4409
X1.0404Y-2.5591
X1.0404Y-2.6772
X1.0404Y-2.7953
X1.0404Y-2.9134
X1.0404Y-3.0315
X1.0404Y-3.1496
X1.0404Y-3.2677
X1.0404Y-3.3858
X1.0404Y-3.5039
X1.0404Y-3.622
X1.0404Y-3.7402
X1.0404Y-3.8583
X1.0404Y-3.9764
X1.0404Y-4.0945
X1.0404Y-4.2126
X1.0404Y-4.3307
X1.0404Y-4.4488
X1.125Y-0.7874
X1.125Y-0.9055
X1.125Y-1.0236
X1.125Y-1.1417
X1.125Y-1.2598
X1.125Y-1.378
X1.125Y-1.4961
X1.125Y-1.6142
X1.125Y-1.7323
X1.125Y-1.8504
X1.125Y-1.9685
X1.125Y-2.0866
X1.125Y-2.2047
X1.125Y-2.3228
X1.125Y-2.4409
X1.125Y-2.5591
X1.125Y-2.6772
X1.125Y-2.7953
X1.125Y-2.9134
X1.125Y-3.0315
X1.125Y-3.1496
X1.125Y-3.2677
X1.125Y-3.3858
X1.125Y-3.5039
X1.125Y-3.622
X1.125Y-3.7402
X1.125Y-3.8583
X1.125Y-3.9764
X1.125Y-4.0945
X1.125Y-4.2126
X1.125Y-4.3307
X1.125Y-4.4488
X1.1585Y-0.7874
X1.1585Y-0.9055
X1.1585Y-1.0236
X1.1585Y-1.1417
X1.1585Y-1.2598
X1.1585Y-1.378
X1.1585Y-1.4961
X1.1585Y-1.6142
X1.1585Y-1.7323
X1.1585Y-1.8504
X1.1585Y-1.9685
X1.1585Y-2.0866
X1.1585Y-2.2047
X1.1585Y-2.3228
X1.1585Y-2.4409
X1.1585Y-2.5591
X1.1585Y-2.6772
X1.1585Y-2.7953
X1.1585Y-2.9134
X1.1585Y-3.0315
X1.1585Y-3.1496
X1.1585Y-3.2677
X1.1585Y-3.3858
X1.1585Y-3.5039
X1.1585Y-3.622
X1.1585Y-3.7402
X1.1585Y-3.8583
X1.1585Y-3.9764
X1.1585Y-4.0945
X1.1585Y-4.2126
X1.1585Y-4.3307
X1.1585Y-4.4488
X1.2431Y-0.7874
X1.2431Y-0.9055
X1.2431Y-1.0236
X1.2431Y-1.1417
X1.2431Y-1.2598
X1.2431Y-1.378
X1.2431Y-1.4961
X1.2431Y-1.6142
X1.2431Y-1.7323
X1.2431Y-1.8504
X1.2431Y-1.9685
X1.2431Y-2.0866
X1.2431Y-2.2047
X1.2431Y-2.3228
X1.2431Y-2.4409
X1.2431Y-2.5591
X1.2431Y-2.6772
X1.2431Y-2.7953
X1.2431Y-2.9134
X1.2431Y-3.0315
X1.2431Y-3.1496
X1.2431Y-3.2677
X1.2431Y-3.3858
X1.2431Y-3.5039
X1.2431Y-3.622
X1.2431Y-3.7402
X1.2431Y-3.8583
X1.2431Y-3.9764
X1.2431Y-4.0945
X1.2431Y-4.2126
X1.2431Y-4.3307
X1.2431Y-4.4488
X1.2766Y-0.7874
X1.2766Y-0.9055
X1.2766Y-1.0236
X1.2766Y-1.1417
X1.2766Y-1.2598
X1.2766Y-1.378
X1.2766Y-1.4961
X1.2766Y-1.6142
X1.2766Y-1.7323
X1.2766Y-1.8504
X1.2766Y-1.9685
X1.2766Y-2.0866
X1.2766Y-2.2047
X1.2766Y-2.3228
X1.2766Y-2.4409
X1.2766Y-2.5591
X1.2766Y-2.6772
X1.2766Y-2.7953
X1.2766Y-2.9134
X1.2766Y-3.0315
X1.2766Y-3.1496
X1.2766Y-3.2677
X1.2766Y-3.3858
X1.2766Y-3.5039
X1.2766Y-3.622
X1.2766Y-3.7402
X1.2766Y-3.8583
X1.2766Y-3.9764
X1.2766Y-4.0945
X1.2766Y-4.2126
X1.2766Y-4.3307
X1.2766Y-4.4488
X1.3612Y-0.7874
X1.3612Y-0.9055
X1.3612Y-1.0236
X1.3612Y-1.1417
X1.3612Y-1.2598
X1.3612Y-1.378
X1.3612Y-1.4961
X1.3612Y-1.6142
X1.3612Y-1.7323
X1.3612Y-1.8504
X1.3612Y-1.9685
X1.3612Y-2.0866
X1.3612Y-2.2047
X1.3612Y-2.3228
X1.3612Y-2.4409
X1.3612Y-2.5591
X1.3612Y-2.6772
X1.3612Y-2.7953
X1.3612Y-2.9134
X1.3612Y-3.0315
X1.3612Y-3.1496
X1.3612Y-3.2677
X1.3612Y-3.3858
X1.3612Y-3.5039
X1.3612Y-3.622
X1.3612Y-3.7402
X1.3612Y-3.8583
X1.3612Y-3.9764
X1.3612Y-4.0945
X1.3612Y-4.2126
X1.3612Y-4.3307
X1.3612Y-4.4488
X1.3947Y-0.7874
X1.3947Y-0.9055
X1.3947Y-1.0236
X1.3947Y-1.1417
X1.3947Y-1.2598
X1.3947Y-1.378
X1.3947Y-1.4961
X1.3947Y-1.6142
X1.3947Y-1.7323
X1.3947Y-1.8504
X1.3947Y-1.9685
X1.3947Y-2.0866
X1.3947Y-2.2047
X1.3947Y-2.3228
X1.3947Y-2.4409
X1.3947Y-2.5591
X1.3947Y-2.6772
X1.3947Y-2.7953
X1.3947Y-2.9134
X1.3947Y-3.0315
X1.3947Y-3.1496
X1.3947Y-3.2677
X1.3947Y-3.3858
X1.3947Y-3.5039
X1.3947Y-3.622
X1.3947Y-3.7402
X1.3947Y-3.8583
X1.3947Y-3.9764
X1.3947Y-4.0945
X1.3947Y-4.2126
X1.3947Y-4.3307
X1.3947Y-4.4488
X1.4793Y-0.7874
X1.4793Y-0.9055
X1.4793Y-1.0236
X1.4793Y-1.1417
X1.4793Y-1.2598
X1.4793Y-1.378
X1.4793Y-1.4961
X1.4793Y-1.6142
X1.4793Y-1.7323
X1.4793Y-1.8504
X1.4793Y-1.9685
X1.4793Y-2.0866
X1.4793Y-2.2047
X1.4793Y-2.3228
X1.4793Y-2.4409
X1.4793Y-2.5591
X1.4793Y-2.6772
X1.4793Y-2.7953
X1.4793Y-2.9134
X1.4793Y-3.0315
X1.4793Y-3.1496
X1.4793Y-3.2677
X1.4793Y-3.3858
X1.4793Y-3.5039
X1.4793Y-3.622
X1.4793Y-3.7402
X1.4793Y-3.8583
X1.4793Y-3.9764
X1.4793Y-4.0945
X1.4793Y-4.2126
X1.4793Y-4.3307
X1.4793Y-4.4488
X1.5128Y-0.7874
X1.5128Y-0.9055
X1.5128Y-1.0236
X1.5128Y-1.1417
X1.5128Y-1.2598
X1.5128Y-1.378
X1.5128Y-1.4961
X1.5128Y-1.6142
X1.5128Y-1.7323
X1.5128Y-1.8504
X1.5128Y-1.9685
X1.5128Y-2.0866
X1.5128Y-2.2047
X1.5128Y-2.3228
X1.5128Y-2.4409
X1.5128Y-2.5591
X1.5128Y-2.6772
X1.5128Y-2.7953
X1.5128Y-2.9134
X1.5128Y-3.0315
X1.5128Y-3.1496
X1.5128Y-3.2677
X1.5128Y-3.3858
X1.5128Y-3.5039
X1.5128Y-3.622
X1.5128Y-3.7402
X1.5128Y-3.8583
X1.5128Y-3.9764
X1.5128Y-4.0945
X1.5128Y-4.2126
X1.5128Y-4.3307
X1.5128Y-4.4488
X1.5974Y-0.7874
X1.5974Y-0.9055
X1.5974Y-1.0236
X1.5974Y-1.1417
X1.5974Y-1.2598
X1.5974Y-1.378
X1.5974Y-1.4961
X1.5974Y-1.6142
X1.5974Y-1.7323
X1.5974Y-1.8504
X1.5974Y-1.9685
X1.5974Y-2.0866
X1.5974Y-2.2047
X1.5974Y-2.3228
X1.5974Y-2.4409
X1.5974Y-2.5591
X1.5974Y-2.6772
X1.5974Y-2.7953
X1.5974Y-2.9134
X1.5974Y-3.0315
X1.5974Y-3.1496
X1.5974Y-3.2677
X1.5974Y-3.3858
X1.5974Y-3.5039
X1.5974Y-3.622
X1.5974Y-3.7402
X1.5974Y-3.8583
X1.5974Y-3.9764
X1.5974Y-4.0945
X1.5974Y-4.2126
X1.5974Y-4.3307
X1.5974Y-4.4488
X1.6309Y-0.7874
X1.6309Y-0.9055
X1.6309Y-1.0236
X1.6309Y-1.1417
X1.6309Y-1.2598
X1.6309Y-1.378
X1.6309Y-1.4961
X1.6309Y-1.6142
X1.6309Y-1.7323
X1.6309Y-1.8504
X1.6309Y-1.9685
X1.6309Y-2.0866
X1.6309Y-2.2047
X1.6309Y-2.3228
X1.6309Y-2.4409
X1.6309Y-2.5591
X1.6309Y-2.6772
X1.6309Y-2.7953
X1.6309Y-2.9134
X1.6309Y-3.0315
X1.6309Y-3.1496
X1.6309Y-3.2677
X1.6309Y-3.3858
X1.6309Y-3.5039
X1.6309Y-3.622
X1.6309Y-3.7402
X1.6309Y-3.8583
X1.6309Y-3.9764
X1.6309Y-4.0945
X1.6309Y-4.2126
X1.6309Y-4.3307
X1.6309Y-4.4488
X1.7156Y-0.7874
X1.7156Y-0.9055
X1.7156Y-1.0236
X1.7156Y-1.1417
X1.7156Y-1.2598
X1.7156Y-1.378
X1.7156Y-1.4961
X1.7156Y-1.6142
X1.7156Y-1.7323
X1.7156Y-1.8504
X1.7156Y-1.9685
X1.7156Y-2.0866
X1.7156Y-2.2047
X1.7156Y-2.3228
X1.7156Y-2.4409
X1.7156Y-2.5591
X1.7156Y-2.6772
X1.7156Y-2.7953
X1.7156Y-2.9134
X1.7156Y-3.0315
X1.7156Y-3.1496
X1.7156Y-3.2677
X1.7156Y-3.3858
X1.7156Y-3.5039
X1.7156Y-3.622
X1.7156Y-3.7402
X1.7156Y-3.8583
X1.7156Y-3.9764
X1.7156Y-4.0945
X1.7156Y-4.2126
X1.7156Y-4.3307
X1.7156Y-4.4488
X1.749Y-0.7874
X1.749Y-0.9055
X1.749Y-1.0236
X1.749Y-1.1417
X1.749Y-1.2598
X1.749Y-1.378
X1.749Y-1.4961
X1.749Y-1.6142
X1.749Y-1.7323
X1.749Y-1.8504
X1.749Y-1.9685
X1.749Y-2.0866
X1.749Y-2.2047
X1.749Y-2.3228
X1.749Y-2.4409
X1.749Y-2.5591
X1.749Y-2.6772
X1.749Y-2.7953
X1.749Y-2.9134
X1.749Y-3.0315
X1.749Y-3.1496
X1.749Y-3.2677
X1.749Y-3.3858
X1.749Y-3.5039
X1.749Y-3.622
X1.749Y-3.7402
X1.749Y-3.8583
X1.749Y-3.9764
X1.749Y-4.0945
X1.749Y-4.2126
X1.749Y-4.3307
X1.749Y-4.4488
X1.8337Y-0.7874
X1.8337Y-0.9055
X1.8337Y-1.0236
X1.8337Y-1.1417
X1.8337Y-1.2598
X1.8337Y-1.378
X1.8337Y-1.4961
X1.8337Y-1.6142
X1.8337Y-1.7323
X1.8337Y-1.8504
X1.8337Y-1.9685
X1.8337Y-2.0866
X1.8337Y-2.2047
X1.8337Y-2.3228
X1.8337Y-2.4409
X1.8337Y-2.5591
X1.8337Y-2.6772
X1.8337Y-2.7953
X1.8337Y-2.9134
X1.8337Y-3.0315
X1.8337Y-3.1496
X1.8337Y-3.2677
X1.8337Y-3.3858
X1.8337Y-3.5039
X1.8337Y-3.622
X1.8337Y-3.7402
X1.8337Y-3.8583
X1.8337Y-3.9764
X1.8337Y-4.0945
X1.8337Y-4.2126
X1.8337Y-4.3307
X1.8337Y-4.4488
X1.8671Y-0.7874
X1.8671Y-0.9055
X1.8671Y-1.0236
X1.8671Y-1.1417
X1.8671Y-1.2598
X1.8671Y-1.378
X1.8671Y-1.4961
X1.8671Y-1.6142
X1.8671Y-1.7323
X1.8671Y-1.8504
X1.8671Y-1.9685
X1.8671Y-2.0866
X1.8671Y-2.2047
X1.8671Y-2.3228
X1.8671Y-2.4409
X1.8671Y-2.5591
X1.8671Y-2.6772
X1.8671Y-2.7953
X1.8671Y-2.9134
X1.8671Y-3.0315
X1.8671Y-3.1496
X1.8671Y-3.2677
X1.8671Y-3.3858
X1.8671Y-3.5039
X1.8671Y-3.622
X1.8671Y-3.7402
X1.8671Y-3.8583
X1.8671Y-3.9764
X1.8671Y-4.0945
X1.8671Y-4.2126
X1.8671Y-4.3307
X1.8671Y-4.4488
X1.9518Y-0.7874
X1.9518Y-0.9055
X1.9518Y-1.0236
X1.9518Y-1.1417
X1.9518Y-1.2598
X1.9518Y-1.378
X1.9518Y-1.4961
X1.9518Y-1.6142
X1.9518Y-1.7323
X1.9518Y-1.8504
X1.9518Y-1.9685
X1.9518Y-2.0866
X1.9518Y-2.2047
X1.9518Y-2.3228
X1.9518Y-2.4409
X1.9518Y-2.5591
X1.9518Y-2.6772
X1.9518Y-2.7953
X1.9518Y-2.9134
X1.9518Y-3.0315
X1.9518Y-3.1496
X1.9518Y-3.2677
X1.9518Y-3.3858
X1.9518Y-3.5039
X1.9518Y-3.622
X1.9518Y-3.7402
X1.9518Y-3.8583
X1.9518Y-3.9764
X1.9518Y-4.0945
X1.9518Y-4.2126
X1.9518Y-4.3307
X1.9518Y-4.4488
X1.9852Y-0.7874
X1.9852Y-0.9055
X1.9852Y-1.0236
X1.9852Y-1.1417
X1.9852Y-1.2598
X1.9852Y-1.378
X1.9852Y-1.4961
X1.9852Y-1.6142
X1.9852Y-1.7323
X1.9852Y-1.8504
X1.9852Y-1.9685
X1.9852Y-2.0866
X1.9852Y-2.2047
X1.9852Y-2.3228
X1.9852Y-2.4409
X1.9852Y-2.5591
X1.9852Y-2.6772
X1.9852Y-2.7953
X1.9852Y-2.9134
X1.9852Y-3.0315
X1.9852Y-3.1496
X1.9852Y-3.2677
X1.9852Y-3.3858
X1.9852Y-3.5039
X1.9852Y-3.622
X1.9852Y-3.7402
X1.9852Y-3.8583
X1.9852Y-3.9764
X1.9852Y-4.0945
X1.9852Y-4.2126
X1.9852Y-4.3307
X1.9852Y-4.4488
X2.0699Y-0.7874
X2.0699Y-0.9055
X2.0699Y-1.0236
X2.0699Y-1.1417
X2.0699Y-1.2598
X2.0699Y-1.378
X2.0699Y-1.4961
X2.0699Y-1.6142
X2.0699Y-1.7323
X2.0699Y-1.8504
X2.0699Y-1.9685
X2.0699Y-2.0866
X2.0699Y-2.2047
X2.0699Y-2.3228
X2.0699Y-2.4409
X2.0699Y-2.5591
X2.0699Y-2.6772
X2.0699Y-2.7953
X2.0699Y-2.9134
X2.0699Y-3.0315
X2.0699Y-3.1496
X2.0699Y-3.2677
X2.0699Y-3.3858
X2.0699Y-3.5039
X2.0699Y-3.622
X2.0699Y-3.7402
X2.0699Y-3.8583
X2.0699Y-3.9764
X2.0699Y-4.0945
X2.0699Y-4.2126
X2.0699Y-4.3307
X2.0699Y-4.4488
X2.1033Y-0.7874
X2.1033Y-0.9055
X2.1033Y-1.0236
X2.1033Y-1.1417
X2.1033Y-1.2598
X2.1033Y-1.378
X2.1033Y-1.4961
X2.1033Y-1.6142
X2.1033Y-1.7323
X2.1033Y-1.8504
X2.1033Y-1.9685
X2.1033Y-2.0866
X2.1033Y-2.2047
X2.1033Y-2.3228
X2.1033Y-2.4409
X2.1033Y-2.5591
X2.1033Y-2.6772
X2.1033Y-2.7953
X2.1033Y-2.9134
X2.1033Y-3.0315
X2.1033Y-3.1496
X2.1033Y-3.2677
X2.1033Y-3.3858
X2.1033Y-3.5039
X2.1033Y-3.622
X2.1033Y-3.7402
X2.1033Y-3.8583
X2.1033Y-3.9764
X2.1033Y-4.0945
X2.1033Y-4.2126
X2.1033Y-4.3307
X2.1033Y-4.4488
X2.188Y-0.7874
X2.188Y-0.9055
X2.188Y-1.0236
X2.188Y-1.1417
X2.188Y-1.2598
X2.188Y-1.378
X2.188Y-1.4961
X2.188Y-1.6142
X2.188Y-1.7323
X2.188Y-1.8504
X2.188Y-1.9685
X2.188Y-2.0866
X2.188Y-2.2047
X2.188Y-2.3228
X2.188Y-2.4409
X2.188Y-2.5591
X2.188Y-2.6772
X2.188Y-2.7953
X2.188Y-2.9134
X2.188Y-3.0315
X2.188Y-3.1496
X2.188Y-3.2677
X2.188Y-3.3858
X2.188Y-3.5039
X2.188Y-3.622
X2.188Y-3.7402
X2.188Y-3.8583
X2.188Y-3.9764
X2.188Y-4.0945
X2.188Y-4.2126
X2.188Y-4.3307
X2.188Y-4.4488
X2.2215Y-0.7874
X2.2215Y-0.9055
X2.2215Y-1.0236
X2.2215Y-1.1417
X2.2215Y-1.2598
X2.2215Y-1.378
X2.2215Y-1.4961
X2.2215Y-1.6142
X2.2215Y-1.7323
X2.2215Y-1.8504
X2.2215Y-1.9685
X2.2215Y-2.0866
X2.2215Y-2.2047
X2.2215Y-2.3228
X2.2215Y-2.4409
X2.2215Y-2.5591
X2.2215Y-2.6772
X2.2215Y-2.7953
X2.2215Y-2.9134
X2.2215Y-3.0315
X2.2215Y-3.1496
X2.2215Y-3.2677
X2.2215Y-3.3858
X2.2215Y-3.5039
X2.2215Y-3.622
X2.2215Y-3.7402
X2.2215Y-3.8583
X2.2215Y-3.9764
X2.2215Y-4.0945
X2.2215Y-4.2126
X2.2215Y-4.3307
X2.2215Y-4.4488
X2.3061Y-0.7874
X2.3061Y-0.9055
X2.3061Y-1.0236
X2.3061Y-1.1417
X2.3061Y-1.2598
X2.3061Y-1.378
X2.3061Y-1.4961
X2.3061Y-1.6142
X2.3061Y-1.7323
X2.3061Y-1.8504
X2.3061Y-1.9685
X2.3061Y-2.0866
X2.3061Y-2.2047
X2.3061Y-2.3228
X2.3061Y-2.4409
X2.3061Y-2.5591
X2.3061Y-2.6772
X2.3061Y-2.7953
X2.3061Y-2.9134
X2.3061Y-3.0315
X2.3061Y-3.1496
X2.3061Y-3.2677
X2.3061Y-3.3858
X2.3061Y-3.5039
X2.3061Y-3.622
X2.3061Y-3.7402
X2.3061Y-3.8583
X2.3061Y-3.9764
X2.3061Y-4.0945
X2.3061Y-4.2126
X2.3061Y-4.3307
X2.3061Y-4.4488
X2.3396Y-0.7874
X2.3396Y-0.9055
X2.3396Y-1.0236
X2.3396Y-1.1417
X2.3396Y-1.2598
X2.3396Y-1.378
X2.3396Y-1.4961
X2.3396Y-1.6142
X2.3396Y-1.7323
X2.3396Y-1.8504
X2.3396Y-1.9685
X2.3396Y-2.0866
X2.3396Y-2.2047
X2.3396Y-2.3228
X2.3396Y-2.4409
X2.3396Y-2.5591
X2.3396Y-2.6772
X2.3396Y-2.7953
X2.3396Y-2.9134
X2.3396Y-3.0315
X2.3396Y-3.1496
X2.3396Y-3.2677
X2.3396Y-3.3858
X2.3396Y-3.5039
X2.3396Y-3.622
X2.3396Y-3.7402
X2.3396Y-3.8583
X2.3396Y-3.9764
X2.3396Y-4.0945
X2.3396Y-4.2126
X2.3396Y-4.3307
X2.3396Y-4.4488
X2.4242Y-0.7874
X2.4242Y-0.9055
X2.4242Y-1.0236
X2.4242Y-1.1417
X2.4242Y-1.2598
X2.4242Y-1.378
X2.4242Y-1.4961
X2.4242Y-1.6142
X2.4242Y-1.7323
X2.4242Y-1.8504
X2.4242Y-1.9685
X2.4242Y-2.0866
X2.4242Y-2.2047
X2.4242Y-2.3228
X2.4242Y-2.4409
X2.4242Y-2.5591
X2.4242Y-2.6772
X2.4242Y-2.7953
X2.4242Y-2.9134
X2.4242Y-3.0315
X2.4242Y-3.1496
X2.4242Y-3.2677
X2.4242Y-3.3858
X2.4242Y-3.5039
X2.4242Y-3.622
X2.4242Y-3.7402
X2.4242Y-3.8583
X2.4242Y-3.9764
X2.4242Y-4.0945
X2.4242Y-4.2126
X2.4242Y-4.3307
X2.4242Y-4.4488
X2.4577Y-0.7874
X2.4577Y-0.9055
X2.4577Y-1.0236
X2.4577Y-1.1417
X2.4577Y-1.2598
X2.4577Y-1.378
X2.4577Y-1.4961
X2.4577Y-1.6142
X2.4577Y-1.7323
X2.4577Y-1.8504
X2.4577Y-1.9685
X2.4577Y-2.0866
X2.4577Y-2.2047
X2.4577Y-2.3228
X2.4577Y-2.4409
X2.4577Y-2.5591
X2.4577Y-2.6772
X2.4577Y-2.7953
X2.4577Y-2.9134
X2.4577Y-3.0315
X2.4577Y-3.1496
X2.4577Y-3.2677
X2.4577Y-3.3858
X2.4577Y-3.5039
X2.4577Y-3.622
X2.4577Y-3.7402
X2.4577Y-3.8583
X2.4577Y-3.9764
X2.4577Y-4.0945
X2.4577Y-4.2126
X2.4577Y-4.3307
X2.4577Y-4.4488
X2.5423Y-0.7874
X2.5423Y-0.9055
X2.5423Y-1.0236
X2.5423Y-1.1417
X2.5423Y-1.2598
X2.5423Y-1.378
X2.5423Y-1.4961
X2.5423Y-1.6142
X2.5423Y-1.7323
X2.5423Y-1.8504
X2.5423Y-1.9685
X2.5423Y-2.0866
X2.5423Y-2.2047
X2.5423Y-2.3228
X2.5423Y-2.4409
X2.5423Y-2.5591
X2.5423Y-2.6772
X2.5423Y-2.7953
X2.5423Y-2.9134
X2.5423Y-3.0315
X2.5423Y-3.1496
X2.5423Y-3.2677
X2.5423Y-3.3858
X2.5423Y-3.5039
X2.5423Y-3.622
X2.5423Y-3.7402
X2.5423Y-3.8583
X2.5423Y-3.9764
X2.5423Y-4.0945
X2.5423Y-4.2126
X2.5423Y-4.3307
X2.5423Y-4.4488
X2.5758Y-0.7874
X2.5758Y-0.9055
X2.5758Y-1.0236
X2.5758Y-1.1417
X2.5758Y-1.2598
X2.5758Y-1.378
X2.5758Y-1.4961
X2.5758Y-1.6142
X2.5758Y-1.7323
X2.5758Y-1.8504
X2.5758Y-1.9685
X2.5758Y-2.0866
X2.5758Y-2.2047
X2.5758Y-2.3228
X2.5758Y-2.4409
X2.5758Y-2.5591
X2.5758Y-2.6772
X2.5758Y-2.7953
X2.5758Y-2.9134
X2.5758Y-3.0315
X2.5758Y-3.1496
X2.5758Y-3.2677
X2.5758Y-3.3858
X2.5758Y-3.5039
X2.5758Y-3.622
X2.5758Y-3.7402
X2.5758Y-3.8583
X2.5758Y-3.9764
X2.5758Y-4.0945
X2.5758Y-4.2126
X2.5758Y-4.3307
X2.5758Y-4.4488
X2.6604Y-0.7874
X2.6604Y-0.9055
X2.6604Y-1.0236
X2.6604Y-1.1417
X2.6604Y-1.2598
X2.6604Y-1.378
X2.6604Y-1.4961
X2.6604Y-1.6142
X2.6604Y-1.7323
X2.6604Y-1.8504
X2.6604Y-1.9685
X2.6604Y-2.0866
X2.6604Y-2.2047
X2.6604Y-2.3228
X2.6604Y-2.4409
X2.6604Y-2.5591
X2.6604Y-2.6772
X2.6604Y-2.7953
X2.6604Y-2.9134
X2.6604Y-3.0315
X2.6604Y-3.1496
X2.6604Y-3.2677
X2.6604Y-3.3858
X2.6604Y-3.5039
X2.6604Y-3.622
X2.6604Y-3.7402
X2.6604Y-3.8583
X2.6604Y-3.9764
X2.6604Y-4.0945
X2.6604Y-4.2126
X2.6604Y-4.3307
X2.6604Y-4.4488
X2.6939Y-0.7874
X2.6939Y-0.9055
X2.6939Y-1.0236
X2.6939Y-1.1417
X2.6939Y-1.2598
X2.6939Y-1.378
X2.6939Y-1.4961
X2.6939Y-1.6142
X2.6939Y-1.7323
X2.6939Y-1.8504
X2.6939Y-1.9685
X2.6939Y-2.0866
X2.6939Y-2.2047
X2.6939Y-2.3228
X2.6939Y-2.4409
X2.6939Y-2.5591
X2.6939Y-2.6772
X2.6939Y-2.7953
X2.6939Y-2.9134
X2.6939Y-3.0315
X2.6939Y-3.1496
X2.6939Y-3.2677
X2.6939Y-3.3858
X2.6939Y-3.5039
X2.6939Y-3.622
X2.6939Y-3.7402
X2.6939Y-3.8583
X2.6939Y-3.9764
X2.6939Y-4.0945
X2.6939Y-4.2126
X2.6939Y-4.3307
X2.6939Y-4.4488
X2.7785Y-0.7874
X2.7785Y-0.9055
X2.7785Y-1.0236
X2.7785Y-1.1417
X2.7785Y-1.2598
X2.7785Y-1.378
X2.7785Y-1.4961
X2.7785Y-1.6142
X2.7785Y-1.7323
X2.7785Y-1.8504
X2.7785Y-1.9685
X2.7785Y-2.0866
X2.7785Y-2.2047
X2.7785Y-2.3228
X2.7785Y-2.4409
X2.7785Y-2.5591
X2.7785Y-2.6772
X2.7785Y-2.7953
X2.7785Y-2.9134
X2.7785Y-3.0315
X2.7785Y-3.1496
X2.7785Y-3.2677
X2.7785Y-3.3858
X2.7785Y-3.5039
X2.7785Y-3.622
X2.7785Y-3.7402
X2.7785Y-3.8583
X2.7785Y-3.9764
X2.7785Y-4.0945
X2.7785Y-4.2126
X2.7785Y-4.3307
X2.7785Y-4.4488
X2.812Y-0.7874
X2.812Y-0.9055
X2.812Y-1.0236
X2.812Y-1.1417
X2.812Y-1.2598
X2.812Y-1.378
X2.812Y-1.4961
X2.812Y-1.6142
X2.812Y-1.7323
X2.812Y-1.8504
X2.812Y-1.9685
X2.812Y-2.0866
X2.812Y-2.2047
X2.812Y-2.3228
X2.812Y-2.4409
X2.812Y-2.5591
X2.812Y-2.6772
X2.812Y-2.7953
X2.812Y-2.9134
X2.812Y-3.0315
X2.812Y-3.1496
X2.812Y-3.2677
X2.812Y-3.3858
X2.812Y-3.5039
X2.812Y-3.622
X2.812Y-3.7402
X2.812Y-3.8583
X2.812Y-3.9764
X2.812Y-4.0945
X2.812Y-4.2126
X2.812Y-4.3307
X2.812Y-4.4488
X2.8967Y-0.7874
X2.8967Y-0.9055
X2.8967Y-1.0236
X2.8967Y-1.1417
X2.8967Y-1.2598
X2.8967Y-1.378
X2.8967Y-1.4961
X2.8967Y-1.6142
X2.8967Y-1.7323
X2.8967Y-1.8504
X2.8967Y-1.9685
X2.8967Y-2.0866
X2.8967Y-2.2047
X2.8967Y-2.3228
X2.8967Y-2.4409
X2.8967Y-2.5591
X2.8967Y-2.6772
X2.8967Y-2.7953
X2.8967Y-2.9134
X2.8967Y-3.0315
X2.8967Y-3.1496
X2.8967Y-3.2677
X2.8967Y-3.3858
X2.8967Y-3.5039
X2.8967Y-3.622
X2.8967Y-3.7402
X2.8967Y-3.8583
X2.8967Y-3.9764
X2.8967Y-4.0945
X2.8967Y-4.2126
X2.8967Y-4.3307
X2.8967Y-4.4488
X2.9301Y-0.7874
X2.9301Y-0.9055
X2.9301Y-1.0236
X2.9301Y-1.1417
X2.9301Y-1.2598
X2.9301Y-1.378
X2.9301Y-1.4961
X2.9301Y-1.6142
X2.9301Y-1.7323
X2.9301Y-1.8504
X2.9301Y-1.9685
X2.9301Y-2.0866
X2.9301Y-2.2047
X2.9301Y-2.3228
X2.9301Y-2.4409
X2.9301Y-2.5591
X2.9301Y-2.6772
X2.9301Y-2.7953
X2.9301Y-2.9134
X2.9301Y-3.0315
X2.9301Y-3.1496
X2.9301Y-3.2677
X2.9301Y-3.3858
X2.9301Y-3.5039
X2.9301Y-3.622
X2.9301Y-3.7402
X2.9301Y-3.8583
X2.9301Y-3.9764
X2.9301Y-4.0945
X2.9301Y-4.2126
X2.9301Y-4.3307
X2.9301Y-4.4488
X3.0148Y-0.7874
X3.0148Y-0.9055
X3.0148Y-1.0236
X3.0148Y-1.1417
X3.0148Y-1.2598
X3.0148Y-1.378
X3.0148Y-1.4961
X3.0148Y-1.6142
X3.0148Y-1.7323
X3.0148Y-1.8504
X3.0148Y-1.9685
X3.0148Y-2.0866
X3.0148Y-2.2047
X3.0148Y-2.3228
X3.0148Y-2.4409
X3.0148Y-2.5591
X3.0148Y-2.6772
X3.0148Y-2.7953
X3.0148Y-2.9134
X3.0148Y-3.0315
X3.0148Y-3.1496
X3.0148Y-3.2677
X3.0148Y-3.3858
X3.0148Y-3.5039
X3.0148Y-3.622
X3.0148Y-3.7402
X3.0148Y-3.8583
X3.0148Y-3.9764
X3.0148Y-4.0945
X3.0148Y-4.2126
X3.0148Y-4.3307
X3.0148Y-4.4488
X3.0482Y-0.7874
X3.0482Y-0.9055
X3.0482Y-1.0236
X3.0482Y-1.1417
X3.0482Y-1.2598
X3.0482Y-1.378
X3.0482Y-1.4961
X3.0482Y-1.6142
X3.0482Y-1.7323
X3.0482Y-1.8504
X3.0482Y-1.9685
X3.0482Y-2.0866
X3.0482Y-2.2047
X3.0482Y-2.3228
X3.0482Y-2.4409
X3.0482Y-2.5591
X3.0482Y-2.6772
X3.0482Y-2.7953
X3.0482Y-2.9134
X3.0482Y-3.0315
X3.0482Y-3.1496
X3.0482Y-3.2677
X3.0482Y-3.3858
X3.0482Y-3.5039
X3.0482Y-3.622
X3.0482Y-3.7402
X3.0482Y-3.8583
X3.0482Y-3.9764
X3.0482Y-4.0945
X3.0482Y-4.2126
X3.0482Y-4.3307
X3.0482Y-4.4488
X3.1329Y-0.7874
X3.1329Y-0.9055
X3.1329Y-1.0236
X3.1329Y-1.1417
X3.1329Y-1.2598
X3.1329Y-1.378
X3.1329Y-1.4961
X3.1329Y-1.6142
X3.1329Y-1.7323
X3.1329Y-1.8504
X3.1329Y-1.9685
X3.1329Y-2.0866
X3.1329Y-2.2047
X3.1329Y-2.3228
X3.1329Y-2.4409
X3.1329Y-2.5591
X3.1329Y-2.6772
X3.1329Y-2.7953
X3.1329Y-2.9134
X3.1329Y-3.0315
X3.1329Y-3.1496
X3.1329Y-3.2677
X3.1329Y-3.3858
X3.1329Y-3.5039
X3.1329Y-3.622
X3.1329Y-3.7402
X3.1329Y-3.8583
X3.1329Y-3.9764
X3.1329Y-4.0945
X3.1329Y-4.2126
X3.1329Y-4.3307
X3.1329Y-4.4488
X3.1663Y-0.7874
X3.1663Y-0.9055
X3.1663Y-1.0236
X3.1663Y-1.1417
X3.1663Y-1.2598
X3.1663Y-1.378
X3.1663Y-1.4961
X3.1663Y-1.6142
X3.1663Y-1.7323
X3.1663Y-1.8504
X3.1663Y-1.9685
X3.1663Y-2.0866
X3.1663Y-2.2047
X3.1663Y-2.3228
X3.1663Y-2.4409
X3.1663Y-2.5591
X3.1663Y-2.6772
X3.1663Y-2.7953
X3.1663Y-2.9134
X3.1663Y-3.0315
X3.1663Y-3.1496
X3.1663Y-3.2677
X3.1663Y-3.3858
X3.1663Y-3.5039
X3.1663Y-3.622
X3.1663Y-3.7402
X3.1663Y-3.8583
X3.1663Y-3.9764
X3.1663Y-4.0945
X3.1663Y-4.2126
X3.1663Y-4.3307
X3.1663Y-4.4488
X3.251Y-0.7874
X3.251Y-0.9055
X3.251Y-1.0236
X3.251Y-1.1417
X3.251Y-1.2598
X3.251Y-1.378
X3.251Y-1.4961
X3.251Y-1.6142
X3.251Y-1.7323
X3.251Y-1.8504
X3.251Y-1.9685
X3.251Y-2.0866
X3.251Y-2.2047
X3.251Y-2.3228
X3.251Y-2.4409
X3.251Y-2.5591
X3.251Y-2.6772
X3.251Y-2.7953
X3.251Y-2.9134
X3.251Y-3.0315
X3.251Y-3.1496
X3.251Y-3.2677
X3.251Y-3.3858
X3.251Y-3.5039
X3.251Y-3.622
X3.251Y-3.7402
X3.251Y-3.8583
X3.251Y-3.9764
X3.251Y-4.0945
X3.251Y-4.2126
X3.251Y-4.3307
X3.251Y-4.4488
X3.2844Y-0.7874
X3.2844Y-0.9055
X3.2844Y-1.0236
X3.2844Y-1.1417
X3.2844Y-1.2598
X3.2844Y-1.378
X3.2844Y-1.4961
X3.2844Y-1.6142
X3.2844Y-1.7323
X3.2844Y-1.8504
X3.2844Y-1.9685
X3.2844Y-2.0866
X3.2844Y-2.2047
X3.2844Y-2.3228
X3.2844Y-2.4409
X3.2844Y-2.5591
X3.2844Y-2.6772
X3.2844Y-2.7953
X3.2844Y-2.9134
X3.2844Y-3.0315
X3.2844Y-3.1496
X3.2844Y-3.2677
X3.2844Y-3.3858
X3.2844Y-3.5039
X3.2844Y-3.622
X3.2844Y-3.7402
X3.2844Y-3.8583
X3.2844Y-3.9764
X3.2844Y-4.0945
X3.2844Y-4.2126
X3.2844Y-4.3307
X3.2844Y-4.4488
X3.3691Y-0.7874
X3.3691Y-0.9055
X3.3691Y-1.0236
X3.3691Y-1.1417
X3.3691Y-1.2598
X3.3691Y-1.378
X3.3691Y-1.4961
X3.3691Y-1.6142
X3.3691Y-1.7323
X3.3691Y-1.8504
X3.3691Y-1.9685
X3.3691Y-2.0866
X3.3691Y-2.2047
X3.3691Y-2.3228
X3.3691Y-2.4409
X3.3691Y-2.5591
X3.3691Y-2.6772
X3.3691Y-2.7953
X3.3691Y-2.9134
X3.3691Y-3.0315
X3.3691Y-3.1496
X3.3691Y-3.2677
X3.3691Y-3.3858
X3.3691Y-3.5039
X3.3691Y-3.622
X3.3691Y-3.7402
X3.3691Y-3.8583
X3.3691Y-3.9764
X3.3691Y-4.0945
X3.3691Y-4.2126
X3.3691Y-4.3307
X3.3691Y-4.4488
X3.4026Y-0.7874
X3.4026Y-0.9055
X3.4026Y-1.0236
X3.4026Y-1.1417
X3.4026Y-1.2598
X3.4026Y-1.378
X3.4026Y-1.4961
X3.4026Y-1.6142
X3.4026Y-1.7323
X3.4026Y-1.8504
X3.4026Y-1.9685
X3.4026Y-2.0866
X3.4026Y-2.2047
X3.4026Y-2.3228
X3.4026Y-2.4409
X3.4026Y-2.5591
X3.4026Y-2.6772
X3.4026Y-2.7953
X3.4026Y-2.9134
X3.4026Y-3.0315
X3.4026Y-3.1496
X3.4026Y-3.2677
X3.4026Y-3.3858
X3.4026Y-3.5039
X3.4026Y-3.622
X3.4026Y-3.7402
X3.4026Y-3.8583
X3.4026Y-3.9764
X3.4026Y-4.0945
X3.4026Y-4.2126
X3.4026Y-4.3307
X3.4026Y-4.4488
X3.4872Y-0.7874
X3.4872Y-0.9055
X3.4872Y-1.0236
X3.4872Y-1.1417
X3.4872Y-1.2598
X3.4872Y-1.378
X3.4872Y-1.4961
X3.4872Y-1.6142
X3.4872Y-1.7323
X3.4872Y-1.8504
X3.4872Y-1.9685
X3.4872Y-2.0866
X3.4872Y-2.2047
X3.4872Y-2.3228
X3.4872Y-2.4409
X3.4872Y-2.5591
X3.4872Y-2.6772
X3.4872Y-2.7953
X3.4872Y-2.9134
X3.4872Y-3.0315
X3.4872Y-3.1496
X3.4872Y-3.2677
X3.4872Y-3.3858
X3.4872Y-3.5039
X3.4872Y-3.622
X3.4872Y-3.7402
X3.4872Y-3.8583
X3.4872Y-3.9764
X3.4872Y-4.0945
X3.4872Y-4.2126
X3.4872Y-4.3307
X3.4872Y-4.4488
X3.5207Y-0.7874
X3.5207Y-0.9055
X3.5207Y-1.0236
X3.5207Y-1.1417
X3.5207Y-1.2598
X3.5207Y-1.378
X3.5207Y-1.4961
X3.5207Y-1.6142
X3.5207Y-1.7323
X3.5207Y-1.8504
X3.5207Y-1.9685
X3.5207Y-2.0866
X3.5207Y-2.2047
X3.5207Y-2.3228
X3.5207Y-2.4409
X3.5207Y-2.5591
X3.5207Y-2.6772
X3.5207Y-2.7953
X3.5207Y-2.9134
X3.5207Y-3.0315
X3.5207Y-3.1496
X3.5207Y-3.2677
X3.5207Y-3.3858
X3.5207Y-3.5039
X3.5207Y-3.622
X3.5207Y-3.7402
X3.5207Y-3.8583
X3.5207Y-3.9764
X3.5207Y-4.0945
X3.5207Y-4.2126
X3.5207Y-4.3307
X3.5207Y-4.4488
X3.6053Y-0.7874
X3.6053Y-0.9055
X3.6053Y-1.0236
X3.6053Y-1.1417
X3.6053Y-1.2598
X3.6053Y-1.378
X3.6053Y-1.4961
X3.6053Y-1.6142
X3.6053Y-1.7323
X3.6053Y-1.8504
X3.6053Y-1.9685
X3.6053Y-2.0866
X3.6053Y-2.2047
X3.6053Y-2.3228
X3.6053Y-2.4409
X3.6053Y-2.5591
X3.6053Y-2.6772
X3.6053Y-2.7953
X3.6053Y-2.9134
X3.6053Y-3.0315
X3.6053Y-3.1496
X3.6053Y-3.2677
X3.6053Y-3.3858
X3.6053Y-3.5039
X3.6053Y-3.622
X3.6053Y-3.7402
X3.6053Y-3.8583
X3.6053Y-3.9764
X3.6053Y-4.0945
X3.6053Y-4.2126
X3.6053Y-4.3307
X3.6053Y-4.4488
X3.6388Y-0.7874
X3.6388Y-0.9055
X3.6388Y-1.0236
X3.6388Y-1.1417
X3.6388Y-1.2598
X3.6388Y-1.378
X3.6388Y-1.4961
X3.6388Y-1.6142
X3.6388Y-1.7323
X3.6388Y-1.8504
X3.6388Y-1.9685
X3.6388Y-2.0866
X3.6388Y-2.2047
X3.6388Y-2.3228
X3.6388Y-2.4409
X3.6388Y-2.5591
X3.6388Y-2.6772
X3.6388Y-2.7953
X3.6388Y-2.9134
X3.6388Y-3.0315
X3.6388Y-3.1496
X3.6388Y-3.2677
X3.6388Y-3.3858
X3.6388Y-3.5039
X3.6388Y-3.622
X3.6388Y-3.7402
X3.6388Y-3.8583
X3.6388Y-3.9764
X3.6388Y-4.0945
X3.6388Y-4.2126
X3.6388Y-4.3307
X3.6388Y-4.4488
X3.7234Y-0.7874
X3.7234Y-0.9055
X3.7234Y-1.0236
X3.7234Y-1.1417
X3.7234Y-1.2598
X3.7234Y-1.378
X3.7234Y-1.4961
X3.7234Y-1.6142
X3.7234Y-1.7323
X3.7234Y-1.8504
X3.7234Y-1.9685
X3.7234Y-2.0866
X3.7234Y-2.2047
X3.7234Y-2.3228
X3.7234Y-2.4409
X3.7234Y-2.5591
X3.7234Y-2.6772
X3.7234Y-2.7953
X3.7234Y-2.9134
X3.7234Y-3.0315
X3.7234Y-3.1496
X3.7234Y-3.2677
X3.7234Y-3.3858
X3.7234Y-3.5039
X3.7234Y-3.622
X3.7234Y-3.7402
X3.7234Y-3.8583
X3.7234Y-3.9764
X3.7234Y-4.0945
X3.7234Y-4.2126
X3.7234Y-4.3307
X3.7234Y-4.4488
X3.7569Y-0.7874
X3.7569Y-0.9055
X3.7569Y-1.0236
X3.7569Y-1.1417
X3.7569Y-1.2598
X3.7569Y-1.378
X3.7569Y-1.4961
X3.7569Y-1.6142
X3.7569Y-1.7323
X3.7569Y-1.8504
X3.7569Y-1.9685
X3.7569Y-2.0866
X3.7569Y-2.2047
X3.7569Y-2.3228
X3.7569Y-2.4409
X3.7569Y-2.5591
X3.7569Y-2.6772
X3.7569Y-2.7953
X3.7569Y-2.9134
X3.7569Y-3.0315
X3.7569Y-3.1496
X3.7569Y-3.2677
X3.7569Y-3.3858
X3.7569Y-3.5039
X3.7569Y-3.622
X3.7569Y-3.7402
X3.7569Y-3.8583
X3.7569Y-3.9764
X3.7569Y-4.0945
X3.7569Y-4.2126
X3.7569Y-4.3307
X3.7569Y-4.4488
X3.8415Y-0.7874
X3.8415Y-0.9055
X3.8415Y-1.0236
X3.8415Y-1.1417
X3.8415Y-1.2598
X3.8415Y-1.378
X3.8415Y-1.4961
X3.8415Y-1.6142
X3.8415Y-1.7323
X3.8415Y-1.8504
X3.8415Y-1.9685
X3.8415Y-2.0866
X3.8415Y-2.2047
X3.8415Y-2.3228
X3.8415Y-2.4409
X3.8415Y-2.5591
X3.8415Y-2.6772
X3.8415Y-2.7953
X3.8415Y-2.9134
X3.8415Y-3.0315
X3.8415Y-3.1496
X3.8415Y-3.2677
X3.8415Y-3.3858
X3.8415Y-3.5039
X3.8415Y-3.622
X3.8415Y-3.7402
X3.8415Y-3.8583
X3.8415Y-3.9764
X3.8415Y-4.0945
X3.8415Y-4.2126
X3.8415Y-4.3307
X3.8415Y-4.4488
X3.875Y-0.7874
X3.875Y-0.9055
X3.875Y-1.0236
X3.875Y-1.1417
X3.875Y-1.2598
X3.875Y-1.378
X3.875Y-1.4961
X3.875Y-1.6142
X3.875Y-1.7323
X3.875Y-1.8504
X3.875Y-1.9685
X3.875Y-2.0866
X3.875Y-2.2047
X3.875Y-2.3228
X3.875Y-2.4409
X3.875Y-2.5591
X3.875Y-2.6772
X3.875Y-2.7953
X3.875Y-2.9134
X3.875Y-3.0315
X3.875Y-3.1496
X3.875Y-3.2677
X3.875Y-3.3858
X3.875Y-3.5039
X3.875Y-3.622
X3.875Y-3.7402
X3.875Y-3.8583
X3.875Y-3.9764
X3.875Y-4.0945
X3.875Y-4.2126
X3.875Y-4.3307
X3.875Y-4.4488
X3.9596Y-0.7874
X3.9596Y-0.9055
X3.9596Y-1.0236
X3.9596Y-1.1417
X3.9596Y-1.2598
X3.9596Y-1.378
X3.9596Y-1.4961
X3.9596Y-1.6142
X3.9596Y-1.7323
X3.9596Y-1.8504
X3.9596Y-1.9685
X3.9596Y-2.0866
X3.9596Y-2.2047
X3.9596Y-2.3228
X3.9596Y-2.4409
X3.9596Y-2.5591
X3.9596Y-2.6772
X3.9596Y-2.7953
X3.9596Y-2.9134
X3.9596Y-3.0315
X3.9596Y-3.1496
X3.9596Y-3.2677
X3.9596Y-3.3858
X3.9596Y-3.5039
X3.9596Y-3.622
X3.9596Y-3.7402
X3.9596Y-3.8583
X3.9596Y-3.9764
X3.9596Y-4.0945
X3.9596Y-4.2126
X3.9596Y-4.3307
X3.9596Y-4.4488
X3.9931Y-0.7874
X3.9931Y-0.9055
X3.9931Y-1.0236
X3.9931Y-1.1417
X3.9931Y-1.2598
X3.9931Y-1.378
X3.9931Y-1.4961
X3.9931Y-1.6142
X3.9931Y-1.7323
X3.9931Y-1.8504
X3.9931Y-1.9685
X3.9931Y-2.0866
X3.9931Y-2.2047
X3.9931Y-2.3228
X3.9931Y-2.4409
X3.9931Y-2.5591
X3.9931Y-2.6772
X3.9931Y-2.7953
X3.9931Y-2.9134
X3.9931Y-3.0315
X3.9931Y-3.1496
X3.9931Y-3.2677
X3.9931Y-3.3858
X3.9931Y-3.5039
X3.9931Y-3.622
X3.9931Y-3.7402
X3.9931Y-3.8583
X3.9931Y-3.9764
X3.9931Y-4.0945
X3.9931Y-4.2126
X3.9931Y-4.3307
X3.9931Y-4.4488
X4.0778Y-0.7874
X4.0778Y-0.9055
X4.0778Y-1.0236
X4.0778Y-1.1417
X4.0778Y-1.2598
X4.0778Y-1.378
X4.0778Y-1.4961
X4.0778Y-1.6142
X4.0778Y-1.7323
X4.0778Y-1.8504
X4.0778Y-1.9685
X4.0778Y-2.0866
X4.0778Y-2.2047
X4.0778Y-2.3228
X4.0778Y-2.4409
X4.0778Y-2.5591
X4.0778Y-2.6772
X4.0778Y-2.7953
X4.0778Y-2.9134
X4.0778Y-3.0315
X4.0778Y-3.1496
X4.0778Y-3.2677
X4.0778Y-3.3858
X4.0778Y-3.5039
X4.0778Y-3.622
X4.0778Y-3.7402
X4.0778Y-3.8583
X4.0778Y-3.9764
X4.0778Y-4.0945
X4.0778Y-4.2126
X4.0778Y-4.3307
X4.0778Y-4.4488
X4.1112Y-0.7874
X4.1112Y-0.9055
X4.1112Y-1.0236
X4.1112Y-1.1417
X4.1112Y-1.2598
X4.1112Y-1.378
X4.1112Y-1.4961
X4.1112Y-1.6142
X4.1112Y-1.7323
X4.1112Y-1.8504
X4.1112Y-1.9685
X4.1112Y-2.0866
X4.1112Y-2.2047
X4.1112Y-2.3228
X4.1112Y-2.4409
X4.1112Y-2.5591
X4.1112Y-2.6772
X4.1112Y-2.7953
X4.1112Y-2.9134
X4.1112Y-3.0315
X4.1112Y-3.1496
X4.1112Y-3.2677
X4.1112Y-3.3858
X4.1112Y-3.5039
X4.1112Y-3.622
X4.1112Y-3.7402
X4.1112Y-3.8583
X4.1112Y-3.9764
X4.1112Y-4.0945
X4.1112Y-4.2126
X4.1112Y-4.3307
X4.1112Y-4.4488
X4.1959Y-0.7874
X4.1959Y-0.9055
X4.1959Y-1.0236
X4.1959Y-1.1417
X4.1959Y-1.2598
X4.1959Y-1.378
X4.1959Y-1.4961
X4.1959Y-1.6142
X4.1959Y-1.7323
X4.1959Y-1.8504
X4.1959Y-1.9685
X4.1959Y-2.0866
X4.1959Y-2.2047
X4.1959Y-2.3228
X4.1959Y-2.4409
X4.1959Y-2.5591
X4.1959Y-2.6772
X4.1959Y-2.7953
X4.1959Y-2.9134
X4.1959Y-3.0315
X4.1959Y-3.1496
X4.1959Y-3.2677
X4.1959Y-3.3858
X4.1959Y-3.5039
X4.1959Y-3.622
X4.1959Y-3.7402
X4.1959Y-3.8583
X4.1959Y-3.9764
X4.1959Y-4.0945
X4.1959Y-4.2126
X4.1959Y-4.3307
X4.1959Y-4.4488
X4.2293Y-0.7874
X4.2293Y-0.9055
X4.2293Y-1.0236
X4.2293Y-1.1417
X4.2293Y-1.2598
X4.2293Y-1.378
X4.2293Y-1.4961
X4.2293Y-1.6142
X4.2293Y-1.7323
X4.2293Y-1.8504
X4.2293Y-1.9685
X4.2293Y-2.0866
X4.2293Y-2.2047
X4.2293Y-2.3228
X4.2293Y-2.4409
X4.2293Y-2.5591
X4.2293Y-2.6772
X4.2293Y-2.7953
X4.2293Y-2.9134
X4.2293Y-3.0315
X4.2293Y-3.1496
X4.2293Y-3.2677
X4.2293Y-3.3858
X4.2293Y-3.5039
X4.2293Y-3.622
X4.2293Y-3.7402
X4.2293Y-3.8583
X4.2293Y-3.9764
X4.2293Y-4.0945
X4.2293Y-4.2126
X4.2293Y-4.3307
X4.2293Y-4.4488
X4.314Y-0.7874
X4.314Y-0.9055
X4.314Y-1.0236
X4.314Y-1.1417
X4.314Y-1.2598
X4.314Y-1.378
X4.314Y-1.4961
X4.314Y-1.6142
X4.314Y-1.7323
X4.314Y-1.8504
X4.314Y-1.9685
X4.314Y-2.0866
X4.314Y-2.2047
X4.314Y-2.3228
X4.314Y-2.4409
X4.314Y-2.5591
X4.314Y-2.6772
X4.314Y-2.7953
X4.314Y-2.9134
X4.314Y-3.0315
X4.314Y-3.1496
X4.314Y-3.2677
X4.314Y-3.3858
X4.314Y-3.5039
X4.314Y-3.622
X4.314Y-3.7402
X4.314Y-3.8583
X4.314Y-3.9764
X4.314Y-4.0945
X4.314Y-4.2126
X4.314Y-4.3307
X4.314Y-4.4488
X4.3474Y-0.7874
X4.3474Y-0.9055
X4.3474Y-1.0236
X4.3474Y-1.1417
X4.3474Y-1.2598
X4.3474Y-1.378
X4.3474Y-1.4961
X4.3474Y-1.6142
X4.3474Y-1.7323
X4.3474Y-1.8504
X4.3474Y-1.9685
X4.3474Y-2.0866
X4.3474Y-2.2047
X4.3474Y-2.3228
X4.3474Y-2.4409
X4.3474Y-2.5591
X4.3474Y-2.6772
X4.3474Y-2.7953
X4.3474Y-2.9134
X4.3474Y-3.0315
X4.3474Y-3.1496
X4.3474Y-3.2677
X4.3474Y-3.3858
X4.3474Y-3.5039
X4.3474Y-3.622
X4.3474Y-3.7402
X4.3474Y-3.8583
X4.3474Y-3.9764
X4.3474Y-4.0945
X4.3474Y-4.2126
X4.3474Y-4.3307
X4.3474Y-4.4488
X4.4321Y-0.7874
X4.4321Y-0.9055
X4.4321Y-1.0236
X4.4321Y-1.1417
X4.4321Y-1.2598
X4.4321Y-1.378
X4.4321Y-1.4961
X4.4321Y-1.6142
X4.4321Y-1.7323
X4.4321Y-1.8504
X4.4321Y-1.9685
X4.4321Y-2.0866
X4.4321Y-2.2047
X4.4321Y-2.3228
X4.4321Y-2.4409
X4.4321Y-2.5591
X4.4321Y-2.6772
X4.4321Y-2.7953
X4.4321Y-2.9134
X4.4321Y-3.0315
X4.4321Y-3.1496
X4.4321Y-3.2677
X4.4321Y-3.3858
X4.4321Y-3.5039
X4.4321Y-3.622
X4.4321Y-3.7402
X4.4321Y-3.8583
X4.4321Y-3.9764
X4.4321Y-4.0945
X4.4321Y-4.2126
X4.4321Y-4.3307
X4.4321Y-4.4488
X4.4656Y-0.7874
X4.4656Y-0.9055
X4.4656Y-1.0236
X4.4656Y-1.1417
X4.4656Y-1.2598
X4.4656Y-1.378
X4.4656Y-1.4961
X4.4656Y-1.6142
X4.4656Y-1.7323
X4.4656Y-1.8504
X4.4656Y-1.9685
X4.4656Y-2.0866
X4.4656Y-2.2047
X4.4656Y-2.3228
X4.4656Y-2.4409
X4.4656Y-2.5591
X4.4656Y-2.6772
X4.4656Y-2.7953
X4.4656Y-2.9134
X4.4656Y-3.0315
X4.4656Y-3.1496
X4.4656Y-3.2677
X4.4656Y-3.3858
X4.4656Y-3.5039
X4.4656Y-3.622
X4.4656Y-3.7402
X4.4656Y-3.8583
X4.4656Y-3.9764
X4.4656Y-4.0945
X4.4656Y-4.2126
X4.4656Y-4.3307
X4.4656Y-4.4488
M30
