%TF.GenerationSoftware,KiCad,Pcbnew,8.0.2*%
%TF.CreationDate,2024-07-20T19:47:13-05:00*%
%TF.ProjectId,pixel_grid,70697865-6c5f-4677-9269-642e6b696361,rev?*%
%TF.SameCoordinates,Original*%
%TF.FileFunction,Other,Comment*%
%FSLAX46Y46*%
G04 Gerber Fmt 4.6, Leading zero omitted, Abs format (unit mm)*
G04 Created by KiCad (PCBNEW 8.0.2) date 2024-07-20 19:47:13*
%MOMM*%
%LPD*%
G01*
G04 APERTURE LIST*
%ADD10C,0.150000*%
G04 APERTURE END LIST*
D10*
X68961905Y-93054819D02*
X69533333Y-93054819D01*
X69247619Y-94054819D02*
X69247619Y-93054819D01*
X69866667Y-94054819D02*
X69866667Y-93054819D01*
X69866667Y-93054819D02*
X70247619Y-93054819D01*
X70247619Y-93054819D02*
X70342857Y-93102438D01*
X70342857Y-93102438D02*
X70390476Y-93150057D01*
X70390476Y-93150057D02*
X70438095Y-93245295D01*
X70438095Y-93245295D02*
X70438095Y-93388152D01*
X70438095Y-93388152D02*
X70390476Y-93483390D01*
X70390476Y-93483390D02*
X70342857Y-93531009D01*
X70342857Y-93531009D02*
X70247619Y-93578628D01*
X70247619Y-93578628D02*
X69866667Y-93578628D01*
X70771429Y-93054819D02*
X71390476Y-93054819D01*
X71390476Y-93054819D02*
X71057143Y-93435771D01*
X71057143Y-93435771D02*
X71200000Y-93435771D01*
X71200000Y-93435771D02*
X71295238Y-93483390D01*
X71295238Y-93483390D02*
X71342857Y-93531009D01*
X71342857Y-93531009D02*
X71390476Y-93626247D01*
X71390476Y-93626247D02*
X71390476Y-93864342D01*
X71390476Y-93864342D02*
X71342857Y-93959580D01*
X71342857Y-93959580D02*
X71295238Y-94007200D01*
X71295238Y-94007200D02*
X71200000Y-94054819D01*
X71200000Y-94054819D02*
X70914286Y-94054819D01*
X70914286Y-94054819D02*
X70819048Y-94007200D01*
X70819048Y-94007200D02*
X70771429Y-93959580D01*
X72247619Y-93388152D02*
X72247619Y-94054819D01*
X72009524Y-93007200D02*
X71771429Y-93721485D01*
X71771429Y-93721485D02*
X72390476Y-93721485D01*
X68861905Y-45054819D02*
X69433333Y-45054819D01*
X69147619Y-46054819D02*
X69147619Y-45054819D01*
X69766667Y-46054819D02*
X69766667Y-45054819D01*
X69766667Y-45054819D02*
X70147619Y-45054819D01*
X70147619Y-45054819D02*
X70242857Y-45102438D01*
X70242857Y-45102438D02*
X70290476Y-45150057D01*
X70290476Y-45150057D02*
X70338095Y-45245295D01*
X70338095Y-45245295D02*
X70338095Y-45388152D01*
X70338095Y-45388152D02*
X70290476Y-45483390D01*
X70290476Y-45483390D02*
X70242857Y-45531009D01*
X70242857Y-45531009D02*
X70147619Y-45578628D01*
X70147619Y-45578628D02*
X69766667Y-45578628D01*
X70671429Y-45054819D02*
X71290476Y-45054819D01*
X71290476Y-45054819D02*
X70957143Y-45435771D01*
X70957143Y-45435771D02*
X71100000Y-45435771D01*
X71100000Y-45435771D02*
X71195238Y-45483390D01*
X71195238Y-45483390D02*
X71242857Y-45531009D01*
X71242857Y-45531009D02*
X71290476Y-45626247D01*
X71290476Y-45626247D02*
X71290476Y-45864342D01*
X71290476Y-45864342D02*
X71242857Y-45959580D01*
X71242857Y-45959580D02*
X71195238Y-46007200D01*
X71195238Y-46007200D02*
X71100000Y-46054819D01*
X71100000Y-46054819D02*
X70814286Y-46054819D01*
X70814286Y-46054819D02*
X70719048Y-46007200D01*
X70719048Y-46007200D02*
X70671429Y-45959580D01*
X71623810Y-45054819D02*
X72242857Y-45054819D01*
X72242857Y-45054819D02*
X71909524Y-45435771D01*
X71909524Y-45435771D02*
X72052381Y-45435771D01*
X72052381Y-45435771D02*
X72147619Y-45483390D01*
X72147619Y-45483390D02*
X72195238Y-45531009D01*
X72195238Y-45531009D02*
X72242857Y-45626247D01*
X72242857Y-45626247D02*
X72242857Y-45864342D01*
X72242857Y-45864342D02*
X72195238Y-45959580D01*
X72195238Y-45959580D02*
X72147619Y-46007200D01*
X72147619Y-46007200D02*
X72052381Y-46054819D01*
X72052381Y-46054819D02*
X71766667Y-46054819D01*
X71766667Y-46054819D02*
X71671429Y-46007200D01*
X71671429Y-46007200D02*
X71623810Y-45959580D01*
X22961905Y-69204819D02*
X23533333Y-69204819D01*
X23247619Y-70204819D02*
X23247619Y-69204819D01*
X23866667Y-70204819D02*
X23866667Y-69204819D01*
X23866667Y-69204819D02*
X24247619Y-69204819D01*
X24247619Y-69204819D02*
X24342857Y-69252438D01*
X24342857Y-69252438D02*
X24390476Y-69300057D01*
X24390476Y-69300057D02*
X24438095Y-69395295D01*
X24438095Y-69395295D02*
X24438095Y-69538152D01*
X24438095Y-69538152D02*
X24390476Y-69633390D01*
X24390476Y-69633390D02*
X24342857Y-69681009D01*
X24342857Y-69681009D02*
X24247619Y-69728628D01*
X24247619Y-69728628D02*
X23866667Y-69728628D01*
X24771429Y-69204819D02*
X25390476Y-69204819D01*
X25390476Y-69204819D02*
X25057143Y-69585771D01*
X25057143Y-69585771D02*
X25200000Y-69585771D01*
X25200000Y-69585771D02*
X25295238Y-69633390D01*
X25295238Y-69633390D02*
X25342857Y-69681009D01*
X25342857Y-69681009D02*
X25390476Y-69776247D01*
X25390476Y-69776247D02*
X25390476Y-70014342D01*
X25390476Y-70014342D02*
X25342857Y-70109580D01*
X25342857Y-70109580D02*
X25295238Y-70157200D01*
X25295238Y-70157200D02*
X25200000Y-70204819D01*
X25200000Y-70204819D02*
X24914286Y-70204819D01*
X24914286Y-70204819D02*
X24819048Y-70157200D01*
X24819048Y-70157200D02*
X24771429Y-70109580D01*
X25771429Y-69300057D02*
X25819048Y-69252438D01*
X25819048Y-69252438D02*
X25914286Y-69204819D01*
X25914286Y-69204819D02*
X26152381Y-69204819D01*
X26152381Y-69204819D02*
X26247619Y-69252438D01*
X26247619Y-69252438D02*
X26295238Y-69300057D01*
X26295238Y-69300057D02*
X26342857Y-69395295D01*
X26342857Y-69395295D02*
X26342857Y-69490533D01*
X26342857Y-69490533D02*
X26295238Y-69633390D01*
X26295238Y-69633390D02*
X25723810Y-70204819D01*
X25723810Y-70204819D02*
X26342857Y-70204819D01*
X106611905Y-69004819D02*
X107183333Y-69004819D01*
X106897619Y-70004819D02*
X106897619Y-69004819D01*
X107516667Y-70004819D02*
X107516667Y-69004819D01*
X107516667Y-69004819D02*
X107897619Y-69004819D01*
X107897619Y-69004819D02*
X107992857Y-69052438D01*
X107992857Y-69052438D02*
X108040476Y-69100057D01*
X108040476Y-69100057D02*
X108088095Y-69195295D01*
X108088095Y-69195295D02*
X108088095Y-69338152D01*
X108088095Y-69338152D02*
X108040476Y-69433390D01*
X108040476Y-69433390D02*
X107992857Y-69481009D01*
X107992857Y-69481009D02*
X107897619Y-69528628D01*
X107897619Y-69528628D02*
X107516667Y-69528628D01*
X108421429Y-69004819D02*
X109040476Y-69004819D01*
X109040476Y-69004819D02*
X108707143Y-69385771D01*
X108707143Y-69385771D02*
X108850000Y-69385771D01*
X108850000Y-69385771D02*
X108945238Y-69433390D01*
X108945238Y-69433390D02*
X108992857Y-69481009D01*
X108992857Y-69481009D02*
X109040476Y-69576247D01*
X109040476Y-69576247D02*
X109040476Y-69814342D01*
X109040476Y-69814342D02*
X108992857Y-69909580D01*
X108992857Y-69909580D02*
X108945238Y-69957200D01*
X108945238Y-69957200D02*
X108850000Y-70004819D01*
X108850000Y-70004819D02*
X108564286Y-70004819D01*
X108564286Y-70004819D02*
X108469048Y-69957200D01*
X108469048Y-69957200D02*
X108421429Y-69909580D01*
X109992857Y-70004819D02*
X109421429Y-70004819D01*
X109707143Y-70004819D02*
X109707143Y-69004819D01*
X109707143Y-69004819D02*
X109611905Y-69147676D01*
X109611905Y-69147676D02*
X109516667Y-69242914D01*
X109516667Y-69242914D02*
X109421429Y-69290533D01*
X23854819Y-26488094D02*
X23854819Y-25916666D01*
X24854819Y-26202380D02*
X23854819Y-26202380D01*
X24854819Y-25583332D02*
X23854819Y-25583332D01*
X23854819Y-25583332D02*
X23854819Y-25202380D01*
X23854819Y-25202380D02*
X23902438Y-25107142D01*
X23902438Y-25107142D02*
X23950057Y-25059523D01*
X23950057Y-25059523D02*
X24045295Y-25011904D01*
X24045295Y-25011904D02*
X24188152Y-25011904D01*
X24188152Y-25011904D02*
X24283390Y-25059523D01*
X24283390Y-25059523D02*
X24331009Y-25107142D01*
X24331009Y-25107142D02*
X24378628Y-25202380D01*
X24378628Y-25202380D02*
X24378628Y-25583332D01*
X23854819Y-24678570D02*
X23854819Y-24059523D01*
X23854819Y-24059523D02*
X24235771Y-24392856D01*
X24235771Y-24392856D02*
X24235771Y-24249999D01*
X24235771Y-24249999D02*
X24283390Y-24154761D01*
X24283390Y-24154761D02*
X24331009Y-24107142D01*
X24331009Y-24107142D02*
X24426247Y-24059523D01*
X24426247Y-24059523D02*
X24664342Y-24059523D01*
X24664342Y-24059523D02*
X24759580Y-24107142D01*
X24759580Y-24107142D02*
X24807200Y-24154761D01*
X24807200Y-24154761D02*
X24854819Y-24249999D01*
X24854819Y-24249999D02*
X24854819Y-24535713D01*
X24854819Y-24535713D02*
X24807200Y-24630951D01*
X24807200Y-24630951D02*
X24759580Y-24678570D01*
X23854819Y-23440475D02*
X23854819Y-23345237D01*
X23854819Y-23345237D02*
X23902438Y-23249999D01*
X23902438Y-23249999D02*
X23950057Y-23202380D01*
X23950057Y-23202380D02*
X24045295Y-23154761D01*
X24045295Y-23154761D02*
X24235771Y-23107142D01*
X24235771Y-23107142D02*
X24473866Y-23107142D01*
X24473866Y-23107142D02*
X24664342Y-23154761D01*
X24664342Y-23154761D02*
X24759580Y-23202380D01*
X24759580Y-23202380D02*
X24807200Y-23249999D01*
X24807200Y-23249999D02*
X24854819Y-23345237D01*
X24854819Y-23345237D02*
X24854819Y-23440475D01*
X24854819Y-23440475D02*
X24807200Y-23535713D01*
X24807200Y-23535713D02*
X24759580Y-23583332D01*
X24759580Y-23583332D02*
X24664342Y-23630951D01*
X24664342Y-23630951D02*
X24473866Y-23678570D01*
X24473866Y-23678570D02*
X24235771Y-23678570D01*
X24235771Y-23678570D02*
X24045295Y-23630951D01*
X24045295Y-23630951D02*
X23950057Y-23583332D01*
X23950057Y-23583332D02*
X23902438Y-23535713D01*
X23902438Y-23535713D02*
X23854819Y-23440475D01*
X68861905Y-39154819D02*
X69433333Y-39154819D01*
X69147619Y-40154819D02*
X69147619Y-39154819D01*
X69766667Y-40154819D02*
X69766667Y-39154819D01*
X69766667Y-39154819D02*
X70147619Y-39154819D01*
X70147619Y-39154819D02*
X70242857Y-39202438D01*
X70242857Y-39202438D02*
X70290476Y-39250057D01*
X70290476Y-39250057D02*
X70338095Y-39345295D01*
X70338095Y-39345295D02*
X70338095Y-39488152D01*
X70338095Y-39488152D02*
X70290476Y-39583390D01*
X70290476Y-39583390D02*
X70242857Y-39631009D01*
X70242857Y-39631009D02*
X70147619Y-39678628D01*
X70147619Y-39678628D02*
X69766667Y-39678628D01*
X70719048Y-39250057D02*
X70766667Y-39202438D01*
X70766667Y-39202438D02*
X70861905Y-39154819D01*
X70861905Y-39154819D02*
X71100000Y-39154819D01*
X71100000Y-39154819D02*
X71195238Y-39202438D01*
X71195238Y-39202438D02*
X71242857Y-39250057D01*
X71242857Y-39250057D02*
X71290476Y-39345295D01*
X71290476Y-39345295D02*
X71290476Y-39440533D01*
X71290476Y-39440533D02*
X71242857Y-39583390D01*
X71242857Y-39583390D02*
X70671429Y-40154819D01*
X70671429Y-40154819D02*
X71290476Y-40154819D01*
X71766667Y-40154819D02*
X71957143Y-40154819D01*
X71957143Y-40154819D02*
X72052381Y-40107200D01*
X72052381Y-40107200D02*
X72100000Y-40059580D01*
X72100000Y-40059580D02*
X72195238Y-39916723D01*
X72195238Y-39916723D02*
X72242857Y-39726247D01*
X72242857Y-39726247D02*
X72242857Y-39345295D01*
X72242857Y-39345295D02*
X72195238Y-39250057D01*
X72195238Y-39250057D02*
X72147619Y-39202438D01*
X72147619Y-39202438D02*
X72052381Y-39154819D01*
X72052381Y-39154819D02*
X71861905Y-39154819D01*
X71861905Y-39154819D02*
X71766667Y-39202438D01*
X71766667Y-39202438D02*
X71719048Y-39250057D01*
X71719048Y-39250057D02*
X71671429Y-39345295D01*
X71671429Y-39345295D02*
X71671429Y-39583390D01*
X71671429Y-39583390D02*
X71719048Y-39678628D01*
X71719048Y-39678628D02*
X71766667Y-39726247D01*
X71766667Y-39726247D02*
X71861905Y-39773866D01*
X71861905Y-39773866D02*
X72052381Y-39773866D01*
X72052381Y-39773866D02*
X72147619Y-39726247D01*
X72147619Y-39726247D02*
X72195238Y-39678628D01*
X72195238Y-39678628D02*
X72242857Y-39583390D01*
X106611905Y-63104819D02*
X107183333Y-63104819D01*
X106897619Y-64104819D02*
X106897619Y-63104819D01*
X107516667Y-64104819D02*
X107516667Y-63104819D01*
X107516667Y-63104819D02*
X107897619Y-63104819D01*
X107897619Y-63104819D02*
X107992857Y-63152438D01*
X107992857Y-63152438D02*
X108040476Y-63200057D01*
X108040476Y-63200057D02*
X108088095Y-63295295D01*
X108088095Y-63295295D02*
X108088095Y-63438152D01*
X108088095Y-63438152D02*
X108040476Y-63533390D01*
X108040476Y-63533390D02*
X107992857Y-63581009D01*
X107992857Y-63581009D02*
X107897619Y-63628628D01*
X107897619Y-63628628D02*
X107516667Y-63628628D01*
X108469048Y-63200057D02*
X108516667Y-63152438D01*
X108516667Y-63152438D02*
X108611905Y-63104819D01*
X108611905Y-63104819D02*
X108850000Y-63104819D01*
X108850000Y-63104819D02*
X108945238Y-63152438D01*
X108945238Y-63152438D02*
X108992857Y-63200057D01*
X108992857Y-63200057D02*
X109040476Y-63295295D01*
X109040476Y-63295295D02*
X109040476Y-63390533D01*
X109040476Y-63390533D02*
X108992857Y-63533390D01*
X108992857Y-63533390D02*
X108421429Y-64104819D01*
X108421429Y-64104819D02*
X109040476Y-64104819D01*
X109611905Y-63533390D02*
X109516667Y-63485771D01*
X109516667Y-63485771D02*
X109469048Y-63438152D01*
X109469048Y-63438152D02*
X109421429Y-63342914D01*
X109421429Y-63342914D02*
X109421429Y-63295295D01*
X109421429Y-63295295D02*
X109469048Y-63200057D01*
X109469048Y-63200057D02*
X109516667Y-63152438D01*
X109516667Y-63152438D02*
X109611905Y-63104819D01*
X109611905Y-63104819D02*
X109802381Y-63104819D01*
X109802381Y-63104819D02*
X109897619Y-63152438D01*
X109897619Y-63152438D02*
X109945238Y-63200057D01*
X109945238Y-63200057D02*
X109992857Y-63295295D01*
X109992857Y-63295295D02*
X109992857Y-63342914D01*
X109992857Y-63342914D02*
X109945238Y-63438152D01*
X109945238Y-63438152D02*
X109897619Y-63485771D01*
X109897619Y-63485771D02*
X109802381Y-63533390D01*
X109802381Y-63533390D02*
X109611905Y-63533390D01*
X109611905Y-63533390D02*
X109516667Y-63581009D01*
X109516667Y-63581009D02*
X109469048Y-63628628D01*
X109469048Y-63628628D02*
X109421429Y-63723866D01*
X109421429Y-63723866D02*
X109421429Y-63914342D01*
X109421429Y-63914342D02*
X109469048Y-64009580D01*
X109469048Y-64009580D02*
X109516667Y-64057200D01*
X109516667Y-64057200D02*
X109611905Y-64104819D01*
X109611905Y-64104819D02*
X109802381Y-64104819D01*
X109802381Y-64104819D02*
X109897619Y-64057200D01*
X109897619Y-64057200D02*
X109945238Y-64009580D01*
X109945238Y-64009580D02*
X109992857Y-63914342D01*
X109992857Y-63914342D02*
X109992857Y-63723866D01*
X109992857Y-63723866D02*
X109945238Y-63628628D01*
X109945238Y-63628628D02*
X109897619Y-63581009D01*
X109897619Y-63581009D02*
X109802381Y-63533390D01*
X22961905Y-63104819D02*
X23533333Y-63104819D01*
X23247619Y-64104819D02*
X23247619Y-63104819D01*
X23866667Y-64104819D02*
X23866667Y-63104819D01*
X23866667Y-63104819D02*
X24247619Y-63104819D01*
X24247619Y-63104819D02*
X24342857Y-63152438D01*
X24342857Y-63152438D02*
X24390476Y-63200057D01*
X24390476Y-63200057D02*
X24438095Y-63295295D01*
X24438095Y-63295295D02*
X24438095Y-63438152D01*
X24438095Y-63438152D02*
X24390476Y-63533390D01*
X24390476Y-63533390D02*
X24342857Y-63581009D01*
X24342857Y-63581009D02*
X24247619Y-63628628D01*
X24247619Y-63628628D02*
X23866667Y-63628628D01*
X24819048Y-63200057D02*
X24866667Y-63152438D01*
X24866667Y-63152438D02*
X24961905Y-63104819D01*
X24961905Y-63104819D02*
X25200000Y-63104819D01*
X25200000Y-63104819D02*
X25295238Y-63152438D01*
X25295238Y-63152438D02*
X25342857Y-63200057D01*
X25342857Y-63200057D02*
X25390476Y-63295295D01*
X25390476Y-63295295D02*
X25390476Y-63390533D01*
X25390476Y-63390533D02*
X25342857Y-63533390D01*
X25342857Y-63533390D02*
X24771429Y-64104819D01*
X24771429Y-64104819D02*
X25390476Y-64104819D01*
X25723810Y-63104819D02*
X26390476Y-63104819D01*
X26390476Y-63104819D02*
X25961905Y-64104819D01*
X21561905Y-29854819D02*
X22133333Y-29854819D01*
X21847619Y-30854819D02*
X21847619Y-29854819D01*
X22466667Y-30854819D02*
X22466667Y-29854819D01*
X22466667Y-29854819D02*
X22847619Y-29854819D01*
X22847619Y-29854819D02*
X22942857Y-29902438D01*
X22942857Y-29902438D02*
X22990476Y-29950057D01*
X22990476Y-29950057D02*
X23038095Y-30045295D01*
X23038095Y-30045295D02*
X23038095Y-30188152D01*
X23038095Y-30188152D02*
X22990476Y-30283390D01*
X22990476Y-30283390D02*
X22942857Y-30331009D01*
X22942857Y-30331009D02*
X22847619Y-30378628D01*
X22847619Y-30378628D02*
X22466667Y-30378628D01*
X23419048Y-29950057D02*
X23466667Y-29902438D01*
X23466667Y-29902438D02*
X23561905Y-29854819D01*
X23561905Y-29854819D02*
X23800000Y-29854819D01*
X23800000Y-29854819D02*
X23895238Y-29902438D01*
X23895238Y-29902438D02*
X23942857Y-29950057D01*
X23942857Y-29950057D02*
X23990476Y-30045295D01*
X23990476Y-30045295D02*
X23990476Y-30140533D01*
X23990476Y-30140533D02*
X23942857Y-30283390D01*
X23942857Y-30283390D02*
X23371429Y-30854819D01*
X23371429Y-30854819D02*
X23990476Y-30854819D01*
X24847619Y-29854819D02*
X24657143Y-29854819D01*
X24657143Y-29854819D02*
X24561905Y-29902438D01*
X24561905Y-29902438D02*
X24514286Y-29950057D01*
X24514286Y-29950057D02*
X24419048Y-30092914D01*
X24419048Y-30092914D02*
X24371429Y-30283390D01*
X24371429Y-30283390D02*
X24371429Y-30664342D01*
X24371429Y-30664342D02*
X24419048Y-30759580D01*
X24419048Y-30759580D02*
X24466667Y-30807200D01*
X24466667Y-30807200D02*
X24561905Y-30854819D01*
X24561905Y-30854819D02*
X24752381Y-30854819D01*
X24752381Y-30854819D02*
X24847619Y-30807200D01*
X24847619Y-30807200D02*
X24895238Y-30759580D01*
X24895238Y-30759580D02*
X24942857Y-30664342D01*
X24942857Y-30664342D02*
X24942857Y-30426247D01*
X24942857Y-30426247D02*
X24895238Y-30331009D01*
X24895238Y-30331009D02*
X24847619Y-30283390D01*
X24847619Y-30283390D02*
X24752381Y-30235771D01*
X24752381Y-30235771D02*
X24561905Y-30235771D01*
X24561905Y-30235771D02*
X24466667Y-30283390D01*
X24466667Y-30283390D02*
X24419048Y-30331009D01*
X24419048Y-30331009D02*
X24371429Y-30426247D01*
X106611905Y-101854819D02*
X107183333Y-101854819D01*
X106897619Y-102854819D02*
X106897619Y-101854819D01*
X107516667Y-102854819D02*
X107516667Y-101854819D01*
X107516667Y-101854819D02*
X107897619Y-101854819D01*
X107897619Y-101854819D02*
X107992857Y-101902438D01*
X107992857Y-101902438D02*
X108040476Y-101950057D01*
X108040476Y-101950057D02*
X108088095Y-102045295D01*
X108088095Y-102045295D02*
X108088095Y-102188152D01*
X108088095Y-102188152D02*
X108040476Y-102283390D01*
X108040476Y-102283390D02*
X107992857Y-102331009D01*
X107992857Y-102331009D02*
X107897619Y-102378628D01*
X107897619Y-102378628D02*
X107516667Y-102378628D01*
X108469048Y-101950057D02*
X108516667Y-101902438D01*
X108516667Y-101902438D02*
X108611905Y-101854819D01*
X108611905Y-101854819D02*
X108850000Y-101854819D01*
X108850000Y-101854819D02*
X108945238Y-101902438D01*
X108945238Y-101902438D02*
X108992857Y-101950057D01*
X108992857Y-101950057D02*
X109040476Y-102045295D01*
X109040476Y-102045295D02*
X109040476Y-102140533D01*
X109040476Y-102140533D02*
X108992857Y-102283390D01*
X108992857Y-102283390D02*
X108421429Y-102854819D01*
X108421429Y-102854819D02*
X109040476Y-102854819D01*
X109945238Y-101854819D02*
X109469048Y-101854819D01*
X109469048Y-101854819D02*
X109421429Y-102331009D01*
X109421429Y-102331009D02*
X109469048Y-102283390D01*
X109469048Y-102283390D02*
X109564286Y-102235771D01*
X109564286Y-102235771D02*
X109802381Y-102235771D01*
X109802381Y-102235771D02*
X109897619Y-102283390D01*
X109897619Y-102283390D02*
X109945238Y-102331009D01*
X109945238Y-102331009D02*
X109992857Y-102426247D01*
X109992857Y-102426247D02*
X109992857Y-102664342D01*
X109992857Y-102664342D02*
X109945238Y-102759580D01*
X109945238Y-102759580D02*
X109897619Y-102807200D01*
X109897619Y-102807200D02*
X109802381Y-102854819D01*
X109802381Y-102854819D02*
X109564286Y-102854819D01*
X109564286Y-102854819D02*
X109469048Y-102807200D01*
X109469048Y-102807200D02*
X109421429Y-102759580D01*
X22961905Y-102054819D02*
X23533333Y-102054819D01*
X23247619Y-103054819D02*
X23247619Y-102054819D01*
X23866667Y-103054819D02*
X23866667Y-102054819D01*
X23866667Y-102054819D02*
X24247619Y-102054819D01*
X24247619Y-102054819D02*
X24342857Y-102102438D01*
X24342857Y-102102438D02*
X24390476Y-102150057D01*
X24390476Y-102150057D02*
X24438095Y-102245295D01*
X24438095Y-102245295D02*
X24438095Y-102388152D01*
X24438095Y-102388152D02*
X24390476Y-102483390D01*
X24390476Y-102483390D02*
X24342857Y-102531009D01*
X24342857Y-102531009D02*
X24247619Y-102578628D01*
X24247619Y-102578628D02*
X23866667Y-102578628D01*
X24819048Y-102150057D02*
X24866667Y-102102438D01*
X24866667Y-102102438D02*
X24961905Y-102054819D01*
X24961905Y-102054819D02*
X25200000Y-102054819D01*
X25200000Y-102054819D02*
X25295238Y-102102438D01*
X25295238Y-102102438D02*
X25342857Y-102150057D01*
X25342857Y-102150057D02*
X25390476Y-102245295D01*
X25390476Y-102245295D02*
X25390476Y-102340533D01*
X25390476Y-102340533D02*
X25342857Y-102483390D01*
X25342857Y-102483390D02*
X24771429Y-103054819D01*
X24771429Y-103054819D02*
X25390476Y-103054819D01*
X26247619Y-102388152D02*
X26247619Y-103054819D01*
X26009524Y-102007200D02*
X25771429Y-102721485D01*
X25771429Y-102721485D02*
X26390476Y-102721485D01*
X30054819Y-110013094D02*
X30054819Y-109441666D01*
X31054819Y-109727380D02*
X30054819Y-109727380D01*
X31054819Y-109108332D02*
X30054819Y-109108332D01*
X30054819Y-109108332D02*
X30054819Y-108727380D01*
X30054819Y-108727380D02*
X30102438Y-108632142D01*
X30102438Y-108632142D02*
X30150057Y-108584523D01*
X30150057Y-108584523D02*
X30245295Y-108536904D01*
X30245295Y-108536904D02*
X30388152Y-108536904D01*
X30388152Y-108536904D02*
X30483390Y-108584523D01*
X30483390Y-108584523D02*
X30531009Y-108632142D01*
X30531009Y-108632142D02*
X30578628Y-108727380D01*
X30578628Y-108727380D02*
X30578628Y-109108332D01*
X30150057Y-108155951D02*
X30102438Y-108108332D01*
X30102438Y-108108332D02*
X30054819Y-108013094D01*
X30054819Y-108013094D02*
X30054819Y-107774999D01*
X30054819Y-107774999D02*
X30102438Y-107679761D01*
X30102438Y-107679761D02*
X30150057Y-107632142D01*
X30150057Y-107632142D02*
X30245295Y-107584523D01*
X30245295Y-107584523D02*
X30340533Y-107584523D01*
X30340533Y-107584523D02*
X30483390Y-107632142D01*
X30483390Y-107632142D02*
X31054819Y-108203570D01*
X31054819Y-108203570D02*
X31054819Y-107584523D01*
X30054819Y-107251189D02*
X30054819Y-106632142D01*
X30054819Y-106632142D02*
X30435771Y-106965475D01*
X30435771Y-106965475D02*
X30435771Y-106822618D01*
X30435771Y-106822618D02*
X30483390Y-106727380D01*
X30483390Y-106727380D02*
X30531009Y-106679761D01*
X30531009Y-106679761D02*
X30626247Y-106632142D01*
X30626247Y-106632142D02*
X30864342Y-106632142D01*
X30864342Y-106632142D02*
X30959580Y-106679761D01*
X30959580Y-106679761D02*
X31007200Y-106727380D01*
X31007200Y-106727380D02*
X31054819Y-106822618D01*
X31054819Y-106822618D02*
X31054819Y-107108332D01*
X31054819Y-107108332D02*
X31007200Y-107203570D01*
X31007200Y-107203570D02*
X30959580Y-107251189D01*
X102054819Y-110013094D02*
X102054819Y-109441666D01*
X103054819Y-109727380D02*
X102054819Y-109727380D01*
X103054819Y-109108332D02*
X102054819Y-109108332D01*
X102054819Y-109108332D02*
X102054819Y-108727380D01*
X102054819Y-108727380D02*
X102102438Y-108632142D01*
X102102438Y-108632142D02*
X102150057Y-108584523D01*
X102150057Y-108584523D02*
X102245295Y-108536904D01*
X102245295Y-108536904D02*
X102388152Y-108536904D01*
X102388152Y-108536904D02*
X102483390Y-108584523D01*
X102483390Y-108584523D02*
X102531009Y-108632142D01*
X102531009Y-108632142D02*
X102578628Y-108727380D01*
X102578628Y-108727380D02*
X102578628Y-109108332D01*
X102150057Y-108155951D02*
X102102438Y-108108332D01*
X102102438Y-108108332D02*
X102054819Y-108013094D01*
X102054819Y-108013094D02*
X102054819Y-107774999D01*
X102054819Y-107774999D02*
X102102438Y-107679761D01*
X102102438Y-107679761D02*
X102150057Y-107632142D01*
X102150057Y-107632142D02*
X102245295Y-107584523D01*
X102245295Y-107584523D02*
X102340533Y-107584523D01*
X102340533Y-107584523D02*
X102483390Y-107632142D01*
X102483390Y-107632142D02*
X103054819Y-108203570D01*
X103054819Y-108203570D02*
X103054819Y-107584523D01*
X102150057Y-107203570D02*
X102102438Y-107155951D01*
X102102438Y-107155951D02*
X102054819Y-107060713D01*
X102054819Y-107060713D02*
X102054819Y-106822618D01*
X102054819Y-106822618D02*
X102102438Y-106727380D01*
X102102438Y-106727380D02*
X102150057Y-106679761D01*
X102150057Y-106679761D02*
X102245295Y-106632142D01*
X102245295Y-106632142D02*
X102340533Y-106632142D01*
X102340533Y-106632142D02*
X102483390Y-106679761D01*
X102483390Y-106679761D02*
X103054819Y-107251189D01*
X103054819Y-107251189D02*
X103054819Y-106632142D01*
X32404819Y-19136905D02*
X32404819Y-19708333D01*
X33404819Y-19422619D02*
X32404819Y-19422619D01*
X33404819Y-20041667D02*
X32404819Y-20041667D01*
X32404819Y-20041667D02*
X32404819Y-20422619D01*
X32404819Y-20422619D02*
X32452438Y-20517857D01*
X32452438Y-20517857D02*
X32500057Y-20565476D01*
X32500057Y-20565476D02*
X32595295Y-20613095D01*
X32595295Y-20613095D02*
X32738152Y-20613095D01*
X32738152Y-20613095D02*
X32833390Y-20565476D01*
X32833390Y-20565476D02*
X32881009Y-20517857D01*
X32881009Y-20517857D02*
X32928628Y-20422619D01*
X32928628Y-20422619D02*
X32928628Y-20041667D01*
X32500057Y-20994048D02*
X32452438Y-21041667D01*
X32452438Y-21041667D02*
X32404819Y-21136905D01*
X32404819Y-21136905D02*
X32404819Y-21375000D01*
X32404819Y-21375000D02*
X32452438Y-21470238D01*
X32452438Y-21470238D02*
X32500057Y-21517857D01*
X32500057Y-21517857D02*
X32595295Y-21565476D01*
X32595295Y-21565476D02*
X32690533Y-21565476D01*
X32690533Y-21565476D02*
X32833390Y-21517857D01*
X32833390Y-21517857D02*
X33404819Y-20946429D01*
X33404819Y-20946429D02*
X33404819Y-21565476D01*
X33404819Y-22517857D02*
X33404819Y-21946429D01*
X33404819Y-22232143D02*
X32404819Y-22232143D01*
X32404819Y-22232143D02*
X32547676Y-22136905D01*
X32547676Y-22136905D02*
X32642914Y-22041667D01*
X32642914Y-22041667D02*
X32690533Y-21946429D01*
X104404819Y-19136905D02*
X104404819Y-19708333D01*
X105404819Y-19422619D02*
X104404819Y-19422619D01*
X105404819Y-20041667D02*
X104404819Y-20041667D01*
X104404819Y-20041667D02*
X104404819Y-20422619D01*
X104404819Y-20422619D02*
X104452438Y-20517857D01*
X104452438Y-20517857D02*
X104500057Y-20565476D01*
X104500057Y-20565476D02*
X104595295Y-20613095D01*
X104595295Y-20613095D02*
X104738152Y-20613095D01*
X104738152Y-20613095D02*
X104833390Y-20565476D01*
X104833390Y-20565476D02*
X104881009Y-20517857D01*
X104881009Y-20517857D02*
X104928628Y-20422619D01*
X104928628Y-20422619D02*
X104928628Y-20041667D01*
X104500057Y-20994048D02*
X104452438Y-21041667D01*
X104452438Y-21041667D02*
X104404819Y-21136905D01*
X104404819Y-21136905D02*
X104404819Y-21375000D01*
X104404819Y-21375000D02*
X104452438Y-21470238D01*
X104452438Y-21470238D02*
X104500057Y-21517857D01*
X104500057Y-21517857D02*
X104595295Y-21565476D01*
X104595295Y-21565476D02*
X104690533Y-21565476D01*
X104690533Y-21565476D02*
X104833390Y-21517857D01*
X104833390Y-21517857D02*
X105404819Y-20946429D01*
X105404819Y-20946429D02*
X105404819Y-21565476D01*
X104404819Y-22184524D02*
X104404819Y-22279762D01*
X104404819Y-22279762D02*
X104452438Y-22375000D01*
X104452438Y-22375000D02*
X104500057Y-22422619D01*
X104500057Y-22422619D02*
X104595295Y-22470238D01*
X104595295Y-22470238D02*
X104785771Y-22517857D01*
X104785771Y-22517857D02*
X105023866Y-22517857D01*
X105023866Y-22517857D02*
X105214342Y-22470238D01*
X105214342Y-22470238D02*
X105309580Y-22422619D01*
X105309580Y-22422619D02*
X105357200Y-22375000D01*
X105357200Y-22375000D02*
X105404819Y-22279762D01*
X105404819Y-22279762D02*
X105404819Y-22184524D01*
X105404819Y-22184524D02*
X105357200Y-22089286D01*
X105357200Y-22089286D02*
X105309580Y-22041667D01*
X105309580Y-22041667D02*
X105214342Y-21994048D01*
X105214342Y-21994048D02*
X105023866Y-21946429D01*
X105023866Y-21946429D02*
X104785771Y-21946429D01*
X104785771Y-21946429D02*
X104595295Y-21994048D01*
X104595295Y-21994048D02*
X104500057Y-22041667D01*
X104500057Y-22041667D02*
X104452438Y-22089286D01*
X104452438Y-22089286D02*
X104404819Y-22184524D01*
X107538094Y-27504819D02*
X106966666Y-27504819D01*
X107252380Y-28504819D02*
X107252380Y-27504819D01*
X106633332Y-28504819D02*
X106633332Y-27504819D01*
X106633332Y-27504819D02*
X106252380Y-27504819D01*
X106252380Y-27504819D02*
X106157142Y-27552438D01*
X106157142Y-27552438D02*
X106109523Y-27600057D01*
X106109523Y-27600057D02*
X106061904Y-27695295D01*
X106061904Y-27695295D02*
X106061904Y-27838152D01*
X106061904Y-27838152D02*
X106109523Y-27933390D01*
X106109523Y-27933390D02*
X106157142Y-27981009D01*
X106157142Y-27981009D02*
X106252380Y-28028628D01*
X106252380Y-28028628D02*
X106633332Y-28028628D01*
X105109523Y-28504819D02*
X105680951Y-28504819D01*
X105395237Y-28504819D02*
X105395237Y-27504819D01*
X105395237Y-27504819D02*
X105490475Y-27647676D01*
X105490475Y-27647676D02*
X105585713Y-27742914D01*
X105585713Y-27742914D02*
X105680951Y-27790533D01*
X104633332Y-28504819D02*
X104442856Y-28504819D01*
X104442856Y-28504819D02*
X104347618Y-28457200D01*
X104347618Y-28457200D02*
X104299999Y-28409580D01*
X104299999Y-28409580D02*
X104204761Y-28266723D01*
X104204761Y-28266723D02*
X104157142Y-28076247D01*
X104157142Y-28076247D02*
X104157142Y-27695295D01*
X104157142Y-27695295D02*
X104204761Y-27600057D01*
X104204761Y-27600057D02*
X104252380Y-27552438D01*
X104252380Y-27552438D02*
X104347618Y-27504819D01*
X104347618Y-27504819D02*
X104538094Y-27504819D01*
X104538094Y-27504819D02*
X104633332Y-27552438D01*
X104633332Y-27552438D02*
X104680951Y-27600057D01*
X104680951Y-27600057D02*
X104728570Y-27695295D01*
X104728570Y-27695295D02*
X104728570Y-27933390D01*
X104728570Y-27933390D02*
X104680951Y-28028628D01*
X104680951Y-28028628D02*
X104633332Y-28076247D01*
X104633332Y-28076247D02*
X104538094Y-28123866D01*
X104538094Y-28123866D02*
X104347618Y-28123866D01*
X104347618Y-28123866D02*
X104252380Y-28076247D01*
X104252380Y-28076247D02*
X104204761Y-28028628D01*
X104204761Y-28028628D02*
X104157142Y-27933390D01*
X68538094Y-84504819D02*
X67966666Y-84504819D01*
X68252380Y-85504819D02*
X68252380Y-84504819D01*
X67633332Y-85504819D02*
X67633332Y-84504819D01*
X67633332Y-84504819D02*
X67252380Y-84504819D01*
X67252380Y-84504819D02*
X67157142Y-84552438D01*
X67157142Y-84552438D02*
X67109523Y-84600057D01*
X67109523Y-84600057D02*
X67061904Y-84695295D01*
X67061904Y-84695295D02*
X67061904Y-84838152D01*
X67061904Y-84838152D02*
X67109523Y-84933390D01*
X67109523Y-84933390D02*
X67157142Y-84981009D01*
X67157142Y-84981009D02*
X67252380Y-85028628D01*
X67252380Y-85028628D02*
X67633332Y-85028628D01*
X66109523Y-85504819D02*
X66680951Y-85504819D01*
X66395237Y-85504819D02*
X66395237Y-84504819D01*
X66395237Y-84504819D02*
X66490475Y-84647676D01*
X66490475Y-84647676D02*
X66585713Y-84742914D01*
X66585713Y-84742914D02*
X66680951Y-84790533D01*
X65538094Y-84933390D02*
X65633332Y-84885771D01*
X65633332Y-84885771D02*
X65680951Y-84838152D01*
X65680951Y-84838152D02*
X65728570Y-84742914D01*
X65728570Y-84742914D02*
X65728570Y-84695295D01*
X65728570Y-84695295D02*
X65680951Y-84600057D01*
X65680951Y-84600057D02*
X65633332Y-84552438D01*
X65633332Y-84552438D02*
X65538094Y-84504819D01*
X65538094Y-84504819D02*
X65347618Y-84504819D01*
X65347618Y-84504819D02*
X65252380Y-84552438D01*
X65252380Y-84552438D02*
X65204761Y-84600057D01*
X65204761Y-84600057D02*
X65157142Y-84695295D01*
X65157142Y-84695295D02*
X65157142Y-84742914D01*
X65157142Y-84742914D02*
X65204761Y-84838152D01*
X65204761Y-84838152D02*
X65252380Y-84885771D01*
X65252380Y-84885771D02*
X65347618Y-84933390D01*
X65347618Y-84933390D02*
X65538094Y-84933390D01*
X65538094Y-84933390D02*
X65633332Y-84981009D01*
X65633332Y-84981009D02*
X65680951Y-85028628D01*
X65680951Y-85028628D02*
X65728570Y-85123866D01*
X65728570Y-85123866D02*
X65728570Y-85314342D01*
X65728570Y-85314342D02*
X65680951Y-85409580D01*
X65680951Y-85409580D02*
X65633332Y-85457200D01*
X65633332Y-85457200D02*
X65538094Y-85504819D01*
X65538094Y-85504819D02*
X65347618Y-85504819D01*
X65347618Y-85504819D02*
X65252380Y-85457200D01*
X65252380Y-85457200D02*
X65204761Y-85409580D01*
X65204761Y-85409580D02*
X65157142Y-85314342D01*
X65157142Y-85314342D02*
X65157142Y-85123866D01*
X65157142Y-85123866D02*
X65204761Y-85028628D01*
X65204761Y-85028628D02*
X65252380Y-84981009D01*
X65252380Y-84981009D02*
X65347618Y-84933390D01*
X113988094Y-32404819D02*
X113416666Y-32404819D01*
X113702380Y-33404819D02*
X113702380Y-32404819D01*
X113083332Y-33404819D02*
X113083332Y-32404819D01*
X113083332Y-32404819D02*
X112702380Y-32404819D01*
X112702380Y-32404819D02*
X112607142Y-32452438D01*
X112607142Y-32452438D02*
X112559523Y-32500057D01*
X112559523Y-32500057D02*
X112511904Y-32595295D01*
X112511904Y-32595295D02*
X112511904Y-32738152D01*
X112511904Y-32738152D02*
X112559523Y-32833390D01*
X112559523Y-32833390D02*
X112607142Y-32881009D01*
X112607142Y-32881009D02*
X112702380Y-32928628D01*
X112702380Y-32928628D02*
X113083332Y-32928628D01*
X111559523Y-33404819D02*
X112130951Y-33404819D01*
X111845237Y-33404819D02*
X111845237Y-32404819D01*
X111845237Y-32404819D02*
X111940475Y-32547676D01*
X111940475Y-32547676D02*
X112035713Y-32642914D01*
X112035713Y-32642914D02*
X112130951Y-32690533D01*
X111226189Y-32404819D02*
X110559523Y-32404819D01*
X110559523Y-32404819D02*
X110988094Y-33404819D01*
X22538094Y-27504819D02*
X21966666Y-27504819D01*
X22252380Y-28504819D02*
X22252380Y-27504819D01*
X21633332Y-28504819D02*
X21633332Y-27504819D01*
X21633332Y-27504819D02*
X21252380Y-27504819D01*
X21252380Y-27504819D02*
X21157142Y-27552438D01*
X21157142Y-27552438D02*
X21109523Y-27600057D01*
X21109523Y-27600057D02*
X21061904Y-27695295D01*
X21061904Y-27695295D02*
X21061904Y-27838152D01*
X21061904Y-27838152D02*
X21109523Y-27933390D01*
X21109523Y-27933390D02*
X21157142Y-27981009D01*
X21157142Y-27981009D02*
X21252380Y-28028628D01*
X21252380Y-28028628D02*
X21633332Y-28028628D01*
X20109523Y-28504819D02*
X20680951Y-28504819D01*
X20395237Y-28504819D02*
X20395237Y-27504819D01*
X20395237Y-27504819D02*
X20490475Y-27647676D01*
X20490475Y-27647676D02*
X20585713Y-27742914D01*
X20585713Y-27742914D02*
X20680951Y-27790533D01*
X19252380Y-27504819D02*
X19442856Y-27504819D01*
X19442856Y-27504819D02*
X19538094Y-27552438D01*
X19538094Y-27552438D02*
X19585713Y-27600057D01*
X19585713Y-27600057D02*
X19680951Y-27742914D01*
X19680951Y-27742914D02*
X19728570Y-27933390D01*
X19728570Y-27933390D02*
X19728570Y-28314342D01*
X19728570Y-28314342D02*
X19680951Y-28409580D01*
X19680951Y-28409580D02*
X19633332Y-28457200D01*
X19633332Y-28457200D02*
X19538094Y-28504819D01*
X19538094Y-28504819D02*
X19347618Y-28504819D01*
X19347618Y-28504819D02*
X19252380Y-28457200D01*
X19252380Y-28457200D02*
X19204761Y-28409580D01*
X19204761Y-28409580D02*
X19157142Y-28314342D01*
X19157142Y-28314342D02*
X19157142Y-28076247D01*
X19157142Y-28076247D02*
X19204761Y-27981009D01*
X19204761Y-27981009D02*
X19252380Y-27933390D01*
X19252380Y-27933390D02*
X19347618Y-27885771D01*
X19347618Y-27885771D02*
X19538094Y-27885771D01*
X19538094Y-27885771D02*
X19633332Y-27933390D01*
X19633332Y-27933390D02*
X19680951Y-27981009D01*
X19680951Y-27981009D02*
X19728570Y-28076247D01*
X105504819Y-110461905D02*
X105504819Y-111033333D01*
X106504819Y-110747619D02*
X105504819Y-110747619D01*
X106504819Y-111366667D02*
X105504819Y-111366667D01*
X105504819Y-111366667D02*
X105504819Y-111747619D01*
X105504819Y-111747619D02*
X105552438Y-111842857D01*
X105552438Y-111842857D02*
X105600057Y-111890476D01*
X105600057Y-111890476D02*
X105695295Y-111938095D01*
X105695295Y-111938095D02*
X105838152Y-111938095D01*
X105838152Y-111938095D02*
X105933390Y-111890476D01*
X105933390Y-111890476D02*
X105981009Y-111842857D01*
X105981009Y-111842857D02*
X106028628Y-111747619D01*
X106028628Y-111747619D02*
X106028628Y-111366667D01*
X106504819Y-112890476D02*
X106504819Y-112319048D01*
X106504819Y-112604762D02*
X105504819Y-112604762D01*
X105504819Y-112604762D02*
X105647676Y-112509524D01*
X105647676Y-112509524D02*
X105742914Y-112414286D01*
X105742914Y-112414286D02*
X105790533Y-112319048D01*
X105504819Y-113795238D02*
X105504819Y-113319048D01*
X105504819Y-113319048D02*
X105981009Y-113271429D01*
X105981009Y-113271429D02*
X105933390Y-113319048D01*
X105933390Y-113319048D02*
X105885771Y-113414286D01*
X105885771Y-113414286D02*
X105885771Y-113652381D01*
X105885771Y-113652381D02*
X105933390Y-113747619D01*
X105933390Y-113747619D02*
X105981009Y-113795238D01*
X105981009Y-113795238D02*
X106076247Y-113842857D01*
X106076247Y-113842857D02*
X106314342Y-113842857D01*
X106314342Y-113842857D02*
X106409580Y-113795238D01*
X106409580Y-113795238D02*
X106457200Y-113747619D01*
X106457200Y-113747619D02*
X106504819Y-113652381D01*
X106504819Y-113652381D02*
X106504819Y-113414286D01*
X106504819Y-113414286D02*
X106457200Y-113319048D01*
X106457200Y-113319048D02*
X106409580Y-113271429D01*
X113988094Y-110404819D02*
X113416666Y-110404819D01*
X113702380Y-111404819D02*
X113702380Y-110404819D01*
X113083332Y-111404819D02*
X113083332Y-110404819D01*
X113083332Y-110404819D02*
X112702380Y-110404819D01*
X112702380Y-110404819D02*
X112607142Y-110452438D01*
X112607142Y-110452438D02*
X112559523Y-110500057D01*
X112559523Y-110500057D02*
X112511904Y-110595295D01*
X112511904Y-110595295D02*
X112511904Y-110738152D01*
X112511904Y-110738152D02*
X112559523Y-110833390D01*
X112559523Y-110833390D02*
X112607142Y-110881009D01*
X112607142Y-110881009D02*
X112702380Y-110928628D01*
X112702380Y-110928628D02*
X113083332Y-110928628D01*
X111559523Y-111404819D02*
X112130951Y-111404819D01*
X111845237Y-111404819D02*
X111845237Y-110404819D01*
X111845237Y-110404819D02*
X111940475Y-110547676D01*
X111940475Y-110547676D02*
X112035713Y-110642914D01*
X112035713Y-110642914D02*
X112130951Y-110690533D01*
X110702380Y-110738152D02*
X110702380Y-111404819D01*
X110940475Y-110357200D02*
X111178570Y-111071485D01*
X111178570Y-111071485D02*
X110559523Y-111071485D01*
X68404819Y-19136905D02*
X68404819Y-19708333D01*
X69404819Y-19422619D02*
X68404819Y-19422619D01*
X69404819Y-20041667D02*
X68404819Y-20041667D01*
X68404819Y-20041667D02*
X68404819Y-20422619D01*
X68404819Y-20422619D02*
X68452438Y-20517857D01*
X68452438Y-20517857D02*
X68500057Y-20565476D01*
X68500057Y-20565476D02*
X68595295Y-20613095D01*
X68595295Y-20613095D02*
X68738152Y-20613095D01*
X68738152Y-20613095D02*
X68833390Y-20565476D01*
X68833390Y-20565476D02*
X68881009Y-20517857D01*
X68881009Y-20517857D02*
X68928628Y-20422619D01*
X68928628Y-20422619D02*
X68928628Y-20041667D01*
X69404819Y-21565476D02*
X69404819Y-20994048D01*
X69404819Y-21279762D02*
X68404819Y-21279762D01*
X68404819Y-21279762D02*
X68547676Y-21184524D01*
X68547676Y-21184524D02*
X68642914Y-21089286D01*
X68642914Y-21089286D02*
X68690533Y-20994048D01*
X68404819Y-21898810D02*
X68404819Y-22517857D01*
X68404819Y-22517857D02*
X68785771Y-22184524D01*
X68785771Y-22184524D02*
X68785771Y-22327381D01*
X68785771Y-22327381D02*
X68833390Y-22422619D01*
X68833390Y-22422619D02*
X68881009Y-22470238D01*
X68881009Y-22470238D02*
X68976247Y-22517857D01*
X68976247Y-22517857D02*
X69214342Y-22517857D01*
X69214342Y-22517857D02*
X69309580Y-22470238D01*
X69309580Y-22470238D02*
X69357200Y-22422619D01*
X69357200Y-22422619D02*
X69404819Y-22327381D01*
X69404819Y-22327381D02*
X69404819Y-22041667D01*
X69404819Y-22041667D02*
X69357200Y-21946429D01*
X69357200Y-21946429D02*
X69309580Y-21898810D01*
X110404819Y-19136905D02*
X110404819Y-19708333D01*
X111404819Y-19422619D02*
X110404819Y-19422619D01*
X111404819Y-20041667D02*
X110404819Y-20041667D01*
X110404819Y-20041667D02*
X110404819Y-20422619D01*
X110404819Y-20422619D02*
X110452438Y-20517857D01*
X110452438Y-20517857D02*
X110500057Y-20565476D01*
X110500057Y-20565476D02*
X110595295Y-20613095D01*
X110595295Y-20613095D02*
X110738152Y-20613095D01*
X110738152Y-20613095D02*
X110833390Y-20565476D01*
X110833390Y-20565476D02*
X110881009Y-20517857D01*
X110881009Y-20517857D02*
X110928628Y-20422619D01*
X110928628Y-20422619D02*
X110928628Y-20041667D01*
X111404819Y-21565476D02*
X111404819Y-20994048D01*
X111404819Y-21279762D02*
X110404819Y-21279762D01*
X110404819Y-21279762D02*
X110547676Y-21184524D01*
X110547676Y-21184524D02*
X110642914Y-21089286D01*
X110642914Y-21089286D02*
X110690533Y-20994048D01*
X110500057Y-21946429D02*
X110452438Y-21994048D01*
X110452438Y-21994048D02*
X110404819Y-22089286D01*
X110404819Y-22089286D02*
X110404819Y-22327381D01*
X110404819Y-22327381D02*
X110452438Y-22422619D01*
X110452438Y-22422619D02*
X110500057Y-22470238D01*
X110500057Y-22470238D02*
X110595295Y-22517857D01*
X110595295Y-22517857D02*
X110690533Y-22517857D01*
X110690533Y-22517857D02*
X110833390Y-22470238D01*
X110833390Y-22470238D02*
X111404819Y-21898810D01*
X111404819Y-21898810D02*
X111404819Y-22517857D01*
X63504819Y-110436905D02*
X63504819Y-111008333D01*
X64504819Y-110722619D02*
X63504819Y-110722619D01*
X64504819Y-111341667D02*
X63504819Y-111341667D01*
X63504819Y-111341667D02*
X63504819Y-111722619D01*
X63504819Y-111722619D02*
X63552438Y-111817857D01*
X63552438Y-111817857D02*
X63600057Y-111865476D01*
X63600057Y-111865476D02*
X63695295Y-111913095D01*
X63695295Y-111913095D02*
X63838152Y-111913095D01*
X63838152Y-111913095D02*
X63933390Y-111865476D01*
X63933390Y-111865476D02*
X63981009Y-111817857D01*
X63981009Y-111817857D02*
X64028628Y-111722619D01*
X64028628Y-111722619D02*
X64028628Y-111341667D01*
X64504819Y-112865476D02*
X64504819Y-112294048D01*
X64504819Y-112579762D02*
X63504819Y-112579762D01*
X63504819Y-112579762D02*
X63647676Y-112484524D01*
X63647676Y-112484524D02*
X63742914Y-112389286D01*
X63742914Y-112389286D02*
X63790533Y-112294048D01*
X64504819Y-113817857D02*
X64504819Y-113246429D01*
X64504819Y-113532143D02*
X63504819Y-113532143D01*
X63504819Y-113532143D02*
X63647676Y-113436905D01*
X63647676Y-113436905D02*
X63742914Y-113341667D01*
X63742914Y-113341667D02*
X63790533Y-113246429D01*
X21504819Y-110436905D02*
X21504819Y-111008333D01*
X22504819Y-110722619D02*
X21504819Y-110722619D01*
X22504819Y-111341667D02*
X21504819Y-111341667D01*
X21504819Y-111341667D02*
X21504819Y-111722619D01*
X21504819Y-111722619D02*
X21552438Y-111817857D01*
X21552438Y-111817857D02*
X21600057Y-111865476D01*
X21600057Y-111865476D02*
X21695295Y-111913095D01*
X21695295Y-111913095D02*
X21838152Y-111913095D01*
X21838152Y-111913095D02*
X21933390Y-111865476D01*
X21933390Y-111865476D02*
X21981009Y-111817857D01*
X21981009Y-111817857D02*
X22028628Y-111722619D01*
X22028628Y-111722619D02*
X22028628Y-111341667D01*
X22504819Y-112865476D02*
X22504819Y-112294048D01*
X22504819Y-112579762D02*
X21504819Y-112579762D01*
X21504819Y-112579762D02*
X21647676Y-112484524D01*
X21647676Y-112484524D02*
X21742914Y-112389286D01*
X21742914Y-112389286D02*
X21790533Y-112294048D01*
X21504819Y-113484524D02*
X21504819Y-113579762D01*
X21504819Y-113579762D02*
X21552438Y-113675000D01*
X21552438Y-113675000D02*
X21600057Y-113722619D01*
X21600057Y-113722619D02*
X21695295Y-113770238D01*
X21695295Y-113770238D02*
X21885771Y-113817857D01*
X21885771Y-113817857D02*
X22123866Y-113817857D01*
X22123866Y-113817857D02*
X22314342Y-113770238D01*
X22314342Y-113770238D02*
X22409580Y-113722619D01*
X22409580Y-113722619D02*
X22457200Y-113675000D01*
X22457200Y-113675000D02*
X22504819Y-113579762D01*
X22504819Y-113579762D02*
X22504819Y-113484524D01*
X22504819Y-113484524D02*
X22457200Y-113389286D01*
X22457200Y-113389286D02*
X22409580Y-113341667D01*
X22409580Y-113341667D02*
X22314342Y-113294048D01*
X22314342Y-113294048D02*
X22123866Y-113246429D01*
X22123866Y-113246429D02*
X21885771Y-113246429D01*
X21885771Y-113246429D02*
X21695295Y-113294048D01*
X21695295Y-113294048D02*
X21600057Y-113341667D01*
X21600057Y-113341667D02*
X21552438Y-113389286D01*
X21552438Y-113389286D02*
X21504819Y-113484524D01*
X113411904Y-26404819D02*
X112840476Y-26404819D01*
X113126190Y-27404819D02*
X113126190Y-26404819D01*
X112507142Y-27404819D02*
X112507142Y-26404819D01*
X112507142Y-26404819D02*
X112126190Y-26404819D01*
X112126190Y-26404819D02*
X112030952Y-26452438D01*
X112030952Y-26452438D02*
X111983333Y-26500057D01*
X111983333Y-26500057D02*
X111935714Y-26595295D01*
X111935714Y-26595295D02*
X111935714Y-26738152D01*
X111935714Y-26738152D02*
X111983333Y-26833390D01*
X111983333Y-26833390D02*
X112030952Y-26881009D01*
X112030952Y-26881009D02*
X112126190Y-26928628D01*
X112126190Y-26928628D02*
X112507142Y-26928628D01*
X111459523Y-27404819D02*
X111269047Y-27404819D01*
X111269047Y-27404819D02*
X111173809Y-27357200D01*
X111173809Y-27357200D02*
X111126190Y-27309580D01*
X111126190Y-27309580D02*
X111030952Y-27166723D01*
X111030952Y-27166723D02*
X110983333Y-26976247D01*
X110983333Y-26976247D02*
X110983333Y-26595295D01*
X110983333Y-26595295D02*
X111030952Y-26500057D01*
X111030952Y-26500057D02*
X111078571Y-26452438D01*
X111078571Y-26452438D02*
X111173809Y-26404819D01*
X111173809Y-26404819D02*
X111364285Y-26404819D01*
X111364285Y-26404819D02*
X111459523Y-26452438D01*
X111459523Y-26452438D02*
X111507142Y-26500057D01*
X111507142Y-26500057D02*
X111554761Y-26595295D01*
X111554761Y-26595295D02*
X111554761Y-26833390D01*
X111554761Y-26833390D02*
X111507142Y-26928628D01*
X111507142Y-26928628D02*
X111459523Y-26976247D01*
X111459523Y-26976247D02*
X111364285Y-27023866D01*
X111364285Y-27023866D02*
X111173809Y-27023866D01*
X111173809Y-27023866D02*
X111078571Y-26976247D01*
X111078571Y-26976247D02*
X111030952Y-26928628D01*
X111030952Y-26928628D02*
X110983333Y-26833390D01*
X22061904Y-105504819D02*
X21490476Y-105504819D01*
X21776190Y-106504819D02*
X21776190Y-105504819D01*
X21157142Y-106504819D02*
X21157142Y-105504819D01*
X21157142Y-105504819D02*
X20776190Y-105504819D01*
X20776190Y-105504819D02*
X20680952Y-105552438D01*
X20680952Y-105552438D02*
X20633333Y-105600057D01*
X20633333Y-105600057D02*
X20585714Y-105695295D01*
X20585714Y-105695295D02*
X20585714Y-105838152D01*
X20585714Y-105838152D02*
X20633333Y-105933390D01*
X20633333Y-105933390D02*
X20680952Y-105981009D01*
X20680952Y-105981009D02*
X20776190Y-106028628D01*
X20776190Y-106028628D02*
X21157142Y-106028628D01*
X20014285Y-105933390D02*
X20109523Y-105885771D01*
X20109523Y-105885771D02*
X20157142Y-105838152D01*
X20157142Y-105838152D02*
X20204761Y-105742914D01*
X20204761Y-105742914D02*
X20204761Y-105695295D01*
X20204761Y-105695295D02*
X20157142Y-105600057D01*
X20157142Y-105600057D02*
X20109523Y-105552438D01*
X20109523Y-105552438D02*
X20014285Y-105504819D01*
X20014285Y-105504819D02*
X19823809Y-105504819D01*
X19823809Y-105504819D02*
X19728571Y-105552438D01*
X19728571Y-105552438D02*
X19680952Y-105600057D01*
X19680952Y-105600057D02*
X19633333Y-105695295D01*
X19633333Y-105695295D02*
X19633333Y-105742914D01*
X19633333Y-105742914D02*
X19680952Y-105838152D01*
X19680952Y-105838152D02*
X19728571Y-105885771D01*
X19728571Y-105885771D02*
X19823809Y-105933390D01*
X19823809Y-105933390D02*
X20014285Y-105933390D01*
X20014285Y-105933390D02*
X20109523Y-105981009D01*
X20109523Y-105981009D02*
X20157142Y-106028628D01*
X20157142Y-106028628D02*
X20204761Y-106123866D01*
X20204761Y-106123866D02*
X20204761Y-106314342D01*
X20204761Y-106314342D02*
X20157142Y-106409580D01*
X20157142Y-106409580D02*
X20109523Y-106457200D01*
X20109523Y-106457200D02*
X20014285Y-106504819D01*
X20014285Y-106504819D02*
X19823809Y-106504819D01*
X19823809Y-106504819D02*
X19728571Y-106457200D01*
X19728571Y-106457200D02*
X19680952Y-106409580D01*
X19680952Y-106409580D02*
X19633333Y-106314342D01*
X19633333Y-106314342D02*
X19633333Y-106123866D01*
X19633333Y-106123866D02*
X19680952Y-106028628D01*
X19680952Y-106028628D02*
X19728571Y-105981009D01*
X19728571Y-105981009D02*
X19823809Y-105933390D01*
X22061904Y-21504819D02*
X21490476Y-21504819D01*
X21776190Y-22504819D02*
X21776190Y-21504819D01*
X21157142Y-22504819D02*
X21157142Y-21504819D01*
X21157142Y-21504819D02*
X20776190Y-21504819D01*
X20776190Y-21504819D02*
X20680952Y-21552438D01*
X20680952Y-21552438D02*
X20633333Y-21600057D01*
X20633333Y-21600057D02*
X20585714Y-21695295D01*
X20585714Y-21695295D02*
X20585714Y-21838152D01*
X20585714Y-21838152D02*
X20633333Y-21933390D01*
X20633333Y-21933390D02*
X20680952Y-21981009D01*
X20680952Y-21981009D02*
X20776190Y-22028628D01*
X20776190Y-22028628D02*
X21157142Y-22028628D01*
X20252380Y-21504819D02*
X19585714Y-21504819D01*
X19585714Y-21504819D02*
X20014285Y-22504819D01*
X106961904Y-33504819D02*
X106390476Y-33504819D01*
X106676190Y-34504819D02*
X106676190Y-33504819D01*
X106057142Y-34504819D02*
X106057142Y-33504819D01*
X106057142Y-33504819D02*
X105676190Y-33504819D01*
X105676190Y-33504819D02*
X105580952Y-33552438D01*
X105580952Y-33552438D02*
X105533333Y-33600057D01*
X105533333Y-33600057D02*
X105485714Y-33695295D01*
X105485714Y-33695295D02*
X105485714Y-33838152D01*
X105485714Y-33838152D02*
X105533333Y-33933390D01*
X105533333Y-33933390D02*
X105580952Y-33981009D01*
X105580952Y-33981009D02*
X105676190Y-34028628D01*
X105676190Y-34028628D02*
X106057142Y-34028628D01*
X104628571Y-33504819D02*
X104819047Y-33504819D01*
X104819047Y-33504819D02*
X104914285Y-33552438D01*
X104914285Y-33552438D02*
X104961904Y-33600057D01*
X104961904Y-33600057D02*
X105057142Y-33742914D01*
X105057142Y-33742914D02*
X105104761Y-33933390D01*
X105104761Y-33933390D02*
X105104761Y-34314342D01*
X105104761Y-34314342D02*
X105057142Y-34409580D01*
X105057142Y-34409580D02*
X105009523Y-34457200D01*
X105009523Y-34457200D02*
X104914285Y-34504819D01*
X104914285Y-34504819D02*
X104723809Y-34504819D01*
X104723809Y-34504819D02*
X104628571Y-34457200D01*
X104628571Y-34457200D02*
X104580952Y-34409580D01*
X104580952Y-34409580D02*
X104533333Y-34314342D01*
X104533333Y-34314342D02*
X104533333Y-34076247D01*
X104533333Y-34076247D02*
X104580952Y-33981009D01*
X104580952Y-33981009D02*
X104628571Y-33933390D01*
X104628571Y-33933390D02*
X104723809Y-33885771D01*
X104723809Y-33885771D02*
X104914285Y-33885771D01*
X104914285Y-33885771D02*
X105009523Y-33933390D01*
X105009523Y-33933390D02*
X105057142Y-33981009D01*
X105057142Y-33981009D02*
X105104761Y-34076247D01*
X113511904Y-98404819D02*
X112940476Y-98404819D01*
X113226190Y-99404819D02*
X113226190Y-98404819D01*
X112607142Y-99404819D02*
X112607142Y-98404819D01*
X112607142Y-98404819D02*
X112226190Y-98404819D01*
X112226190Y-98404819D02*
X112130952Y-98452438D01*
X112130952Y-98452438D02*
X112083333Y-98500057D01*
X112083333Y-98500057D02*
X112035714Y-98595295D01*
X112035714Y-98595295D02*
X112035714Y-98738152D01*
X112035714Y-98738152D02*
X112083333Y-98833390D01*
X112083333Y-98833390D02*
X112130952Y-98881009D01*
X112130952Y-98881009D02*
X112226190Y-98928628D01*
X112226190Y-98928628D02*
X112607142Y-98928628D01*
X111130952Y-98404819D02*
X111607142Y-98404819D01*
X111607142Y-98404819D02*
X111654761Y-98881009D01*
X111654761Y-98881009D02*
X111607142Y-98833390D01*
X111607142Y-98833390D02*
X111511904Y-98785771D01*
X111511904Y-98785771D02*
X111273809Y-98785771D01*
X111273809Y-98785771D02*
X111178571Y-98833390D01*
X111178571Y-98833390D02*
X111130952Y-98881009D01*
X111130952Y-98881009D02*
X111083333Y-98976247D01*
X111083333Y-98976247D02*
X111083333Y-99214342D01*
X111083333Y-99214342D02*
X111130952Y-99309580D01*
X111130952Y-99309580D02*
X111178571Y-99357200D01*
X111178571Y-99357200D02*
X111273809Y-99404819D01*
X111273809Y-99404819D02*
X111511904Y-99404819D01*
X111511904Y-99404819D02*
X111607142Y-99357200D01*
X111607142Y-99357200D02*
X111654761Y-99309580D01*
X113511904Y-38404819D02*
X112940476Y-38404819D01*
X113226190Y-39404819D02*
X113226190Y-38404819D01*
X112607142Y-39404819D02*
X112607142Y-38404819D01*
X112607142Y-38404819D02*
X112226190Y-38404819D01*
X112226190Y-38404819D02*
X112130952Y-38452438D01*
X112130952Y-38452438D02*
X112083333Y-38500057D01*
X112083333Y-38500057D02*
X112035714Y-38595295D01*
X112035714Y-38595295D02*
X112035714Y-38738152D01*
X112035714Y-38738152D02*
X112083333Y-38833390D01*
X112083333Y-38833390D02*
X112130952Y-38881009D01*
X112130952Y-38881009D02*
X112226190Y-38928628D01*
X112226190Y-38928628D02*
X112607142Y-38928628D01*
X111178571Y-38738152D02*
X111178571Y-39404819D01*
X111416666Y-38357200D02*
X111654761Y-39071485D01*
X111654761Y-39071485D02*
X111035714Y-39071485D01*
X29061904Y-33504819D02*
X28490476Y-33504819D01*
X28776190Y-34504819D02*
X28776190Y-33504819D01*
X28157142Y-34504819D02*
X28157142Y-33504819D01*
X28157142Y-33504819D02*
X27776190Y-33504819D01*
X27776190Y-33504819D02*
X27680952Y-33552438D01*
X27680952Y-33552438D02*
X27633333Y-33600057D01*
X27633333Y-33600057D02*
X27585714Y-33695295D01*
X27585714Y-33695295D02*
X27585714Y-33838152D01*
X27585714Y-33838152D02*
X27633333Y-33933390D01*
X27633333Y-33933390D02*
X27680952Y-33981009D01*
X27680952Y-33981009D02*
X27776190Y-34028628D01*
X27776190Y-34028628D02*
X28157142Y-34028628D01*
X27252380Y-33504819D02*
X26633333Y-33504819D01*
X26633333Y-33504819D02*
X26966666Y-33885771D01*
X26966666Y-33885771D02*
X26823809Y-33885771D01*
X26823809Y-33885771D02*
X26728571Y-33933390D01*
X26728571Y-33933390D02*
X26680952Y-33981009D01*
X26680952Y-33981009D02*
X26633333Y-34076247D01*
X26633333Y-34076247D02*
X26633333Y-34314342D01*
X26633333Y-34314342D02*
X26680952Y-34409580D01*
X26680952Y-34409580D02*
X26728571Y-34457200D01*
X26728571Y-34457200D02*
X26823809Y-34504819D01*
X26823809Y-34504819D02*
X27109523Y-34504819D01*
X27109523Y-34504819D02*
X27204761Y-34457200D01*
X27204761Y-34457200D02*
X27252380Y-34409580D01*
X22061904Y-93504819D02*
X21490476Y-93504819D01*
X21776190Y-94504819D02*
X21776190Y-93504819D01*
X21157142Y-94504819D02*
X21157142Y-93504819D01*
X21157142Y-93504819D02*
X20776190Y-93504819D01*
X20776190Y-93504819D02*
X20680952Y-93552438D01*
X20680952Y-93552438D02*
X20633333Y-93600057D01*
X20633333Y-93600057D02*
X20585714Y-93695295D01*
X20585714Y-93695295D02*
X20585714Y-93838152D01*
X20585714Y-93838152D02*
X20633333Y-93933390D01*
X20633333Y-93933390D02*
X20680952Y-93981009D01*
X20680952Y-93981009D02*
X20776190Y-94028628D01*
X20776190Y-94028628D02*
X21157142Y-94028628D01*
X20204761Y-93600057D02*
X20157142Y-93552438D01*
X20157142Y-93552438D02*
X20061904Y-93504819D01*
X20061904Y-93504819D02*
X19823809Y-93504819D01*
X19823809Y-93504819D02*
X19728571Y-93552438D01*
X19728571Y-93552438D02*
X19680952Y-93600057D01*
X19680952Y-93600057D02*
X19633333Y-93695295D01*
X19633333Y-93695295D02*
X19633333Y-93790533D01*
X19633333Y-93790533D02*
X19680952Y-93933390D01*
X19680952Y-93933390D02*
X20252380Y-94504819D01*
X20252380Y-94504819D02*
X19633333Y-94504819D01*
X22061904Y-33504819D02*
X21490476Y-33504819D01*
X21776190Y-34504819D02*
X21776190Y-33504819D01*
X21157142Y-34504819D02*
X21157142Y-33504819D01*
X21157142Y-33504819D02*
X20776190Y-33504819D01*
X20776190Y-33504819D02*
X20680952Y-33552438D01*
X20680952Y-33552438D02*
X20633333Y-33600057D01*
X20633333Y-33600057D02*
X20585714Y-33695295D01*
X20585714Y-33695295D02*
X20585714Y-33838152D01*
X20585714Y-33838152D02*
X20633333Y-33933390D01*
X20633333Y-33933390D02*
X20680952Y-33981009D01*
X20680952Y-33981009D02*
X20776190Y-34028628D01*
X20776190Y-34028628D02*
X21157142Y-34028628D01*
X19633333Y-34504819D02*
X20204761Y-34504819D01*
X19919047Y-34504819D02*
X19919047Y-33504819D01*
X19919047Y-33504819D02*
X20014285Y-33647676D01*
X20014285Y-33647676D02*
X20109523Y-33742914D01*
X20109523Y-33742914D02*
X20204761Y-33790533D01*
X99142857Y-98009580D02*
X99190476Y-98057200D01*
X99190476Y-98057200D02*
X99333333Y-98104819D01*
X99333333Y-98104819D02*
X99428571Y-98104819D01*
X99428571Y-98104819D02*
X99571428Y-98057200D01*
X99571428Y-98057200D02*
X99666666Y-97961961D01*
X99666666Y-97961961D02*
X99714285Y-97866723D01*
X99714285Y-97866723D02*
X99761904Y-97676247D01*
X99761904Y-97676247D02*
X99761904Y-97533390D01*
X99761904Y-97533390D02*
X99714285Y-97342914D01*
X99714285Y-97342914D02*
X99666666Y-97247676D01*
X99666666Y-97247676D02*
X99571428Y-97152438D01*
X99571428Y-97152438D02*
X99428571Y-97104819D01*
X99428571Y-97104819D02*
X99333333Y-97104819D01*
X99333333Y-97104819D02*
X99190476Y-97152438D01*
X99190476Y-97152438D02*
X99142857Y-97200057D01*
X98761904Y-97200057D02*
X98714285Y-97152438D01*
X98714285Y-97152438D02*
X98619047Y-97104819D01*
X98619047Y-97104819D02*
X98380952Y-97104819D01*
X98380952Y-97104819D02*
X98285714Y-97152438D01*
X98285714Y-97152438D02*
X98238095Y-97200057D01*
X98238095Y-97200057D02*
X98190476Y-97295295D01*
X98190476Y-97295295D02*
X98190476Y-97390533D01*
X98190476Y-97390533D02*
X98238095Y-97533390D01*
X98238095Y-97533390D02*
X98809523Y-98104819D01*
X98809523Y-98104819D02*
X98190476Y-98104819D01*
X97285714Y-97104819D02*
X97761904Y-97104819D01*
X97761904Y-97104819D02*
X97809523Y-97581009D01*
X97809523Y-97581009D02*
X97761904Y-97533390D01*
X97761904Y-97533390D02*
X97666666Y-97485771D01*
X97666666Y-97485771D02*
X97428571Y-97485771D01*
X97428571Y-97485771D02*
X97333333Y-97533390D01*
X97333333Y-97533390D02*
X97285714Y-97581009D01*
X97285714Y-97581009D02*
X97238095Y-97676247D01*
X97238095Y-97676247D02*
X97238095Y-97914342D01*
X97238095Y-97914342D02*
X97285714Y-98009580D01*
X97285714Y-98009580D02*
X97333333Y-98057200D01*
X97333333Y-98057200D02*
X97428571Y-98104819D01*
X97428571Y-98104819D02*
X97666666Y-98104819D01*
X97666666Y-98104819D02*
X97761904Y-98057200D01*
X97761904Y-98057200D02*
X97809523Y-98009580D01*
X83142857Y-98009580D02*
X83190476Y-98057200D01*
X83190476Y-98057200D02*
X83333333Y-98104819D01*
X83333333Y-98104819D02*
X83428571Y-98104819D01*
X83428571Y-98104819D02*
X83571428Y-98057200D01*
X83571428Y-98057200D02*
X83666666Y-97961961D01*
X83666666Y-97961961D02*
X83714285Y-97866723D01*
X83714285Y-97866723D02*
X83761904Y-97676247D01*
X83761904Y-97676247D02*
X83761904Y-97533390D01*
X83761904Y-97533390D02*
X83714285Y-97342914D01*
X83714285Y-97342914D02*
X83666666Y-97247676D01*
X83666666Y-97247676D02*
X83571428Y-97152438D01*
X83571428Y-97152438D02*
X83428571Y-97104819D01*
X83428571Y-97104819D02*
X83333333Y-97104819D01*
X83333333Y-97104819D02*
X83190476Y-97152438D01*
X83190476Y-97152438D02*
X83142857Y-97200057D01*
X82761904Y-97200057D02*
X82714285Y-97152438D01*
X82714285Y-97152438D02*
X82619047Y-97104819D01*
X82619047Y-97104819D02*
X82380952Y-97104819D01*
X82380952Y-97104819D02*
X82285714Y-97152438D01*
X82285714Y-97152438D02*
X82238095Y-97200057D01*
X82238095Y-97200057D02*
X82190476Y-97295295D01*
X82190476Y-97295295D02*
X82190476Y-97390533D01*
X82190476Y-97390533D02*
X82238095Y-97533390D01*
X82238095Y-97533390D02*
X82809523Y-98104819D01*
X82809523Y-98104819D02*
X82190476Y-98104819D01*
X81333333Y-97438152D02*
X81333333Y-98104819D01*
X81571428Y-97057200D02*
X81809523Y-97771485D01*
X81809523Y-97771485D02*
X81190476Y-97771485D01*
X67142857Y-98009580D02*
X67190476Y-98057200D01*
X67190476Y-98057200D02*
X67333333Y-98104819D01*
X67333333Y-98104819D02*
X67428571Y-98104819D01*
X67428571Y-98104819D02*
X67571428Y-98057200D01*
X67571428Y-98057200D02*
X67666666Y-97961961D01*
X67666666Y-97961961D02*
X67714285Y-97866723D01*
X67714285Y-97866723D02*
X67761904Y-97676247D01*
X67761904Y-97676247D02*
X67761904Y-97533390D01*
X67761904Y-97533390D02*
X67714285Y-97342914D01*
X67714285Y-97342914D02*
X67666666Y-97247676D01*
X67666666Y-97247676D02*
X67571428Y-97152438D01*
X67571428Y-97152438D02*
X67428571Y-97104819D01*
X67428571Y-97104819D02*
X67333333Y-97104819D01*
X67333333Y-97104819D02*
X67190476Y-97152438D01*
X67190476Y-97152438D02*
X67142857Y-97200057D01*
X66761904Y-97200057D02*
X66714285Y-97152438D01*
X66714285Y-97152438D02*
X66619047Y-97104819D01*
X66619047Y-97104819D02*
X66380952Y-97104819D01*
X66380952Y-97104819D02*
X66285714Y-97152438D01*
X66285714Y-97152438D02*
X66238095Y-97200057D01*
X66238095Y-97200057D02*
X66190476Y-97295295D01*
X66190476Y-97295295D02*
X66190476Y-97390533D01*
X66190476Y-97390533D02*
X66238095Y-97533390D01*
X66238095Y-97533390D02*
X66809523Y-98104819D01*
X66809523Y-98104819D02*
X66190476Y-98104819D01*
X65857142Y-97104819D02*
X65238095Y-97104819D01*
X65238095Y-97104819D02*
X65571428Y-97485771D01*
X65571428Y-97485771D02*
X65428571Y-97485771D01*
X65428571Y-97485771D02*
X65333333Y-97533390D01*
X65333333Y-97533390D02*
X65285714Y-97581009D01*
X65285714Y-97581009D02*
X65238095Y-97676247D01*
X65238095Y-97676247D02*
X65238095Y-97914342D01*
X65238095Y-97914342D02*
X65285714Y-98009580D01*
X65285714Y-98009580D02*
X65333333Y-98057200D01*
X65333333Y-98057200D02*
X65428571Y-98104819D01*
X65428571Y-98104819D02*
X65714285Y-98104819D01*
X65714285Y-98104819D02*
X65809523Y-98057200D01*
X65809523Y-98057200D02*
X65857142Y-98009580D01*
X51142857Y-98009580D02*
X51190476Y-98057200D01*
X51190476Y-98057200D02*
X51333333Y-98104819D01*
X51333333Y-98104819D02*
X51428571Y-98104819D01*
X51428571Y-98104819D02*
X51571428Y-98057200D01*
X51571428Y-98057200D02*
X51666666Y-97961961D01*
X51666666Y-97961961D02*
X51714285Y-97866723D01*
X51714285Y-97866723D02*
X51761904Y-97676247D01*
X51761904Y-97676247D02*
X51761904Y-97533390D01*
X51761904Y-97533390D02*
X51714285Y-97342914D01*
X51714285Y-97342914D02*
X51666666Y-97247676D01*
X51666666Y-97247676D02*
X51571428Y-97152438D01*
X51571428Y-97152438D02*
X51428571Y-97104819D01*
X51428571Y-97104819D02*
X51333333Y-97104819D01*
X51333333Y-97104819D02*
X51190476Y-97152438D01*
X51190476Y-97152438D02*
X51142857Y-97200057D01*
X50761904Y-97200057D02*
X50714285Y-97152438D01*
X50714285Y-97152438D02*
X50619047Y-97104819D01*
X50619047Y-97104819D02*
X50380952Y-97104819D01*
X50380952Y-97104819D02*
X50285714Y-97152438D01*
X50285714Y-97152438D02*
X50238095Y-97200057D01*
X50238095Y-97200057D02*
X50190476Y-97295295D01*
X50190476Y-97295295D02*
X50190476Y-97390533D01*
X50190476Y-97390533D02*
X50238095Y-97533390D01*
X50238095Y-97533390D02*
X50809523Y-98104819D01*
X50809523Y-98104819D02*
X50190476Y-98104819D01*
X49809523Y-97200057D02*
X49761904Y-97152438D01*
X49761904Y-97152438D02*
X49666666Y-97104819D01*
X49666666Y-97104819D02*
X49428571Y-97104819D01*
X49428571Y-97104819D02*
X49333333Y-97152438D01*
X49333333Y-97152438D02*
X49285714Y-97200057D01*
X49285714Y-97200057D02*
X49238095Y-97295295D01*
X49238095Y-97295295D02*
X49238095Y-97390533D01*
X49238095Y-97390533D02*
X49285714Y-97533390D01*
X49285714Y-97533390D02*
X49857142Y-98104819D01*
X49857142Y-98104819D02*
X49238095Y-98104819D01*
X35142857Y-98009580D02*
X35190476Y-98057200D01*
X35190476Y-98057200D02*
X35333333Y-98104819D01*
X35333333Y-98104819D02*
X35428571Y-98104819D01*
X35428571Y-98104819D02*
X35571428Y-98057200D01*
X35571428Y-98057200D02*
X35666666Y-97961961D01*
X35666666Y-97961961D02*
X35714285Y-97866723D01*
X35714285Y-97866723D02*
X35761904Y-97676247D01*
X35761904Y-97676247D02*
X35761904Y-97533390D01*
X35761904Y-97533390D02*
X35714285Y-97342914D01*
X35714285Y-97342914D02*
X35666666Y-97247676D01*
X35666666Y-97247676D02*
X35571428Y-97152438D01*
X35571428Y-97152438D02*
X35428571Y-97104819D01*
X35428571Y-97104819D02*
X35333333Y-97104819D01*
X35333333Y-97104819D02*
X35190476Y-97152438D01*
X35190476Y-97152438D02*
X35142857Y-97200057D01*
X34761904Y-97200057D02*
X34714285Y-97152438D01*
X34714285Y-97152438D02*
X34619047Y-97104819D01*
X34619047Y-97104819D02*
X34380952Y-97104819D01*
X34380952Y-97104819D02*
X34285714Y-97152438D01*
X34285714Y-97152438D02*
X34238095Y-97200057D01*
X34238095Y-97200057D02*
X34190476Y-97295295D01*
X34190476Y-97295295D02*
X34190476Y-97390533D01*
X34190476Y-97390533D02*
X34238095Y-97533390D01*
X34238095Y-97533390D02*
X34809523Y-98104819D01*
X34809523Y-98104819D02*
X34190476Y-98104819D01*
X33238095Y-98104819D02*
X33809523Y-98104819D01*
X33523809Y-98104819D02*
X33523809Y-97104819D01*
X33523809Y-97104819D02*
X33619047Y-97247676D01*
X33619047Y-97247676D02*
X33714285Y-97342914D01*
X33714285Y-97342914D02*
X33809523Y-97390533D01*
X99142857Y-80009580D02*
X99190476Y-80057200D01*
X99190476Y-80057200D02*
X99333333Y-80104819D01*
X99333333Y-80104819D02*
X99428571Y-80104819D01*
X99428571Y-80104819D02*
X99571428Y-80057200D01*
X99571428Y-80057200D02*
X99666666Y-79961961D01*
X99666666Y-79961961D02*
X99714285Y-79866723D01*
X99714285Y-79866723D02*
X99761904Y-79676247D01*
X99761904Y-79676247D02*
X99761904Y-79533390D01*
X99761904Y-79533390D02*
X99714285Y-79342914D01*
X99714285Y-79342914D02*
X99666666Y-79247676D01*
X99666666Y-79247676D02*
X99571428Y-79152438D01*
X99571428Y-79152438D02*
X99428571Y-79104819D01*
X99428571Y-79104819D02*
X99333333Y-79104819D01*
X99333333Y-79104819D02*
X99190476Y-79152438D01*
X99190476Y-79152438D02*
X99142857Y-79200057D01*
X98761904Y-79200057D02*
X98714285Y-79152438D01*
X98714285Y-79152438D02*
X98619047Y-79104819D01*
X98619047Y-79104819D02*
X98380952Y-79104819D01*
X98380952Y-79104819D02*
X98285714Y-79152438D01*
X98285714Y-79152438D02*
X98238095Y-79200057D01*
X98238095Y-79200057D02*
X98190476Y-79295295D01*
X98190476Y-79295295D02*
X98190476Y-79390533D01*
X98190476Y-79390533D02*
X98238095Y-79533390D01*
X98238095Y-79533390D02*
X98809523Y-80104819D01*
X98809523Y-80104819D02*
X98190476Y-80104819D01*
X97571428Y-79104819D02*
X97476190Y-79104819D01*
X97476190Y-79104819D02*
X97380952Y-79152438D01*
X97380952Y-79152438D02*
X97333333Y-79200057D01*
X97333333Y-79200057D02*
X97285714Y-79295295D01*
X97285714Y-79295295D02*
X97238095Y-79485771D01*
X97238095Y-79485771D02*
X97238095Y-79723866D01*
X97238095Y-79723866D02*
X97285714Y-79914342D01*
X97285714Y-79914342D02*
X97333333Y-80009580D01*
X97333333Y-80009580D02*
X97380952Y-80057200D01*
X97380952Y-80057200D02*
X97476190Y-80104819D01*
X97476190Y-80104819D02*
X97571428Y-80104819D01*
X97571428Y-80104819D02*
X97666666Y-80057200D01*
X97666666Y-80057200D02*
X97714285Y-80009580D01*
X97714285Y-80009580D02*
X97761904Y-79914342D01*
X97761904Y-79914342D02*
X97809523Y-79723866D01*
X97809523Y-79723866D02*
X97809523Y-79485771D01*
X97809523Y-79485771D02*
X97761904Y-79295295D01*
X97761904Y-79295295D02*
X97714285Y-79200057D01*
X97714285Y-79200057D02*
X97666666Y-79152438D01*
X97666666Y-79152438D02*
X97571428Y-79104819D01*
X83142857Y-80009580D02*
X83190476Y-80057200D01*
X83190476Y-80057200D02*
X83333333Y-80104819D01*
X83333333Y-80104819D02*
X83428571Y-80104819D01*
X83428571Y-80104819D02*
X83571428Y-80057200D01*
X83571428Y-80057200D02*
X83666666Y-79961961D01*
X83666666Y-79961961D02*
X83714285Y-79866723D01*
X83714285Y-79866723D02*
X83761904Y-79676247D01*
X83761904Y-79676247D02*
X83761904Y-79533390D01*
X83761904Y-79533390D02*
X83714285Y-79342914D01*
X83714285Y-79342914D02*
X83666666Y-79247676D01*
X83666666Y-79247676D02*
X83571428Y-79152438D01*
X83571428Y-79152438D02*
X83428571Y-79104819D01*
X83428571Y-79104819D02*
X83333333Y-79104819D01*
X83333333Y-79104819D02*
X83190476Y-79152438D01*
X83190476Y-79152438D02*
X83142857Y-79200057D01*
X82190476Y-80104819D02*
X82761904Y-80104819D01*
X82476190Y-80104819D02*
X82476190Y-79104819D01*
X82476190Y-79104819D02*
X82571428Y-79247676D01*
X82571428Y-79247676D02*
X82666666Y-79342914D01*
X82666666Y-79342914D02*
X82761904Y-79390533D01*
X81714285Y-80104819D02*
X81523809Y-80104819D01*
X81523809Y-80104819D02*
X81428571Y-80057200D01*
X81428571Y-80057200D02*
X81380952Y-80009580D01*
X81380952Y-80009580D02*
X81285714Y-79866723D01*
X81285714Y-79866723D02*
X81238095Y-79676247D01*
X81238095Y-79676247D02*
X81238095Y-79295295D01*
X81238095Y-79295295D02*
X81285714Y-79200057D01*
X81285714Y-79200057D02*
X81333333Y-79152438D01*
X81333333Y-79152438D02*
X81428571Y-79104819D01*
X81428571Y-79104819D02*
X81619047Y-79104819D01*
X81619047Y-79104819D02*
X81714285Y-79152438D01*
X81714285Y-79152438D02*
X81761904Y-79200057D01*
X81761904Y-79200057D02*
X81809523Y-79295295D01*
X81809523Y-79295295D02*
X81809523Y-79533390D01*
X81809523Y-79533390D02*
X81761904Y-79628628D01*
X81761904Y-79628628D02*
X81714285Y-79676247D01*
X81714285Y-79676247D02*
X81619047Y-79723866D01*
X81619047Y-79723866D02*
X81428571Y-79723866D01*
X81428571Y-79723866D02*
X81333333Y-79676247D01*
X81333333Y-79676247D02*
X81285714Y-79628628D01*
X81285714Y-79628628D02*
X81238095Y-79533390D01*
X67142857Y-80009580D02*
X67190476Y-80057200D01*
X67190476Y-80057200D02*
X67333333Y-80104819D01*
X67333333Y-80104819D02*
X67428571Y-80104819D01*
X67428571Y-80104819D02*
X67571428Y-80057200D01*
X67571428Y-80057200D02*
X67666666Y-79961961D01*
X67666666Y-79961961D02*
X67714285Y-79866723D01*
X67714285Y-79866723D02*
X67761904Y-79676247D01*
X67761904Y-79676247D02*
X67761904Y-79533390D01*
X67761904Y-79533390D02*
X67714285Y-79342914D01*
X67714285Y-79342914D02*
X67666666Y-79247676D01*
X67666666Y-79247676D02*
X67571428Y-79152438D01*
X67571428Y-79152438D02*
X67428571Y-79104819D01*
X67428571Y-79104819D02*
X67333333Y-79104819D01*
X67333333Y-79104819D02*
X67190476Y-79152438D01*
X67190476Y-79152438D02*
X67142857Y-79200057D01*
X66190476Y-80104819D02*
X66761904Y-80104819D01*
X66476190Y-80104819D02*
X66476190Y-79104819D01*
X66476190Y-79104819D02*
X66571428Y-79247676D01*
X66571428Y-79247676D02*
X66666666Y-79342914D01*
X66666666Y-79342914D02*
X66761904Y-79390533D01*
X65619047Y-79533390D02*
X65714285Y-79485771D01*
X65714285Y-79485771D02*
X65761904Y-79438152D01*
X65761904Y-79438152D02*
X65809523Y-79342914D01*
X65809523Y-79342914D02*
X65809523Y-79295295D01*
X65809523Y-79295295D02*
X65761904Y-79200057D01*
X65761904Y-79200057D02*
X65714285Y-79152438D01*
X65714285Y-79152438D02*
X65619047Y-79104819D01*
X65619047Y-79104819D02*
X65428571Y-79104819D01*
X65428571Y-79104819D02*
X65333333Y-79152438D01*
X65333333Y-79152438D02*
X65285714Y-79200057D01*
X65285714Y-79200057D02*
X65238095Y-79295295D01*
X65238095Y-79295295D02*
X65238095Y-79342914D01*
X65238095Y-79342914D02*
X65285714Y-79438152D01*
X65285714Y-79438152D02*
X65333333Y-79485771D01*
X65333333Y-79485771D02*
X65428571Y-79533390D01*
X65428571Y-79533390D02*
X65619047Y-79533390D01*
X65619047Y-79533390D02*
X65714285Y-79581009D01*
X65714285Y-79581009D02*
X65761904Y-79628628D01*
X65761904Y-79628628D02*
X65809523Y-79723866D01*
X65809523Y-79723866D02*
X65809523Y-79914342D01*
X65809523Y-79914342D02*
X65761904Y-80009580D01*
X65761904Y-80009580D02*
X65714285Y-80057200D01*
X65714285Y-80057200D02*
X65619047Y-80104819D01*
X65619047Y-80104819D02*
X65428571Y-80104819D01*
X65428571Y-80104819D02*
X65333333Y-80057200D01*
X65333333Y-80057200D02*
X65285714Y-80009580D01*
X65285714Y-80009580D02*
X65238095Y-79914342D01*
X65238095Y-79914342D02*
X65238095Y-79723866D01*
X65238095Y-79723866D02*
X65285714Y-79628628D01*
X65285714Y-79628628D02*
X65333333Y-79581009D01*
X65333333Y-79581009D02*
X65428571Y-79533390D01*
X51142857Y-80009580D02*
X51190476Y-80057200D01*
X51190476Y-80057200D02*
X51333333Y-80104819D01*
X51333333Y-80104819D02*
X51428571Y-80104819D01*
X51428571Y-80104819D02*
X51571428Y-80057200D01*
X51571428Y-80057200D02*
X51666666Y-79961961D01*
X51666666Y-79961961D02*
X51714285Y-79866723D01*
X51714285Y-79866723D02*
X51761904Y-79676247D01*
X51761904Y-79676247D02*
X51761904Y-79533390D01*
X51761904Y-79533390D02*
X51714285Y-79342914D01*
X51714285Y-79342914D02*
X51666666Y-79247676D01*
X51666666Y-79247676D02*
X51571428Y-79152438D01*
X51571428Y-79152438D02*
X51428571Y-79104819D01*
X51428571Y-79104819D02*
X51333333Y-79104819D01*
X51333333Y-79104819D02*
X51190476Y-79152438D01*
X51190476Y-79152438D02*
X51142857Y-79200057D01*
X50190476Y-80104819D02*
X50761904Y-80104819D01*
X50476190Y-80104819D02*
X50476190Y-79104819D01*
X50476190Y-79104819D02*
X50571428Y-79247676D01*
X50571428Y-79247676D02*
X50666666Y-79342914D01*
X50666666Y-79342914D02*
X50761904Y-79390533D01*
X49857142Y-79104819D02*
X49190476Y-79104819D01*
X49190476Y-79104819D02*
X49619047Y-80104819D01*
X35142857Y-80009580D02*
X35190476Y-80057200D01*
X35190476Y-80057200D02*
X35333333Y-80104819D01*
X35333333Y-80104819D02*
X35428571Y-80104819D01*
X35428571Y-80104819D02*
X35571428Y-80057200D01*
X35571428Y-80057200D02*
X35666666Y-79961961D01*
X35666666Y-79961961D02*
X35714285Y-79866723D01*
X35714285Y-79866723D02*
X35761904Y-79676247D01*
X35761904Y-79676247D02*
X35761904Y-79533390D01*
X35761904Y-79533390D02*
X35714285Y-79342914D01*
X35714285Y-79342914D02*
X35666666Y-79247676D01*
X35666666Y-79247676D02*
X35571428Y-79152438D01*
X35571428Y-79152438D02*
X35428571Y-79104819D01*
X35428571Y-79104819D02*
X35333333Y-79104819D01*
X35333333Y-79104819D02*
X35190476Y-79152438D01*
X35190476Y-79152438D02*
X35142857Y-79200057D01*
X34190476Y-80104819D02*
X34761904Y-80104819D01*
X34476190Y-80104819D02*
X34476190Y-79104819D01*
X34476190Y-79104819D02*
X34571428Y-79247676D01*
X34571428Y-79247676D02*
X34666666Y-79342914D01*
X34666666Y-79342914D02*
X34761904Y-79390533D01*
X33333333Y-79104819D02*
X33523809Y-79104819D01*
X33523809Y-79104819D02*
X33619047Y-79152438D01*
X33619047Y-79152438D02*
X33666666Y-79200057D01*
X33666666Y-79200057D02*
X33761904Y-79342914D01*
X33761904Y-79342914D02*
X33809523Y-79533390D01*
X33809523Y-79533390D02*
X33809523Y-79914342D01*
X33809523Y-79914342D02*
X33761904Y-80009580D01*
X33761904Y-80009580D02*
X33714285Y-80057200D01*
X33714285Y-80057200D02*
X33619047Y-80104819D01*
X33619047Y-80104819D02*
X33428571Y-80104819D01*
X33428571Y-80104819D02*
X33333333Y-80057200D01*
X33333333Y-80057200D02*
X33285714Y-80009580D01*
X33285714Y-80009580D02*
X33238095Y-79914342D01*
X33238095Y-79914342D02*
X33238095Y-79676247D01*
X33238095Y-79676247D02*
X33285714Y-79581009D01*
X33285714Y-79581009D02*
X33333333Y-79533390D01*
X33333333Y-79533390D02*
X33428571Y-79485771D01*
X33428571Y-79485771D02*
X33619047Y-79485771D01*
X33619047Y-79485771D02*
X33714285Y-79533390D01*
X33714285Y-79533390D02*
X33761904Y-79581009D01*
X33761904Y-79581009D02*
X33809523Y-79676247D01*
X99142857Y-65009580D02*
X99190476Y-65057200D01*
X99190476Y-65057200D02*
X99333333Y-65104819D01*
X99333333Y-65104819D02*
X99428571Y-65104819D01*
X99428571Y-65104819D02*
X99571428Y-65057200D01*
X99571428Y-65057200D02*
X99666666Y-64961961D01*
X99666666Y-64961961D02*
X99714285Y-64866723D01*
X99714285Y-64866723D02*
X99761904Y-64676247D01*
X99761904Y-64676247D02*
X99761904Y-64533390D01*
X99761904Y-64533390D02*
X99714285Y-64342914D01*
X99714285Y-64342914D02*
X99666666Y-64247676D01*
X99666666Y-64247676D02*
X99571428Y-64152438D01*
X99571428Y-64152438D02*
X99428571Y-64104819D01*
X99428571Y-64104819D02*
X99333333Y-64104819D01*
X99333333Y-64104819D02*
X99190476Y-64152438D01*
X99190476Y-64152438D02*
X99142857Y-64200057D01*
X98190476Y-65104819D02*
X98761904Y-65104819D01*
X98476190Y-65104819D02*
X98476190Y-64104819D01*
X98476190Y-64104819D02*
X98571428Y-64247676D01*
X98571428Y-64247676D02*
X98666666Y-64342914D01*
X98666666Y-64342914D02*
X98761904Y-64390533D01*
X97285714Y-64104819D02*
X97761904Y-64104819D01*
X97761904Y-64104819D02*
X97809523Y-64581009D01*
X97809523Y-64581009D02*
X97761904Y-64533390D01*
X97761904Y-64533390D02*
X97666666Y-64485771D01*
X97666666Y-64485771D02*
X97428571Y-64485771D01*
X97428571Y-64485771D02*
X97333333Y-64533390D01*
X97333333Y-64533390D02*
X97285714Y-64581009D01*
X97285714Y-64581009D02*
X97238095Y-64676247D01*
X97238095Y-64676247D02*
X97238095Y-64914342D01*
X97238095Y-64914342D02*
X97285714Y-65009580D01*
X97285714Y-65009580D02*
X97333333Y-65057200D01*
X97333333Y-65057200D02*
X97428571Y-65104819D01*
X97428571Y-65104819D02*
X97666666Y-65104819D01*
X97666666Y-65104819D02*
X97761904Y-65057200D01*
X97761904Y-65057200D02*
X97809523Y-65009580D01*
X83142857Y-65009580D02*
X83190476Y-65057200D01*
X83190476Y-65057200D02*
X83333333Y-65104819D01*
X83333333Y-65104819D02*
X83428571Y-65104819D01*
X83428571Y-65104819D02*
X83571428Y-65057200D01*
X83571428Y-65057200D02*
X83666666Y-64961961D01*
X83666666Y-64961961D02*
X83714285Y-64866723D01*
X83714285Y-64866723D02*
X83761904Y-64676247D01*
X83761904Y-64676247D02*
X83761904Y-64533390D01*
X83761904Y-64533390D02*
X83714285Y-64342914D01*
X83714285Y-64342914D02*
X83666666Y-64247676D01*
X83666666Y-64247676D02*
X83571428Y-64152438D01*
X83571428Y-64152438D02*
X83428571Y-64104819D01*
X83428571Y-64104819D02*
X83333333Y-64104819D01*
X83333333Y-64104819D02*
X83190476Y-64152438D01*
X83190476Y-64152438D02*
X83142857Y-64200057D01*
X82190476Y-65104819D02*
X82761904Y-65104819D01*
X82476190Y-65104819D02*
X82476190Y-64104819D01*
X82476190Y-64104819D02*
X82571428Y-64247676D01*
X82571428Y-64247676D02*
X82666666Y-64342914D01*
X82666666Y-64342914D02*
X82761904Y-64390533D01*
X81333333Y-64438152D02*
X81333333Y-65104819D01*
X81571428Y-64057200D02*
X81809523Y-64771485D01*
X81809523Y-64771485D02*
X81190476Y-64771485D01*
X67142857Y-65009580D02*
X67190476Y-65057200D01*
X67190476Y-65057200D02*
X67333333Y-65104819D01*
X67333333Y-65104819D02*
X67428571Y-65104819D01*
X67428571Y-65104819D02*
X67571428Y-65057200D01*
X67571428Y-65057200D02*
X67666666Y-64961961D01*
X67666666Y-64961961D02*
X67714285Y-64866723D01*
X67714285Y-64866723D02*
X67761904Y-64676247D01*
X67761904Y-64676247D02*
X67761904Y-64533390D01*
X67761904Y-64533390D02*
X67714285Y-64342914D01*
X67714285Y-64342914D02*
X67666666Y-64247676D01*
X67666666Y-64247676D02*
X67571428Y-64152438D01*
X67571428Y-64152438D02*
X67428571Y-64104819D01*
X67428571Y-64104819D02*
X67333333Y-64104819D01*
X67333333Y-64104819D02*
X67190476Y-64152438D01*
X67190476Y-64152438D02*
X67142857Y-64200057D01*
X66190476Y-65104819D02*
X66761904Y-65104819D01*
X66476190Y-65104819D02*
X66476190Y-64104819D01*
X66476190Y-64104819D02*
X66571428Y-64247676D01*
X66571428Y-64247676D02*
X66666666Y-64342914D01*
X66666666Y-64342914D02*
X66761904Y-64390533D01*
X65857142Y-64104819D02*
X65238095Y-64104819D01*
X65238095Y-64104819D02*
X65571428Y-64485771D01*
X65571428Y-64485771D02*
X65428571Y-64485771D01*
X65428571Y-64485771D02*
X65333333Y-64533390D01*
X65333333Y-64533390D02*
X65285714Y-64581009D01*
X65285714Y-64581009D02*
X65238095Y-64676247D01*
X65238095Y-64676247D02*
X65238095Y-64914342D01*
X65238095Y-64914342D02*
X65285714Y-65009580D01*
X65285714Y-65009580D02*
X65333333Y-65057200D01*
X65333333Y-65057200D02*
X65428571Y-65104819D01*
X65428571Y-65104819D02*
X65714285Y-65104819D01*
X65714285Y-65104819D02*
X65809523Y-65057200D01*
X65809523Y-65057200D02*
X65857142Y-65009580D01*
X51142857Y-65009580D02*
X51190476Y-65057200D01*
X51190476Y-65057200D02*
X51333333Y-65104819D01*
X51333333Y-65104819D02*
X51428571Y-65104819D01*
X51428571Y-65104819D02*
X51571428Y-65057200D01*
X51571428Y-65057200D02*
X51666666Y-64961961D01*
X51666666Y-64961961D02*
X51714285Y-64866723D01*
X51714285Y-64866723D02*
X51761904Y-64676247D01*
X51761904Y-64676247D02*
X51761904Y-64533390D01*
X51761904Y-64533390D02*
X51714285Y-64342914D01*
X51714285Y-64342914D02*
X51666666Y-64247676D01*
X51666666Y-64247676D02*
X51571428Y-64152438D01*
X51571428Y-64152438D02*
X51428571Y-64104819D01*
X51428571Y-64104819D02*
X51333333Y-64104819D01*
X51333333Y-64104819D02*
X51190476Y-64152438D01*
X51190476Y-64152438D02*
X51142857Y-64200057D01*
X50190476Y-65104819D02*
X50761904Y-65104819D01*
X50476190Y-65104819D02*
X50476190Y-64104819D01*
X50476190Y-64104819D02*
X50571428Y-64247676D01*
X50571428Y-64247676D02*
X50666666Y-64342914D01*
X50666666Y-64342914D02*
X50761904Y-64390533D01*
X49809523Y-64200057D02*
X49761904Y-64152438D01*
X49761904Y-64152438D02*
X49666666Y-64104819D01*
X49666666Y-64104819D02*
X49428571Y-64104819D01*
X49428571Y-64104819D02*
X49333333Y-64152438D01*
X49333333Y-64152438D02*
X49285714Y-64200057D01*
X49285714Y-64200057D02*
X49238095Y-64295295D01*
X49238095Y-64295295D02*
X49238095Y-64390533D01*
X49238095Y-64390533D02*
X49285714Y-64533390D01*
X49285714Y-64533390D02*
X49857142Y-65104819D01*
X49857142Y-65104819D02*
X49238095Y-65104819D01*
X35142857Y-65009580D02*
X35190476Y-65057200D01*
X35190476Y-65057200D02*
X35333333Y-65104819D01*
X35333333Y-65104819D02*
X35428571Y-65104819D01*
X35428571Y-65104819D02*
X35571428Y-65057200D01*
X35571428Y-65057200D02*
X35666666Y-64961961D01*
X35666666Y-64961961D02*
X35714285Y-64866723D01*
X35714285Y-64866723D02*
X35761904Y-64676247D01*
X35761904Y-64676247D02*
X35761904Y-64533390D01*
X35761904Y-64533390D02*
X35714285Y-64342914D01*
X35714285Y-64342914D02*
X35666666Y-64247676D01*
X35666666Y-64247676D02*
X35571428Y-64152438D01*
X35571428Y-64152438D02*
X35428571Y-64104819D01*
X35428571Y-64104819D02*
X35333333Y-64104819D01*
X35333333Y-64104819D02*
X35190476Y-64152438D01*
X35190476Y-64152438D02*
X35142857Y-64200057D01*
X34190476Y-65104819D02*
X34761904Y-65104819D01*
X34476190Y-65104819D02*
X34476190Y-64104819D01*
X34476190Y-64104819D02*
X34571428Y-64247676D01*
X34571428Y-64247676D02*
X34666666Y-64342914D01*
X34666666Y-64342914D02*
X34761904Y-64390533D01*
X33238095Y-65104819D02*
X33809523Y-65104819D01*
X33523809Y-65104819D02*
X33523809Y-64104819D01*
X33523809Y-64104819D02*
X33619047Y-64247676D01*
X33619047Y-64247676D02*
X33714285Y-64342914D01*
X33714285Y-64342914D02*
X33809523Y-64390533D01*
X99142857Y-49909580D02*
X99190476Y-49957200D01*
X99190476Y-49957200D02*
X99333333Y-50004819D01*
X99333333Y-50004819D02*
X99428571Y-50004819D01*
X99428571Y-50004819D02*
X99571428Y-49957200D01*
X99571428Y-49957200D02*
X99666666Y-49861961D01*
X99666666Y-49861961D02*
X99714285Y-49766723D01*
X99714285Y-49766723D02*
X99761904Y-49576247D01*
X99761904Y-49576247D02*
X99761904Y-49433390D01*
X99761904Y-49433390D02*
X99714285Y-49242914D01*
X99714285Y-49242914D02*
X99666666Y-49147676D01*
X99666666Y-49147676D02*
X99571428Y-49052438D01*
X99571428Y-49052438D02*
X99428571Y-49004819D01*
X99428571Y-49004819D02*
X99333333Y-49004819D01*
X99333333Y-49004819D02*
X99190476Y-49052438D01*
X99190476Y-49052438D02*
X99142857Y-49100057D01*
X98190476Y-50004819D02*
X98761904Y-50004819D01*
X98476190Y-50004819D02*
X98476190Y-49004819D01*
X98476190Y-49004819D02*
X98571428Y-49147676D01*
X98571428Y-49147676D02*
X98666666Y-49242914D01*
X98666666Y-49242914D02*
X98761904Y-49290533D01*
X97571428Y-49004819D02*
X97476190Y-49004819D01*
X97476190Y-49004819D02*
X97380952Y-49052438D01*
X97380952Y-49052438D02*
X97333333Y-49100057D01*
X97333333Y-49100057D02*
X97285714Y-49195295D01*
X97285714Y-49195295D02*
X97238095Y-49385771D01*
X97238095Y-49385771D02*
X97238095Y-49623866D01*
X97238095Y-49623866D02*
X97285714Y-49814342D01*
X97285714Y-49814342D02*
X97333333Y-49909580D01*
X97333333Y-49909580D02*
X97380952Y-49957200D01*
X97380952Y-49957200D02*
X97476190Y-50004819D01*
X97476190Y-50004819D02*
X97571428Y-50004819D01*
X97571428Y-50004819D02*
X97666666Y-49957200D01*
X97666666Y-49957200D02*
X97714285Y-49909580D01*
X97714285Y-49909580D02*
X97761904Y-49814342D01*
X97761904Y-49814342D02*
X97809523Y-49623866D01*
X97809523Y-49623866D02*
X97809523Y-49385771D01*
X97809523Y-49385771D02*
X97761904Y-49195295D01*
X97761904Y-49195295D02*
X97714285Y-49100057D01*
X97714285Y-49100057D02*
X97666666Y-49052438D01*
X97666666Y-49052438D02*
X97571428Y-49004819D01*
X82666666Y-49909580D02*
X82714285Y-49957200D01*
X82714285Y-49957200D02*
X82857142Y-50004819D01*
X82857142Y-50004819D02*
X82952380Y-50004819D01*
X82952380Y-50004819D02*
X83095237Y-49957200D01*
X83095237Y-49957200D02*
X83190475Y-49861961D01*
X83190475Y-49861961D02*
X83238094Y-49766723D01*
X83238094Y-49766723D02*
X83285713Y-49576247D01*
X83285713Y-49576247D02*
X83285713Y-49433390D01*
X83285713Y-49433390D02*
X83238094Y-49242914D01*
X83238094Y-49242914D02*
X83190475Y-49147676D01*
X83190475Y-49147676D02*
X83095237Y-49052438D01*
X83095237Y-49052438D02*
X82952380Y-49004819D01*
X82952380Y-49004819D02*
X82857142Y-49004819D01*
X82857142Y-49004819D02*
X82714285Y-49052438D01*
X82714285Y-49052438D02*
X82666666Y-49100057D01*
X82190475Y-50004819D02*
X81999999Y-50004819D01*
X81999999Y-50004819D02*
X81904761Y-49957200D01*
X81904761Y-49957200D02*
X81857142Y-49909580D01*
X81857142Y-49909580D02*
X81761904Y-49766723D01*
X81761904Y-49766723D02*
X81714285Y-49576247D01*
X81714285Y-49576247D02*
X81714285Y-49195295D01*
X81714285Y-49195295D02*
X81761904Y-49100057D01*
X81761904Y-49100057D02*
X81809523Y-49052438D01*
X81809523Y-49052438D02*
X81904761Y-49004819D01*
X81904761Y-49004819D02*
X82095237Y-49004819D01*
X82095237Y-49004819D02*
X82190475Y-49052438D01*
X82190475Y-49052438D02*
X82238094Y-49100057D01*
X82238094Y-49100057D02*
X82285713Y-49195295D01*
X82285713Y-49195295D02*
X82285713Y-49433390D01*
X82285713Y-49433390D02*
X82238094Y-49528628D01*
X82238094Y-49528628D02*
X82190475Y-49576247D01*
X82190475Y-49576247D02*
X82095237Y-49623866D01*
X82095237Y-49623866D02*
X81904761Y-49623866D01*
X81904761Y-49623866D02*
X81809523Y-49576247D01*
X81809523Y-49576247D02*
X81761904Y-49528628D01*
X81761904Y-49528628D02*
X81714285Y-49433390D01*
X66666666Y-49909580D02*
X66714285Y-49957200D01*
X66714285Y-49957200D02*
X66857142Y-50004819D01*
X66857142Y-50004819D02*
X66952380Y-50004819D01*
X66952380Y-50004819D02*
X67095237Y-49957200D01*
X67095237Y-49957200D02*
X67190475Y-49861961D01*
X67190475Y-49861961D02*
X67238094Y-49766723D01*
X67238094Y-49766723D02*
X67285713Y-49576247D01*
X67285713Y-49576247D02*
X67285713Y-49433390D01*
X67285713Y-49433390D02*
X67238094Y-49242914D01*
X67238094Y-49242914D02*
X67190475Y-49147676D01*
X67190475Y-49147676D02*
X67095237Y-49052438D01*
X67095237Y-49052438D02*
X66952380Y-49004819D01*
X66952380Y-49004819D02*
X66857142Y-49004819D01*
X66857142Y-49004819D02*
X66714285Y-49052438D01*
X66714285Y-49052438D02*
X66666666Y-49100057D01*
X66095237Y-49433390D02*
X66190475Y-49385771D01*
X66190475Y-49385771D02*
X66238094Y-49338152D01*
X66238094Y-49338152D02*
X66285713Y-49242914D01*
X66285713Y-49242914D02*
X66285713Y-49195295D01*
X66285713Y-49195295D02*
X66238094Y-49100057D01*
X66238094Y-49100057D02*
X66190475Y-49052438D01*
X66190475Y-49052438D02*
X66095237Y-49004819D01*
X66095237Y-49004819D02*
X65904761Y-49004819D01*
X65904761Y-49004819D02*
X65809523Y-49052438D01*
X65809523Y-49052438D02*
X65761904Y-49100057D01*
X65761904Y-49100057D02*
X65714285Y-49195295D01*
X65714285Y-49195295D02*
X65714285Y-49242914D01*
X65714285Y-49242914D02*
X65761904Y-49338152D01*
X65761904Y-49338152D02*
X65809523Y-49385771D01*
X65809523Y-49385771D02*
X65904761Y-49433390D01*
X65904761Y-49433390D02*
X66095237Y-49433390D01*
X66095237Y-49433390D02*
X66190475Y-49481009D01*
X66190475Y-49481009D02*
X66238094Y-49528628D01*
X66238094Y-49528628D02*
X66285713Y-49623866D01*
X66285713Y-49623866D02*
X66285713Y-49814342D01*
X66285713Y-49814342D02*
X66238094Y-49909580D01*
X66238094Y-49909580D02*
X66190475Y-49957200D01*
X66190475Y-49957200D02*
X66095237Y-50004819D01*
X66095237Y-50004819D02*
X65904761Y-50004819D01*
X65904761Y-50004819D02*
X65809523Y-49957200D01*
X65809523Y-49957200D02*
X65761904Y-49909580D01*
X65761904Y-49909580D02*
X65714285Y-49814342D01*
X65714285Y-49814342D02*
X65714285Y-49623866D01*
X65714285Y-49623866D02*
X65761904Y-49528628D01*
X65761904Y-49528628D02*
X65809523Y-49481009D01*
X65809523Y-49481009D02*
X65904761Y-49433390D01*
X50666666Y-49909580D02*
X50714285Y-49957200D01*
X50714285Y-49957200D02*
X50857142Y-50004819D01*
X50857142Y-50004819D02*
X50952380Y-50004819D01*
X50952380Y-50004819D02*
X51095237Y-49957200D01*
X51095237Y-49957200D02*
X51190475Y-49861961D01*
X51190475Y-49861961D02*
X51238094Y-49766723D01*
X51238094Y-49766723D02*
X51285713Y-49576247D01*
X51285713Y-49576247D02*
X51285713Y-49433390D01*
X51285713Y-49433390D02*
X51238094Y-49242914D01*
X51238094Y-49242914D02*
X51190475Y-49147676D01*
X51190475Y-49147676D02*
X51095237Y-49052438D01*
X51095237Y-49052438D02*
X50952380Y-49004819D01*
X50952380Y-49004819D02*
X50857142Y-49004819D01*
X50857142Y-49004819D02*
X50714285Y-49052438D01*
X50714285Y-49052438D02*
X50666666Y-49100057D01*
X50333332Y-49004819D02*
X49666666Y-49004819D01*
X49666666Y-49004819D02*
X50095237Y-50004819D01*
X34666666Y-49909580D02*
X34714285Y-49957200D01*
X34714285Y-49957200D02*
X34857142Y-50004819D01*
X34857142Y-50004819D02*
X34952380Y-50004819D01*
X34952380Y-50004819D02*
X35095237Y-49957200D01*
X35095237Y-49957200D02*
X35190475Y-49861961D01*
X35190475Y-49861961D02*
X35238094Y-49766723D01*
X35238094Y-49766723D02*
X35285713Y-49576247D01*
X35285713Y-49576247D02*
X35285713Y-49433390D01*
X35285713Y-49433390D02*
X35238094Y-49242914D01*
X35238094Y-49242914D02*
X35190475Y-49147676D01*
X35190475Y-49147676D02*
X35095237Y-49052438D01*
X35095237Y-49052438D02*
X34952380Y-49004819D01*
X34952380Y-49004819D02*
X34857142Y-49004819D01*
X34857142Y-49004819D02*
X34714285Y-49052438D01*
X34714285Y-49052438D02*
X34666666Y-49100057D01*
X33809523Y-49004819D02*
X33999999Y-49004819D01*
X33999999Y-49004819D02*
X34095237Y-49052438D01*
X34095237Y-49052438D02*
X34142856Y-49100057D01*
X34142856Y-49100057D02*
X34238094Y-49242914D01*
X34238094Y-49242914D02*
X34285713Y-49433390D01*
X34285713Y-49433390D02*
X34285713Y-49814342D01*
X34285713Y-49814342D02*
X34238094Y-49909580D01*
X34238094Y-49909580D02*
X34190475Y-49957200D01*
X34190475Y-49957200D02*
X34095237Y-50004819D01*
X34095237Y-50004819D02*
X33904761Y-50004819D01*
X33904761Y-50004819D02*
X33809523Y-49957200D01*
X33809523Y-49957200D02*
X33761904Y-49909580D01*
X33761904Y-49909580D02*
X33714285Y-49814342D01*
X33714285Y-49814342D02*
X33714285Y-49576247D01*
X33714285Y-49576247D02*
X33761904Y-49481009D01*
X33761904Y-49481009D02*
X33809523Y-49433390D01*
X33809523Y-49433390D02*
X33904761Y-49385771D01*
X33904761Y-49385771D02*
X34095237Y-49385771D01*
X34095237Y-49385771D02*
X34190475Y-49433390D01*
X34190475Y-49433390D02*
X34238094Y-49481009D01*
X34238094Y-49481009D02*
X34285713Y-49576247D01*
X98666666Y-32009580D02*
X98714285Y-32057200D01*
X98714285Y-32057200D02*
X98857142Y-32104819D01*
X98857142Y-32104819D02*
X98952380Y-32104819D01*
X98952380Y-32104819D02*
X99095237Y-32057200D01*
X99095237Y-32057200D02*
X99190475Y-31961961D01*
X99190475Y-31961961D02*
X99238094Y-31866723D01*
X99238094Y-31866723D02*
X99285713Y-31676247D01*
X99285713Y-31676247D02*
X99285713Y-31533390D01*
X99285713Y-31533390D02*
X99238094Y-31342914D01*
X99238094Y-31342914D02*
X99190475Y-31247676D01*
X99190475Y-31247676D02*
X99095237Y-31152438D01*
X99095237Y-31152438D02*
X98952380Y-31104819D01*
X98952380Y-31104819D02*
X98857142Y-31104819D01*
X98857142Y-31104819D02*
X98714285Y-31152438D01*
X98714285Y-31152438D02*
X98666666Y-31200057D01*
X97761904Y-31104819D02*
X98238094Y-31104819D01*
X98238094Y-31104819D02*
X98285713Y-31581009D01*
X98285713Y-31581009D02*
X98238094Y-31533390D01*
X98238094Y-31533390D02*
X98142856Y-31485771D01*
X98142856Y-31485771D02*
X97904761Y-31485771D01*
X97904761Y-31485771D02*
X97809523Y-31533390D01*
X97809523Y-31533390D02*
X97761904Y-31581009D01*
X97761904Y-31581009D02*
X97714285Y-31676247D01*
X97714285Y-31676247D02*
X97714285Y-31914342D01*
X97714285Y-31914342D02*
X97761904Y-32009580D01*
X97761904Y-32009580D02*
X97809523Y-32057200D01*
X97809523Y-32057200D02*
X97904761Y-32104819D01*
X97904761Y-32104819D02*
X98142856Y-32104819D01*
X98142856Y-32104819D02*
X98238094Y-32057200D01*
X98238094Y-32057200D02*
X98285713Y-32009580D01*
X82666666Y-32009580D02*
X82714285Y-32057200D01*
X82714285Y-32057200D02*
X82857142Y-32104819D01*
X82857142Y-32104819D02*
X82952380Y-32104819D01*
X82952380Y-32104819D02*
X83095237Y-32057200D01*
X83095237Y-32057200D02*
X83190475Y-31961961D01*
X83190475Y-31961961D02*
X83238094Y-31866723D01*
X83238094Y-31866723D02*
X83285713Y-31676247D01*
X83285713Y-31676247D02*
X83285713Y-31533390D01*
X83285713Y-31533390D02*
X83238094Y-31342914D01*
X83238094Y-31342914D02*
X83190475Y-31247676D01*
X83190475Y-31247676D02*
X83095237Y-31152438D01*
X83095237Y-31152438D02*
X82952380Y-31104819D01*
X82952380Y-31104819D02*
X82857142Y-31104819D01*
X82857142Y-31104819D02*
X82714285Y-31152438D01*
X82714285Y-31152438D02*
X82666666Y-31200057D01*
X81809523Y-31438152D02*
X81809523Y-32104819D01*
X82047618Y-31057200D02*
X82285713Y-31771485D01*
X82285713Y-31771485D02*
X81666666Y-31771485D01*
X66666666Y-32009580D02*
X66714285Y-32057200D01*
X66714285Y-32057200D02*
X66857142Y-32104819D01*
X66857142Y-32104819D02*
X66952380Y-32104819D01*
X66952380Y-32104819D02*
X67095237Y-32057200D01*
X67095237Y-32057200D02*
X67190475Y-31961961D01*
X67190475Y-31961961D02*
X67238094Y-31866723D01*
X67238094Y-31866723D02*
X67285713Y-31676247D01*
X67285713Y-31676247D02*
X67285713Y-31533390D01*
X67285713Y-31533390D02*
X67238094Y-31342914D01*
X67238094Y-31342914D02*
X67190475Y-31247676D01*
X67190475Y-31247676D02*
X67095237Y-31152438D01*
X67095237Y-31152438D02*
X66952380Y-31104819D01*
X66952380Y-31104819D02*
X66857142Y-31104819D01*
X66857142Y-31104819D02*
X66714285Y-31152438D01*
X66714285Y-31152438D02*
X66666666Y-31200057D01*
X66333332Y-31104819D02*
X65714285Y-31104819D01*
X65714285Y-31104819D02*
X66047618Y-31485771D01*
X66047618Y-31485771D02*
X65904761Y-31485771D01*
X65904761Y-31485771D02*
X65809523Y-31533390D01*
X65809523Y-31533390D02*
X65761904Y-31581009D01*
X65761904Y-31581009D02*
X65714285Y-31676247D01*
X65714285Y-31676247D02*
X65714285Y-31914342D01*
X65714285Y-31914342D02*
X65761904Y-32009580D01*
X65761904Y-32009580D02*
X65809523Y-32057200D01*
X65809523Y-32057200D02*
X65904761Y-32104819D01*
X65904761Y-32104819D02*
X66190475Y-32104819D01*
X66190475Y-32104819D02*
X66285713Y-32057200D01*
X66285713Y-32057200D02*
X66333332Y-32009580D01*
X50666666Y-32009580D02*
X50714285Y-32057200D01*
X50714285Y-32057200D02*
X50857142Y-32104819D01*
X50857142Y-32104819D02*
X50952380Y-32104819D01*
X50952380Y-32104819D02*
X51095237Y-32057200D01*
X51095237Y-32057200D02*
X51190475Y-31961961D01*
X51190475Y-31961961D02*
X51238094Y-31866723D01*
X51238094Y-31866723D02*
X51285713Y-31676247D01*
X51285713Y-31676247D02*
X51285713Y-31533390D01*
X51285713Y-31533390D02*
X51238094Y-31342914D01*
X51238094Y-31342914D02*
X51190475Y-31247676D01*
X51190475Y-31247676D02*
X51095237Y-31152438D01*
X51095237Y-31152438D02*
X50952380Y-31104819D01*
X50952380Y-31104819D02*
X50857142Y-31104819D01*
X50857142Y-31104819D02*
X50714285Y-31152438D01*
X50714285Y-31152438D02*
X50666666Y-31200057D01*
X50285713Y-31200057D02*
X50238094Y-31152438D01*
X50238094Y-31152438D02*
X50142856Y-31104819D01*
X50142856Y-31104819D02*
X49904761Y-31104819D01*
X49904761Y-31104819D02*
X49809523Y-31152438D01*
X49809523Y-31152438D02*
X49761904Y-31200057D01*
X49761904Y-31200057D02*
X49714285Y-31295295D01*
X49714285Y-31295295D02*
X49714285Y-31390533D01*
X49714285Y-31390533D02*
X49761904Y-31533390D01*
X49761904Y-31533390D02*
X50333332Y-32104819D01*
X50333332Y-32104819D02*
X49714285Y-32104819D01*
X34666666Y-32009580D02*
X34714285Y-32057200D01*
X34714285Y-32057200D02*
X34857142Y-32104819D01*
X34857142Y-32104819D02*
X34952380Y-32104819D01*
X34952380Y-32104819D02*
X35095237Y-32057200D01*
X35095237Y-32057200D02*
X35190475Y-31961961D01*
X35190475Y-31961961D02*
X35238094Y-31866723D01*
X35238094Y-31866723D02*
X35285713Y-31676247D01*
X35285713Y-31676247D02*
X35285713Y-31533390D01*
X35285713Y-31533390D02*
X35238094Y-31342914D01*
X35238094Y-31342914D02*
X35190475Y-31247676D01*
X35190475Y-31247676D02*
X35095237Y-31152438D01*
X35095237Y-31152438D02*
X34952380Y-31104819D01*
X34952380Y-31104819D02*
X34857142Y-31104819D01*
X34857142Y-31104819D02*
X34714285Y-31152438D01*
X34714285Y-31152438D02*
X34666666Y-31200057D01*
X33714285Y-32104819D02*
X34285713Y-32104819D01*
X33999999Y-32104819D02*
X33999999Y-31104819D01*
X33999999Y-31104819D02*
X34095237Y-31247676D01*
X34095237Y-31247676D02*
X34190475Y-31342914D01*
X34190475Y-31342914D02*
X34285713Y-31390533D01*
M02*
